<?xml version="1.0" encoding="UTF-8"?>
<svg id="Layer_1" xmlns="http://www.w3.org/2000/svg" xmlns:xlink="http://www.w3.org/1999/xlink" viewBox="0 0 1235 323">
  <defs>
    <style>
      .cls-1 {
        fill: url(#New_Gradient_Swatch_4-6);
      }

      .cls-2 {
        fill: url(#New_Gradient_Swatch_4-9);
      }

      .cls-3 {
        fill: url(#New_Gradient_Swatch_4-8);
      }

      .cls-4 {
        fill: url(#New_Gradient_Swatch_4-7);
      }

      .cls-5 {
        fill: url(#New_Gradient_Swatch_4-5);
      }

      .cls-6 {
        fill: url(#New_Gradient_Swatch_4-3);
      }

      .cls-7 {
        fill: url(#New_Gradient_Swatch_4-4);
      }

      .cls-8 {
        fill: url(#New_Gradient_Swatch_4-2);
      }

      .cls-9 {
        fill: url(#New_Gradient_Swatch_4);
      }

      .cls-10 {
        fill: url(#New_Gradient_Swatch_4-10);
      }
    </style>
    <linearGradient id="New_Gradient_Swatch_4" data-name="New Gradient Swatch 4" x1="859.75" y1="161.5" x2="935.75" y2="161.5" gradientUnits="userSpaceOnUse">
      <stop offset="0" stop-color="#ff8933"/>
      <stop offset="1" stop-color="#ff312d"/>
    </linearGradient>
    <linearGradient id="New_Gradient_Swatch_4-2" data-name="New Gradient Swatch 4" x1="954.75" x2="1030.75" xlink:href="#New_Gradient_Swatch_4"/>
    <linearGradient id="New_Gradient_Swatch_4-3" data-name="New Gradient Swatch 4" x1="650.75" x2="736.25" xlink:href="#New_Gradient_Swatch_4"/>
    <linearGradient id="New_Gradient_Swatch_4-4" data-name="New Gradient Swatch 4" x1="109.25" x2="194.75" xlink:href="#New_Gradient_Swatch_4"/>
    <linearGradient id="New_Gradient_Swatch_4-5" data-name="New Gradient Swatch 4" x1="755.24" x2="840.74" xlink:href="#New_Gradient_Swatch_4"/>
    <linearGradient id="New_Gradient_Swatch_4-6" data-name="New Gradient Swatch 4" x1="308.75" x2="384.75" xlink:href="#New_Gradient_Swatch_4"/>
    <linearGradient id="New_Gradient_Swatch_4-7" data-name="New Gradient Swatch 4" x1="213.75" x2="289.75" xlink:href="#New_Gradient_Swatch_4"/>
    <linearGradient id="New_Gradient_Swatch_4-8" data-name="New Gradient Swatch 4" x1="403.75" x2="479.75" xlink:href="#New_Gradient_Swatch_4"/>
    <linearGradient id="New_Gradient_Swatch_4-9" data-name="New Gradient Swatch 4" x1="1049.75" x2="1125.75" xlink:href="#New_Gradient_Swatch_4"/>
    <linearGradient id="New_Gradient_Swatch_4-10" data-name="New Gradient Swatch 4" x1="555.75" x2="631.75" xlink:href="#New_Gradient_Swatch_4"/>
  </defs>
  <polygon class="cls-9" points="859.75 85.5 935.75 85.5 935.75 142.5 926.25 142.5 916.75 133 916.75 123.5 907.25 123.5 907.25 152 897.75 161.5 907.25 171 907.25 199.5 916.75 209 916.75 237.5 878.75 237.5 878.75 209 888.25 199.5 888.25 171 897.75 161.5 888.25 152 888.25 123.5 878.75 123.5 878.75 133 869.25 142.5 859.75 142.5 859.75 85.5"/>
  <path class="cls-8" d="M1030.75,152v-57.01l-9.5-9.49h-57l-9.49,9.49v57.01l9.49,9.48-9.49,9.51v57l9.49,9.5h57s9.5-9.5,9.5-9.5v-57l-9.5-9.51,9.5-9.48ZM1011.75,199.5h-38.01v-76s38.01,0,38.01,0v76Z"/>
  <path class="cls-6" d="M698.24,237.5h38.01v-28.5s-9.51-9.5-9.51-9.5l-5.31-28.5-9.51-9.49,6.53-6.53-8.45-44.88-3.24-17.23-1.39-7.37h-40.38v28.5s9.5,9.5,9.5,9.5h0l-5.92,31.5,6.57,6.51-9.51,9.49-5.4,28.5-9.5,9.5v28.5h38v-28.5l-9.5-9.5,4.75-28.5h19l4.75,28.5-9.5,9.5v28.5ZM698.25,152h-9.5v-28.5h9.5v28.5Z"/>
  <path class="cls-7" d="M156.75,237.5h38.01v-28.5s-9.51-9.5-9.51-9.5l-5.31-28.5-9.51-9.49,6.53-6.53-8.45-44.88-3.24-17.23-1.39-7.37h-40.38v28.5s9.5,9.5,9.5,9.5h0l-5.92,31.5,6.57,6.51-9.51,9.49-5.4,28.5-9.5,9.5v28.5h38v-28.5l-9.5-9.5,4.75-28.5h19l4.75,28.5-9.5,9.5v28.5ZM156.75,152h-9.5v-28.5h9.5v28.5Z"/>
  <polygon class="cls-5" points="840.74 85.5 812.24 85.5 812.24 152 783.74 85.5 755.24 85.51 755.24 114 764.74 123.5 764.74 152 774.24 161.5 764.74 171 764.74 199.5 755.24 209 755.24 237.5 793.24 237.5 793.24 209 783.74 199.5 783.74 123.5 812.24 190 812.24 199.5 802.74 209 802.74 237.5 840.74 237.5 840.74 209 831.24 199.51 831.24 171 821.74 161.5 831.24 152 831.24 152 831.24 123.49 840.74 114 840.74 85.5"/>
  <polygon class="cls-1" points="375.25 133 365.75 123.5 337.25 123.5 337.25 152 346.74 152 356.25 142.5 365.75 142.5 365.75 152 365.75 161.49 365.75 171 365.75 180.5 356.25 180.5 346.75 171 337.25 171 337.25 199.5 365.75 199.5 375.25 190 384.75 190 384.75 237.5 308.75 237.5 308.75 209 318.25 199.5 318.25 171 327.75 161.5 318.25 152 318.25 123.5 308.76 114 308.76 85.5 384.75 85.5 384.75 133 375.25 133"/>
  <path class="cls-4" d="M280.25,161.51l9.5-9.5v-57.01s-9.5-9.5-9.5-9.5h-66.5v28.5l9.52,9.5v28.5l9.5,9.5-9.5,9.5v28.47l-9.52,9.54v28.48h66.5l9.5-9.48v-57.01s-9.5-9.5-9.5-9.5ZM270.75,199.52h-28.49v-28.5h18.99l9.5,9.5v19ZM270.75,142.51l-9.5,9.5h-18.99v-28.51h28.49v19Z"/>
  <polygon class="cls-3" points="470.25 199.5 460.75 209 441.75 209 432.25 199.5 432.25 171 422.75 161.5 432.25 152 432.25 123.5 441.75 114 441.75 85.5 403.75 85.5 403.75 114 413.25 123.5 413.25 152 422.75 161.5 413.25 171 413.25 199.5 403.75 209 403.75 237.5 479.75 237.5 479.75 199.5 470.25 199.5"/>
  <polygon class="cls-2" points="1125.75 94.98 1125.75 132.99 1116.24 132.99 1106.75 123.49 1068.75 123.49 1068.75 142.49 1116.25 156.75 1125.75 166.25 1125.74 199.51 1125.75 228.02 1116.25 237.5 1059.25 237.5 1049.75 228.02 1049.75 190.01 1059.25 190.01 1068.75 199.51 1106.74 199.51 1106.75 175.75 1059.25 161.5 1049.75 151.99 1049.75 94.98 1059.25 85.5 1116.25 85.5 1125.75 94.98"/>
  <polygon class="cls-10" points="631.74 94.98 631.74 132.99 622.24 132.99 612.75 123.49 574.75 123.49 574.75 142.49 622.25 156.75 631.75 166.25 631.74 199.51 631.74 228.02 622.25 237.5 565.25 237.5 555.75 228.02 555.75 190.01 565.24 190.01 574.74 199.51 612.74 199.51 612.75 175.75 565.25 161.5 555.75 151.99 555.75 94.98 565.25 85.5 622.25 85.5 631.74 94.98"/>
</svg>