<?xml version="1.0" encoding="UTF-8"?>
<svg id="Layer_2" data-name="Layer 2" xmlns="http://www.w3.org/2000/svg" viewBox="0 0 2339.36 1754.52">
  <defs>
    <style>
      .cls-1 {
        fill: #fff;
      }
    </style>
  </defs>
  <g id="Layer_1-2" data-name="Layer 1">
    <g>
      <rect x="0" width="2339.36" height="1754.52"/>
      <g>
        <path class="cls-1" d="M1584.6,718.8c125.79-12.78,219.03,107.93,167.57,224.35-51.9,117.42-218.75,126.66-284.76,16.96-58.37-97,3.28-229.73,117.19-241.31Z"/>
        <path class="cls-1" d="M1129.97,721.38c.19-.76,3.54-3.74,4.27-3.2l77.28,153.73,79.42-153.73,158.88,320.29h-319.84v-317.09Z"/>
        <polygon class="cls-1" points="1093.48 1038.47 769.35 1038.47 930.37 716.05 1093.48 1038.47"/>
        <polygon class="cls-1" points="97.47 1038.47 257.42 718.16 419.46 1038.47 97.47 1038.47"/>
        <polygon class="cls-1" points="1922.05 944.52 1922.05 718.18 1964.98 718.18 1964.98 1038.47 1801.84 1038.47 1801.84 721.38 1806.15 719.21 1922.05 944.52"/>
        <polygon class="cls-1" points="855.21 718.18 694.22 1036.34 694.22 763.02 614.79 763.02 614.79 718.18 855.21 718.18"/>
        <polygon class="cls-1" points="2241.89 718.18 2080.9 1036.34 2080.9 763.02 2001.47 763.02 2001.47 718.18 2241.89 718.18"/>
        <path class="cls-1" d="M657.73,995.77v42.71h-201.78v-317.09c0-.4,3.45-3.8,4.27-3.2l138.48,277.59h59.03Z"/>
      </g>
    </g>
  </g>
</svg>