<?xml version="1.0" encoding="UTF-8"?>
<svg xmlns="http://www.w3.org/2000/svg" xmlns:xlink="http://www.w3.org/1999/xlink" version="1.1" viewBox="0 0 1235 323">
  <defs>
    <style>
      .cls-1 {
        fill: none;
      }

      .cls-2 {
        fill: url(#linear-gradient-8);
      }

      .cls-3 {
        fill: url(#linear-gradient-7);
      }

      .cls-4 {
        fill: url(#linear-gradient-5);
      }

      .cls-5 {
        fill: url(#linear-gradient-6);
      }

      .cls-6 {
        fill: url(#linear-gradient-9);
      }

      .cls-7 {
        fill: url(#linear-gradient-4);
      }

      .cls-8 {
        fill: url(#linear-gradient-3);
      }

      .cls-9 {
        fill: url(#linear-gradient-2);
      }

      .cls-10 {
        fill: url(#linear-gradient);
      }

      .cls-11 {
        isolation: isolate;
      }

      .cls-12 {
        clip-path: url(#clippath-1);
      }

      .cls-13 {
        fill: #ffcb8f;
      }

      .cls-14 {
        fill: url(#linear-gradient-10);
      }

      .cls-15 {
        fill: url(#linear-gradient-11);
      }

      .cls-16 {
        clip-path: url(#clippath);
      }
    </style>
    <linearGradient id="linear-gradient" x1="432.2" y1="162.5" x2="508.2" y2="162.5" gradientTransform="translate(0 324) scale(1 -1)" gradientUnits="userSpaceOnUse">
      <stop offset="0" stop-color="#ff8933"/>
      <stop offset="1" stop-color="#ff312d"/>
    </linearGradient>
    <linearGradient id="linear-gradient-2" x1="926.3" y1="162.5" x2="1002.2" y2="162.5" gradientTransform="translate(0 324) scale(1 -1)" gradientUnits="userSpaceOnUse">
      <stop offset="0" stop-color="#ff8933"/>
      <stop offset="1" stop-color="#ff312d"/>
    </linearGradient>
    <linearGradient id="linear-gradient-3" x1="337.2" y1="162.5" x2="413.2" y2="162.5" gradientTransform="translate(0 324) scale(1 -1)" gradientUnits="userSpaceOnUse">
      <stop offset="0" stop-color="#ff8933"/>
      <stop offset="1" stop-color="#ff312d"/>
    </linearGradient>
    <linearGradient id="linear-gradient-4" x1="527.2" y1="162.5" x2="603.2" y2="162.5" gradientTransform="translate(0 324) scale(1 -1)" gradientUnits="userSpaceOnUse">
      <stop offset="0" stop-color="#ff8933"/>
      <stop offset="1" stop-color="#ff312d"/>
    </linearGradient>
    <linearGradient id="linear-gradient-5" x1="726.7" y1="162.5" x2="802.7" y2="162.5" gradientTransform="translate(0 324) scale(1 -1)" gradientUnits="userSpaceOnUse">
      <stop offset="0" stop-color="#ff8933"/>
      <stop offset="1" stop-color="#ff312d"/>
    </linearGradient>
    <linearGradient id="linear-gradient-6" x1="622.2" y1="162.5" x2="707.8" y2="162.5" gradientTransform="translate(0 324) scale(1 -1)" gradientUnits="userSpaceOnUse">
      <stop offset="0" stop-color="#ff8933"/>
      <stop offset="1" stop-color="#ff312d"/>
    </linearGradient>
    <linearGradient id="linear-gradient-7" x1="232.8" y1="162.5" x2="318.2" y2="162.5" gradientTransform="translate(0 324) scale(1 -1)" gradientUnits="userSpaceOnUse">
      <stop offset="0" stop-color="#ff8933"/>
      <stop offset="1" stop-color="#ff312d"/>
    </linearGradient>
    <linearGradient id="linear-gradient-8" x1="821.8" y1="162.5" x2="907.2" y2="162.5" gradientTransform="translate(0 324) scale(1 -1)" gradientUnits="userSpaceOnUse">
      <stop offset="0" stop-color="#ff8933"/>
      <stop offset="1" stop-color="#ff312d"/>
    </linearGradient>
    <clipPath id="clippath">
      <path class="cls-1" d="M869.2,123.5v28.5h-9.5v-28.5h9.5ZM907.2,209l-9.5-9.5-5.3-28.5-9.5-9.5,6.5-6.5-8.5-44.9-3.2-17.2-1.4-7.4h-40.4v28.5l9.5,9.5-5.9,31.5,6.6,6.5-9.5,9.5-5.4,28.5-9.5,9.5v28.5h38v-28.5l-9.5-9.5,4.8-28.5h19l4.8,28.5-9.5,9.5v28.5h38v-28.5h0Z"/>
    </clipPath>
    <linearGradient id="linear-gradient-9" x1="821.8" y1="162.5" x2="907.2" y2="162.5" gradientTransform="translate(0 324) scale(1 -1)" gradientUnits="userSpaceOnUse">
      <stop offset="0" stop-color="#ff8933"/>
      <stop offset="1" stop-color="#ff312d"/>
    </linearGradient>
    <linearGradient id="linear-gradient-10" x1="877.8" y1="226.2" x2="907.2" y2="226.2" gradientTransform="translate(0 324) scale(1 -1)" gradientUnits="userSpaceOnUse">
      <stop offset="0" stop-color="#ff8933"/>
      <stop offset="1" stop-color="#ff312d"/>
    </linearGradient>
    <clipPath id="clippath-1">
      <polygon class="cls-1" points="907.2 85.5 892.6 85.5 886.9 92.9 877.8 92.9 881 110.1 888.1 110.1 894.5 101.9 907.2 101.9 907.2 85.5"/>
    </clipPath>
    <linearGradient id="linear-gradient-11" x1="877.8" y1="226.2" x2="907.2" y2="226.2" gradientTransform="translate(0 324) scale(1 -1)" gradientUnits="userSpaceOnUse">
      <stop offset="0" stop-color="#ff8933"/>
      <stop offset="1" stop-color="#ff312d"/>
    </linearGradient>
  </defs>
  <!-- Generator: Adobe Illustrator 28.6.0, SVG Export Plug-In . SVG Version: 1.2.0 Build 709)  -->
  <g>
    <g id="Layer_1">
      <g>
        <polygon class="cls-10" points="432.2 85.5 508.2 85.5 508.2 142.5 498.7 142.5 489.2 133 489.2 123.5 479.7 123.5 479.7 152 470.2 161.5 479.7 171 479.7 199.5 489.2 209 489.2 237.5 451.2 237.5 451.2 209 460.7 199.5 460.7 171 470.2 161.5 460.7 152 460.7 123.5 451.2 123.5 451.2 133 441.7 142.5 432.2 142.5 432.2 85.5"/>
        <path class="cls-9" d="M1002.2,152v-57l-9.5-9.5h-57l-9.5,9.5v57l9.5,9.5-9.5,9.5v57l9.5,9.5h57l9.5-9.5v-57l-9.5-9.5,9.5-9.5ZM983.2,199.5h-38v-76h38v76Z"/>
        <path class="cls-8" d="M413.2,152v-57l-9.5-9.5h-57l-9.5,9.5v57l9.5,9.5-9.5,9.5v57l9.5,9.5h57l9.5-9.5v-57l-9.5-9.5,9.5-9.5ZM394.2,199.5h-38v-76h38v76Z"/>
        <polygon class="cls-7" points="593.8 133 584.2 123.5 555.8 123.5 555.8 152 565.2 152 574.8 142.5 584.2 142.5 584.2 152 584.2 161.5 584.2 171 584.2 180.5 574.8 180.5 565.2 171 555.8 171 555.8 199.5 584.2 199.5 593.8 190 603.2 190 603.2 237.5 527.2 237.5 527.2 209 536.8 199.5 536.8 171 546.2 161.5 536.8 152 536.8 123.5 527.3 114 527.3 85.5 603.2 85.5 603.2 133 593.8 133"/>
        <path class="cls-4" d="M793.2,85.5h-66.5v28.5l9.5,9.5v28.5l9.5,9.5-9.5,9.5v28.5l-9.5,9.5v28.5h66.5l9.5-9.5V95l-9.5-9.5ZM783.7,199.5h-28.5v-76h28.5v76Z"/>
        <path class="cls-5" d="M669.8,171l9.5,9.5v57h28.5v-28.5l-9.5-9.5v-28.5l-9.5-9.5,9.5-9.5v-57l-9.5-9.5h-66.5v28.5l9.5,9.5v28.5l9.5,9.5-9.5,9.5v28.5l-9.5,9.5v28.5h38v-28.5l-9.5-9.5v-28.5M679.2,142.5l-9.5,9.5h-19v-28.5h28.5v19h0Z"/>
        <path class="cls-3" d="M280.2,171l9.5,9.5v57h28.5v-28.5l-9.5-9.5v-28.5l-9.5-9.5,9.5-9.5v-57l-9.5-9.5h-66.5v28.5l9.5,9.5v28.5l9.5,9.5-9.5,9.5v28.5l-9.5,9.5v28.5h38v-28.5l-9.5-9.5v-28.5M289.7,142.5l-9.5,9.5h-19v-28.5h28.5v19h0Z"/>
        <g>
          <g>
            <path class="cls-2" d="M869.2,123.5v28.5h-9.5v-28.5h9.5ZM907.2,209l-9.5-9.5-5.3-28.5-9.5-9.5,6.5-6.5-8.5-44.9-3.2-17.2-1.4-7.4h-40.4v28.5l9.5,9.5h0l-5.9,31.5,6.6,6.5-9.5,9.5-5.4,28.5-9.5,9.5v28.5h38v-28.5l-9.5-9.5,4.8-28.5h19l4.8,28.5-9.5,9.5v28.5h38v-28.5h0Z"/>
            <g class="cls-16">
              <rect class="cls-6" x="821.8" y="85.5" width="85.5" height="152"/>
            </g>
          </g>
          <g>
            <polygon class="cls-14" points="907.2 85.5 892.6 85.5 886.9 92.9 877.8 92.9 881 110.1 888.1 110.1 894.5 101.9 907.2 101.9 907.2 85.5"/>
            <g class="cls-12">
              <rect class="cls-15" x="877.8" y="85.5" width="29.5" height="24.6"/>
            </g>
          </g>
        </g>
      </g>
      <g class="cls-11">
        <g class="cls-11">
          <path class="cls-13" d="M378.4,274l-2.9-14.3h-16.5l-2.8,14.3h-12.8c2.9-12.2,5.9-23.3,8.9-33.3,3-10,5.9-19.6,8.7-28.6h13.4c2.9,9.1,5.9,18.7,8.8,28.9,2.9,10.2,5.7,21.2,8.5,33h-13.2ZM367.4,224.1c-.7,2.3-1.3,4.6-1.9,6.7-.6,2.1-1.1,4.2-1.6,6.2-.5,2-1,4.1-1.4,6.1-.4,2.1-.8,4.2-1.2,6.4h12.1c-.4-2.2-.8-4.3-1.2-6.4-.4-2.1-.9-4.1-1.4-6.1-.5-2-1-4.1-1.6-6.2-.6-2.1-1.2-4.3-1.9-6.7Z"/>
          <path class="cls-13" d="M428,274c-2.8-6.9-5.9-13.7-9.1-20.5-3.3-6.8-6.9-13.7-10.6-20.5v41.1h-11.1v-61.9h9.9c1.9,2.9,3.7,6.1,5.6,9.6,1.9,3.4,3.7,6.8,5.4,10.2,1.8,3.4,3.4,6.7,4.9,9.9s2.8,6,3.8,8.4v-38.1h11.1v61.9h-9.9Z"/>
          <path class="cls-13" d="M447.9,274v-10.2h13.5v-41.5h-13.5v-10.2h39.3v10.2h-13.4v41.5h13.4v10.2h-39.3Z"/>
          <path class="cls-13" d="M511.1,274c-1.6-4.6-3.3-9.8-5.1-15.6-1.8-5.8-3.5-11.6-5.1-17.4-1.6-5.8-3-11.2-4.3-16.3-1.3-5.1-2.2-9.3-2.8-12.6h13c.4,3.2,1,6.9,1.8,11.2.8,4.2,1.7,8.6,2.6,13.1,1,4.5,2,8.9,3.1,13.3,1.1,4.4,2.2,8.3,3.2,11.8,1.1-3.4,2.1-7.3,3.2-11.7,1.1-4.4,2.1-8.8,3-13.3.9-4.5,1.8-8.9,2.6-13.2.8-4.3,1.5-8,2-11.2h12.9c-.8,4-1.8,8.5-2.9,13.4-1.2,4.9-2.5,10.1-4,15.5-1.5,5.4-3.1,11-5,16.6-1.8,5.6-3.7,11.1-5.6,16.3h-12.7Z"/>
          <path class="cls-13" d="M548.8,274v-61.9h37.5v10.2h-25.2v13.9h21.9v10.2h-21.9v17.4h27.4v10.2h-39.7Z"/>
          <path class="cls-13" d="M613.9,211.4c3.5,0,6.7.4,9.6,1.2,2.9.8,5.3,2,7.4,3.7,2.1,1.7,3.6,3.8,4.8,6.4,1.1,2.6,1.6,5.6,1.6,9s-.7,6.9-2.2,9.8c-1.5,2.9-3.9,5.2-7.3,6.7,1.1,1.7,2.3,3.6,3.6,5.8,1.3,2.1,2.5,4.3,3.7,6.6,1.2,2.3,2.4,4.6,3.5,6.9,1.1,2.3,2,4.5,2.9,6.5h-12.9c-1.5-4-3.3-7.8-5.3-11.5-2-3.7-4.2-7.5-6.6-11.2h-6.4v22.8h-12.3v-61c1.2-.3,2.5-.5,4-.8,1.4-.2,2.9-.4,4.4-.5,1.5,0,2.9-.2,4.2-.2,1.3,0,2.5,0,3.5,0ZM624.8,231.6c0-3.3-1-5.7-3-7.2-2-1.5-4.6-2.3-7.9-2.3s-1,0-1.7,0c-.7,0-1.3.1-2,.2v18.6h2.7c4.2,0,7.2-.8,9.1-2.5,1.9-1.6,2.8-4,2.8-7Z"/>
          <path class="cls-13" d="M665.7,265c2.1,0,3.8-.2,5.1-.7,1.4-.4,2.5-1,3.2-1.8.8-.8,1.4-1.6,1.7-2.6.3-1,.5-2,.5-3s-.4-2.4-1.1-3.4c-.7-1-1.7-1.9-2.8-2.6-1.1-.8-2.4-1.5-3.8-2.1-1.4-.6-2.8-1.2-4.2-1.8-1.9-.7-3.8-1.4-5.8-2.3-2-.9-3.8-2-5.5-3.3-1.6-1.3-3-3-4-5-1.1-2-1.6-4.4-1.6-7.3,0-5.8,1.9-10.3,5.6-13.6,3.8-3.3,9-4.9,15.5-4.9s7.1.4,10,1.3c2.8.9,5.2,1.8,7.2,2.9l-3.6,9.5c-1.7-.9-3.5-1.7-5.5-2.4-2-.7-4.4-1-7-1-6.5,0-9.8,2.4-9.8,7.1s.3,2.2,1,3.2c.7.9,1.5,1.7,2.5,2.4,1,.7,2.2,1.3,3.5,1.8,1.3.5,2.6,1,3.8,1.5,1.9.7,4,1.5,6.1,2.5,2.1.9,4,2.1,5.8,3.6,1.8,1.5,3.2,3.4,4.3,5.6,1.1,2.2,1.7,5,1.7,8.4,0,5.8-1.9,10.3-5.7,13.5-3.8,3.2-9.5,4.8-17.1,4.8s-9.2-.5-12.3-1.6c-3.1-1.1-5.4-2.1-6.9-3.1l3.6-10c1.8,1.1,4,2.1,6.5,3,2.5.9,5.5,1.4,9.2,1.4Z"/>
          <path class="cls-13" d="M728.4,274l-2.9-14.3h-16.5l-2.8,14.3h-12.8c2.9-12.2,5.9-23.3,8.9-33.3,3-10,5.9-19.6,8.7-28.6h13.4c2.9,9.1,5.8,18.7,8.8,28.9,2.9,10.2,5.7,21.2,8.4,33h-13.2ZM728.5,200.4l-17.4,8.4-4.5-6.7,15.8-11.1,6.1,9.4ZM717.4,224.1c-.7,2.3-1.3,4.6-1.9,6.7-.6,2.1-1.1,4.2-1.6,6.2-.5,2-1,4.1-1.4,6.1-.4,2.1-.8,4.2-1.2,6.4h12.1c-.4-2.2-.8-4.3-1.2-6.4-.4-2.1-.9-4.1-1.4-6.1-.5-2-1-4.1-1.6-6.2-.6-2.1-1.2-4.3-1.8-6.7Z"/>
          <path class="cls-13" d="M763.9,211.4c3.5,0,6.7.4,9.6,1.2,2.9.8,5.3,2,7.4,3.7,2.1,1.7,3.6,3.8,4.8,6.4,1.1,2.6,1.6,5.6,1.6,9s-.7,6.9-2.2,9.8c-1.5,2.9-3.9,5.2-7.3,6.7,1.1,1.7,2.3,3.6,3.6,5.8,1.3,2.1,2.5,4.3,3.7,6.6,1.2,2.3,2.4,4.6,3.5,6.9,1.1,2.3,2,4.5,2.9,6.5h-12.9c-1.5-4-3.3-7.8-5.3-11.5-2-3.7-4.2-7.5-6.6-11.2h-6.4v22.8h-12.3v-61c1.2-.3,2.5-.5,3.9-.8,1.4-.2,2.9-.4,4.4-.5,1.5,0,2.9-.2,4.2-.2,1.3,0,2.5,0,3.5,0ZM774.8,231.6c0-3.3-1-5.7-3-7.2-2-1.5-4.6-2.3-7.9-2.3s-1,0-1.7,0c-.7,0-1.3.1-2,.2v18.6h2.7c4.2,0,7.2-.8,9.1-2.5,1.9-1.6,2.8-4,2.8-7Z"/>
          <path class="cls-13" d="M797.9,274v-10.2h13.5v-41.5h-13.5v-10.2h39.3v10.2h-13.4v41.5h13.4v10.2h-39.3Z"/>
          <path class="cls-13" d="M845.2,243c0-10.7,2-18.7,5.9-24.2,3.9-5.4,9.4-8.1,16.4-8.1s12.8,2.7,16.6,8.1c3.8,5.4,5.7,13.5,5.7,24.2s-1.9,18.7-5.8,24.2c-3.9,5.4-9.3,8.1-16.4,8.1s-12.8-2.7-16.6-8.1c-3.8-5.4-5.8-13.5-5.8-24.2ZM857.7,243c0,3,.1,5.8.3,8.5.2,2.6.7,4.9,1.4,6.8.7,1.9,1.7,3.5,3,4.6,1.3,1.1,3,1.7,5.1,1.7s3.8-.6,5-1.7c1.3-1.1,2.3-2.7,3-4.7.7-2,1.2-4.2,1.4-6.8.2-2.6.3-5.4.3-8.4s-.1-5.8-.3-8.5c-.2-2.6-.7-4.9-1.4-6.8-.7-1.9-1.7-3.5-3-4.6-1.3-1.1-3-1.7-5.1-1.7s-3.8.6-5.1,1.7c-1.3,1.1-2.2,2.7-3,4.7-.7,2-1.2,4.2-1.4,6.8-.2,2.6-.3,5.4-.3,8.4Z"/>
        </g>
      </g>
    </g>
  </g>
</svg>