<svg id="Component_190_1" data-name="Component 190 – 1" xmlns="http://www.w3.org/2000/svg" xmlns:xlink="http://www.w3.org/1999/xlink" width="1231" height="319" viewBox="0 0 1231 319">
  <defs>
    <linearGradient id="linear-gradient" y1="1" x2="1" y2="1" gradientUnits="objectBoundingBox">
      <stop offset="0" stop-color="#ff8a33"/>
      <stop offset="1" stop-color="#ff312d"/>
    </linearGradient>
    <clipPath id="clip-path">
      <path id="Path_758" data-name="Path 758" d="M106.748,37.5h37.5v75H106.745ZM97.368,0,88,9.366V65.623l9.368,9.359L88,84.368V140.62l9.368,9.373h56.255l9.377-9.37L172.375,150V121.873L163,112.5V84.368l-9.38-9.387L163,65.623V9.366L153.62,0Z" transform="translate(-88)" fill="url(#linear-gradient)"/>
    </clipPath>
    <clipPath id="clip-path-2">
      <path id="Path_759" data-name="Path 759" d="M172,0V28.125l9.375,9.375V65.625L190.75,75l-9.375,9.375V112.5L172,121.875V150h37.5V121.875l-9.375-9.375V84.375L190.75,75l9.375-9.375V37.5l9.375-9.375V0Z" transform="translate(-172)" fill="url(#linear-gradient)"/>
    </clipPath>
    <clipPath id="clip-path-3">
      <path id="Path_761" data-name="Path 761" d="M212,48h0Z" transform="translate(-212 -48.001)" fill="url(#linear-gradient)"/>
    </clipPath>
    <clipPath id="clip-path-5">
      <line id="Line_18" data-name="Line 18" x1="9" y2="9" transform="translate(0.495 -0.127)" fill="none"/>
    </clipPath>
    <clipPath id="clip-path-6">
      <path id="Path_764" data-name="Path 764" d="M242.877,0V28.125l9.375,9.375-9.375,75H233.5l0-.068L224.127,37.5l0,0,9.37-9.37v0l0,0,0-28.125H196l.007,28.125,9.375,9.375,5.241,28.125,9.387,9.363-6.441,6.445,8.334,44.285,3.2,17.006L226.473,150H249.9l11.951-63.635.93-4.948-6.49-6.427,9.387-9.363L271,37.5l9.375-9.375V0Z" transform="translate(-196)" fill="url(#linear-gradient)"/>
    </clipPath>
    <clipPath id="clip-path-7">
      <path id="Path_765" data-name="Path 765" d="M258.75,37.5l37.5,0v75H258.745ZM249.368,0,240,9.366V65.625l9.368,9.359L240,84.37v56.252L249.368,150H305.62l9.38-9.377V84.37l-9.38-9.387L315,65.625V9.366L305.62,0Z" transform="translate(-240)" fill="url(#linear-gradient)"/>
    </clipPath>
    <clipPath id="clip-path-8">
      <path id="Path_766" data-name="Path 766" d="M178.874,41.375V69.5l-9.091,9.091-.281.281h-9.377l-.281-.281L150.751,69.5V41.375L141.374,32,132,41.375v56.25L141.374,107h46.877l9.373-9.375V41.375L188.251,32Z" transform="translate(-131.999 -32)" fill="url(#linear-gradient)"/>
    </clipPath>
    <clipPath id="clip-path-9">
      <path id="Path_767" data-name="Path 767" d="M148,0V28.125l9.375,9.38v28.12L166.751,75l9.373-9.375V37.5l9.377-9.375V0Z" transform="translate(-147.999)" fill="url(#linear-gradient)"/>
    </clipPath>
    <clipPath id="clip-path-10">
      <path id="Path_768" data-name="Path 768" d="M128,0V28.125l9.373,9.375V65.625L146.748,75l9.377-9.375V37.5l9.375-9.38V0Z" transform="translate(-128)" fill="url(#linear-gradient)"/>
    </clipPath>
    <clipPath id="clip-path-11">
      <path id="Path_769" data-name="Path 769" d="M37.5,37.5h9.377V65.623H37.5ZM14.058,0V28.125L23.433,37.5h0L17.6,68.583l6.485,6.427L14.7,84.37,9.375,112.5,0,121.875V150H37.5V121.875L28.123,112.5,32.81,84.375H51.56L56.248,112.5l-9.375,9.375,0,28.125H84.375l-.007-28.125L75,112.5,69.752,84.375l-9.387-9.363,6.441-6.445L58.472,24.281l-3.2-17.006L53.9,0Z" fill="url(#linear-gradient)"/>
    </clipPath>
    <clipPath id="clip-path-12">
      <path id="Path_770" data-name="Path 770" d="M72.125,37.5H100.25l0,9.375,0,9.363-9.368,9.387H72.127ZM44,0V28.127L53.375,37.5V65.627L62.75,75l-9.375,9.375V112.5L44,121.875V150l37.5,0v-28.12L72.125,112.5V84.375h18.75l9.375,9.377v56.236l28.125.012V121.875L119,112.5V84.375L109.625,75,119,65.627V9.377L109.625,0Z" transform="translate(-44)" fill="url(#linear-gradient)"/>
    </clipPath>
  </defs>
  <g id="Rectangle_1640" data-name="Rectangle 1640" fill="#fff" stroke="#707070" stroke-width="1" opacity="0">
    <rect width="1231" height="319" stroke="none"/>
    <rect x="0.5" y="0.5" width="1230" height="318" fill="none"/>
  </g>
  <g id="Group_3280" data-name="Group 3280" transform="translate(297 85)">
    <g id="Group_3088" data-name="Group 3088" transform="translate(206.25)">
      <g id="Group_3087" data-name="Group 3087" clip-path="url(#clip-path)">
        <rect id="Rectangle_1410" data-name="Rectangle 1410" width="85" height="150" transform="translate(-0.25 0)" fill="url(#linear-gradient)"/>
      </g>
    </g>
    <g id="Group_3090" data-name="Group 3090" transform="translate(403.125)">
      <g id="Group_3089" data-name="Group 3089" clip-path="url(#clip-path-2)">
        <rect id="Rectangle_1411" data-name="Rectangle 1411" width="38" height="150" transform="translate(-0.125 0)" fill="url(#linear-gradient)"/>
      </g>
    </g>
    <g id="Group_3092" data-name="Group 3092" transform="translate(496.875 112.502)">
      <g id="Group_3091" data-name="Group 3091" clip-path="url(#clip-path-3)">
        <path id="Path_760" data-name="Path 760" d="M212,48h0Z" transform="translate(-212 -48.001)" fill="url(#linear-gradient)"/>
      </g>
    </g>
    <g id="Group_3094" data-name="Group 3094" transform="translate(496.875 112.502)">
      <g id="Group_3093" data-name="Group 3093" clip-path="url(#clip-path-3)">
        <path id="Path_762" data-name="Path 762" d="M212,48h0Z" transform="translate(-212 -48.001)" fill="url(#linear-gradient)"/>
      </g>
    </g>
    <g id="Group_3096" data-name="Group 3096" transform="translate(487.505 28.127)">
      <g id="Group_3095" data-name="Group 3095" clip-path="url(#clip-path-5)">
        <rect id="Rectangle_1412" data-name="Rectangle 1412" width="9" height="9" transform="translate(0.495 -0.127)" fill="url(#linear-gradient)"/>
      </g>
    </g>
    <g id="Group_3098" data-name="Group 3098" transform="translate(459.375)">
      <g id="Group_3097" data-name="Group 3097" clip-path="url(#clip-path-6)">
        <rect id="Rectangle_1413" data-name="Rectangle 1413" width="85" height="150" transform="translate(-0.375 0)" fill="url(#linear-gradient)"/>
      </g>
    </g>
    <g id="Group_3100" data-name="Group 3100" transform="translate(562.5)">
      <g id="Group_3099" data-name="Group 3099" clip-path="url(#clip-path-7)">
        <rect id="Rectangle_1414" data-name="Rectangle 1414" width="75" height="150" transform="translate(0.5 0)" fill="url(#linear-gradient)"/>
      </g>
    </g>
    <g id="Group_3102" data-name="Group 3102" transform="translate(309.373 75)">
      <g id="Group_3101" data-name="Group 3101" clip-path="url(#clip-path-8)">
        <rect id="Rectangle_1415" data-name="Rectangle 1415" width="66" height="75" transform="translate(-0.372 0)" fill="url(#linear-gradient)"/>
      </g>
    </g>
    <g id="Group_3104" data-name="Group 3104" transform="translate(346.873)">
      <g id="Group_3103" data-name="Group 3103" clip-path="url(#clip-path-9)">
        <rect id="Rectangle_1416" data-name="Rectangle 1416" width="37" height="75" transform="translate(0.127 0)" fill="url(#linear-gradient)"/>
      </g>
    </g>
    <g id="Group_3106" data-name="Group 3106" transform="translate(300)">
      <g id="Group_3105" data-name="Group 3105" clip-path="url(#clip-path-10)">
        <rect id="Rectangle_1417" data-name="Rectangle 1417" width="37" height="75" transform="translate(0 0)" fill="url(#linear-gradient)"/>
      </g>
    </g>
    <g id="Group_3108" data-name="Group 3108">
      <g id="Group_3107" data-name="Group 3107" clip-path="url(#clip-path-11)">
        <rect id="Rectangle_1418" data-name="Rectangle 1418" width="84" height="150" transform="translate(0 0)" fill="url(#linear-gradient)"/>
      </g>
    </g>
    <g id="Group_3110" data-name="Group 3110" transform="translate(103.125)">
      <g id="Group_3109" data-name="Group 3109" clip-path="url(#clip-path-12)">
        <rect id="Rectangle_1419" data-name="Rectangle 1419" width="85" height="150" transform="translate(-0.125 0)" fill="url(#linear-gradient)"/>
      </g>
    </g>
  </g>
</svg>
