<?xml version="1.0" encoding="UTF-8"?>
<svg id="Layer_1" data-name="Layer 1" xmlns="http://www.w3.org/2000/svg" xmlns:xlink="http://www.w3.org/1999/xlink" viewBox="0 0 1235 323">
  <defs>
    <style>
      .cls-1 {
        fill: url(#New_Gradient_Swatch_4-6);
      }

      .cls-2 {
        fill: url(#New_Gradient_Swatch_4-9);
      }

      .cls-3 {
        fill: url(#New_Gradient_Swatch_4-8);
      }

      .cls-4 {
        fill: url(#New_Gradient_Swatch_4-7);
      }

      .cls-5 {
        fill: url(#New_Gradient_Swatch_4-5);
      }

      .cls-6 {
        fill: url(#New_Gradient_Swatch_4-3);
      }

      .cls-7 {
        fill: url(#New_Gradient_Swatch_4-4);
      }

      .cls-8 {
        fill: url(#New_Gradient_Swatch_4-2);
      }

      .cls-9 {
        fill: url(#New_Gradient_Swatch_4);
      }
    </style>
    <linearGradient id="New_Gradient_Swatch_4" data-name="New Gradient Swatch 4" x1="897.76" y1="161.5" x2="935.76" y2="161.5" gradientUnits="userSpaceOnUse">
      <stop offset="0" stop-color="#ff8933"/>
      <stop offset="1" stop-color="#ff312d"/>
    </linearGradient>
    <linearGradient id="New_Gradient_Swatch_4-2" data-name="New Gradient Swatch 4" x1="289.76" x2="327.76" xlink:href="#New_Gradient_Swatch_4"/>
    <linearGradient id="New_Gradient_Swatch_4-3" data-name="New Gradient Swatch 4" x1="593.76" x2="669.76" xlink:href="#New_Gradient_Swatch_4"/>
    <linearGradient id="New_Gradient_Swatch_4-4" data-name="New Gradient Swatch 4" x1="793.26" x2="878.76" xlink:href="#New_Gradient_Swatch_4"/>
    <linearGradient id="New_Gradient_Swatch_4-5" data-name="New Gradient Swatch 4" x1="688.88" x2="774.38" xlink:href="#New_Gradient_Swatch_4"/>
    <linearGradient id="New_Gradient_Swatch_4-6" data-name="New Gradient Swatch 4" x1="194.74" x2="270.74" xlink:href="#New_Gradient_Swatch_4"/>
    <linearGradient id="New_Gradient_Swatch_4-7" data-name="New Gradient Swatch 4" x1="441.76" x2="517.76" xlink:href="#New_Gradient_Swatch_4"/>
    <linearGradient id="New_Gradient_Swatch_4-8" data-name="New Gradient Swatch 4" x1="346.76" x2="422.76" xlink:href="#New_Gradient_Swatch_4"/>
    <linearGradient id="New_Gradient_Swatch_4-9" data-name="New Gradient Swatch 4" x1="954.76" x2="1040.26" xlink:href="#New_Gradient_Swatch_4"/>
  </defs>
  <polygon class="cls-9" points="926.26 123.5 935.76 114 935.76 85.5 897.76 85.5 897.76 114 907.26 123.5 907.26 152 916.76 161.5 907.26 171 907.26 199.5 897.76 209 897.76 237.5 935.76 237.5 935.76 209 926.26 199.5 926.26 171 916.76 161.5 926.26 152 926.26 123.5"/>
  <polygon class="cls-8" points="318.26 123.5 327.76 114 327.76 85.5 289.76 85.5 289.76 114 299.26 123.5 299.26 152 308.76 161.5 299.26 171 299.26 199.5 289.76 209 289.76 237.5 327.76 237.5 327.76 209 318.26 199.5 318.26 171 308.76 161.5 318.26 152 318.26 123.5"/>
  <path class="cls-6" d="M669.76,152v-57.01l-9.5-9.49h-57l-9.49,9.49v57.01l9.49,9.48-9.49,9.51v57l9.49,9.5h57s9.5-9.5,9.5-9.5v-57l-9.5-9.51,9.5-9.48ZM650.76,199.5h-38.01v-76s38.01,0,38.01,0v76Z"/>
  <path class="cls-7" d="M840.75,237.5h38.01v-28.5s-9.51-9.5-9.51-9.5l-5.31-28.5-9.51-9.49,6.53-6.53-8.45-44.88-3.24-17.23-1.39-7.37h-40.38v28.5s9.5,9.5,9.5,9.5h0l-5.92,31.5,6.57,6.51-9.51,9.49-5.4,28.5-9.5,9.5v28.5h38v-28.5l-9.5-9.5,4.75-28.5h19l4.75,28.5-9.5,9.5v28.5ZM840.76,152h-9.5v-28.5h9.5v28.5Z"/>
  <polygon class="cls-5" points="774.38 85.5 745.88 85.5 745.88 152 717.38 85.5 688.88 85.51 688.88 114 698.38 123.5 698.38 152 707.88 161.5 698.38 171 698.38 199.5 688.88 209 688.88 237.5 726.88 237.5 726.88 209 717.38 199.5 717.38 123.5 745.88 190 745.88 199.5 736.38 209 736.38 237.5 774.38 237.5 774.38 209 764.88 199.51 764.88 171 755.38 161.5 764.88 152 764.88 152 764.88 123.49 774.38 114 774.38 85.5"/>
  <path class="cls-1" d="M261.24,161.51l9.5-9.5v-57.01s-9.5-9.5-9.5-9.5h-66.5v28.5l9.52,9.5v28.5l9.5,9.5-9.5,9.5v28.47l-9.52,9.54v28.48h66.5l9.5-9.48v-57.01s-9.5-9.5-9.5-9.5ZM251.75,199.52h-28.49v-28.5h18.99l9.5,9.5v19ZM251.75,142.51l-9.5,9.5h-18.99v-28.51h28.49v19Z"/>
  <polygon class="cls-4" points="508.26 199.5 498.76 209 479.76 209 470.26 199.5 470.26 171 460.76 161.5 470.26 152 470.26 123.5 479.76 114 479.76 85.5 441.76 85.5 441.76 114 451.26 123.5 451.26 152 460.76 161.5 451.26 171 451.26 199.5 441.76 209 441.76 237.5 517.76 237.5 517.76 199.5 508.26 199.5"/>
  <polygon class="cls-3" points="413.26 199.5 403.76 209 384.76 209 375.26 199.5 375.26 171 365.76 161.5 375.26 152 375.26 123.5 384.76 114 384.76 85.5 346.76 85.5 346.76 114 356.26 123.5 356.26 152 365.76 161.5 356.26 171 356.26 199.5 346.76 209 346.76 237.5 422.76 237.5 422.76 199.5 413.26 199.5"/>
  <path class="cls-2" d="M1002.26,171l9.5,9.5v56.99h28.5s0-28.49,0-28.49l-9.5-9.5v-28.5l-9.5-9.5,9.5-9.5v-57l-9.5-9.5h-66.5s0,28.5,0,28.5l9.5,9.5v28.5l9.5,9.5-9.5,9.5v28.5l-9.5,9.5v28.5h38v-28.5l-9.5-9.5v-28.5M1011.75,142.49l-9.49,9.51h-19v-28.5s28.5,0,28.5,0v9.5s0,9.49,0,9.49Z"/>
</svg>