<?xml version="1.0" encoding="UTF-8"?>
<svg id="Layer_1" xmlns="http://www.w3.org/2000/svg" xmlns:xlink="http://www.w3.org/1999/xlink" viewBox="0 0 1235 323">
  <defs>
    <style>
      .cls-1 {
        fill: url(#New_Gradient_Swatch_4-6);
      }

      .cls-2 {
        fill: url(#New_Gradient_Swatch_4-9);
      }

      .cls-3 {
        fill: url(#New_Gradient_Swatch_4-8);
      }

      .cls-4 {
        fill: url(#New_Gradient_Swatch_4-7);
      }

      .cls-5 {
        fill: url(#New_Gradient_Swatch_4-5);
      }

      .cls-6 {
        fill: url(#New_Gradient_Swatch_4-3);
      }

      .cls-7 {
        fill: url(#New_Gradient_Swatch_4-4);
      }

      .cls-8 {
        fill: url(#New_Gradient_Swatch_4-2);
      }

      .cls-9 {
        fill: url(#New_Gradient_Swatch_4);
      }
    </style>
    <linearGradient id="New_Gradient_Swatch_4" data-name="New Gradient Swatch 4" x1="883.5" y1="161.5" x2="921.5" y2="161.5" gradientUnits="userSpaceOnUse">
      <stop offset="0" stop-color="#ff8933"/>
      <stop offset="1" stop-color="#ff312d"/>
    </linearGradient>
    <linearGradient id="New_Gradient_Swatch_4-2" data-name="New Gradient Swatch 4" x1="408.5" x2="446.5" xlink:href="#New_Gradient_Swatch_4"/>
    <linearGradient id="New_Gradient_Swatch_4-3" data-name="New Gradient Swatch 4" x1="617.5" x2="703" xlink:href="#New_Gradient_Swatch_4"/>
    <linearGradient id="New_Gradient_Swatch_4-4" data-name="New Gradient Swatch 4" x1="304" x2="389.5" xlink:href="#New_Gradient_Swatch_4"/>
    <linearGradient id="New_Gradient_Swatch_4-5" data-name="New Gradient Swatch 4" x1="465.5" x2="541.5" xlink:href="#New_Gradient_Swatch_4"/>
    <linearGradient id="New_Gradient_Swatch_4-6" data-name="New Gradient Swatch 4" x1="209" x2="285" xlink:href="#New_Gradient_Swatch_4"/>
    <linearGradient id="New_Gradient_Swatch_4-7" data-name="New Gradient Swatch 4" x1="228" y1="123.5" x2="266" y2="123.5" xlink:href="#New_Gradient_Swatch_4"/>
    <linearGradient id="New_Gradient_Swatch_4-8" data-name="New Gradient Swatch 4" x1="940.5" x2="1026" xlink:href="#New_Gradient_Swatch_4"/>
    <linearGradient id="New_Gradient_Swatch_4-9" data-name="New Gradient Swatch 4" x1="779" x2="864.5" xlink:href="#New_Gradient_Swatch_4"/>
  </defs>
  <polygon class="cls-9" points="912 123.5 921.5 114 921.5 85.5 883.5 85.5 883.5 114 893 123.5 893 152 902.5 161.5 893 171 893 199.5 883.5 209 883.5 237.5 921.5 237.5 921.5 209 912 199.5 912 171 902.5 161.5 912 152 912 123.5"/>
  <polygon class="cls-8" points="437 123.5 446.5 114 446.5 85.5 408.5 85.5 408.5 114 418 123.5 418 152 427.5 161.5 418 171 418 199.5 408.5 209 408.5 237.5 446.5 237.5 446.5 209 437 199.5 437 171 427.5 161.5 437 152 437 123.5"/>
  <path class="cls-6" d="M664.99,237.5h38.01v-28.5s-9.51-9.5-9.51-9.5l-5.31-28.5-9.51-9.49,6.53-6.53-8.45-44.88-3.24-17.23-1.39-7.37h-40.38v28.5s9.5,9.5,9.5,9.5h0l-5.92,31.5,6.57,6.51-9.51,9.49-5.4,28.5-9.5,9.5v28.5h38v-28.5l-9.5-9.5,4.75-28.5h19l4.75,28.5-9.5,9.5v28.5ZM665,152h-9.5v-28.5h9.5v28.5Z"/>
  <path class="cls-7" d="M351.5,237.5h38.01v-28.5s-9.51-9.5-9.51-9.5l-5.31-28.5-9.51-9.49,6.53-6.53-8.45-44.88-3.24-17.23-1.39-7.37h-40.38v28.5s9.5,9.5,9.5,9.5h0l-5.92,31.5,6.57,6.51-9.51,9.49-5.4,28.5-9.5,9.5v28.5h38v-28.5l-9.5-9.5,4.75-28.5h19l4.75,28.5-9.5,9.5v28.5ZM351.5,152h-9.5v-28.5h9.5v28.5Z"/>
  <polygon class="cls-5" points="541.5 94.98 541.5 132.99 532 132.99 522.5 123.49 484.5 123.49 484.5 142.49 532 156.75 541.5 166.25 541.5 199.51 541.5 228.02 532 237.5 475 237.5 465.5 228.02 465.5 190.01 475 190.01 484.5 199.51 522.5 199.51 522.5 175.75 475 161.5 465.5 151.99 465.5 94.98 475 85.5 532 85.5 541.5 94.98"/>
  <g>
    <polygon class="cls-1" points="275.5 190 266 199.5 228 199.51 228 123.5 266 123.5 266 123.5 275.5 133 285 133 285 94.99 275.5 85.5 218.49 85.5 209 94.99 209 152 218.49 161.48 209 171 209 228 218.49 237.5 275.5 237.5 285 228 285 190 275.5 190"/>
    <polygon class="cls-4" points="228 123.5 266 123.5 266 123.5 228 123.5"/>
  </g>
  <path class="cls-3" d="M988,171l9.5,9.5v56.99h28.5s0-28.49,0-28.49l-9.5-9.5v-28.5l-9.5-9.5,9.5-9.5v-57l-9.5-9.5h-66.5s0,28.5,0,28.5l9.5,9.5v28.5l9.5,9.5-9.5,9.5v28.5l-9.5,9.5v28.5h38v-28.5l-9.5-9.5v-28.5M997.49,142.49l-9.49,9.51h-19v-28.5s28.5,0,28.5,0v9.5s0,9.49,0,9.49Z"/>
  <path class="cls-2" d="M826.5,171l9.5,9.5v56.99h28.5s0-28.49,0-28.49l-9.5-9.5v-28.5l-9.5-9.5,9.5-9.5v-57l-9.5-9.5h-66.5s0,28.5,0,28.5l9.5,9.5v28.5l9.5,9.5-9.5,9.5v28.5l-9.5,9.5v28.5h38v-28.5l-9.5-9.5v-28.5M835.99,142.49l-9.49,9.51h-19v-28.5s28.5,0,28.5,0v9.5s0,9.49,0,9.49Z"/>
</svg>