<?xml version="1.0" encoding="UTF-8"?>
<svg id="Layer_1" xmlns="http://www.w3.org/2000/svg" xmlns:xlink="http://www.w3.org/1999/xlink" viewBox="0 0 1235 323">
  <defs>
    <style>
      .cls-1 {
        fill: url(#New_Gradient_Swatch_4-6);
      }

      .cls-2 {
        fill: url(#New_Gradient_Swatch_4-9);
      }

      .cls-3 {
        fill: url(#New_Gradient_Swatch_4-8);
      }

      .cls-4 {
        fill: url(#New_Gradient_Swatch_4-7);
      }

      .cls-5 {
        fill: url(#New_Gradient_Swatch_4-5);
      }

      .cls-6 {
        fill: url(#New_Gradient_Swatch_4-3);
      }

      .cls-7 {
        fill: url(#New_Gradient_Swatch_4-4);
      }

      .cls-8 {
        fill: url(#New_Gradient_Swatch_4-2);
      }

      .cls-9 {
        fill: #ffcb8f;
      }

      .cls-10 {
        fill: url(#New_Gradient_Swatch_4);
      }

      .cls-11 {
        fill: url(#New_Gradient_Swatch_4-13);
      }

      .cls-12 {
        fill: url(#New_Gradient_Swatch_4-12);
      }

      .cls-13 {
        fill: url(#New_Gradient_Swatch_4-11);
      }

      .cls-14 {
        fill: url(#New_Gradient_Swatch_4-10);
      }

      .cls-15 {
        fill: url(#New_Gradient_Swatch_4-15);
      }

      .cls-16 {
        fill: url(#New_Gradient_Swatch_4-14);
      }
    </style>
    <linearGradient id="New_Gradient_Swatch_4" data-name="New Gradient Swatch 4" x1="883.51" y1="75.99" x2="959.51" y2="75.99" gradientUnits="userSpaceOnUse">
      <stop offset="0" stop-color="#ff8933"/>
      <stop offset="1" stop-color="#ff312d"/>
    </linearGradient>
    <linearGradient id="New_Gradient_Swatch_4-2" data-name="New Gradient Swatch 4" x1="722.01" x2="760.01" xlink:href="#New_Gradient_Swatch_4"/>
    <linearGradient id="New_Gradient_Swatch_4-3" data-name="New Gradient Swatch 4" x1="522.51" x2="608.01" xlink:href="#New_Gradient_Swatch_4"/>
    <linearGradient id="New_Gradient_Swatch_4-4" data-name="New Gradient Swatch 4" x1="779.01" x2="864.51" xlink:href="#New_Gradient_Swatch_4"/>
    <linearGradient id="New_Gradient_Swatch_4-5" data-name="New Gradient Swatch 4" x1="627.01" x2="703.01" xlink:href="#New_Gradient_Swatch_4"/>
    <linearGradient id="New_Gradient_Swatch_4-6" data-name="New Gradient Swatch 4" x1="323" x2="399" xlink:href="#New_Gradient_Swatch_4"/>
    <linearGradient id="New_Gradient_Swatch_4-7" data-name="New Gradient Swatch 4" x1="342" y1="37.99" x2="380" y2="37.99" xlink:href="#New_Gradient_Swatch_4"/>
    <linearGradient id="New_Gradient_Swatch_4-8" data-name="New Gradient Swatch 4" x1="418.01" x2="503.51" xlink:href="#New_Gradient_Swatch_4"/>
    <linearGradient id="New_Gradient_Swatch_4-9" data-name="New Gradient Swatch 4" x1="531.5" y1="247" x2="569.5" y2="247" xlink:href="#New_Gradient_Swatch_4"/>
    <linearGradient id="New_Gradient_Swatch_4-10" data-name="New Gradient Swatch 4" x1="588.5" y1="247" x2="664.5" y2="247" xlink:href="#New_Gradient_Swatch_4"/>
    <linearGradient id="New_Gradient_Swatch_4-11" data-name="New Gradient Swatch 4" x1="237" y1="247" x2="322.5" y2="247" xlink:href="#New_Gradient_Swatch_4"/>
    <linearGradient id="New_Gradient_Swatch_4-12" data-name="New Gradient Swatch 4" x1="341.48" y1="247" x2="417.48" y2="247" xlink:href="#New_Gradient_Swatch_4"/>
    <linearGradient id="New_Gradient_Swatch_4-13" data-name="New Gradient Swatch 4" x1="436.5" y1="247" x2="512.5" y2="247" xlink:href="#New_Gradient_Swatch_4"/>
    <linearGradient id="New_Gradient_Swatch_4-14" data-name="New Gradient Swatch 4" x1="683.5" y1="247" x2="759.5" y2="247" xlink:href="#New_Gradient_Swatch_4"/>
    <linearGradient id="New_Gradient_Swatch_4-15" data-name="New Gradient Swatch 4" x1="132.5" y1="247" x2="218" y2="247" xlink:href="#New_Gradient_Swatch_4"/>
  </defs>
  <g>
    <polygon class="cls-10" points="912.01 75.99 912.01 85.49 921.51 94.99 940.51 94.99 940.51 113.99 902.51 113.99 902.51 37.99 940.51 37.99 940.51 37.99 950.01 47.49 959.51 47.49 959.51 47.49 959.51 9.49 950.01 0 893.01 0 883.51 9.49 883.51 66.49 893.01 75.99 883.51 85.49 883.51 142.49 893.01 151.99 950.01 151.99 959.51 142.49 959.51 85.49 950.01 75.99 912.01 75.99"/>
    <polygon class="cls-8" points="750.51 37.99 760.01 28.49 760.01 0 722.01 0 722.01 28.49 731.51 37.99 731.51 66.49 741.01 75.99 731.51 85.49 731.51 113.99 722.01 123.49 722.01 151.99 760.01 151.99 760.01 123.49 750.51 113.99 750.51 85.49 741.01 75.99 750.51 66.49 750.51 37.99"/>
    <path class="cls-6" d="M570,151.99h38.01v-28.5s-9.51-9.5-9.51-9.5l-5.31-28.5-9.51-9.49,6.53-6.53-8.45-44.88-3.24-17.23L577.13,0h-40.38v28.5s9.5,9.5,9.5,9.5h0l-5.92,31.5,6.57,6.51-9.51,9.49-5.4,28.5-9.5,9.5v28.5h38v-28.5l-9.5-9.5,4.75-28.5h19l4.75,28.5-9.5,9.5v28.5ZM570.01,66.49h-9.5v-28.5h9.5v28.5Z"/>
    <polygon class="cls-7" points="864.51 0 836.01 0 836.01 66.49 807.51 0 779.01 0 779.01 28.49 788.51 37.99 788.51 66.49 798.01 75.99 788.51 85.49 788.51 113.99 779.01 123.49 779.01 151.99 817.01 151.99 817.01 123.49 807.51 113.99 807.51 37.99 836.01 104.49 836.01 113.99 826.51 123.49 826.51 151.99 864.51 151.99 864.51 123.49 855.01 114.01 855.01 85.49 845.51 75.99 855.01 66.49 855.01 66.49 855.01 37.99 864.51 28.49 864.51 0"/>
    <polygon class="cls-5" points="703.01 9.47 703.01 47.48 693.51 47.48 684.01 37.98 646.01 37.98 646.01 56.98 693.51 71.24 703.01 80.74 703.01 114 703.01 142.51 693.51 151.99 636.51 151.99 627.01 142.51 627.01 104.5 636.51 104.5 646.01 114 684.01 114 684.01 90.25 636.51 75.99 627.01 66.49 627.01 9.47 636.51 0 693.51 0 703.01 9.47"/>
    <g>
      <polygon class="cls-1" points="389.51 104.49 380 113.99 342 114 342 37.99 380 37.99 380 37.99 389.51 47.49 399 47.49 399 9.48 389.5 0 332.5 0 323 9.48 323 66.49 332.5 75.98 323 85.49 323 142.49 332.5 151.99 389.5 151.99 399 142.49 399 104.49 389.51 104.49"/>
      <polygon class="cls-4" points="342 37.99 380 37.99 380 37.99 342 37.99"/>
    </g>
    <polyline class="cls-3" points="475 66.5 446.51 66.49 446.51 38 456.01 28.5 456.01 0 418.01 0 418.01 28.5 427.51 38 427.51 66.49 437.01 75.99 427.51 85.49 427.51 113.99 418.01 123.49 418.01 151.99 456.01 151.99 456.01 123.49 446.51 113.99 446.51 85.49 475.01 85.5 475.01 114 465.51 123.5 465.51 151.98 503.51 151.99 503.51 123.49 494.01 113.99 494.01 85.49 484.51 75.99 494.01 66.49 494.01 38 503.51 28.5 503.51 0 465.51 0 465.51 28.5 475.01 38"/>
  </g>
  <g>
    <polygon class="cls-2" points="560 209 569.5 199.5 569.5 171 531.5 171 531.5 199.5 541 209 541 237.5 550.5 247 541 256.5 541 285 531.5 294.5 531.5 323 569.5 323 569.5 294.5 560 285 560 256.5 550.5 247 560 237.5 560 209"/>
    <polygon class="cls-14" points="588.5 171 664.5 171 664.5 228 655 228 645.5 218.5 645.5 209 636 209 636 237.5 626.5 247 636 256.5 636 285 645.5 294.5 645.5 323 607.5 323 607.5 294.5 617 285 617 256.5 626.5 247 617 237.5 617 209 607.5 209 607.5 218.5 598 228 588.5 228 588.5 171"/>
    <path class="cls-13" d="M284.49,323h38.01v-28.5s-9.51-9.5-9.51-9.5l-5.31-28.5-9.51-9.49,6.53-6.53-8.45-44.88-3.24-17.23-1.39-7.37h-40.38v28.5s9.5,9.5,9.5,9.5h0l-5.92,31.5,6.57,6.51-9.51,9.49-5.4,28.5-9.5,9.5v28.5h38v-28.5l-9.5-9.5,4.75-28.5h19l4.75,28.5-9.5,9.5v28.5ZM284.5,237.5h-9.5v-28.5h9.5v28.5Z"/>
    <path class="cls-12" d="M407.98,247.01l9.5-9.5v-57.01s-9.5-9.5-9.5-9.5h-66.5v28.5l9.52,9.5v28.5l9.5,9.5-9.5,9.5v28.47l-9.52,9.54v28.48h66.5l9.5-9.48v-57.01s-9.5-9.5-9.5-9.5ZM398.49,285.02h-28.49v-28.5h18.99l9.5,9.5v19ZM398.49,228.01l-9.5,9.5h-18.99v-28.51h28.49v19Z"/>
    <path class="cls-11" d="M503,247.01l9.5-9.5v-57.01s-9.5-9.5-9.5-9.5h-66.5v28.5l9.52,9.5v28.5l9.5,9.5-9.5,9.5v28.47l-9.52,9.54v28.48h66.5l9.5-9.48v-57.01s-9.5-9.5-9.5-9.5ZM493.5,285.02h-28.49v-28.5h18.99l9.5,9.5v19ZM493.5,228.01l-9.5,9.5h-18.99v-28.51h28.49v19Z"/>
    <polygon class="cls-16" points="759.5 180.48 759.5 218.49 750 218.49 740.51 208.99 702.51 208.99 702.51 227.99 750.01 242.25 759.5 251.75 759.5 285.01 759.5 313.52 750 323 693.01 323 683.5 313.52 683.5 275.51 693 275.51 702.5 285.01 740.5 285.01 740.5 261.25 693.01 247 683.51 237.49 683.51 180.48 693.01 171 750 171 759.5 180.48"/>
    <path class="cls-15" d="M180,256.5l9.5,9.5v56.99h28.5s0-28.49,0-28.49l-9.5-9.5v-28.5l-9.5-9.5,9.5-9.5v-57l-9.5-9.5h-66.5s0,28.5,0,28.5l9.5,9.5v28.5l9.5,9.5-9.5,9.5v28.5l-9.5,9.5v28.5h38v-28.5l-9.5-9.5v-28.5M189.49,227.99l-9.49,9.51h-19v-28.5s28.5,0,28.5,0v9.5s0,9.49,0,9.49Z"/>
  </g>
  <path class="cls-9" d="M288.4,61.9l-2.9-14.3h-16.5l-2.8,14.3h-12.8c2.93-12.2,5.9-23.32,8.9-33.35,3-10.03,5.9-19.55,8.7-28.55h13.4c2.93,9.07,5.85,18.68,8.75,28.85,2.9,10.17,5.72,21.18,8.45,33.05h-13.2ZM277.4,12c-.67,2.33-1.28,4.55-1.85,6.65-.57,2.1-1.1,4.17-1.6,6.2-.5,2.03-.97,4.08-1.4,6.15-.43,2.07-.85,4.2-1.25,6.4h12.1c-.4-2.2-.8-4.33-1.2-6.4-.4-2.07-.85-4.12-1.35-6.15-.5-2.03-1.03-4.1-1.6-6.2-.57-2.1-1.18-4.32-1.85-6.65Z"/>
  <g>
    <path class="cls-9" d="M797.6,322.72c-1.6-4.6-3.3-9.8-5.1-15.6-1.8-5.8-3.5-11.58-5.1-17.35-1.6-5.77-3.04-11.22-4.3-16.35-1.27-5.13-2.2-9.33-2.8-12.6h13c.4,3.2,1,6.92,1.8,11.15.8,4.23,1.68,8.6,2.65,13.1.97,4.5,2,8.93,3.1,13.3,1.1,4.37,2.18,8.29,3.25,11.75,1.07-3.4,2.13-7.28,3.2-11.65,1.07-4.37,2.07-8.8,3-13.3.93-4.5,1.8-8.88,2.6-13.15.8-4.27,1.46-8,2-11.2h12.9c-.8,4-1.78,8.47-2.95,13.4-1.17,4.94-2.5,10.12-4,15.55s-3.15,10.97-4.95,16.6c-1.8,5.63-3.67,11.08-5.6,16.35h-12.7Z"/>
    <path class="cls-9" d="M835.3,322.72v-61.9h37.5v10.2h-25.2v13.9h21.9v10.2h-21.9v17.4h27.4v10.2h-39.7Z"/>
    <path class="cls-9" d="M914.5,322.72c-2.8-6.87-5.85-13.71-9.15-20.55-3.3-6.83-6.85-13.68-10.65-20.55v41.1h-11.1v-61.9h9.9c1.87,2.93,3.73,6.12,5.6,9.55,1.87,3.43,3.68,6.85,5.45,10.25,1.77,3.4,3.4,6.7,4.9,9.9,1.5,3.2,2.78,6,3.85,8.4v-38.1h11.1v61.9h-9.9Z"/>
    <path class="cls-9" d="M976.5,260.82v10.2h-16.3v51.7h-12.4v-51.7h-16.3v-10.2h45Z"/>
    <path class="cls-9" d="M1003.8,324.02c-4,0-7.35-.55-10.05-1.65s-4.85-2.68-6.45-4.75c-1.6-2.07-2.73-4.57-3.4-7.5-.67-2.93-1-6.2-1-9.8v-39.5h12.4v38.7c0,2.6.13,4.78.4,6.55.27,1.77.72,3.18,1.35,4.25.63,1.07,1.52,1.83,2.65,2.3,1.13.47,2.57.7,4.3.7s3.17-.23,4.3-.7c1.13-.46,2.03-1.25,2.7-2.35.67-1.1,1.13-2.53,1.4-4.3.27-1.77.4-3.95.4-6.55v-38.6h12.3v39.5c0,3.6-.33,6.87-1,9.8-.67,2.93-1.83,5.43-3.5,7.5-1.67,2.07-3.87,3.65-6.6,4.75-2.73,1.1-6.13,1.65-10.2,1.65Z"/>
    <path class="cls-9" d="M1050.4,260.12c3.53,0,6.73.4,9.6,1.2,2.87.8,5.33,2.03,7.4,3.7,2.07,1.67,3.65,3.78,4.75,6.35,1.1,2.57,1.65,5.58,1.65,9.05s-.73,6.87-2.2,9.8c-1.47,2.94-3.9,5.17-7.3,6.7,1.13,1.73,2.33,3.65,3.6,5.75,1.27,2.1,2.5,4.3,3.7,6.6,1.2,2.3,2.35,4.6,3.45,6.9,1.1,2.3,2.05,4.48,2.85,6.55h-12.9c-1.53-4-3.32-7.85-5.35-11.55-2.04-3.7-4.22-7.45-6.55-11.25h-6.4v22.8h-12.3v-61c1.2-.27,2.52-.52,3.95-.75,1.43-.23,2.88-.4,4.35-.5,1.47-.1,2.87-.18,4.2-.25,1.33-.06,2.5-.1,3.5-.1ZM1061.3,280.32c0-3.27-1-5.67-3-7.2-2-1.53-4.63-2.3-7.9-2.3-.47,0-1.04.02-1.7.05-.67.04-1.33.12-2,.25v18.6h2.7c4.2,0,7.23-.81,9.1-2.45,1.87-1.63,2.8-3.95,2.8-6.95Z"/>
    <path class="cls-9" d="M1085.3,322.72v-61.9h37.5v10.2h-25.2v13.9h21.9v10.2h-21.9v17.4h27.4v10.2h-39.7Z"/>
    <path class="cls-9" d="M1163,314.82c0,2.93-.9,5.17-2.7,6.7s-3.87,2.3-6.2,2.3c-1.2,0-2.33-.2-3.4-.6-1.07-.4-2.02-.98-2.85-1.75-.83-.77-1.5-1.7-2-2.8-.5-1.1-.75-2.38-.75-3.85s.25-2.65.75-3.75,1.17-2.02,2-2.75c.83-.73,1.78-1.3,2.85-1.7,1.07-.4,2.2-.6,3.4-.6,2.33,0,4.4.77,6.2,2.3,1.8,1.53,2.7,3.7,2.7,6.5Z"/>
    <path class="cls-9" d="M1193,314.82c0,2.93-.9,5.17-2.7,6.7s-3.87,2.3-6.2,2.3c-1.2,0-2.33-.2-3.4-.6-1.07-.4-2.02-.98-2.85-1.75-.83-.77-1.5-1.7-2-2.8-.5-1.1-.75-2.38-.75-3.85s.25-2.65.75-3.75,1.17-2.02,2-2.75c.83-.73,1.78-1.3,2.85-1.7,1.07-.4,2.2-.6,3.4-.6,2.33,0,4.4.77,6.2,2.3,1.8,1.53,2.7,3.7,2.7,6.5Z"/>
    <path class="cls-9" d="M1223,314.82c0,2.93-.9,5.17-2.7,6.7s-3.87,2.3-6.2,2.3c-1.2,0-2.33-.2-3.4-.6-1.07-.4-2.02-.98-2.85-1.75-.83-.77-1.5-1.7-2-2.8-.5-1.1-.75-2.38-.75-3.85s.25-2.65.75-3.75,1.17-2.02,2-2.75c.83-.73,1.78-1.3,2.85-1.7,1.07-.4,2.2-.6,3.4-.6,2.33,0,4.4.77,6.2,2.3,1.8,1.53,2.7,3.7,2.7,6.5Z"/>
  </g>
</svg>