<?xml version="1.0" encoding="UTF-8"?>
<svg id="Layer_1" xmlns="http://www.w3.org/2000/svg" xmlns:xlink="http://www.w3.org/1999/xlink" viewBox="0 0 1235 323">
  <defs>
    <style>
      .cls-1 {
        fill: url(#New_Gradient_Swatch_4-6);
      }

      .cls-2 {
        fill: url(#New_Gradient_Swatch_4-9);
      }

      .cls-3 {
        fill: url(#New_Gradient_Swatch_4-8);
      }

      .cls-4 {
        fill: url(#New_Gradient_Swatch_4-7);
      }

      .cls-5 {
        fill: url(#New_Gradient_Swatch_4-5);
      }

      .cls-6 {
        fill: url(#New_Gradient_Swatch_4-3);
      }

      .cls-7 {
        fill: url(#New_Gradient_Swatch_4-4);
      }

      .cls-8 {
        fill: url(#New_Gradient_Swatch_4-2);
      }

      .cls-9 {
        fill: url(#New_Gradient_Swatch_4);
      }

      .cls-10 {
        fill: url(#New_Gradient_Swatch_4-10);
      }
    </style>
    <linearGradient id="New_Gradient_Swatch_4" data-name="New Gradient Swatch 4" x1="650.75" y1="161.56" x2="726.75" y2="161.56" gradientUnits="userSpaceOnUse">
      <stop offset="0" stop-color="#ff8933"/>
      <stop offset="1" stop-color="#ff312d"/>
    </linearGradient>
    <linearGradient id="New_Gradient_Swatch_4-2" data-name="New Gradient Swatch 4" x1="204.25" x2="280.25" xlink:href="#New_Gradient_Swatch_4"/>
    <linearGradient id="New_Gradient_Swatch_4-3" data-name="New Gradient Swatch 4" x1="745.75" x2="821.75" xlink:href="#New_Gradient_Swatch_4"/>
    <linearGradient id="New_Gradient_Swatch_4-4" data-name="New Gradient Swatch 4" x1="1040.25" x2="1125.75" xlink:href="#New_Gradient_Swatch_4"/>
    <linearGradient id="New_Gradient_Swatch_4-5" data-name="New Gradient Swatch 4" x1="289.75" x2="375.25" xlink:href="#New_Gradient_Swatch_4"/>
    <linearGradient id="New_Gradient_Swatch_4-6" data-name="New Gradient Swatch 4" x1="840.75" x2="926.25" xlink:href="#New_Gradient_Swatch_4"/>
    <linearGradient id="New_Gradient_Swatch_4-7" data-name="New Gradient Swatch 4" x1="394.13" y1="161.44" x2="479.63" y2="161.44" xlink:href="#New_Gradient_Swatch_4"/>
    <linearGradient id="New_Gradient_Swatch_4-8" data-name="New Gradient Swatch 4" x1="498.75" y1="161.44" x2="574.75" y2="161.44" xlink:href="#New_Gradient_Swatch_4"/>
    <linearGradient id="New_Gradient_Swatch_4-9" data-name="New Gradient Swatch 4" x1="945.25" x2="1021.25" xlink:href="#New_Gradient_Swatch_4"/>
    <linearGradient id="New_Gradient_Swatch_4-10" data-name="New Gradient Swatch 4" x1="109.25" x2="185.25" xlink:href="#New_Gradient_Swatch_4"/>
  </defs>
  <polygon class="cls-9" points="717.25 133.06 707.75 123.56 679.25 123.56 679.25 152.06 688.75 152.06 698.25 142.56 707.75 142.56 707.75 152.06 707.75 161.55 707.75 171.06 707.75 180.56 698.25 180.56 688.75 171.06 679.25 171.06 679.25 199.56 688.75 209.07 688.75 237.56 650.75 237.56 650.75 209.06 660.25 199.56 660.25 171.06 669.75 161.56 660.25 152.06 660.25 123.56 650.76 114.06 650.76 85.56 726.75 85.56 726.75 133.06 717.25 133.06"/>
  <polygon class="cls-8" points="213.75 199.56 223.25 209.06 242.25 209.06 251.75 199.57 251.75 171.06 261.25 161.56 251.75 152.06 251.75 123.57 242.25 114.06 242.25 85.56 280.25 85.56 280.25 114.06 270.75 123.56 270.75 152.06 261.25 161.56 270.75 171.06 270.75 199.56 270.75 228.06 261.25 237.56 204.25 237.56 204.25 199.56 213.75 199.56"/>
  <path class="cls-6" d="M821.75,152.06v-57.01l-9.5-9.49h-57l-9.49,9.49v57.01l9.49,9.48-9.49,9.51v57l9.49,9.5h57s9.5-9.5,9.5-9.5v-57l-9.5-9.51,9.5-9.48ZM802.75,199.56h-38.01v-76s38.01,0,38.01,0v76Z"/>
  <path class="cls-7" d="M1087.75,237.56h38.01v-28.5s-9.51-9.5-9.51-9.5l-5.31-28.5-9.51-9.49,6.53-6.53-8.45-44.88-3.24-17.23-1.39-7.37h-40.38v28.5s9.5,9.5,9.5,9.5h0l-5.92,31.5,6.57,6.51-9.51,9.49-5.4,28.5-9.5,9.5v28.5h38v-28.5l-9.5-9.5,4.75-28.5h19l4.75,28.5-9.5,9.5v28.5ZM1087.75,152.06h-9.5v-28.5h9.5v28.5Z"/>
  <path class="cls-5" d="M337.25,237.56h38.01v-28.5s-9.51-9.5-9.51-9.5l-5.31-28.5-9.51-9.49,6.53-6.53-8.45-44.88-3.24-17.23-1.39-7.37h-40.38v28.5s9.5,9.5,9.5,9.5h0l-5.92,31.5,6.57,6.51-9.51,9.49-5.4,28.5-9.5,9.5v28.5h38v-28.5l-9.5-9.5,4.75-28.5h19l4.75,28.5-9.5,9.5v28.5ZM337.25,152.06h-9.5v-28.5h9.5v28.5Z"/>
  <polygon class="cls-1" points="926.25 85.56 897.75 85.56 897.75 152.06 869.25 85.56 840.75 85.57 840.75 114.06 850.25 123.56 850.25 152.06 859.75 161.56 850.25 171.06 850.25 199.56 840.75 209.06 840.75 237.56 878.75 237.56 878.75 209.06 869.25 199.56 869.25 123.56 897.75 190.06 897.75 199.56 888.26 209.06 888.26 237.56 926.25 237.56 926.25 209.06 916.76 199.58 916.76 171.07 907.25 161.56 916.75 152.06 916.75 152.06 916.75 123.56 926.25 114.06 926.25 85.56"/>
  <polygon class="cls-4" points="479.63 85.44 451.13 85.44 451.13 151.94 422.63 85.44 394.13 85.45 394.13 113.94 403.63 123.44 403.63 151.94 413.13 161.44 403.63 170.94 403.63 199.44 394.13 208.94 394.13 237.44 432.13 237.44 432.13 208.94 422.63 199.44 422.63 123.44 451.13 189.94 451.13 199.44 441.63 208.94 441.63 237.44 479.63 237.44 479.63 208.94 470.13 199.45 470.13 170.94 460.63 161.44 470.13 151.94 470.13 151.94 470.13 123.43 479.63 113.94 479.63 85.44"/>
  <polygon class="cls-3" points="565.25 132.94 555.75 123.44 527.25 123.44 527.25 151.94 536.75 151.94 546.25 142.44 555.75 142.44 555.75 151.94 555.75 161.42 555.75 170.94 555.75 180.44 546.25 180.44 536.75 170.94 527.25 170.94 527.25 199.43 555.75 199.44 565.25 189.94 574.75 189.94 574.75 237.44 498.75 237.44 498.75 208.94 508.25 199.44 508.25 170.94 517.75 161.44 508.25 151.94 508.25 123.44 498.76 113.94 498.76 85.44 574.75 85.44 574.75 132.94 565.25 132.94"/>
  <path class="cls-2" d="M1011.75,85.56h-66.5v28.5l9.52,9.5v28.5l9.5,9.5-9.5,9.5v28.47l-9.52,9.54v28.48h66.5l9.5-9.48V95.06l-9.5-9.5ZM1002.25,199.58h-28.49v-76.01h28.49s0,76.01,0,76.01Z"/>
  <path class="cls-10" d="M175.75,85.56h-66.5v28.5l9.52,9.5v28.5l9.5,9.5-9.5,9.5v28.47l-9.52,9.54v28.48h66.5l9.5-9.48V95.06l-9.5-9.5ZM166.25,199.58h-28.49v-76.01h28.49s0,76.01,0,76.01Z"/>
</svg>