<?xml version="1.0" encoding="UTF-8"?>
<svg id="Component_116_1" data-name="Component 116 1" xmlns="http://www.w3.org/2000/svg" xmlns:xlink="http://www.w3.org/1999/xlink" viewBox="0 0 1231 319">
  <defs>
    <style>
      .cls-1 {
        fill: url(#New_Gradient_Swatch_4);
      }

      .cls-1, .cls-2, .cls-3, .cls-4, .cls-5, .cls-6, .cls-7, .cls-8 {
        stroke-width: 0px;
      }

      .cls-2 {
        fill: url(#New_Gradient_Swatch_4-3);
      }

      .cls-3 {
        fill: url(#New_Gradient_Swatch_4-2);
      }

      .cls-4 {
        fill: url(#New_Gradient_Swatch_4-6);
      }

      .cls-5 {
        fill: url(#New_Gradient_Swatch_4-7);
      }

      .cls-6 {
        fill: url(#New_Gradient_Swatch_4-4);
      }

      .cls-7 {
        fill: url(#New_Gradient_Swatch_4-5);
      }

      .cls-9 {
        fill: none;
        stroke: #707070;
      }

      .cls-8 {
        fill: #fff;
      }

      .cls-10 {
        opacity: 0;
      }
    </style>
    <linearGradient id="New_Gradient_Swatch_4" data-name="New Gradient Swatch 4" x1="301.43" y1="159.5" x2="376.43" y2="159.5" gradientUnits="userSpaceOnUse">
      <stop offset="0" stop-color="#ff8933"/>
      <stop offset="1" stop-color="#ff312d"/>
    </linearGradient>
    <linearGradient id="New_Gradient_Swatch_4-2" data-name="New Gradient Swatch 4" x1="592.06" x2="667.06" xlink:href="#New_Gradient_Swatch_4"/>
    <linearGradient id="New_Gradient_Swatch_4-3" data-name="New Gradient Swatch 4" x1="498.31" x2="573.31" xlink:href="#New_Gradient_Swatch_4"/>
    <linearGradient id="New_Gradient_Swatch_4-4" data-name="New Gradient Swatch 4" x1="395.18" x2="479.56" xlink:href="#New_Gradient_Swatch_4"/>
    <linearGradient id="New_Gradient_Swatch_4-5" data-name="New Gradient Swatch 4" x1="845.19" x2="929.57" xlink:href="#New_Gradient_Swatch_4"/>
    <linearGradient id="New_Gradient_Swatch_4-6" data-name="New Gradient Swatch 4" x1="788.94" x2="826.44" xlink:href="#New_Gradient_Swatch_4"/>
    <linearGradient id="New_Gradient_Swatch_4-7" data-name="New Gradient Swatch 4" x1="685.81" x2="770.19" xlink:href="#New_Gradient_Swatch_4"/>
  </defs>
  <g id="Rectangle_1555" data-name="Rectangle 1555" class="cls-10">
    <rect class="cls-8" y="0" width="1231" height="319"/>
    <rect class="cls-9" x=".5" y=".5" width="1230" height="318"/>
  </g>
  <g>
    <polygon class="cls-1" points="329.55 159.5 329.55 168.88 338.93 178.25 357.68 178.25 357.68 197 320.18 197 320.18 122 357.68 122 357.68 122 367.05 131.38 376.43 131.37 376.43 131.37 376.43 93.87 367.05 84.5 310.8 84.51 301.43 93.87 301.43 150.12 310.8 159.5 301.43 168.88 301.43 225.13 310.8 234.5 367.05 234.5 376.43 225.13 376.43 168.88 367.06 159.5 329.55 159.5"/>
    <polygon class="cls-3" points="657.69 131.37 648.31 122 620.19 122 620.19 150.13 629.56 150.13 638.94 140.75 648.31 140.75 648.31 150.13 648.31 159.49 648.31 168.88 648.31 178.25 638.94 178.25 629.56 168.88 620.19 168.88 620.19 197 648.31 197 657.69 187.63 667.06 187.63 667.06 234.5 592.06 234.5 592.06 206.38 601.44 197 601.44 168.88 610.81 159.5 601.44 150.13 601.44 122 592.07 112.62 592.07 84.5 667.06 84.5 667.06 131.37 657.69 131.37"/>
    <polygon class="cls-2" points="563.94 197 554.56 206.38 535.81 206.38 526.43 197 526.43 168.87 517.06 159.5 526.43 150.12 526.43 122 535.81 112.62 535.81 84.5 498.31 84.5 498.31 112.62 507.68 122 507.68 150.12 517.06 159.5 507.68 168.87 507.68 197 498.31 206.38 498.31 234.5 573.31 234.5 573.31 197 563.94 197"/>
    <path class="cls-6" d="M442.05,234.5h37.51v-28.13s-9.38-9.38-9.38-9.38l-5.24-28.13-9.39-9.36,6.44-6.44-8.33-44.29-3.2-17.01-1.37-7.28h-39.85v28.13s9.38,9.38,9.38,9.38h0l-5.84,31.08,6.49,6.43-9.39,9.36-5.32,28.13-9.37,9.38v28.13h37.5v-28.13l-9.37-9.38,4.69-28.13h18.75l4.69,28.13-9.37,9.38v28.13ZM442.06,150.12h-9.38v-28.13h9.38v28.13Z"/>
    <path class="cls-7" d="M892.06,234.5h37.51v-28.13s-9.38-9.38-9.38-9.38l-5.24-28.13-9.39-9.36,6.44-6.44-8.33-44.29-3.2-17.01-1.37-7.28h-39.85v28.13s9.38,9.38,9.38,9.38h0l-5.84,31.08,6.49,6.43-9.39,9.36-5.32,28.13-9.37,9.38v28.13h37.5v-28.13l-9.37-9.38,4.69-28.13h18.75l4.69,28.13-9.37,9.38v28.13ZM892.07,150.12h-9.38v-28.13h9.38v28.13Z"/>
    <polygon class="cls-4" points="817.07 122 826.44 112.62 826.44 84.5 788.94 84.5 788.94 112.62 798.32 122 798.32 150.12 807.69 159.5 798.32 168.88 798.32 197 788.94 206.38 788.94 234.5 826.44 234.5 826.44 206.38 817.07 197 817.07 168.88 807.69 159.5 817.07 150.12 817.07 122"/>
    <path class="cls-5" d="M732.69,168.88l9.38,9.38v56.24h28.13s0-28.11,0-28.11l-9.38-9.38v-28.13l-9.38-9.38,9.38-9.38v-56.25l-9.38-9.38h-65.63s0,28.13,0,28.13l9.38,9.38v28.13l9.38,9.37-9.38,9.38v28.13l-9.38,9.38v28.13h37.5v-28.13l-9.38-9.38v-28.13M742.06,140.74l-9.37,9.39h-18.75v-28.13s28.13,0,28.13,0v9.38s0,9.36,0,9.36Z"/>
  </g>
</svg>