<?xml version="1.0" encoding="UTF-8"?>
<svg xmlns="http://www.w3.org/2000/svg" xmlns:xlink="http://www.w3.org/1999/xlink" version="1.1" viewBox="0 0 1231 319">
  <defs>
    <style>
      .cls-1 {
        fill: none;
      }

      .cls-2 {
        fill: #ffcb8f;
        font-family: UbuntuMono-Bold, 'Ubuntu Mono';
        font-size: 100px;
        font-weight: 700;
      }

      .cls-2, .cls-3 {
        isolation: isolate;
      }

      .cls-4 {
        fill: url(#linear-gradient-8);
      }

      .cls-5 {
        fill: url(#linear-gradient-7);
      }

      .cls-6 {
        fill: url(#linear-gradient-5);
      }

      .cls-7 {
        fill: url(#linear-gradient-6);
      }

      .cls-8 {
        fill: url(#linear-gradient-9);
      }

      .cls-9 {
        fill: url(#linear-gradient-4);
      }

      .cls-10 {
        fill: url(#linear-gradient-3);
      }

      .cls-11 {
        fill: url(#linear-gradient-2);
      }

      .cls-12 {
        fill: url(#linear-gradient);
      }

      .cls-13 {
        clip-path: url(#clippath-17);
      }

      .cls-14 {
        clip-path: url(#clippath-19);
      }

      .cls-15 {
        clip-path: url(#clippath-11);
      }

      .cls-16 {
        clip-path: url(#clippath-16);
      }

      .cls-17 {
        clip-path: url(#clippath-18);
      }

      .cls-18 {
        clip-path: url(#clippath-10);
      }

      .cls-19 {
        clip-path: url(#clippath-15);
      }

      .cls-20 {
        clip-path: url(#clippath-13);
      }

      .cls-21 {
        clip-path: url(#clippath-14);
      }

      .cls-22 {
        clip-path: url(#clippath-12);
      }

      .cls-23 {
        clip-path: url(#clippath-27);
      }

      .cls-24 {
        clip-path: url(#clippath-26);
      }

      .cls-25 {
        clip-path: url(#clippath-28);
      }

      .cls-26 {
        clip-path: url(#clippath-20);
      }

      .cls-27 {
        clip-path: url(#clippath-21);
      }

      .cls-28 {
        clip-path: url(#clippath-22);
      }

      .cls-29 {
        clip-path: url(#clippath-23);
      }

      .cls-30 {
        clip-path: url(#clippath-24);
      }

      .cls-31 {
        clip-path: url(#clippath-25);
      }

      .cls-32 {
        clip-path: url(#clippath-1);
      }

      .cls-33 {
        clip-path: url(#clippath-3);
      }

      .cls-34 {
        clip-path: url(#clippath-4);
      }

      .cls-35 {
        clip-path: url(#clippath-2);
      }

      .cls-36 {
        clip-path: url(#clippath-7);
      }

      .cls-37 {
        clip-path: url(#clippath-6);
      }

      .cls-38 {
        clip-path: url(#clippath-9);
      }

      .cls-39 {
        clip-path: url(#clippath-8);
      }

      .cls-40 {
        clip-path: url(#clippath-5);
      }

      .cls-41 {
        fill: #fff;
        stroke: #000;
        stroke-miterlimit: 10;
      }

      .cls-42 {
        fill: url(#linear-gradient-10);
      }

      .cls-43 {
        fill: url(#linear-gradient-11);
      }

      .cls-44 {
        fill: url(#linear-gradient-12);
      }

      .cls-45 {
        fill: url(#linear-gradient-13);
      }

      .cls-46 {
        fill: url(#linear-gradient-19);
      }

      .cls-47 {
        fill: url(#linear-gradient-14);
      }

      .cls-48 {
        fill: url(#linear-gradient-21);
      }

      .cls-49 {
        fill: url(#linear-gradient-20);
      }

      .cls-50 {
        fill: url(#linear-gradient-22);
      }

      .cls-51 {
        fill: url(#linear-gradient-23);
      }

      .cls-52 {
        fill: url(#linear-gradient-28);
      }

      .cls-53 {
        fill: url(#linear-gradient-25);
      }

      .cls-54 {
        fill: url(#linear-gradient-15);
      }

      .cls-55 {
        fill: url(#linear-gradient-16);
      }

      .cls-56 {
        fill: url(#linear-gradient-17);
      }

      .cls-57 {
        fill: url(#linear-gradient-18);
      }

      .cls-58 {
        fill: url(#linear-gradient-27);
      }

      .cls-59 {
        fill: url(#linear-gradient-24);
      }

      .cls-60 {
        fill: url(#linear-gradient-26);
      }

      .cls-61 {
        fill: url(#linear-gradient-29);
      }

      .cls-62 {
        clip-path: url(#clippath);
      }
    </style>
    <clipPath id="clippath">
      <polygon class="cls-1" points="714.1 168.3 690.6 191.8 667.1 168.4 648.3 168.3 648.3 196.5 657.7 205.9 657.7 234.1 667.1 243.5 657.7 252.9 657.7 281.1 648.3 290.5 648.3 318.7 685.9 318.7 685.9 290.5 676.5 281.1 676.5 205.9 690.6 220 704.7 205.9 704.7 205.9 704.7 281.1 695.3 290.5 695.3 318.7 732.9 318.7 732.9 290.5 723.5 281.1 723.5 252.9 714.1 243.5 723.5 234.1 723.5 205.9 732.9 196.5 732.9 168.3 714.1 168.3"/>
    </clipPath>
    <linearGradient id="linear-gradient" x1="314.3" y1="578.7" x2="315.3" y2="578.7" gradientTransform="translate(-26064.3 87621.5) scale(85 -151)" gradientUnits="userSpaceOnUse">
      <stop offset="0" stop-color="#ff8a33"/>
      <stop offset="1" stop-color="#ff312d"/>
    </linearGradient>
    <clipPath id="clippath-1">
      <polygon class="cls-1" points="714.1 168.3 690.6 191.8 667.1 168.4 648.3 168.3 648.3 196.5 657.7 205.9 657.7 234.1 667.1 243.5 657.7 252.9 657.7 281.1 648.3 290.5 648.3 318.7 685.9 318.7 685.9 290.5 676.5 281.1 676.5 205.9 690.6 220 704.7 205.9 704.7 205.9 704.7 281.1 695.3 290.5 695.3 318.7 732.9 318.7 732.9 290.5 723.5 281.1 723.5 252.9 714.1 243.5 723.5 234.1 723.5 205.9 732.9 196.5 732.9 168.3 714.1 168.3"/>
    </clipPath>
    <linearGradient id="linear-gradient-2" x1="314.3" y1="578.7" x2="315.3" y2="578.7" gradientTransform="translate(-26064.3 87621.5) scale(85 -151)" gradientUnits="userSpaceOnUse">
      <stop offset="0" stop-color="#ff8a33"/>
      <stop offset="1" stop-color="#ff312d"/>
    </linearGradient>
    <clipPath id="clippath-2">
      <path class="cls-1" d="M39.2,252.9h18.8l9.4,9.4v18.8h-28.2v-28.2ZM39.2,205.9h28.2v18.8l-9.4,9.4h-18.8v-28.2ZM11,168.3v28.2l9.4,9.4v28.2l9.4,9.4-9.4,9.4v28.2l-9.4,9.4v28.2h65.8l9.4-9.4v-56.4l-9.4-9.4,9.4-9.4v-56.4l-9.4-9.4H11Z"/>
    </clipPath>
    <linearGradient id="linear-gradient-3" x1="313.8" y1="578.7" x2="314.8" y2="578.7" gradientTransform="translate(-23839.3 87621.5) scale(76 -151)" gradientUnits="userSpaceOnUse">
      <stop offset="0" stop-color="#ff8a33"/>
      <stop offset="1" stop-color="#ff312d"/>
    </linearGradient>
    <clipPath id="clippath-3">
      <polygon class="cls-1" points="107.4 0 51 0 41.6 9.4 41.6 65.8 51 75.2 41.6 84.6 41.6 141 51 150.4 107.4 150.4 116.8 141 116.8 84.6 107.4 75.2 69.8 75.2 69.8 84.6 79.2 94 98 94 98 112.8 60.4 112.8 60.4 37.6 98 37.6 107.4 47 116.8 47 116.8 9.4 107.4 0"/>
    </clipPath>
    <linearGradient id="linear-gradient-4" x1="313.7" y1="578.7" x2="314.7" y2="578.7" gradientTransform="translate(-23172.3 87453.4) scale(74 -151)" gradientUnits="userSpaceOnUse">
      <stop offset="0" stop-color="#ff8a33"/>
      <stop offset="1" stop-color="#ff312d"/>
    </linearGradient>
    <clipPath id="clippath-4">
      <path class="cls-1" d="M210.8,65.8V9.4L201.4,0h-56.4l-9.4,9.4v56.4l9.4,9.4-9.4,9.4v56.4l9.4,9.4h56.4l9.4-9.4v-56.4l-9.4-9.4,9.4-9.4ZM192,112.8h-37.6V37.6h37.6v75.2Z"/>
    </clipPath>
    <linearGradient id="linear-gradient-5" x1="313.8" y1="578.7" x2="314.8" y2="578.7" gradientTransform="translate(-23715.3 87453.4) scale(76 -151)" gradientUnits="userSpaceOnUse">
      <stop offset="0" stop-color="#ff8a33"/>
      <stop offset="1" stop-color="#ff312d"/>
    </linearGradient>
    <clipPath id="clippath-5">
      <path class="cls-1" d="M1025.8,65.8V9.4L1016.4,0h-56.4l-9.4,9.4v56.4l9.4,9.4-9.4,9.4v56.4l9.4,9.4h56.4l9.4-9.4v-56.4l-9.4-9.4,9.4-9.4ZM1007,112.8h-37.6V37.6h37.6v75.2Z"/>
    </clipPath>
    <linearGradient id="linear-gradient-6" x1="313.7" y1="578.7" x2="314.7" y2="578.7" gradientTransform="translate(-22263.2 87453.4) scale(74 -151)" gradientUnits="userSpaceOnUse">
      <stop offset="0" stop-color="#ff8a33"/>
      <stop offset="1" stop-color="#ff312d"/>
    </linearGradient>
    <clipPath id="clippath-6">
      <path class="cls-1" d="M1060.4,205.9h37.6v75.2h-37.6v-75.2ZM1051,168.3l-9.4,9.4v56.4l9.4,9.4-9.4,9.4v56.4l9.4,9.4h56.4l9.4-9.4v-56.4l-9.4-9.4,9.4-9.4v-56.4l-9.4-9.4h-56.4Z"/>
    </clipPath>
    <linearGradient id="linear-gradient-7" x1="313.8" y1="578.7" x2="314.8" y2="578.7" gradientTransform="translate(-22808.8 87621.5) scale(76 -151)" gradientUnits="userSpaceOnUse">
      <stop offset="0" stop-color="#ff8a33"/>
      <stop offset="1" stop-color="#ff312d"/>
    </linearGradient>
    <clipPath id="clippath-7">
      <polygon class="cls-1" points="397.8 9.4 397.8 47 388.4 47 379 37.6 341.4 37.6 341.4 56.4 388.4 70.5 397.8 79.9 397.8 112.8 397.8 141 388.4 150.4 332 150.4 322.6 141 322.6 103.4 332 103.4 341.4 112.8 379 112.8 379 89.3 332 75.2 322.6 65.8 322.6 9.4 332 0 388.4 0 397.8 9.4"/>
    </clipPath>
    <linearGradient id="linear-gradient-8" x1="313.8" y1="578.7" x2="314.8" y2="578.7" gradientTransform="translate(-23209.2 87453.4) scale(75 -151)" gradientUnits="userSpaceOnUse">
      <stop offset="0" stop-color="#ff8a33"/>
      <stop offset="1" stop-color="#ff312d"/>
    </linearGradient>
    <clipPath id="clippath-8">
      <polygon class="cls-1" points="575.9 47 566.5 37.6 538.3 37.6 538.3 65.8 547.7 65.8 557.1 56.4 566.5 56.4 566.5 94 557.1 94 547.7 84.6 538.3 84.6 538.3 112.8 566.5 112.8 575.9 103.4 585.3 103.4 585.3 150.4 510.1 150.4 510.1 122.2 519.5 112.8 519.5 84.6 528.9 75.2 519.5 65.8 519.5 37.6 510.1 28.2 510.1 0 585.3 0 585.3 47 575.9 47"/>
    </clipPath>
    <linearGradient id="linear-gradient-9" x1="313.8" y1="578.7" x2="314.8" y2="578.7" gradientTransform="translate(-23340.8 87453.4) scale(76 -151)" gradientUnits="userSpaceOnUse">
      <stop offset="0" stop-color="#ff8a33"/>
      <stop offset="1" stop-color="#ff312d"/>
    </linearGradient>
    <clipPath id="clippath-9">
      <polygon class="cls-1" points="554.6 168.3 554.6 196.5 564 205.9 564 234.1 573.4 243.5 564 252.9 564 281.1 554.6 290.5 554.6 318.7 629.8 318.7 629.8 271.7 620.4 271.7 611 281.1 582.8 281.1 582.8 252.9 592.2 252.9 601.6 262.3 611 262.3 611 224.7 601.6 224.7 592.2 234.1 582.8 234.1 582.8 205.9 611 205.9 620.4 215.3 629.8 215.3 629.8 168.3 554.6 168.3"/>
    </clipPath>
    <linearGradient id="linear-gradient-10" x1="313.8" y1="578.7" x2="314.8" y2="578.7" gradientTransform="translate(-23296 87621.5) scale(76 -151)" gradientUnits="userSpaceOnUse">
      <stop offset="0" stop-color="#ff8a33"/>
      <stop offset="1" stop-color="#ff312d"/>
    </linearGradient>
    <clipPath id="clippath-10">
      <polygon class="cls-1" points="845.1 168.3 845.1 196.5 854.5 205.9 854.5 234.1 863.9 243.5 854.5 252.9 854.5 281.1 845.1 290.5 845.1 318.7 920.3 318.7 920.3 271.7 910.9 271.7 901.5 281.1 873.3 281.1 873.3 252.9 882.7 252.9 892.1 262.3 901.5 262.3 901.5 224.7 892.1 224.7 882.7 234.1 873.3 234.1 873.3 205.9 901.5 205.9 910.9 215.3 920.3 215.3 920.3 168.3 845.1 168.3"/>
    </clipPath>
    <linearGradient id="linear-gradient-11" x1="313.8" y1="578.7" x2="314.8" y2="578.7" gradientTransform="translate(-22686.8 87621.5) scale(75 -151)" gradientUnits="userSpaceOnUse">
      <stop offset="0" stop-color="#ff8a33"/>
      <stop offset="1" stop-color="#ff312d"/>
    </linearGradient>
    <clipPath id="clippath-11">
      <polygon class="cls-1" points="669.6 47 660.2 37.6 632 37.6 632 65.8 641.4 65.8 650.8 56.4 660.2 56.4 660.2 94 650.8 94 641.4 84.6 632 84.6 632 112.8 660.2 112.8 669.6 103.4 679 103.4 679 150.4 603.8 150.4 603.8 122.2 613.2 112.8 613.2 84.6 622.6 75.2 613.2 65.8 613.2 37.6 603.8 28.2 603.8 0 679 0 679 47 669.6 47"/>
    </clipPath>
    <linearGradient id="linear-gradient-12" x1="313.8" y1="578.7" x2="314.8" y2="578.7" gradientTransform="translate(-22928.1 87453.4) scale(75 -151)" gradientUnits="userSpaceOnUse">
      <stop offset="0" stop-color="#ff8a33"/>
      <stop offset="1" stop-color="#ff312d"/>
    </linearGradient>
    <clipPath id="clippath-12">
      <polygon class="cls-1" points="1100.4 112.5 1091.3 121.6 1091 121.9 1081.6 121.9 1081.3 121.6 1072.2 112.5 1072.2 84.3 1062.8 74.9 1053.4 84.3 1053.4 140.7 1062.8 150.1 1109.8 150.1 1119.2 140.7 1119.2 84.3 1109.8 74.9 1100.4 84.3 1100.4 112.5"/>
    </clipPath>
    <linearGradient id="linear-gradient-13" x1="313.2" y1="577" x2="314.2" y2="577" gradientTransform="translate(-19616.8 43961.4) scale(66 -76)" gradientUnits="userSpaceOnUse">
      <stop offset="0" stop-color="#ff8a33"/>
      <stop offset="1" stop-color="#ff312d"/>
    </linearGradient>
    <clipPath id="clippath-13">
      <polygon class="cls-1" points="1091 0 1091 28.2 1100.4 37.6 1100.4 65.8 1109.8 75.2 1119.2 65.8 1119.2 37.6 1128.6 28.2 1128.6 0 1091 0"/>
    </clipPath>
    <linearGradient id="linear-gradient-14" x1="309.6" y1="576.9" x2="310.6" y2="576.9" gradientTransform="translate(-10674.8 43305.8) scale(38 -75)" gradientUnits="userSpaceOnUse">
      <stop offset="0" stop-color="#ff8a33"/>
      <stop offset="1" stop-color="#ff312d"/>
    </linearGradient>
    <clipPath id="clippath-14">
      <polygon class="cls-1" points="1072.2 37.6 1081.6 28.2 1081.6 0 1044 0 1044 28.2 1053.4 37.6 1053.4 65.8 1062.8 75.2 1072.2 65.8 1072.2 37.6"/>
    </clipPath>
    <linearGradient id="linear-gradient-15" x1="309.6" y1="576.9" x2="310.6" y2="576.9" gradientTransform="translate(-10722.8 43305.8) scale(38 -75)" gradientUnits="userSpaceOnUse">
      <stop offset="0" stop-color="#ff8a33"/>
      <stop offset="1" stop-color="#ff312d"/>
    </linearGradient>
    <clipPath id="clippath-15">
      <polygon class="cls-1" points="105 168.3 105 196.5 114.4 205.9 114.4 234.1 123.8 243.5 114.4 252.9 114.4 281.1 105 290.5 105 318.7 180.2 318.7 180.2 281.1 170.8 281.1 161.4 290.5 142.6 290.5 133.2 281.1 133.2 252.9 123.8 243.5 133.2 234.1 133.2 205.9 142.6 196.5 142.6 168.3 105 168.3"/>
    </clipPath>
    <linearGradient id="linear-gradient-16" x1="313.8" y1="578.7" x2="314.8" y2="578.7" gradientTransform="translate(-23426.3 87621.5) scale(75 -151)" gradientUnits="userSpaceOnUse">
      <stop offset="0" stop-color="#ff8a33"/>
      <stop offset="1" stop-color="#ff312d"/>
    </linearGradient>
    <clipPath id="clippath-16">
      <path class="cls-1" d="M236,205.9h9.4v28.2h-9.4v-28.2ZM212.5,168.3v28.2l9.4,9.4-5.9,31.2,6.5,6.4-9.4,9.4-5.3,28.2-9.4,9.4v28.2h37.6v-28.2l-9.4-9.4,4.7-28.2h18.8l4.7,28.2-9.4,9.4v28.2h37.6v-28.2s-9.4-9.4-9.4-9.4l-5.3-28.2-9.4-9.4,6.5-6.5-8.4-44.4-3.2-17.1-1.4-7.3h-40Z"/>
    </clipPath>
    <linearGradient id="linear-gradient-17" x1="314.3" y1="578.7" x2="315.3" y2="578.7" gradientTransform="translate(-26513.9 87621.5) scale(85 -151)" gradientUnits="userSpaceOnUse">
      <stop offset="0" stop-color="#ff8a33"/>
      <stop offset="1" stop-color="#ff312d"/>
    </linearGradient>
    <clipPath id="clippath-17">
      <path class="cls-1" d="M967,205.9h28.2v18.8l-9.4,9.4h-18.8v-28.2ZM938.8,196.5l9.4,9.4v28.2l9.4,9.4-9.4,9.4v28.2l-9.4,9.4v28.2h37.6v-28.2l-9.4-9.4v-28.2h18.8l9.4,9.4v56.4h28.2s0-28.2,0-28.2l-9.4-9.4v-28.2l-9.4-9.4,9.4-9.4v-56.4l-9.4-9.4h-65.8v28.2Z"/>
    </clipPath>
    <linearGradient id="linear-gradient-18" x1="314.3" y1="578.7" x2="315.3" y2="578.7" gradientTransform="translate(-25773.2 87621.5) scale(85 -151)" gradientUnits="userSpaceOnUse">
      <stop offset="0" stop-color="#ff8a33"/>
      <stop offset="1" stop-color="#ff312d"/>
    </linearGradient>
    <clipPath id="clippath-18">
      <path class="cls-1" d="M1163.8,205.9h28.2v18.8l-9.4,9.4h-18.8v-28.2ZM1135.6,196.5l9.4,9.4v28.2l9.4,9.4-9.4,9.4v28.2l-9.4,9.4v28.2h37.6v-28.2l-9.4-9.4v-28.2h18.8l9.4,9.4v56.4h28.2s0-28.2,0-28.2l-9.4-9.4v-28.2l-9.4-9.4,9.4-9.4v-56.4l-9.4-9.4h-65.8v28.2Z"/>
    </clipPath>
    <linearGradient id="linear-gradient-19" x1="314.2" y1="578.7" x2="315.2" y2="578.7" gradientTransform="translate(-25257.8 87621.5) scale(84 -151)" gradientUnits="userSpaceOnUse">
      <stop offset="0" stop-color="#ff8a33"/>
      <stop offset="1" stop-color="#ff312d"/>
    </linearGradient>
    <clipPath id="clippath-19">
      <path class="cls-1" d="M779.6,205.9h28.2v18.8l-9.4,9.4h-18.8v-28.2ZM751.4,196.5l9.4,9.4v28.2l9.4,9.4-9.4,9.4v28.2l-9.4,9.4v28.2h37.6v-28.2l-9.4-9.4v-28.2h28.2l18.8-18.8v-56.4l-9.4-9.4h-65.8v28.2Z"/>
    </clipPath>
    <linearGradient id="linear-gradient-20" x1="313.8" y1="578.7" x2="314.8" y2="578.7" gradientTransform="translate(-22780.6 87621.5) scale(75 -151)" gradientUnits="userSpaceOnUse">
      <stop offset="0" stop-color="#ff8a33"/>
      <stop offset="1" stop-color="#ff312d"/>
    </linearGradient>
    <clipPath id="clippath-20">
      <path class="cls-1" d="M472.8,84.6l18.8-18.8V9.4L482.2,0h-65.8v28.2l9.4,9.4v28.2l9.4,9.4-9.4,9.4v28.2l-9.4,9.4v28.2h37.6v-28.2l-9.4-9.4v-28.2M472.7,56.4l-9.4,9.4h-18.8v-28.2h28.2v18.8Z"/>
    </clipPath>
    <linearGradient id="linear-gradient-21" x1="313.8" y1="578.7" x2="314.8" y2="578.7" gradientTransform="translate(-23433.5 87453.4) scale(76 -151)" gradientUnits="userSpaceOnUse">
      <stop offset="0" stop-color="#ff8a33"/>
      <stop offset="1" stop-color="#ff312d"/>
    </linearGradient>
    <clipPath id="clippath-21">
      <path class="cls-1" d="M294.7,0h-65.8v28.2l9.4,9.4v28.2l9.4,9.4-9.4,9.4v28.2l-9.4,9.4v28.2h65.8l9.4-9.4V9.4L294.7,0ZM285.3,112.8h-28.2V37.6h28.2v75.2Z"/>
    </clipPath>
    <linearGradient id="linear-gradient-22" x1="313.8" y1="578.7" x2="314.8" y2="578.7" gradientTransform="translate(-23303 87453.4) scale(75 -151)" gradientUnits="userSpaceOnUse">
      <stop offset="0" stop-color="#ff8a33"/>
      <stop offset="1" stop-color="#ff312d"/>
    </linearGradient>
    <clipPath id="clippath-22">
      <path class="cls-1" d="M763.3,0h-65.8v28.2l9.4,9.4v28.2l9.4,9.4-9.4,9.4v28.2l-9.4,9.4v28.2h65.8l9.4-9.4V9.4L763.3,0ZM753.9,112.8h-28.2V37.6h28.2v75.2Z"/>
    </clipPath>
    <linearGradient id="linear-gradient-23" x1="313.8" y1="578.7" x2="314.8" y2="578.7" gradientTransform="translate(-22834.4 87453.4) scale(75 -151)" gradientUnits="userSpaceOnUse">
      <stop offset="0" stop-color="#ff8a33"/>
      <stop offset="1" stop-color="#ff312d"/>
    </linearGradient>
    <clipPath id="clippath-23">
      <polygon class="cls-1" points="395.2 168.3 395.2 196.5 404.6 205.9 404.6 234.1 414 243.5 404.6 252.9 404.6 281.1 395.2 290.5 395.2 318.7 432.8 318.7 432.8 290.5 423.4 281.1 423.4 252.9 442.2 252.9 451.6 262.3 451.6 318.7 479.8 318.7 479.8 290.5 470.4 281.1 470.4 252.9 461 243.5 470.4 234.1 470.4 205.9 479.8 196.5 479.8 168.3 451.6 168.3 451.6 187.1 451.6 224.7 442.2 234.1 423.4 234.1 423.4 205.9 432.8 196.5 432.8 168.3 395.2 168.3"/>
    </clipPath>
    <linearGradient id="linear-gradient-24" x1="314.3" y1="578.7" x2="315.3" y2="578.7" gradientTransform="translate(-26635.5 87621.5) scale(86 -151)" gradientUnits="userSpaceOnUse">
      <stop offset="0" stop-color="#ff8a33"/>
      <stop offset="1" stop-color="#ff312d"/>
    </linearGradient>
    <clipPath id="clippath-24">
      <polygon class="cls-1" points="903.8 65.8 875.7 65.8 875.7 37.6 885 28.2 885 0 847.4 0 847.4 28.2 856.8 37.6 856.8 65.8 866.2 75.2 880.3 84.6 880.3 112.8 870.9 122.2 870.9 150.4 908.5 150.4 908.5 122.2 899.1 112.8 899.1 84.6 913.2 75.2 922.6 65.8 922.6 37.6 932 28.2 932 0 894.4 0 894.4 28.2 903.8 37.6 903.8 65.8"/>
    </clipPath>
    <linearGradient id="linear-gradient-25" x1="314.3" y1="578.7" x2="315.3" y2="578.7" gradientTransform="translate(-25864.9 87453.4) scale(85 -151)" gradientUnits="userSpaceOnUse">
      <stop offset="0" stop-color="#ff8a33"/>
      <stop offset="1" stop-color="#ff312d"/>
    </linearGradient>
    <clipPath id="clippath-25">
      <polygon class="cls-1" points="310.9 168.3 301.5 177.7 301.5 234.1 310.9 243.5 301.5 252.9 301.5 309.3 310.9 318.7 367.3 318.7 376.7 309.3 376.7 271.7 367.3 271.7 357.9 281.1 320.3 281.1 320.3 205.9 357.9 205.9 367.3 215.3 376.7 215.3 376.7 177.7 367.3 168.3 310.9 168.3"/>
    </clipPath>
    <linearGradient id="linear-gradient-26" x1="313.7" y1="578.7" x2="314.7" y2="578.7" gradientTransform="translate(-22912.2 87621.5) scale(74 -151)" gradientUnits="userSpaceOnUse">
      <stop offset="0" stop-color="#ff8a33"/>
      <stop offset="1" stop-color="#ff312d"/>
    </linearGradient>
    <clipPath id="clippath-26">
      <path class="cls-1" d="M320.3,206.2h37.6-37.6Z"/>
    </clipPath>
    <linearGradient id="linear-gradient-27" x1="309.6" y1="319.9" x2="310.6" y2="319.9" gradientTransform="translate(-11445.2 525.4) scale(38 -1)" gradientUnits="userSpaceOnUse">
      <stop offset="0" stop-color="#ff8a33"/>
      <stop offset="1" stop-color="#ff312d"/>
    </linearGradient>
    <clipPath id="clippath-27">
      <polygon class="cls-1" points="1156.8 150 1175.6 150 1185 140.6 1185 121.8 1175.6 112.4 1156.8 112.4 1147.4 121.8 1147.4 140.6 1156.8 150"/>
    </clipPath>
    <linearGradient id="linear-gradient-28" x1="309.2" y1="573.5" x2="310.2" y2="573.5" gradientTransform="translate(-9981.8 21925.5) scale(36 -38)" gradientUnits="userSpaceOnUse">
      <stop offset="0" stop-color="#ff8a33"/>
      <stop offset="1" stop-color="#ff312d"/>
    </linearGradient>
    <clipPath id="clippath-28">
      <polygon class="cls-1" points="1147.4 103.4 1147.4 94 1156.8 84.6 1156.8 37.6 1147.4 28.2 1147.4 0 1185 0 1185 28.2 1175.6 37.6 1175.6 84.6 1185 94 1185 103.4 1147.4 103.4"/>
    </clipPath>
    <linearGradient id="linear-gradient-29" x1="309.2" y1="577.9" x2="310.2" y2="577.9" gradientTransform="translate(-9981.8 59570.7) scale(36 -103)" gradientUnits="userSpaceOnUse">
      <stop offset="0" stop-color="#ff8a33"/>
      <stop offset="1" stop-color="#ff312d"/>
    </linearGradient>
  </defs>
  <!-- Generator: Adobe Illustrator 28.6.0, SVG Export Plug-In . SVG Version: 1.2.0 Build 709)  -->
  <g>
    <g id="Component_184_1">
      <g id="Group_3279">
        <g id="Group_3005">
          <g class="cls-62">
            <g id="Group_3004">
              <rect id="Rectangle_1363" class="cls-12" x="647.7" y="168.2" width="85" height="151"/>
            </g>
          </g>
        </g>
        <g id="Group_3007">
          <g class="cls-32">
            <g id="Group_3006">
              <rect id="Rectangle_1364" class="cls-11" x="647.7" y="168.2" width="85" height="151"/>
            </g>
          </g>
        </g>
        <g id="Group_3009">
          <g class="cls-35">
            <g id="Group_3008">
              <rect id="Rectangle_1365" class="cls-10" x="10.7" y="168.2" width="76" height="151"/>
            </g>
          </g>
        </g>
        <g id="Group_3011">
          <g class="cls-33">
            <g id="Group_3010">
              <rect id="Rectangle_1366" class="cls-9" x="41.7" y="0" width="74" height="151"/>
            </g>
          </g>
        </g>
        <g id="Group_3013">
          <g class="cls-34">
            <g id="Group_3012">
              <rect id="Rectangle_1367" class="cls-6" x="134.7" y="0" width="76" height="151"/>
            </g>
          </g>
        </g>
        <g id="Group_3015">
          <g class="cls-40">
            <g id="Group_3014">
              <rect id="Rectangle_1368" class="cls-7" x="950.8" y="0" width="74" height="151"/>
            </g>
          </g>
        </g>
        <g id="Group_3017">
          <g class="cls-37">
            <g id="Group_3016">
              <rect id="Rectangle_1369" class="cls-5" x="1041.2" y="168.2" width="76" height="151"/>
            </g>
          </g>
        </g>
        <g id="Group_3019">
          <g class="cls-36">
            <g id="Group_3018">
              <rect id="Rectangle_1370" class="cls-4" x="322.8" y="0" width="75" height="151"/>
            </g>
          </g>
        </g>
        <g id="Group_3021">
          <g class="cls-39">
            <g id="Group_3020">
              <rect id="Rectangle_1371" class="cls-8" x="509.2" y="0" width="76" height="151"/>
            </g>
          </g>
        </g>
        <g id="Group_3023">
          <g class="cls-38">
            <g id="Group_3022">
              <rect id="Rectangle_1372" class="cls-42" x="554" y="168.2" width="76" height="151"/>
            </g>
          </g>
        </g>
        <g id="Group_3025">
          <g class="cls-18">
            <g id="Group_3024">
              <rect id="Rectangle_1373" class="cls-43" x="845.2" y="168.2" width="75" height="151"/>
            </g>
          </g>
        </g>
        <g id="Group_3027">
          <g class="cls-15">
            <g id="Group_3026">
              <rect id="Rectangle_1374" class="cls-44" x="603.9" y="0" width="75" height="151"/>
            </g>
          </g>
        </g>
        <g id="Group_3029">
          <g class="cls-22">
            <g id="Group_3028">
              <rect id="Rectangle_1375" class="cls-45" x="1053.2" y="74.8" width="66" height="76"/>
            </g>
          </g>
        </g>
        <g id="Group_3031">
          <g class="cls-20">
            <g id="Group_3030">
              <rect id="Rectangle_1376" class="cls-47" x="1091.2" y="0" width="38" height="75"/>
            </g>
          </g>
        </g>
        <g id="Group_3033">
          <g class="cls-21">
            <g id="Group_3032">
              <rect id="Rectangle_1377" class="cls-54" x="1043.2" y="0" width="38" height="75"/>
            </g>
          </g>
        </g>
        <g id="Group_3035">
          <g class="cls-19">
            <g id="Group_3034">
              <rect id="Rectangle_1378" class="cls-55" x="105.7" y="168.2" width="75" height="151"/>
            </g>
          </g>
        </g>
        <g id="Group_3037">
          <g class="cls-16">
            <g id="Group_3036">
              <rect id="Rectangle_1379" class="cls-56" x="198.1" y="168.2" width="85" height="151"/>
            </g>
          </g>
        </g>
        <g id="Group_3039">
          <g class="cls-13">
            <g id="Group_3038">
              <rect id="Rectangle_1380" class="cls-57" x="938.8" y="168.2" width="85" height="151"/>
            </g>
          </g>
        </g>
        <g id="Group_3041">
          <g class="cls-17">
            <g id="Group_3040">
              <rect id="Rectangle_1381" class="cls-46" x="1136.2" y="168.2" width="84" height="151"/>
            </g>
          </g>
        </g>
        <g id="Group_3043">
          <g class="cls-14">
            <g id="Group_3042">
              <rect id="Rectangle_1382" class="cls-49" x="751.4" y="168.2" width="75" height="151"/>
            </g>
          </g>
        </g>
        <g id="Group_3045">
          <g class="cls-26">
            <g id="Group_3044">
              <rect id="Rectangle_1383" class="cls-48" x="416.5" y="0" width="76" height="151"/>
            </g>
          </g>
        </g>
        <g id="Group_3047">
          <g class="cls-27">
            <g id="Group_3046">
              <rect id="Rectangle_1384" class="cls-50" x="229" y="0" width="75" height="151"/>
            </g>
          </g>
        </g>
        <g id="Group_3049">
          <g class="cls-28">
            <g id="Group_3048">
              <rect id="Rectangle_1385" class="cls-51" x="697.6" y="0" width="75" height="151"/>
            </g>
          </g>
        </g>
        <g id="Group_3051">
          <g class="cls-29">
            <g id="Group_3050">
              <rect id="Rectangle_1386" class="cls-59" x="394.5" y="168.2" width="86" height="151"/>
            </g>
          </g>
        </g>
        <g id="Group_3053">
          <g class="cls-30">
            <g id="Group_3052">
              <rect id="Rectangle_1387" class="cls-53" x="847.1" y="0" width="85" height="151"/>
            </g>
          </g>
        </g>
        <g id="Group_3055">
          <g class="cls-31">
            <g id="Group_3054">
              <rect id="Rectangle_1388" class="cls-60" x="301.8" y="168.2" width="74" height="151"/>
            </g>
          </g>
        </g>
        <g id="Group_3057">
          <g class="cls-24">
            <g id="Group_3056">
              <polygon id="Rectangle_1389" class="cls-58" points="320.8 205.5 358.8 205.5 358.8 205.5 320.8 205.5"/>
            </g>
          </g>
        </g>
        <g id="Group_3059">
          <g class="cls-23">
            <g id="Group_3058">
              <rect id="Rectangle_1390" class="cls-52" x="1148.2" y="112.7" width="36" height="38"/>
            </g>
          </g>
        </g>
        <g id="Group_3061">
          <g class="cls-25">
            <g id="Group_3060">
              <rect id="Rectangle_1391" class="cls-61" x="1148.2" y="0" width="36" height="103"/>
            </g>
          </g>
        </g>
      </g>
      <g id="CAIS_NO_ROCK-2" class="cls-3">
        <text class="cls-2" transform="translate(316 193)"><tspan x="0" y="0">CAIS NO ROCK</tspan></text>
      </g>
      <rect class="cls-41" x="1086.3" y=".5" width="30.6" height="149.5"/>
    </g>
  </g>
</svg>