<?xml version="1.0" encoding="UTF-8"?>
<svg id="Layer_1" data-name="Layer 1" xmlns="http://www.w3.org/2000/svg" xmlns:xlink="http://www.w3.org/1999/xlink" viewBox="0 0 1235 323">
  <defs>
    <style>
      .cls-1 {
        fill: url(#New_Gradient_Swatch_4-6);
      }

      .cls-2 {
        fill: url(#New_Gradient_Swatch_4-9);
      }

      .cls-3 {
        fill: url(#New_Gradient_Swatch_4-8);
      }

      .cls-4 {
        fill: url(#New_Gradient_Swatch_4-7);
      }

      .cls-5 {
        fill: url(#New_Gradient_Swatch_4-5);
      }

      .cls-6 {
        fill: url(#New_Gradient_Swatch_4-3);
      }

      .cls-7 {
        fill: url(#New_Gradient_Swatch_4-4);
      }

      .cls-8 {
        fill: url(#New_Gradient_Swatch_4-2);
      }

      .cls-9 {
        fill: url(#New_Gradient_Swatch_4);
      }

      .cls-10 {
        fill: url(#New_Gradient_Swatch_4-13);
      }

      .cls-11 {
        fill: url(#New_Gradient_Swatch_4-12);
      }

      .cls-12 {
        fill: url(#New_Gradient_Swatch_4-11);
      }

      .cls-13 {
        fill: url(#New_Gradient_Swatch_4-10);
      }
    </style>
    <linearGradient id="New_Gradient_Swatch_4" data-name="New Gradient Swatch 4" x1="133.08" y1="161.5" x2="171.08" y2="161.5" gradientUnits="userSpaceOnUse">
      <stop offset="0" stop-color="#ff8933"/>
      <stop offset="1" stop-color="#ff312d"/>
    </linearGradient>
    <linearGradient id="New_Gradient_Swatch_4-2" data-name="New Gradient Swatch 4" x1="930.92" x2="1006.92" xlink:href="#New_Gradient_Swatch_4"/>
    <linearGradient id="New_Gradient_Swatch_4-3" data-name="New Gradient Swatch 4" x1="731.42" x2="816.92" xlink:href="#New_Gradient_Swatch_4"/>
    <linearGradient id="New_Gradient_Swatch_4-4" data-name="New Gradient Swatch 4" x1="189.92" x2="275.42" xlink:href="#New_Gradient_Swatch_4"/>
    <linearGradient id="New_Gradient_Swatch_4-5" data-name="New Gradient Swatch 4" x1="1025.92" x2="1101.92" xlink:href="#New_Gradient_Swatch_4"/>
    <linearGradient id="New_Gradient_Swatch_4-6" data-name="New Gradient Swatch 4" x1="645.92" y1="199.5" x2="712.42" y2="199.5" xlink:href="#New_Gradient_Swatch_4"/>
    <linearGradient id="New_Gradient_Swatch_4-7" data-name="New Gradient Swatch 4" x1="683.92" y1="123.5" x2="721.92" y2="123.5" xlink:href="#New_Gradient_Swatch_4"/>
    <linearGradient id="New_Gradient_Swatch_4-8" data-name="New Gradient Swatch 4" x1="636.42" y1="123.5" x2="674.42" y2="123.5" xlink:href="#New_Gradient_Swatch_4"/>
    <linearGradient id="New_Gradient_Swatch_4-9" data-name="New Gradient Swatch 4" x1="541.42" x2="617.42" xlink:href="#New_Gradient_Swatch_4"/>
    <linearGradient id="New_Gradient_Swatch_4-10" data-name="New Gradient Swatch 4" x1="389.42" x2="465.42" xlink:href="#New_Gradient_Swatch_4"/>
    <linearGradient id="New_Gradient_Swatch_4-11" data-name="New Gradient Swatch 4" x1="835.92" x2="921.42" xlink:href="#New_Gradient_Swatch_4"/>
    <linearGradient id="New_Gradient_Swatch_4-12" data-name="New Gradient Swatch 4" x1="294.42" y1="166.25" x2="370.42" y2="166.25" xlink:href="#New_Gradient_Swatch_4"/>
    <linearGradient id="New_Gradient_Swatch_4-13" data-name="New Gradient Swatch 4" x1="294.43" y1="97.76" x2="370.42" y2="97.76" xlink:href="#New_Gradient_Swatch_4"/>
  </defs>
  <polygon class="cls-9" points="161.58 123.5 171.08 114 171.08 85.5 133.08 85.5 133.08 114 142.58 123.5 142.58 152 152.08 161.5 142.58 171 142.58 199.5 133.08 209 133.08 237.5 171.08 237.5 171.08 209 161.58 199.5 161.58 171 152.08 161.5 161.58 152 161.58 123.5"/>
  <polygon class="cls-8" points="930.92 85.5 1006.92 85.5 1006.92 142.5 997.42 142.5 987.92 133 987.92 123.5 978.42 123.5 978.42 152 968.92 161.5 978.42 171 978.42 199.5 987.92 209 987.92 237.5 949.92 237.5 949.92 209 959.42 199.5 959.42 171 968.92 161.5 959.42 152 959.42 123.5 949.92 123.5 949.92 133 940.42 142.5 930.92 142.5 930.92 85.5"/>
  <path class="cls-6" d="M778.91,237.5h38.01v-28.5s-9.51-9.5-9.51-9.5l-5.31-28.5-9.51-9.49,6.53-6.53-8.45-44.88-3.24-17.23-1.39-7.37h-40.38v28.5s9.5,9.5,9.5,9.5h0l-5.92,31.5,6.57,6.51-9.51,9.49-5.4,28.5-9.5,9.5v28.5h38v-28.5l-9.5-9.5,4.75-28.5h19l4.75,28.5-9.5,9.5v28.5ZM778.92,152h-9.5v-28.5h9.5v28.5Z"/>
  <polygon class="cls-7" points="275.42 85.5 246.92 85.5 246.92 152 218.42 85.5 189.92 85.51 189.92 114 199.42 123.5 199.42 152 208.92 161.5 199.42 171 199.42 199.5 189.92 209 189.92 237.5 227.92 237.5 227.92 209 218.42 199.5 218.42 123.5 246.92 190 246.92 199.5 237.42 209 237.42 237.5 275.42 237.5 275.42 209 265.92 199.51 265.92 171 256.42 161.5 265.92 152 265.92 152 265.92 123.49 275.42 114 275.42 85.5"/>
  <polygon class="cls-5" points="1092.42 133 1082.92 123.5 1054.42 123.5 1054.42 152 1063.91 152 1073.42 142.5 1082.92 142.5 1082.92 152 1082.92 161.49 1082.92 171 1082.92 180.5 1073.42 180.5 1063.92 171 1054.42 171 1054.42 199.5 1082.92 199.5 1092.42 190 1101.92 190 1101.92 237.5 1025.92 237.5 1025.92 209 1035.42 199.5 1035.42 171 1044.92 161.5 1035.42 152 1035.42 123.5 1025.93 114 1025.93 85.5 1101.92 85.5 1101.92 133 1092.42 133"/>
  <g>
    <polygon class="cls-1" points="693.42 199.5 684.21 208.71 683.92 209 674.42 209 674.13 208.71 664.92 199.5 664.92 171 655.42 161.5 645.92 171 645.92 199.5 645.92 228 655.42 237.5 655.42 237.5 702.92 237.5 702.92 237.5 712.42 228 712.42 199.5 712.42 171 702.92 161.5 693.42 171 693.42 199.5"/>
    <polygon class="cls-4" points="683.92 85.5 683.92 114 693.42 123.5 693.42 152 702.92 161.5 712.42 152 712.42 123.5 721.92 114 721.92 85.5 683.92 85.5"/>
    <polygon class="cls-3" points="664.92 123.5 674.42 114 674.42 85.5 636.42 85.5 636.42 114 645.92 123.5 645.92 152 655.42 161.5 664.92 152 664.92 123.5"/>
  </g>
  <path class="cls-2" d="M607.92,85.5h-66.5v28.5l9.52,9.5v28.5l9.5,9.5-9.5,9.5v28.47l-9.52,9.54v28.48h66.5l9.5-9.48V95l-9.5-9.5ZM598.42,199.52h-28.49v-76.01h28.49s0,76.01,0,76.01Z"/>
  <polygon class="cls-13" points="465.42 94.98 465.42 132.99 455.92 132.99 446.42 123.49 408.42 123.49 408.42 142.49 455.92 156.75 465.42 166.25 465.42 199.51 465.42 228.02 455.92 237.5 398.92 237.5 389.42 228.02 389.42 190.01 398.92 190.01 408.42 199.51 446.42 199.51 446.42 175.75 398.92 161.5 389.42 151.99 389.43 94.98 398.92 85.5 455.92 85.5 465.42 94.98"/>
  <path class="cls-12" d="M883.42,171l9.5,9.5v56.99h28.5s0-28.49,0-28.49l-9.5-9.5v-28.5l-9.5-9.5,9.5-9.5v-57l-9.5-9.5h-66.5s0,28.5,0,28.5l9.5,9.5v28.5l9.5,9.5-9.5,9.5v28.5l-9.5,9.5v28.5h38v-28.5l-9.5-9.5v-28.5M892.91,142.49l-9.49,9.51h-19v-28.5s28.5,0,28.5,0v9.5s0,9.49,0,9.49Z"/>
  <g>
    <polygon class="cls-11" points="332.42 95 313.42 114 294.43 114 303.92 123.5 303.92 152 313.42 161.5 303.92 171 303.92 199.5 294.42 209 294.42 237.5 370.42 237.5 370.42 190 360.92 190 351.42 199.5 322.92 199.5 322.92 171 332.42 171 341.92 180.5 351.42 180.5 351.42 171 351.42 161.49 351.42 152 351.42 142.5 341.92 142.5 332.41 152 322.92 152 322.92 123.5 351.42 123.5 360.92 133 370.42 133 370.42 113.86 351.42 113.86 332.42 95"/>
    <polygon class="cls-10" points="294.43 85.5 294.43 110.02 311.42 110.02 332.42 89.02 353.42 109.88 370.42 109.88 370.42 85.5 294.43 85.5"/>
  </g>
</svg>