<?xml version="1.0" encoding="UTF-8"?>
<svg id="Layer_1" xmlns="http://www.w3.org/2000/svg" xmlns:xlink="http://www.w3.org/1999/xlink" viewBox="0 0 1235 323">
  <defs>
    <style>
      .cls-1 {
        fill: url(#New_Gradient_Swatch_4-6);
      }

      .cls-2 {
        fill: url(#New_Gradient_Swatch_4-9);
      }

      .cls-3 {
        fill: url(#New_Gradient_Swatch_4-8);
      }

      .cls-4 {
        fill: url(#New_Gradient_Swatch_4-7);
      }

      .cls-5 {
        fill: url(#New_Gradient_Swatch_4-5);
      }

      .cls-6 {
        fill: url(#New_Gradient_Swatch_4-3);
      }

      .cls-7 {
        fill: url(#New_Gradient_Swatch_4-4);
      }

      .cls-8 {
        fill: url(#New_Gradient_Swatch_4-2);
      }

      .cls-9 {
        fill: url(#New_Gradient_Swatch_4);
      }

      .cls-10 {
        fill: url(#New_Gradient_Swatch_4-13);
      }

      .cls-11 {
        fill: url(#New_Gradient_Swatch_4-12);
      }

      .cls-12 {
        fill: url(#New_Gradient_Swatch_4-11);
      }

      .cls-13 {
        fill: url(#New_Gradient_Swatch_4-10);
      }
    </style>
    <linearGradient id="New_Gradient_Swatch_4" data-name="New Gradient Swatch 4" x1="551" y1="161.5" x2="636.5" y2="161.5" gradientUnits="userSpaceOnUse">
      <stop offset="0" stop-color="#ff8933"/>
      <stop offset="1" stop-color="#ff312d"/>
    </linearGradient>
    <linearGradient id="New_Gradient_Swatch_4-2" data-name="New Gradient Swatch 4" x1="760" x2="836" xlink:href="#New_Gradient_Swatch_4"/>
    <linearGradient id="New_Gradient_Swatch_4-3" data-name="New Gradient Swatch 4" x1="104.5" x2="180.5" xlink:href="#New_Gradient_Swatch_4"/>
    <linearGradient id="New_Gradient_Swatch_4-4" data-name="New Gradient Swatch 4" x1="190" x2="275.5" xlink:href="#New_Gradient_Swatch_4"/>
    <linearGradient id="New_Gradient_Swatch_4-5" data-name="New Gradient Swatch 4" x1="950" x2="1026" xlink:href="#New_Gradient_Swatch_4"/>
    <linearGradient id="New_Gradient_Swatch_4-6" data-name="New Gradient Swatch 4" x1="665" y1="199.5" x2="731.5" y2="199.5" xlink:href="#New_Gradient_Swatch_4"/>
    <linearGradient id="New_Gradient_Swatch_4-7" data-name="New Gradient Swatch 4" x1="703" y1="123.5" x2="741" y2="123.5" xlink:href="#New_Gradient_Swatch_4"/>
    <linearGradient id="New_Gradient_Swatch_4-8" data-name="New Gradient Swatch 4" x1="655.5" y1="123.5" x2="693.5" y2="123.5" xlink:href="#New_Gradient_Swatch_4"/>
    <linearGradient id="New_Gradient_Swatch_4-9" data-name="New Gradient Swatch 4" x1="855" x2="931" xlink:href="#New_Gradient_Swatch_4"/>
    <linearGradient id="New_Gradient_Swatch_4-10" data-name="New Gradient Swatch 4" x1="389.5" x2="475" xlink:href="#New_Gradient_Swatch_4"/>
    <linearGradient id="New_Gradient_Swatch_4-11" data-name="New Gradient Swatch 4" x1="294.5" x2="370.5" xlink:href="#New_Gradient_Swatch_4"/>
    <linearGradient id="New_Gradient_Swatch_4-12" data-name="New Gradient Swatch 4" x1="313.5" y1="123.5" x2="351.5" y2="123.5" xlink:href="#New_Gradient_Swatch_4"/>
    <linearGradient id="New_Gradient_Swatch_4-13" data-name="New Gradient Swatch 4" x1="1045" x2="1130.5" xlink:href="#New_Gradient_Swatch_4"/>
  </defs>
  <polygon class="cls-9" points="627 123.49 636.5 114 636.5 85.5 617.5 85.5 593.75 109.22 570 85.56 551 85.51 551 114 560.5 123.5 560.5 152 570 161.5 560.5 171 560.5 199.5 551 209 551 237.5 589 237.5 589 209 579.5 199.5 579.5 123.52 593.75 137.72 607.99 123.5 608 123.5 608 199.5 598.5 209 598.5 237.5 636.5 237.5 636.5 209 627 199.51 627 171 617.5 161.5 627 152 627 123.49"/>
  <polygon class="cls-8" points="788.5 161.5 788.5 171 798 180.5 817 180.5 817 199.5 779 199.5 779 123.5 817 123.5 817 123.5 826.5 133 836 133 836 133 836 95 826.5 85.5 769.5 85.51 760 95 760 152 769.5 161.5 760 171 760 228 769.5 237.5 826.5 237.5 836 228 836 171 826.5 161.5 788.5 161.5"/>
  <polygon class="cls-6" points="114 199.5 123.5 209 142.5 209 152 199.5 152 171 161.5 161.5 152 152 152 123.5 142.5 114 142.5 85.5 180.5 85.5 180.5 114 171 123.5 171 152 161.5 161.5 171 171 171 199.5 171 228 161.5 237.5 104.5 237.5 104.5 199.5 114 199.5"/>
  <path class="cls-7" d="M237.5,237.5h38.01v-28.5s-9.51-9.5-9.51-9.5l-5.31-28.5-9.51-9.49,6.53-6.53-8.45-44.88-3.24-17.23-1.39-7.37h-40.38v28.5s9.5,9.5,9.5,9.5h0l-5.92,31.5,6.57,6.51-9.51,9.49-5.4,28.5-9.5,9.5v28.5h38v-28.5l-9.5-9.5,4.75-28.5h19l4.75,28.5-9.5,9.5v28.5ZM237.5,152h-9.5v-28.5h9.5v28.5Z"/>
  <polygon class="cls-5" points="1016.5 133 1007 123.5 978.5 123.5 978.5 152 987.99 152 997.5 142.5 1007 142.5 1007 152 1007 161.49 1007 171 1007 180.5 997.5 180.5 988 171 978.5 171 978.5 199.5 1007 199.5 1016.5 190 1026 190 1026 237.5 950 237.5 950 209 959.5 199.5 959.5 171 969 161.5 959.5 152 959.5 123.5 950.01 114 950.01 85.5 1026 85.5 1026 133 1016.5 133"/>
  <g>
    <polygon class="cls-1" points="712.5 199.5 703.29 208.71 703 209 693.5 209 693.21 208.71 684 199.5 684 171 674.5 161.5 665 171 665 199.5 665 228 674.5 237.5 674.5 237.5 722 237.5 722 237.5 731.5 228 731.5 199.5 731.5 171 722 161.5 712.5 171 712.5 199.5"/>
    <polygon class="cls-4" points="703 85.5 703 114 712.5 123.5 712.5 152 722 161.5 731.5 152 731.5 123.5 741 114 741 85.5 703 85.5"/>
    <polygon class="cls-3" points="684 123.5 693.5 114 693.5 85.5 655.5 85.5 655.5 114 665 123.5 665 152 674.5 161.5 684 152 684 123.5"/>
  </g>
  <polygon class="cls-2" points="921.5 199.5 912 209 893 209 883.5 199.5 883.5 171 874 161.5 883.5 152 883.5 123.5 893 114 893 85.5 855 85.5 855 114 864.5 123.5 864.5 152 874 161.5 864.5 171 864.5 199.5 855 209 855 237.5 931 237.5 931 199.5 921.5 199.5"/>
  <polyline class="cls-13" points="446.49 142.49 437 152 418 152 418 123.5 427.5 114 427.5 85.5 389.5 85.5 389.5 114 399 123.5 399 152 408.5 161.5 399 171 399 199.5 389.5 209 389.5 237.5 427.5 237.5 427.5 209 418 199.5 418 171 437 171 446.5 180.5 446.5 237.49 475 237.5 475 209 465.5 199.5 465.5 171 456 161.5 465.5 152 465.5 123.5 475 114 475 85.5 446.5 85.5 446.5 104.5"/>
  <g>
    <polygon class="cls-12" points="361 190 351.5 199.5 313.5 199.51 313.5 123.5 351.5 123.5 351.5 123.5 361 133 370.5 133 370.5 94.99 361 85.5 303.99 85.5 294.5 94.99 294.5 152 303.99 161.48 294.5 171 294.5 228 303.99 237.5 361 237.5 370.5 228 370.5 190 361 190"/>
    <polygon class="cls-11" points="313.5 123.5 351.5 123.5 351.5 123.5 313.5 123.5"/>
  </g>
  <path class="cls-10" d="M1092.5,171l9.5,9.5v56.99h28.5s0-28.49,0-28.49l-9.5-9.5v-28.5l-9.5-9.5,9.5-9.5v-57l-9.5-9.5h-66.5s0,28.5,0,28.5l9.5,9.5v28.5l9.5,9.5-9.5,9.5v28.5l-9.5,9.5v28.5h38v-28.5l-9.5-9.5v-28.5M1101.99,142.49l-9.49,9.51h-19v-28.5s28.5,0,28.5,0v9.5s0,9.49,0,9.49Z"/>
</svg>