<?xml version="1.0" encoding="UTF-8"?>
<svg id="Layer_1" data-name="Layer 1" xmlns="http://www.w3.org/2000/svg" xmlns:xlink="http://www.w3.org/1999/xlink" viewBox="0 0 1235 323">
  <defs>
    <style>
      .cls-1 {
        fill: url(#New_Gradient_Swatch_4-6);
      }

      .cls-2 {
        fill: url(#New_Gradient_Swatch_4-7);
      }

      .cls-3 {
        fill: url(#New_Gradient_Swatch_4-5);
      }

      .cls-4 {
        fill: url(#New_Gradient_Swatch_4-3);
      }

      .cls-5 {
        fill: url(#New_Gradient_Swatch_4-4);
      }

      .cls-6 {
        fill: url(#New_Gradient_Swatch_4-2);
      }

      .cls-7 {
        fill: url(#New_Gradient_Swatch_4);
      }
    </style>
    <linearGradient id="New_Gradient_Swatch_4" data-name="New Gradient Swatch 4" x1="698.25" y1="161.5" x2="736.25" y2="161.5" gradientUnits="userSpaceOnUse">
      <stop offset="0" stop-color="#ff8933"/>
      <stop offset="1" stop-color="#ff312d"/>
    </linearGradient>
    <linearGradient id="New_Gradient_Swatch_4-2" data-name="New Gradient Swatch 4" x1="308.75" x2="384.75" xlink:href="#New_Gradient_Swatch_4"/>
    <linearGradient id="New_Gradient_Swatch_4-3" data-name="New Gradient Swatch 4" x1="850.25" x2="926.25" xlink:href="#New_Gradient_Swatch_4"/>
    <linearGradient id="New_Gradient_Swatch_4-4" data-name="New Gradient Swatch 4" x1="394.25" x2="479.75" xlink:href="#New_Gradient_Swatch_4"/>
    <linearGradient id="New_Gradient_Swatch_4-5" data-name="New Gradient Swatch 4" x1="498.75" x2="584.25" xlink:href="#New_Gradient_Swatch_4"/>
    <linearGradient id="New_Gradient_Swatch_4-6" data-name="New Gradient Swatch 4" x1="603.25" x2="679.25" xlink:href="#New_Gradient_Swatch_4"/>
    <linearGradient id="New_Gradient_Swatch_4-7" data-name="New Gradient Swatch 4" x1="755.25" x2="840.75" xlink:href="#New_Gradient_Swatch_4"/>
  </defs>
  <polygon class="cls-7" points="726.75 123.5 736.25 114 736.25 85.5 698.25 85.5 698.25 114 707.75 123.5 707.75 152 717.25 161.5 707.75 171 707.75 199.5 698.25 209 698.25 237.5 736.25 237.5 736.25 209 726.75 199.5 726.75 171 717.25 161.5 726.75 152 726.75 123.5"/>
  <polygon class="cls-6" points="318.25 199.5 327.75 209 346.75 209 356.25 199.5 356.25 171 365.75 161.5 356.25 152 356.25 123.5 346.75 114 346.75 85.5 384.75 85.5 384.75 114 375.25 123.5 375.25 152 365.75 161.5 375.25 171 375.25 199.5 375.25 228 365.75 237.5 308.75 237.5 308.75 199.5 318.25 199.5"/>
  <path class="cls-4" d="M926.25,152v-57.01l-9.5-9.49h-57l-9.49,9.49v57.01l9.49,9.48-9.49,9.51v57l9.49,9.5h57s9.5-9.5,9.5-9.5v-57l-9.5-9.51,9.5-9.48ZM907.25,199.5h-38.01v-76s38.01,0,38.01,0v76Z"/>
  <path class="cls-5" d="M441.75,237.5h38.01v-28.5s-9.51-9.5-9.51-9.5l-5.31-28.5-9.51-9.49,6.53-6.53-8.45-44.88-3.24-17.23-1.39-7.37h-40.38v28.5s9.5,9.5,9.5,9.5h0l-5.92,31.5,6.57,6.51-9.51,9.49-5.4,28.5-9.5,9.5v28.5h38v-28.5l-9.5-9.5,4.75-28.5h19l4.75,28.5-9.5,9.5v28.5ZM441.75,152h-9.5v-28.5h9.5v28.5Z"/>
  <polygon class="cls-3" points="584.25 85.5 555.75 85.5 555.75 152 527.25 85.5 498.75 85.51 498.75 114 508.25 123.5 508.25 152 517.75 161.5 508.25 171 508.25 199.5 498.75 209 498.75 237.5 536.75 237.5 536.75 209 527.25 199.5 527.25 123.5 555.75 190 555.75 199.5 546.25 209 546.25 237.5 584.25 237.5 584.25 209 574.75 199.51 574.75 171 565.25 161.5 574.75 152 574.75 152 574.75 123.49 584.25 114 584.25 85.5"/>
  <polygon class="cls-1" points="669.75 133 660.25 123.5 631.75 123.5 631.75 152 641.25 152 650.75 142.5 660.25 142.5 660.25 152 660.25 161.49 660.25 171 660.25 180.5 650.75 180.5 641.25 171 631.75 171 631.75 199.5 660.25 199.5 669.75 190 679.25 190 679.25 237.5 603.25 237.5 603.25 209 612.75 199.5 612.75 171 622.25 161.5 612.75 152 612.75 123.5 603.26 114 603.26 85.5 679.25 85.5 679.25 133 669.75 133"/>
  <path class="cls-2" d="M802.75,171l9.5,9.5v56.99h28.5s0-28.49,0-28.49l-9.5-9.5v-28.5l-9.5-9.5,9.5-9.5v-57l-9.5-9.5h-66.5s0,28.5,0,28.5l9.5,9.5v28.5l9.5,9.5-9.5,9.5v28.5l-9.5,9.5v28.5h38v-28.5l-9.5-9.5v-28.5M812.24,142.49l-9.49,9.51h-19v-28.5s28.5,0,28.5,0v9.5s0,9.49,0,9.49Z"/>
</svg>