<?xml version="1.0" encoding="UTF-8"?>
<svg id="Layer_1" data-name="Layer 1" xmlns="http://www.w3.org/2000/svg" xmlns:xlink="http://www.w3.org/1999/xlink" viewBox="0 0 1235 323">
  <defs>
    <style>
      .cls-1 {
        fill: url(#New_Gradient_Swatch_4-6);
      }

      .cls-2 {
        fill: url(#New_Gradient_Swatch_4-9);
      }

      .cls-3 {
        fill: url(#New_Gradient_Swatch_4-8);
      }

      .cls-4 {
        fill: url(#New_Gradient_Swatch_4-7);
      }

      .cls-5 {
        fill: url(#New_Gradient_Swatch_4-5);
      }

      .cls-6 {
        fill: url(#New_Gradient_Swatch_4-3);
      }

      .cls-7 {
        fill: url(#New_Gradient_Swatch_4-4);
      }

      .cls-8 {
        fill: url(#New_Gradient_Swatch_4-2);
      }

      .cls-9 {
        clip-path: url(#clippath-1);
      }

      .cls-10 {
        fill: url(#New_Gradient_Swatch_4);
      }

      .cls-11 {
        fill: url(#New_Gradient_Swatch_4-13);
      }

      .cls-12 {
        fill: url(#New_Gradient_Swatch_4-12);
      }

      .cls-13 {
        fill: url(#New_Gradient_Swatch_4-11);
      }

      .cls-14 {
        fill: url(#New_Gradient_Swatch_4-10);
      }

      .cls-15 {
        fill: url(#New_Gradient_Swatch_4-15);
      }

      .cls-16 {
        fill: url(#New_Gradient_Swatch_4-14);
      }

      .cls-17 {
        fill: url(#New_Gradient_Swatch_4-20);
      }

      .cls-18 {
        fill: url(#New_Gradient_Swatch_4-19);
      }

      .cls-19 {
        fill: url(#New_Gradient_Swatch_4-16);
      }

      .cls-20 {
        fill: url(#New_Gradient_Swatch_4-17);
      }

      .cls-21 {
        fill: url(#New_Gradient_Swatch_4-18);
      }

      .cls-22 {
        clip-path: url(#clippath);
      }
    </style>
    <linearGradient id="New_Gradient_Swatch_4" data-name="New Gradient Swatch 4" x1="199.5" y1="247" x2="285" y2="247" gradientUnits="userSpaceOnUse">
      <stop offset="0" stop-color="#ff8933"/>
      <stop offset="1" stop-color="#ff312d"/>
    </linearGradient>
    <linearGradient id="New_Gradient_Swatch_4-2" data-name="New Gradient Swatch 4" x1="494" x2="570" xlink:href="#New_Gradient_Swatch_4"/>
    <linearGradient id="New_Gradient_Swatch_4-3" data-name="New Gradient Swatch 4" x1="788.5" x2="826.5" xlink:href="#New_Gradient_Swatch_4"/>
    <linearGradient id="New_Gradient_Swatch_4-4" data-name="New Gradient Swatch 4" x1="950" x2="1035.5" xlink:href="#New_Gradient_Swatch_4"/>
    <linearGradient id="New_Gradient_Swatch_4-5" data-name="New Gradient Swatch 4" x1="693.5" x2="769.5" xlink:href="#New_Gradient_Swatch_4"/>
    <linearGradient id="New_Gradient_Swatch_4-6" data-name="New Gradient Swatch 4" x1="304" x2="380" xlink:href="#New_Gradient_Swatch_4"/>
    <linearGradient id="New_Gradient_Swatch_4-7" data-name="New Gradient Swatch 4" x1="598.5" y1="285" x2="665" y2="285" xlink:href="#New_Gradient_Swatch_4"/>
    <linearGradient id="New_Gradient_Swatch_4-8" data-name="New Gradient Swatch 4" x1="636.5" y1="209" x2="674.5" y2="209" xlink:href="#New_Gradient_Swatch_4"/>
    <linearGradient id="New_Gradient_Swatch_4-9" data-name="New Gradient Swatch 4" x1="589" y1="209" x2="627" y2="209" xlink:href="#New_Gradient_Swatch_4"/>
    <linearGradient id="New_Gradient_Swatch_4-10" data-name="New Gradient Swatch 4" x1="399" x2="475" xlink:href="#New_Gradient_Swatch_4"/>
    <linearGradient id="New_Gradient_Swatch_4-11" data-name="New Gradient Swatch 4" x1="845.48" x2="930.98" xlink:href="#New_Gradient_Swatch_4"/>
    <linearGradient id="New_Gradient_Swatch_4-12" data-name="New Gradient Swatch 4" x1="432.25" y1="76" x2="508.25" y2="76" xlink:href="#New_Gradient_Swatch_4"/>
    <linearGradient id="New_Gradient_Swatch_4-13" data-name="New Gradient Swatch 4" x1="527.25" y1="76" x2="603.25" y2="76" xlink:href="#New_Gradient_Swatch_4"/>
    <linearGradient id="New_Gradient_Swatch_4-14" data-name="New Gradient Swatch 4" x1="726.75" y1="76" x2="802.75" y2="76" xlink:href="#New_Gradient_Swatch_4"/>
    <linearGradient id="New_Gradient_Swatch_4-15" data-name="New Gradient Swatch 4" x1="622.25" y1="76" x2="707.75" y2="76" xlink:href="#New_Gradient_Swatch_4"/>
    <linearGradient id="New_Gradient_Swatch_4-16" data-name="New Gradient Swatch 4" x1="622.25" y1="76" x2="707.75" y2="76" xlink:href="#New_Gradient_Swatch_4"/>
    <clipPath id="clippath">
      <path class="cls-19" d="M669.75,38v28.5h-9.5v-28.5h9.5ZM707.75,123.5l-9.5-9.5-5.31-28.5-9.51-9.49,6.53-6.53-8.45-44.88-3.24-17.23L676.88,0h-40.38v28.5l9.5,9.5h0l-5.91,31.49,6.57,6.51-9.51,9.49-5.4,28.5-9.5,9.5v28.5h38v-28.5l-9.5-9.5,4.75-28.5h19l4.75,28.5-9.5,9.5v28.5s38,0,38,0v-28.5Z"/>
    </clipPath>
    <linearGradient id="New_Gradient_Swatch_4-17" data-name="New Gradient Swatch 4" x1="622.25" y1="76" x2="707.75" y2="76" xlink:href="#New_Gradient_Swatch_4"/>
    <linearGradient id="New_Gradient_Swatch_4-18" data-name="New Gradient Swatch 4" x1="678.26" y1="12.31" x2="707.75" y2="12.31" xlink:href="#New_Gradient_Swatch_4"/>
    <linearGradient id="New_Gradient_Swatch_4-19" data-name="New Gradient Swatch 4" x1="678.26" y1="12.31" x2="707.75" y2="12.31" xlink:href="#New_Gradient_Swatch_4"/>
    <clipPath id="clippath-1">
      <polygon class="cls-18" points="707.75 0 693.12 0 687.37 7.38 678.26 7.38 681.51 24.61 688.64 24.61 695.01 16.41 707.75 16.41 707.75 0"/>
    </clipPath>
    <linearGradient id="New_Gradient_Swatch_4-20" data-name="New Gradient Swatch 4" x1="678.26" y1="12.31" x2="707.75" y2="12.31" xlink:href="#New_Gradient_Swatch_4"/>
  </defs>
  <g>
    <polygon class="cls-10" points="275.5 208.99 285 199.5 285 171 266 171 242.25 194.72 218.5 171.06 199.5 171.01 199.5 199.5 209 209 209 237.5 218.5 247 209 256.5 209 285 199.5 294.5 199.5 323 237.5 323 237.5 294.5 228 285 228 209.02 242.25 223.22 256.49 209 256.5 209 256.5 285 247 294.5 247 323 285 323 285 294.5 275.5 285.01 275.5 256.5 266 247 275.5 237.5 275.5 208.99"/>
    <polygon class="cls-8" points="522.5 247 522.5 256.5 532 266 551 266 551 285 513 285 513 209 551 209 551 209 560.5 218.5 570 218.5 570 218.5 570 180.5 560.5 171 503.5 171.01 494 180.5 494 237.5 503.5 247 494 256.5 494 313.5 503.5 323 560.5 323 570 313.5 570 256.5 560.5 247 522.5 247"/>
    <polygon class="cls-6" points="817 209 826.5 199.5 826.5 171 788.5 171 788.5 199.5 798 209 798 237.5 807.5 247 798 256.5 798 285 788.5 294.5 788.5 323 826.5 323 826.5 294.5 817 285 817 256.5 807.5 247 817 237.5 817 209"/>
    <path class="cls-7" d="M997.49,323h38.01v-28.5s-9.51-9.5-9.51-9.5l-5.31-28.5-9.51-9.49,6.53-6.53-8.45-44.88-3.24-17.23-1.39-7.37h-40.38v28.5s9.5,9.5,9.5,9.5h0l-5.92,31.5,6.57,6.51-9.51,9.49-5.4,28.5-9.5,9.5v28.5h38v-28.5l-9.5-9.5,4.75-28.5h19l4.75,28.5-9.5,9.5v28.5ZM997.5,237.5h-9.5v-28.5h9.5v28.5Z"/>
    <polygon class="cls-5" points="760 218.5 750.5 209 722 209 722 237.5 731.49 237.5 741 228 750.5 228 750.5 237.5 750.5 246.99 750.5 256.5 750.5 266 741 266 731.5 256.5 722 256.5 722 285 750.5 285 760 275.5 769.5 275.5 769.5 323 693.5 323 693.5 294.5 703 285 703 256.5 712.5 247 703 237.5 703 209 693.51 199.5 693.51 171 769.5 171 769.5 218.5 760 218.5"/>
    <polygon class="cls-1" points="370.5 218.5 361 209 332.5 209 332.5 237.5 342 237.5 351.5 228 361 228 361 237.5 361 246.99 361 256.5 361 266 351.5 266 342 256.5 332.5 256.5 332.5 285 361 285 370.5 275.5 380 275.5 380 323 304 323 304 294.5 313.5 285 313.5 256.5 323 247 313.5 237.5 313.5 209 304.01 199.5 304.01 171 380 171 380 218.5 370.5 218.5"/>
    <g>
      <polygon class="cls-4" points="646 285 636.79 294.21 636.5 294.5 627 294.5 626.71 294.21 617.5 285 617.5 256.5 608 247 598.5 256.5 598.5 285 598.5 313.5 608 323 608 323 655.5 323 655.5 323 665 313.5 665 285 665 256.5 655.5 247 646 256.5 646 285"/>
      <polygon class="cls-3" points="636.5 171 636.5 199.5 646 209 646 237.5 655.5 247 665 237.5 665 209 674.5 199.5 674.5 171 636.5 171"/>
      <polygon class="cls-2" points="617.5 209 627 199.5 627 171 589 171 589 199.5 598.5 209 598.5 237.5 608 247 617.5 237.5 617.5 209"/>
    </g>
    <polygon class="cls-14" points="465.5 285 456 294.5 437 294.5 427.5 285 427.5 256.5 418 247 427.5 237.5 427.5 209 437 199.5 437 171 399 171 399 199.5 408.5 209 408.5 237.5 418 247 408.5 256.5 408.5 285 399 294.5 399 323 475 323 475 285 465.5 285"/>
    <path class="cls-13" d="M892.98,256.5l9.5,9.5v56.99h28.5s0-28.49,0-28.49l-9.5-9.5v-28.5l-9.5-9.5,9.5-9.5v-57l-9.5-9.5h-66.5s0,28.5,0,28.5l9.5,9.5v28.5l9.5,9.5-9.5,9.5v28.5l-9.5,9.5v28.5h38v-28.5l-9.5-9.5v-28.5M902.47,227.99l-9.49,9.51h-19v-28.5s28.5,0,28.5,0v9.5s0,9.49,0,9.49Z"/>
  </g>
  <g>
    <polygon class="cls-12" points="441.75 114 451.25 123.5 470.25 123.5 479.75 114 479.75 85.5 489.25 76 479.75 66.5 479.75 38 470.25 28.5 470.25 0 508.25 0 508.25 28.5 498.75 38 498.75 66.5 489.25 76 498.75 85.5 498.75 114 498.75 142.5 489.25 152 432.25 152 432.25 114 441.75 114"/>
    <path class="cls-11" d="M603.25,66.5V9.49l-9.5-9.49h-57l-9.49,9.49v57.01l9.49,9.48-9.49,9.51v57l9.49,9.5h57s9.5-9.5,9.5-9.5v-57l-9.5-9.51,9.5-9.48ZM584.26,114h-38.01V38s38.01,0,38.01,0v76Z"/>
    <path class="cls-16" d="M802.74,66.5V9.49l-9.5-9.49h-57l-9.49,9.49v57.01l9.49,9.48-9.49,9.51v57l9.49,9.5h57s9.5-9.5,9.5-9.5v-57l-9.5-9.51,9.5-9.48ZM783.75,114h-38.01V38s38.01,0,38.01,0v76Z"/>
    <g>
      <g>
        <path class="cls-15" d="M669.75,38v28.5h-9.5v-28.5h9.5ZM707.75,123.5l-9.5-9.5-5.31-28.5-9.51-9.49,6.53-6.53-8.45-44.88-3.24-17.23L676.88,0h-40.38v28.5l9.5,9.5h0l-5.91,31.49,6.57,6.51-9.51,9.49-5.4,28.5-9.5,9.5v28.5h38v-28.5l-9.5-9.5,4.75-28.5h19l4.75,28.5-9.5,9.5v28.5s38,0,38,0v-28.5Z"/>
        <g class="cls-22">
          <rect class="cls-20" x="622.25" y="0" width="85.5" height="151.99"/>
        </g>
      </g>
      <g>
        <polygon class="cls-21" points="707.75 0 693.12 0 687.37 7.38 678.26 7.38 681.51 24.61 688.64 24.61 695.01 16.41 707.75 16.41 707.75 0"/>
        <g class="cls-9">
          <rect class="cls-17" x="678.26" width="29.48" height="24.61"/>
        </g>
      </g>
    </g>
  </g>
</svg>