<?xml version="1.0" encoding="UTF-8"?>
<svg id="Layer_1" xmlns="http://www.w3.org/2000/svg" xmlns:xlink="http://www.w3.org/1999/xlink" viewBox="0 0 1235 323">
  <defs>
    <style>
      .cls-1 {
        fill: url(#New_Gradient_Swatch_4-6);
      }

      .cls-2 {
        fill: url(#New_Gradient_Swatch_4-9);
      }

      .cls-3 {
        fill: url(#New_Gradient_Swatch_4-8);
      }

      .cls-4 {
        fill: url(#New_Gradient_Swatch_4-7);
      }

      .cls-5 {
        fill: url(#New_Gradient_Swatch_4-5);
      }

      .cls-6 {
        fill: url(#New_Gradient_Swatch_4-3);
      }

      .cls-7 {
        fill: url(#New_Gradient_Swatch_4-4);
      }

      .cls-8 {
        fill: url(#New_Gradient_Swatch_4-2);
      }

      .cls-9 {
        fill: url(#New_Gradient_Swatch_4);
      }

      .cls-10 {
        fill: url(#New_Gradient_Swatch_4-13);
      }

      .cls-11 {
        fill: url(#New_Gradient_Swatch_4-12);
      }

      .cls-12 {
        fill: url(#New_Gradient_Swatch_4-11);
      }

      .cls-13 {
        fill: url(#New_Gradient_Swatch_4-10);
      }

      .cls-14 {
        fill: url(#New_Gradient_Swatch_4-15);
      }

      .cls-15 {
        fill: url(#New_Gradient_Swatch_4-14);
      }

      .cls-16 {
        fill: url(#New_Gradient_Swatch_4-20);
      }

      .cls-17 {
        fill: url(#New_Gradient_Swatch_4-19);
      }

      .cls-18 {
        fill: url(#New_Gradient_Swatch_4-16);
      }

      .cls-19 {
        fill: url(#New_Gradient_Swatch_4-17);
      }

      .cls-20 {
        fill: url(#New_Gradient_Swatch_4-18);
      }
    </style>
    <linearGradient id="New_Gradient_Swatch_4" data-name="New Gradient Swatch 4" x1="531.98" y1="247" x2="607.98" y2="247" gradientUnits="userSpaceOnUse">
      <stop offset="0" stop-color="#ff8933"/>
      <stop offset="1" stop-color="#ff312d"/>
    </linearGradient>
    <linearGradient id="New_Gradient_Swatch_4-2" data-name="New Gradient Swatch 4" x1="731.48" x2="816.98" xlink:href="#New_Gradient_Swatch_4"/>
    <linearGradient id="New_Gradient_Swatch_4-3" data-name="New Gradient Swatch 4" x1="322.98" x2="408.48" xlink:href="#New_Gradient_Swatch_4"/>
    <linearGradient id="New_Gradient_Swatch_4-4" data-name="New Gradient Swatch 4" x1="1121" x2="1206.5" xlink:href="#New_Gradient_Swatch_4"/>
    <linearGradient id="New_Gradient_Swatch_4-5" data-name="New Gradient Swatch 4" x1="1025.98" x2="1101.98" xlink:href="#New_Gradient_Swatch_4"/>
    <linearGradient id="New_Gradient_Swatch_4-6" data-name="New Gradient Swatch 4" x1="835.96" y1="285" x2="902.46" y2="285" xlink:href="#New_Gradient_Swatch_4"/>
    <linearGradient id="New_Gradient_Swatch_4-7" data-name="New Gradient Swatch 4" x1="873.95" y1="209" x2="911.96" y2="209" xlink:href="#New_Gradient_Swatch_4"/>
    <linearGradient id="New_Gradient_Swatch_4-8" data-name="New Gradient Swatch 4" x1="826.46" y1="209" x2="864.46" y2="209" xlink:href="#New_Gradient_Swatch_4"/>
    <linearGradient id="New_Gradient_Swatch_4-9" data-name="New Gradient Swatch 4" x1="930.98" x2="1006.98" xlink:href="#New_Gradient_Swatch_4"/>
    <linearGradient id="New_Gradient_Swatch_4-10" data-name="New Gradient Swatch 4" x1="28.5" x2="104.5" xlink:href="#New_Gradient_Swatch_4"/>
    <linearGradient id="New_Gradient_Swatch_4-11" data-name="New Gradient Swatch 4" x1="123.5" x2="199.5" xlink:href="#New_Gradient_Swatch_4"/>
    <linearGradient id="New_Gradient_Swatch_4-12" data-name="New Gradient Swatch 4" x1="142.5" y1="209" x2="180.51" y2="209" xlink:href="#New_Gradient_Swatch_4"/>
    <linearGradient id="New_Gradient_Swatch_4-13" data-name="New Gradient Swatch 4" x1="626.98" x2="712.48" xlink:href="#New_Gradient_Swatch_4"/>
    <linearGradient id="New_Gradient_Swatch_4-14" data-name="New Gradient Swatch 4" x1="218.48" x2="303.98" xlink:href="#New_Gradient_Swatch_4"/>
    <linearGradient id="New_Gradient_Swatch_4-15" data-name="New Gradient Swatch 4" x1="427.48" x2="512.98" xlink:href="#New_Gradient_Swatch_4"/>
    <linearGradient id="New_Gradient_Swatch_4-16" data-name="New Gradient Swatch 4" x1="679.25" y1="76" x2="755.25" y2="76" xlink:href="#New_Gradient_Swatch_4"/>
    <linearGradient id="New_Gradient_Swatch_4-17" data-name="New Gradient Swatch 4" x1="384.75" y1="76" x2="460.75" y2="76" xlink:href="#New_Gradient_Swatch_4"/>
    <linearGradient id="New_Gradient_Swatch_4-18" data-name="New Gradient Swatch 4" x1="479.76" y1="76" x2="555.76" y2="76" xlink:href="#New_Gradient_Swatch_4"/>
    <linearGradient id="New_Gradient_Swatch_4-19" data-name="New Gradient Swatch 4" x1="774.25" y1="76" x2="850.25" y2="76" xlink:href="#New_Gradient_Swatch_4"/>
    <linearGradient id="New_Gradient_Swatch_4-20" data-name="New Gradient Swatch 4" x1="574.75" y1="76" x2="660.25" y2="76" xlink:href="#New_Gradient_Swatch_4"/>
  </defs>
  <g>
    <polygon class="cls-9" points="598.48 218.5 588.98 209 560.48 209 560.48 237.5 569.98 237.5 579.48 228 588.98 228 588.98 237.5 588.98 246.99 588.98 256.5 588.98 266 579.48 266 569.98 256.5 560.48 256.5 560.48 285 569.98 294.5 569.98 323 531.98 323 531.98 294.5 541.48 285 541.48 256.5 550.98 247 541.48 237.5 541.48 209 531.99 199.5 531.99 171 607.98 171 607.98 218.5 598.48 218.5"/>
    <path class="cls-8" d="M778.97,323h38.01v-28.5s-9.51-9.5-9.51-9.5l-5.31-28.5-9.51-9.49,6.53-6.53-8.45-44.88-3.24-17.23-1.39-7.37h-40.38v28.5s9.5,9.5,9.5,9.5h0l-5.92,31.5,6.57,6.51-9.51,9.49-5.4,28.5-9.5,9.5v28.5h38v-28.5l-9.5-9.5,4.75-28.5h19l4.75,28.5-9.5,9.5v28.5ZM778.98,237.5h-9.5v-28.5h9.5v28.5Z"/>
    <path class="cls-6" d="M370.47,323h38.01v-28.5s-9.51-9.5-9.51-9.5l-5.31-28.5-9.51-9.49,6.53-6.53-8.45-44.88-3.24-17.23-1.39-7.37h-40.38v28.5s9.5,9.5,9.5,9.5h0l-5.92,31.5,6.57,6.51-9.51,9.49-5.4,28.5-9.5,9.5v28.5h38v-28.5l-9.5-9.5,4.75-28.5h19l4.75,28.5-9.5,9.5v28.5ZM370.48,237.5h-9.5v-28.5h9.5v28.5Z"/>
    <polygon class="cls-7" points="1206.5 171 1178 171 1178 237.5 1149.5 171 1121 171.01 1121 199.5 1130.5 209 1130.5 237.5 1140 247 1130.5 256.5 1130.5 285 1121 294.5 1121 323 1159 323 1159 294.5 1149.5 285 1149.5 209 1178 275.5 1178 285 1168.5 294.5 1168.5 323 1206.5 323 1206.5 294.5 1197 285.01 1197 256.5 1187.5 247 1197 237.5 1197 237.5 1197 208.99 1206.5 199.5 1206.5 171"/>
    <polygon class="cls-5" points="1092.48 218.5 1082.98 209 1054.48 209 1054.48 237.5 1063.98 237.5 1073.48 228 1082.98 228 1082.98 237.5 1082.98 246.99 1082.98 256.5 1082.98 266 1073.48 266 1063.98 256.5 1054.48 256.5 1054.48 285 1082.98 285 1092.48 275.5 1101.98 275.5 1101.98 323 1025.98 323 1025.98 294.5 1035.48 285 1035.48 256.5 1044.98 247 1035.48 237.5 1035.48 209 1025.99 199.5 1025.99 171 1101.98 171 1101.98 218.5 1092.48 218.5"/>
    <g>
      <polygon class="cls-1" points="883.46 285 874.24 294.21 873.96 294.5 864.46 294.5 864.17 294.21 854.96 285 854.96 256.5 845.46 247 835.96 256.5 835.96 285 835.96 313.5 845.46 323 845.46 323 892.96 323 892.96 323 902.46 313.5 902.46 285 902.46 256.5 892.96 247 883.46 256.5 883.46 285"/>
      <polygon class="cls-4" points="873.95 171 873.95 199.5 883.46 209 883.46 237.5 892.96 247 902.46 237.5 902.46 209 911.96 199.5 911.96 171 873.95 171"/>
      <polygon class="cls-3" points="854.96 209 864.46 199.5 864.46 171 826.46 171 826.46 199.5 835.96 209 835.96 237.5 845.46 247 854.96 237.5 854.96 209"/>
    </g>
    <polygon class="cls-2" points="1006.98 180.48 1006.98 218.49 997.48 218.49 987.98 208.99 949.98 208.99 949.98 227.99 997.48 242.25 1006.98 251.75 1006.98 285.01 1006.98 313.52 997.48 323 940.48 323 930.98 313.52 930.98 275.51 940.48 275.51 949.98 285.01 987.98 285.01 987.98 261.25 940.48 247 930.98 237.49 930.99 180.48 940.48 171 997.48 171 1006.98 180.48"/>
    <polygon class="cls-13" points="104.5 180.48 104.5 218.49 95 218.49 85.5 208.99 47.5 208.99 47.5 227.99 95 242.25 104.5 251.75 104.5 285.01 104.5 313.52 95 323 38 323 28.5 313.52 28.5 275.51 38 275.51 47.5 285.01 85.5 285.01 85.5 261.25 38 247 28.5 237.49 28.5 180.48 38 171 95 171 104.5 180.48"/>
    <g>
      <polygon class="cls-12" points="190.01 275.5 180.51 285 142.5 285.01 142.5 209 180.51 209 180.51 209 190.01 218.5 199.5 218.5 199.5 180.49 190 171 133 171 123.5 180.49 123.5 237.5 133 246.98 123.5 256.5 123.5 313.5 133 323 190 323 199.5 313.5 199.5 275.5 190.01 275.5"/>
      <polygon class="cls-11" points="142.5 209 180.51 209 180.51 209 142.5 209"/>
    </g>
    <polyline class="cls-10" points="683.97 237.5 655.48 237.5 655.48 209 664.98 199.5 664.98 171 626.98 171 626.98 199.5 636.48 209 636.48 237.5 645.98 247 636.48 256.5 636.48 285 626.98 294.5 626.98 323 664.98 323 664.98 294.5 655.48 285 655.48 256.5 683.98 256.5 683.98 285 674.48 294.5 674.48 322.99 712.48 323 712.48 294.5 702.98 285 702.98 256.5 693.48 247 702.98 237.5 702.98 209 712.48 199.5 712.48 171 674.48 171 674.48 199.5 683.98 209"/>
    <polyline class="cls-15" points="275.47 237.5 246.98 237.5 246.98 209 256.48 199.5 256.48 171 218.48 171 218.48 199.5 227.98 209 227.98 237.5 237.48 247 227.98 256.5 227.98 285 218.48 294.5 218.48 323 256.48 323 256.48 294.5 246.98 285 246.98 256.5 275.48 256.5 275.48 285 265.98 294.5 265.98 322.99 303.98 323 303.98 294.5 294.48 285 294.48 256.5 284.98 247 294.48 237.5 294.48 209 303.98 199.5 303.98 171 265.98 171 265.98 199.5 275.48 209"/>
    <path class="cls-14" d="M474.98,256.5l9.5,9.5v56.99h28.5s0-28.49,0-28.49l-9.5-9.5v-28.5l-9.5-9.5,9.5-9.5v-57l-9.5-9.5h-66.5s0,28.5,0,28.5l9.5,9.5v28.5l9.5,9.5-9.5,9.5v28.5l-9.5,9.5v28.5h38v-28.5l-9.5-9.5v-28.5M484.47,227.99l-9.49,9.51h-19v-28.5s28.5,0,28.5,0v9.5s0,9.49,0,9.49Z"/>
  </g>
  <g>
    <polygon class="cls-18" points="707.75 76 707.75 85.5 717.25 95 736.25 95 736.25 114 698.25 114 698.25 38 736.25 38 736.25 38 745.75 47.5 755.25 47.5 755.25 47.5 755.25 9.5 745.75 0 688.75 0 679.25 9.5 679.25 66.5 688.75 76 679.25 85.5 679.25 142.5 688.75 152 745.75 152 755.25 142.5 755.25 85.5 745.75 76 707.75 76"/>
    <polygon class="cls-19" points="394.25 114 403.75 123.5 422.75 123.5 432.25 114 432.25 85.5 441.75 76 432.25 66.5 432.25 38 422.75 28.5 422.75 0 460.75 0 460.75 28.5 451.25 38 451.25 66.5 441.75 76 451.25 85.5 451.25 114 451.25 142.5 441.75 152 384.75 152 384.75 114 394.25 114"/>
    <path class="cls-20" d="M555.75,66.5V9.49l-9.5-9.49h-57l-9.49,9.49v57.01l9.49,9.48-9.49,9.51v57l9.49,9.5h57s9.5-9.5,9.5-9.5v-57l-9.5-9.51,9.5-9.48ZM536.76,114h-38.01V38s38.01,0,38.01,0v76Z"/>
    <polygon class="cls-17" points="840.75 47.5 831.25 38 802.75 38 802.75 66.5 812.24 66.5 821.75 57 831.25 57 831.25 66.5 831.25 75.99 831.25 85.5 831.25 95 821.75 95 812.25 85.5 802.75 85.5 802.75 114 831.25 114 840.75 104.5 850.25 104.5 850.25 152 774.25 152 774.25 123.5 783.75 114 783.75 85.5 793.25 76 783.75 66.5 783.75 38 774.26 28.5 774.26 0 850.25 0 850.25 47.5 840.75 47.5"/>
    <path class="cls-16" d="M622.25,85.5l9.5,9.5v56.99h28.5s0-28.49,0-28.49l-9.5-9.5v-28.5l-9.5-9.5,9.5-9.5V9.5L641.25,0h-66.5s0,28.5,0,28.5l9.5,9.5v28.5l9.5,9.5-9.5,9.5v28.5l-9.5,9.5v28.5h38v-28.5l-9.5-9.5v-28.5M631.74,56.99l-9.49,9.51h-19v-28.5s28.5,0,28.5,0v9.5s0,9.49,0,9.49Z"/>
  </g>
</svg>