<?xml version="1.0" encoding="UTF-8"?>
<svg id="Layer_1" data-name="Layer 1" xmlns="http://www.w3.org/2000/svg" xmlns:xlink="http://www.w3.org/1999/xlink" viewBox="0 0 1235 323">
  <defs>
    <style>
      .cls-1 {
        fill: url(#New_Gradient_Swatch_4-6);
      }

      .cls-2 {
        fill: url(#New_Gradient_Swatch_4-8);
      }

      .cls-3 {
        fill: url(#New_Gradient_Swatch_4-7);
      }

      .cls-4 {
        fill: url(#New_Gradient_Swatch_4-5);
      }

      .cls-5 {
        fill: url(#New_Gradient_Swatch_4-3);
      }

      .cls-6 {
        fill: url(#New_Gradient_Swatch_4-4);
      }

      .cls-7 {
        fill: url(#New_Gradient_Swatch_4-2);
      }

      .cls-8 {
        fill: url(#New_Gradient_Swatch_4);
      }
    </style>
    <linearGradient id="New_Gradient_Swatch_4" data-name="New Gradient Swatch 4" x1="399" y1="161.5" x2="484.5" y2="161.5" gradientUnits="userSpaceOnUse">
      <stop offset="0" stop-color="#ff8933"/>
      <stop offset="1" stop-color="#ff312d"/>
    </linearGradient>
    <linearGradient id="New_Gradient_Swatch_4-2" data-name="New Gradient Swatch 4" x1="304" x2="380" xlink:href="#New_Gradient_Swatch_4"/>
    <linearGradient id="New_Gradient_Swatch_4-3" data-name="New Gradient Swatch 4" x1="503.48" x2="579.48" xlink:href="#New_Gradient_Swatch_4"/>
    <linearGradient id="New_Gradient_Swatch_4-4" data-name="New Gradient Swatch 4" x1="598.5" x2="684" xlink:href="#New_Gradient_Swatch_4"/>
    <linearGradient id="New_Gradient_Swatch_4-5" data-name="New Gradient Swatch 4" x1="855" x2="931" xlink:href="#New_Gradient_Swatch_4"/>
    <linearGradient id="New_Gradient_Swatch_4-6" data-name="New Gradient Swatch 4" x1="874" y1="123.5" x2="912" y2="123.5" xlink:href="#New_Gradient_Swatch_4"/>
    <linearGradient id="New_Gradient_Swatch_4-7" data-name="New Gradient Swatch 4" x1="760" x2="836" xlink:href="#New_Gradient_Swatch_4"/>
    <linearGradient id="New_Gradient_Swatch_4-8" data-name="New Gradient Swatch 4" x1="779" y1="123.5" x2="817" y2="123.5" xlink:href="#New_Gradient_Swatch_4"/>
  </defs>
  <path class="cls-8" d="M446.5,237.5h38.01v-28.5s-9.51-9.5-9.51-9.5l-5.31-28.5-9.51-9.49,6.53-6.53-8.45-44.88-3.24-17.23-1.39-7.37h-40.38v28.5s9.5,9.5,9.5,9.5h0l-5.92,31.5,6.57,6.51-9.51,9.49-5.4,28.5-9.5,9.5v28.5h38v-28.5l-9.5-9.5,4.75-28.5h19l4.75,28.5-9.5,9.5v28.5ZM446.5,152h-9.5v-28.5h9.5v28.5Z"/>
  <polygon class="cls-7" points="370.5 199.5 361 209 342 209 332.5 199.5 332.5 171 323 161.5 332.5 152 332.5 123.5 342 114 342 85.5 304 85.5 304 114 313.5 123.5 313.5 152 323 161.5 313.5 171 313.5 199.5 304 209 304 237.5 380 237.5 380 199.5 370.5 199.5"/>
  <path class="cls-5" d="M569.99,85.5h-66.5v28.5l9.52,9.5v28.5l9.5,9.5-9.5,9.5v28.47l-9.52,9.54v28.48h66.5l9.5-9.48V95l-9.5-9.5ZM560.49,199.52h-28.49v-76.01h28.49s0,76.01,0,76.01Z"/>
  <polyline class="cls-6" points="655.49 152 627 152 627 123.5 636.5 114 636.5 85.5 598.5 85.5 598.5 114 608 123.5 608 152 617.5 161.5 631.75 171 631.75 199.5 622.25 209 622.25 237.49 660.25 237.5 660.25 209 650.75 199.5 650.75 171 665 161.5 674.5 152 674.5 123.5 684 114 684 85.5 646 85.5 646 114 655.5 123.5"/>
  <g>
    <polygon class="cls-4" points="921.5 190 912 199.5 874 199.51 874 123.5 912 123.5 912 123.5 921.5 133 931 133 931 94.99 921.5 85.5 864.49 85.5 855 94.99 855 152 864.49 161.48 855 171 855 228 864.49 237.5 921.5 237.5 931 228 931 190 921.5 190"/>
    <polygon class="cls-1" points="874 123.5 912 123.5 912 123.5 874 123.5"/>
  </g>
  <g>
    <polygon class="cls-3" points="826.5 190 817 199.5 779 199.51 779 123.5 817 123.5 817 123.5 826.5 133 836 133 836 94.99 826.5 85.5 769.49 85.5 760 94.99 760 152 769.49 161.48 760 171 760 228 769.49 237.5 826.5 237.5 836 228 836 190 826.5 190"/>
    <polygon class="cls-2" points="779 123.5 817 123.5 817 123.5 779 123.5"/>
  </g>
</svg>