<?xml version="1.0" encoding="UTF-8"?>
<svg id="Layer_2" data-name="Layer 2" xmlns="http://www.w3.org/2000/svg" xmlns:xlink="http://www.w3.org/1999/xlink" viewBox="0 0 1231 319">
  <defs>
    <style>
      .cls-1 {
        fill: url(#New_Gradient_Swatch_7-2);
      }

      .cls-1, .cls-2, .cls-3, .cls-4, .cls-5 {
        stroke-width: 0px;
      }

      .cls-2 {
        fill: none;
      }

      .cls-3 {
        fill: url(#New_Gradient_Swatch_7-3);
      }

      .cls-4 {
        fill: url(#New_Gradient_Swatch_7);
      }

      .cls-5 {
        fill: url(#New_Gradient_Swatch_7_copy);
      }
    </style>
    <linearGradient id="New_Gradient_Swatch_7" data-name="New Gradient Swatch 7" x1="446.75" y1="159.5" x2="531.12" y2="159.5" gradientUnits="userSpaceOnUse">
      <stop offset="0" stop-color="#ff8933"/>
      <stop offset="1" stop-color="#ff312d"/>
    </linearGradient>
    <linearGradient id="New_Gradient_Swatch_7-2" data-name="New Gradient Swatch 7" x1="653" x2="690.5" xlink:href="#New_Gradient_Swatch_7"/>
    <linearGradient id="New_Gradient_Swatch_7-3" data-name="New Gradient Swatch 7" x1="549.88" x2="634.25" xlink:href="#New_Gradient_Swatch_7"/>
    <linearGradient id="New_Gradient_Swatch_7_copy" data-name="New Gradient Swatch 7 copy" x1="709.25" y1="159.5" x2="784.25" y2="159.5" gradientUnits="userSpaceOnUse">
      <stop offset="0" stop-color="#ff8933"/>
      <stop offset="1" stop-color="#ff312d"/>
    </linearGradient>
  </defs>
  <g id="Layer_3" data-name="Layer 3">
    <g>
      <g>
        <polygon class="cls-4" points="521.75 121.99 531.12 112.63 531.12 84.5 512.37 84.5 488.94 107.91 465.5 84.56 446.75 84.51 446.75 112.63 456.13 122 456.13 150.13 465.5 159.5 456.13 168.88 456.13 197 446.75 206.37 446.75 234.5 484.25 234.5 484.25 206.37 474.88 197 474.88 122.02 488.94 136.03 502.99 122 503 122 503 197 493.63 206.37 493.63 234.5 531.12 234.5 531.12 206.37 521.75 197.01 521.75 168.87 512.37 159.5 521.75 150.13 521.75 121.99"/>
        <polygon class="cls-1" points="681.12 122 690.5 112.62 690.5 84.5 653 84.5 653 112.62 662.38 122 662.38 150.13 671.75 159.5 662.38 168.87 662.38 197 653 206.38 653 234.5 690.5 234.5 690.5 206.38 681.12 197 681.12 168.87 671.75 159.5 681.12 150.13 681.12 122"/>
        <path class="cls-3" d="M596.74,234.5h37.51v-28.13s-9.38-9.37-9.38-9.37l-5.24-28.13-9.39-9.36,6.44-6.44-8.33-44.29-3.2-17.01-1.37-7.28h-39.85v28.12s9.38,9.38,9.38,9.38h0l-5.84,31.08,6.49,6.43-9.39,9.36-5.32,28.13-9.37,9.37v28.13h37.5v-28.13l-9.37-9.37,4.69-28.13h18.75l4.69,28.13-9.37,9.37v28.13ZM596.75,150.12h-9.38v-28.13h9.38v28.13Z"/>
        <path class="cls-5" d="M784.25,150.12v-56.26l-9.38-9.37h-56.25l-9.37,9.37v56.26l9.37,9.36-9.37,9.39v56.25l9.37,9.38h56.25s9.38-9.38,9.38-9.38v-56.25l-9.38-9.39,9.38-9.36ZM765.5,197h-37.51v-75s37.51,0,37.51,0v75Z"/>
      </g>
      <rect class="cls-2" width="1231" height="319"/>
    </g>
  </g>
</svg>