<?xml version="1.0" encoding="UTF-8"?>
<svg xmlns="http://www.w3.org/2000/svg" xmlns:xlink="http://www.w3.org/1999/xlink" version="1.1" viewBox="0 0 1235 323">
  <defs>
    <style>
      .cls-1 {
        fill: url(#linear-gradient-8);
      }

      .cls-2 {
        fill: url(#linear-gradient-7);
      }

      .cls-3 {
        fill: url(#linear-gradient-5);
      }

      .cls-4 {
        fill: url(#linear-gradient-6);
      }

      .cls-5 {
        fill: url(#linear-gradient-9);
      }

      .cls-6 {
        fill: url(#linear-gradient-4);
      }

      .cls-7 {
        fill: url(#linear-gradient-3);
      }

      .cls-8 {
        fill: url(#linear-gradient-2);
      }

      .cls-9 {
        fill: url(#linear-gradient);
      }

      .cls-10 {
        isolation: isolate;
      }

      .cls-11 {
        fill: #ffcb8f;
      }

      .cls-12 {
        fill: url(#linear-gradient-10);
      }

      .cls-13 {
        fill: url(#linear-gradient-11);
      }

      .cls-14 {
        fill: url(#linear-gradient-12);
      }

      .cls-15 {
        fill: url(#linear-gradient-13);
      }

      .cls-16 {
        fill: url(#linear-gradient-14);
      }

      .cls-17 {
        fill: url(#linear-gradient-15);
      }

      .cls-18 {
        fill: url(#linear-gradient-16);
      }
    </style>
    <linearGradient id="linear-gradient" x1="294.5" y1="248" x2="380" y2="248" gradientTransform="translate(0 324) scale(1 -1)" gradientUnits="userSpaceOnUse">
      <stop offset="0" stop-color="#ff8933"/>
      <stop offset="1" stop-color="#ff312d"/>
    </linearGradient>
    <linearGradient id="linear-gradient-2" x1="399" y1="248" x2="484.5" y2="248" gradientTransform="translate(0 324) scale(1 -1)" gradientUnits="userSpaceOnUse">
      <stop offset="0" stop-color="#ff8933"/>
      <stop offset="1" stop-color="#ff312d"/>
    </linearGradient>
    <linearGradient id="linear-gradient-3" x1="503.5" y1="248" x2="589" y2="248" gradientTransform="translate(0 324) scale(1 -1)" gradientUnits="userSpaceOnUse">
      <stop offset="0" stop-color="#ff8933"/>
      <stop offset="1" stop-color="#ff312d"/>
    </linearGradient>
    <linearGradient id="linear-gradient-4" x1="864.5" y1="248" x2="940.5" y2="248" gradientTransform="translate(0 324) scale(1 -1)" gradientUnits="userSpaceOnUse">
      <stop offset="0" stop-color="#ff8933"/>
      <stop offset="1" stop-color="#ff312d"/>
    </linearGradient>
    <linearGradient id="linear-gradient-5" x1="617.5" y1="210" x2="684" y2="210" gradientTransform="translate(0 324) scale(1 -1)" gradientUnits="userSpaceOnUse">
      <stop offset="0" stop-color="#ff8933"/>
      <stop offset="1" stop-color="#ff312d"/>
    </linearGradient>
    <linearGradient id="linear-gradient-6" x1="655.5" y1="286" x2="693.5" y2="286" gradientTransform="translate(0 324) scale(1 -1)" gradientUnits="userSpaceOnUse">
      <stop offset="0" stop-color="#ff8933"/>
      <stop offset="1" stop-color="#ff312d"/>
    </linearGradient>
    <linearGradient id="linear-gradient-7" x1="608" y1="286" x2="646" y2="286" gradientTransform="translate(0 324) scale(1 -1)" gradientUnits="userSpaceOnUse">
      <stop offset="0" stop-color="#ff8933"/>
      <stop offset="1" stop-color="#ff312d"/>
    </linearGradient>
    <linearGradient id="linear-gradient-8" x1="769.5" y1="248" x2="845.5" y2="248" gradientTransform="translate(0 324) scale(1 -1)" gradientUnits="userSpaceOnUse">
      <stop offset="0" stop-color="#ff8933"/>
      <stop offset="1" stop-color="#ff312d"/>
    </linearGradient>
    <linearGradient id="linear-gradient-9" x1="346.7" y1="77" x2="432.2" y2="77" gradientTransform="translate(0 324) scale(1 -1)" gradientUnits="userSpaceOnUse">
      <stop offset="0" stop-color="#ff8933"/>
      <stop offset="1" stop-color="#ff312d"/>
    </linearGradient>
    <linearGradient id="linear-gradient-10" x1="251.8" y1="77" x2="327.8" y2="77" gradientTransform="translate(0 324) scale(1 -1)" gradientUnits="userSpaceOnUse">
      <stop offset="0" stop-color="#ff8933"/>
      <stop offset="1" stop-color="#ff312d"/>
    </linearGradient>
    <linearGradient id="linear-gradient-11" x1="612.8" y1="77" x2="688.8" y2="77" gradientTransform="translate(0 324) scale(1 -1)" gradientUnits="userSpaceOnUse">
      <stop offset="0" stop-color="#ff8933"/>
      <stop offset="1" stop-color="#ff312d"/>
    </linearGradient>
    <linearGradient id="linear-gradient-12" x1="907.2" y1="77" x2="983.2" y2="77" gradientTransform="translate(0 324) scale(1 -1)" gradientUnits="userSpaceOnUse">
      <stop offset="0" stop-color="#ff8933"/>
      <stop offset="1" stop-color="#ff312d"/>
    </linearGradient>
    <linearGradient id="linear-gradient-13" x1="707.8" y1="77" x2="783.8" y2="77" gradientTransform="translate(0 324) scale(1 -1)" gradientUnits="userSpaceOnUse">
      <stop offset="0" stop-color="#ff8933"/>
      <stop offset="1" stop-color="#ff312d"/>
    </linearGradient>
    <linearGradient id="linear-gradient-14" x1="726.8" y1="115" x2="764.8" y2="115" gradientTransform="translate(0 324) scale(1 -1)" gradientUnits="userSpaceOnUse">
      <stop offset="0" stop-color="#ff8933"/>
      <stop offset="1" stop-color="#ff312d"/>
    </linearGradient>
    <linearGradient id="linear-gradient-15" x1="802.8" y1="77" x2="888.2" y2="77" gradientTransform="translate(0 324) scale(1 -1)" gradientUnits="userSpaceOnUse">
      <stop offset="0" stop-color="#ff8933"/>
      <stop offset="1" stop-color="#ff312d"/>
    </linearGradient>
    <linearGradient id="linear-gradient-16" x1="508.2" y1="77" x2="593.8" y2="77" gradientTransform="translate(0 324) scale(1 -1)" gradientUnits="userSpaceOnUse">
      <stop offset="0" stop-color="#ff8933"/>
      <stop offset="1" stop-color="#ff312d"/>
    </linearGradient>
  </defs>
  <!-- Generator: Adobe Illustrator 28.6.0, SVG Export Plug-In . SVG Version: 1.2.0 Build 709)  -->
  <g>
    <g id="Layer_1">
      <g>
        <polygon class="cls-9" points="370.5 38 380 28.5 380 0 361 0 337.2 23.7 313.5 0 294.5 0 294.5 28.5 304 38 304 66.5 313.5 76 304 85.5 304 114 294.5 123.5 294.5 152 332.5 152 332.5 123.5 323 114 323 38 337.2 52.2 351.5 38 351.5 38 351.5 114 342 123.5 342 152 380 152 380 123.5 370.5 114 370.5 85.5 361 76 370.5 66.5 370.5 38"/>
        <path class="cls-8" d="M446.5,152h38v-28.5l-9.5-9.5-5.3-28.5-9.5-9.5,6.5-6.5-8.5-44.9-3.2-17.2L453.6,0h-40.4v28.5l9.5,9.5h0l-5.9,31.5,6.6,6.5-9.5,9.5-5.4,28.5-9.5,9.5v28.5h38v-28.5l-9.5-9.5,4.8-28.5h19l4.8,28.5-9.5,9.5v28.5h0ZM446.5,66.5h-9.5v-28.5h9.5v28.5Z"/>
        <polygon class="cls-7" points="589 0 560.5 0 560.5 66.5 532 0 503.5 0 503.5 28.5 513 38 513 66.5 522.5 76 513 85.5 513 114 503.5 123.5 503.5 152 541.5 152 541.5 123.5 532 114 532 38 560.5 104.5 560.5 114 551 123.5 551 152 589 152 589 123.5 579.5 114 579.5 85.5 570 76 579.5 66.5 579.5 66.5 579.5 38 589 28.5 589 0"/>
        <polygon class="cls-6" points="931 47.5 921.5 38 893 38 893 66.5 902.5 66.5 912 57 921.5 57 921.5 66.5 921.5 76 921.5 85.5 921.5 95 912 95 902.5 85.5 893 85.5 893 114 921.5 114 931 104.5 940.5 104.5 940.5 152 864.5 152 864.5 123.5 874 114 874 85.5 883.5 76 874 66.5 874 38 864.5 28.5 864.5 0 940.5 0 940.5 47.5 931 47.5"/>
        <g>
          <polygon class="cls-3" points="665 114 655.8 123.2 655.5 123.5 646 123.5 645.7 123.2 636.5 114 636.5 85.5 627 76 617.5 85.5 617.5 114 617.5 142.5 627 152 627 152 674.5 152 674.5 152 684 142.5 684 114 684 85.5 674.5 76 665 85.5 665 114"/>
          <polygon class="cls-4" points="655.5 0 655.5 28.5 665 38 665 66.5 674.5 76 684 66.5 684 38 693.5 28.5 693.5 0 655.5 0"/>
          <polygon class="cls-2" points="636.5 38 646 28.5 646 0 608 0 608 28.5 617.5 38 617.5 66.5 627 76 636.5 66.5 636.5 38"/>
        </g>
        <path class="cls-1" d="M836,0h-66.5v28.5l9.5,9.5v28.5l9.5,9.5-9.5,9.5v28.5l-9.5,9.5v28.5h66.5l9.5-9.5V9.5l-9.5-9.5ZM826.5,114h-28.5V38h28.5s0,76,0,76Z"/>
      </g>
      <g>
        <path class="cls-5" d="M394.2,323h38v-28.5l-9.5-9.5-5.3-28.5-9.5-9.5,6.5-6.5-8.5-44.9-3.2-17.2-1.4-7.4h-40.4v28.5l9.5,9.5h0l-5.9,31.5,6.6,6.5-9.5,9.5-5.4,28.5-9.5,9.5v28.5h38v-28.5l-9.5-9.5,4.8-28.5h19l4.8,28.5-9.5,9.5v28.5h0ZM394.2,237.5h-9.5v-28.5h9.5v28.5Z"/>
        <polygon class="cls-12" points="318.2 285 308.8 294.5 289.8 294.5 280.2 285 280.2 256.5 270.8 247 280.2 237.5 280.2 209 289.8 199.5 289.8 171 251.8 171 251.8 199.5 261.2 209 261.2 237.5 270.8 247 261.2 256.5 261.2 285 251.8 294.5 251.8 323 327.8 323 327.8 285 318.2 285"/>
        <path class="cls-13" d="M688.8,237.5v-57l-9.5-9.5h-57l-9.5,9.5v57l9.5,9.5-9.5,9.5v57l9.5,9.5h57l9.5-9.5v-57l-9.5-9.5,9.5-9.5ZM669.8,285h-38v-76h38v76Z"/>
        <polygon class="cls-14" points="973.8 218.5 964.2 209 935.8 209 935.8 237.5 945.2 237.5 954.8 228 964.2 228 964.2 237.5 964.2 247 964.2 256.5 964.2 266 954.8 266 945.2 256.5 935.8 256.5 935.8 285 964.2 285 973.8 275.5 983.2 275.5 983.2 323 907.2 323 907.2 294.5 916.8 285 916.8 256.5 926.2 247 916.8 237.5 916.8 209 907.3 199.5 907.3 171 983.2 171 983.2 218.5 973.8 218.5"/>
        <g>
          <polygon class="cls-15" points="774.2 275.5 764.8 285 726.8 285 726.8 209 764.8 209 764.8 209 774.2 218.5 783.8 218.5 783.8 180.5 774.2 171 717.2 171 707.8 180.5 707.8 237.5 717.2 247 707.8 256.5 707.8 313.5 717.2 323 774.2 323 783.8 313.5 783.8 275.5 774.2 275.5"/>
          <polygon class="cls-16" points="726.8 209 764.8 209 764.8 209 726.8 209"/>
        </g>
        <polyline class="cls-17" points="859.7 237.5 831.2 237.5 831.2 209 840.8 199.5 840.8 171 802.8 171 802.8 199.5 812.2 209 812.2 237.5 821.8 247 812.2 256.5 812.2 285 802.8 294.5 802.8 323 840.8 323 840.8 294.5 831.2 285 831.2 256.5 859.8 256.5 859.8 285 850.2 294.5 850.2 323 888.2 323 888.2 294.5 878.8 285 878.8 256.5 869.2 247 878.8 237.5 878.8 209 888.2 199.5 888.2 171 850.2 171 850.2 199.5 859.8 209"/>
        <path class="cls-18" d="M555.8,256.5l9.5,9.5v57h28.5v-28.5l-9.5-9.5v-28.5l-9.5-9.5,9.5-9.5v-57l-9.5-9.5h-66.5v28.5l9.5,9.5v28.5l9.5,9.5-9.5,9.5v28.5l-9.5,9.5v28.5h38v-28.5l-9.5-9.5v-28.5M565.2,228l-9.5,9.5h-19v-28.5h28.5v19h0Z"/>
      </g>
      <g class="cls-10">
        <g class="cls-10">
          <path class="cls-11" d="M273.7,142.7c-2.9,0-5.4.5-7.4,1.6-2,1.1-3.6,2.5-4.9,4.5-1.3,1.9-2.2,4.2-2.8,6.8-.6,2.6-.8,5.5-.8,8.8,0,7.4,1.2,12.8,3.5,16.3,2.3,3.5,5.8,5.2,10.3,5.2s1.5,0,2.4,0c.9,0,1.7-.2,2.4-.3v-22.6h12.3v30.9c-1.5.5-3.8,1.1-6.9,1.8-3.1.7-6.9,1-11.2,1s-7.4-.7-10.5-2c-3.1-1.4-5.8-3.4-7.9-6.1-2.2-2.7-3.9-6.1-5.1-10.1-1.2-4-1.8-8.7-1.8-14s.7-9.9,2.1-14c1.4-4,3.3-7.4,5.7-10.1,2.4-2.7,5.2-4.8,8.5-6.2,3.3-1.4,6.8-2,10.5-2s4.5.2,6.5.5c1.9.4,3.5.8,4.9,1.2,1.4.5,2.6,1,3.5,1.5.9.5,1.6.9,2,1.2l-3.2,9.8c-1.5-.9-3.3-1.8-5.4-2.5-2.1-.7-4.3-1.1-6.6-1.1Z"/>
          <path class="cls-11" d="M338.5,195.3h-38.9v-61.9h12.4v51.7h26.5v10.2Z"/>
          <path class="cls-11" d="M378.4,195.3l-2.9-14.3h-16.5l-2.8,14.3h-12.8c2.9-12.2,5.9-23.3,8.9-33.4,3-10,5.9-19.6,8.7-28.6h13.4c2.9,9.1,5.9,18.7,8.8,28.9,2.9,10.2,5.7,21.2,8.5,33h-13.2ZM367.4,145.4c-.7,2.3-1.3,4.6-1.9,6.7-.6,2.1-1.1,4.2-1.6,6.2-.5,2-1,4.1-1.4,6.1-.4,2.1-.8,4.2-1.2,6.4h12.1c-.4-2.2-.8-4.3-1.2-6.4-.4-2.1-.9-4.1-1.4-6.1-.5-2-1-4.1-1.6-6.2-.6-2.1-1.2-4.3-1.9-6.7Z"/>
          <path class="cls-11" d="M408.6,133.4c.5,1.4,1,3.2,1.8,5.4.7,2.2,1.4,4.6,2.2,7.1.8,2.5,1.6,5.1,2.4,7.7.8,2.6,1.6,5,2.3,7.2.8-2.5,1.6-5,2.5-7.7.9-2.6,1.7-5.2,2.5-7.6.8-2.4,1.5-4.7,2.2-6.8.7-2.1,1.3-3.9,1.8-5.3h10.2c.5,5.4.9,10.7,1.4,15.8.4,5.1.8,10.2,1.1,15.3.3,5,.5,10.1.8,15.2.2,5.1.4,10.3.5,15.7h-11.3l.6-48.1-7.6,26.2h-9l-7.3-26.2.5,48.1h-11.3c.2-5.1.4-10.3.7-15.8.2-5.5.5-10.9.8-16.3.3-5.4.6-10.6.9-15.7.4-5.1.8-9.8,1.2-14.1h10.2Z"/>
          <path class="cls-11" d="M445.2,164.3c0-10.7,2-18.7,5.9-24.2,3.9-5.4,9.4-8.1,16.4-8.1s12.8,2.7,16.6,8.1c3.8,5.4,5.7,13.5,5.7,24.2s-1.9,18.7-5.8,24.2c-3.9,5.4-9.3,8.1-16.4,8.1s-12.8-2.7-16.6-8.1c-3.8-5.4-5.8-13.5-5.8-24.2ZM457.7,164.3c0,3,.1,5.8.3,8.5.2,2.6.7,4.9,1.4,6.8.7,1.9,1.7,3.5,2.9,4.6,1.3,1.1,3,1.7,5.1,1.7s3.8-.6,5-1.7c1.3-1.1,2.3-2.7,3-4.7.7-2,1.2-4.2,1.4-6.8.2-2.6.3-5.4.3-8.4s-.1-5.8-.3-8.5c-.2-2.6-.7-4.9-1.4-6.8-.7-1.9-1.7-3.5-2.9-4.6-1.3-1.1-3-1.7-5.1-1.7s-3.8.6-5.1,1.7c-1.3,1.1-2.2,2.7-2.9,4.7-.7,2-1.2,4.2-1.4,6.8-.2,2.6-.3,5.4-.3,8.4Z"/>
          <path class="cls-11" d="M517.3,196.6c-4,0-7.3-.5-10-1.6-2.7-1.1-4.9-2.7-6.5-4.8-1.6-2.1-2.7-4.6-3.4-7.5-.7-2.9-1-6.2-1-9.8v-39.5h12.4v38.7c0,2.6.1,4.8.4,6.5.3,1.8.7,3.2,1.3,4.2.6,1.1,1.5,1.8,2.7,2.3,1.1.5,2.6.7,4.3.7s3.2-.2,4.3-.7c1.1-.5,2-1.2,2.7-2.4.7-1.1,1.1-2.5,1.4-4.3.3-1.8.4-4,.4-6.5v-38.6h12.3v39.5c0,3.6-.3,6.9-1,9.8-.7,2.9-1.8,5.4-3.5,7.5-1.7,2.1-3.9,3.6-6.6,4.8-2.7,1.1-6.1,1.6-10.2,1.6Z"/>
          <path class="cls-11" d="M563.9,132.7c3.5,0,6.7.4,9.6,1.2,2.9.8,5.3,2,7.4,3.7,2.1,1.7,3.6,3.8,4.8,6.4s1.6,5.6,1.6,9-.7,6.9-2.2,9.8c-1.5,2.9-3.9,5.2-7.3,6.7,1.1,1.7,2.3,3.6,3.6,5.8,1.3,2.1,2.5,4.3,3.7,6.6,1.2,2.3,2.4,4.6,3.4,6.9,1.1,2.3,2.1,4.5,2.9,6.5h-12.9c-1.5-4-3.3-7.8-5.4-11.5-2-3.7-4.2-7.5-6.5-11.2h-6.4v22.8h-12.3v-61c1.2-.3,2.5-.5,4-.8,1.4-.2,2.9-.4,4.4-.5,1.5,0,2.9-.2,4.2-.2,1.3,0,2.5,0,3.5,0ZM574.8,152.9c0-3.3-1-5.7-3-7.2-2-1.5-4.6-2.3-7.9-2.3s-1,0-1.7,0c-.7,0-1.3.1-2,.2v18.6h2.7c4.2,0,7.2-.8,9.1-2.5,1.9-1.6,2.8-4,2.8-7Z"/>
          <path class="cls-11" d="M628.4,195.3l-2.9-14.3h-16.5l-2.8,14.3h-12.8c2.9-12.2,5.9-23.3,8.9-33.4,3-10,5.9-19.6,8.7-28.6h13.4c2.9,9.1,5.8,18.7,8.8,28.9,2.9,10.2,5.7,21.2,8.4,33h-13.2ZM617.4,145.4c-.7,2.3-1.3,4.6-1.9,6.7-.6,2.1-1.1,4.2-1.6,6.2-.5,2-1,4.1-1.4,6.1-.4,2.1-.8,4.2-1.2,6.4h12.1c-.4-2.2-.8-4.3-1.2-6.4-.4-2.1-.9-4.1-1.4-6.1-.5-2-1-4.1-1.6-6.2-.6-2.1-1.2-4.3-1.9-6.7Z"/>
          <path class="cls-11" d="M658.6,133.4c.5,1.4,1.1,3.2,1.8,5.4.7,2.2,1.5,4.6,2.2,7.1.8,2.5,1.6,5.1,2.4,7.7.8,2.6,1.6,5,2.3,7.2.8-2.5,1.6-5,2.5-7.7.9-2.6,1.7-5.2,2.5-7.6.8-2.4,1.5-4.7,2.2-6.8.7-2.1,1.3-3.9,1.8-5.3h10.2c.5,5.4.9,10.7,1.3,15.8.4,5.1.8,10.2,1.1,15.3.3,5,.5,10.1.8,15.2.2,5.1.4,10.3.5,15.7h-11.3l.6-48.1-7.6,26.2h-9l-7.3-26.2.5,48.1h-11.3c.2-5.1.4-10.3.7-15.8.2-5.5.5-10.9.8-16.3.3-5.4.6-10.6,1-15.7.4-5.1.8-9.8,1.2-14.1h10.2Z"/>
          <path class="cls-11" d="M728.4,195.3l-2.9-14.3h-16.5l-2.8,14.3h-12.8c2.9-12.2,5.9-23.3,8.9-33.4,3-10,5.9-19.6,8.7-28.6h13.4c2.9,9.1,5.8,18.7,8.8,28.9,2.9,10.2,5.7,21.2,8.4,33h-13.2ZM717.4,145.4c-.7,2.3-1.3,4.6-1.9,6.7-.6,2.1-1.1,4.2-1.6,6.2-.5,2-1,4.1-1.4,6.1-.4,2.1-.8,4.2-1.2,6.4h12.1c-.4-2.2-.8-4.3-1.2-6.4-.4-2.1-.9-4.1-1.4-6.1-.5-2-1-4.1-1.6-6.2-.6-2.1-1.2-4.3-1.8-6.7Z"/>
          <path class="cls-11" d="M815.7,186.3c2.1,0,3.8-.2,5.1-.7,1.4-.4,2.5-1,3.2-1.8.8-.8,1.4-1.6,1.7-2.6.3-1,.5-2,.5-3s-.4-2.4-1.1-3.4c-.7-1-1.7-1.9-2.8-2.6-1.1-.8-2.4-1.5-3.8-2.1-1.4-.6-2.8-1.2-4.2-1.8-1.9-.7-3.8-1.4-5.8-2.3-2-.9-3.8-2-5.5-3.3-1.6-1.3-3-3-4-5-1.1-2-1.6-4.4-1.6-7.3,0-5.8,1.9-10.3,5.6-13.6,3.8-3.3,9-4.9,15.5-4.9s7.1.4,10,1.3c2.8.9,5.2,1.8,7.2,2.9l-3.6,9.5c-1.7-.9-3.5-1.7-5.5-2.4-2-.7-4.4-1-7-1-6.5,0-9.8,2.4-9.8,7.1s.3,2.2,1,3.2c.7.9,1.5,1.7,2.5,2.4,1,.7,2.2,1.3,3.5,1.8,1.3.5,2.6,1,3.8,1.5,1.9.7,4,1.5,6.1,2.5,2.1.9,4,2.1,5.8,3.6,1.8,1.5,3.2,3.4,4.3,5.6,1.1,2.2,1.7,5,1.7,8.4,0,5.8-1.9,10.3-5.7,13.5-3.8,3.2-9.5,4.8-17.1,4.8s-9.2-.5-12.3-1.6c-3.1-1.1-5.4-2.1-6.9-3.1l3.6-10c1.8,1.1,4,2.1,6.5,3,2.5.9,5.5,1.4,9.2,1.4Z"/>
          <path class="cls-11" d="M888,133.4v61.9h-12.3v-27.3h-16.4v27.3h-12.3v-61.9h12.3v24.4h16.4v-24.4h12.3Z"/>
          <path class="cls-11" d="M895.2,164.3c0-10.7,2-18.7,5.9-24.2,3.9-5.4,9.4-8.1,16.4-8.1s12.8,2.7,16.6,8.1c3.8,5.4,5.7,13.5,5.7,24.2s-1.9,18.7-5.8,24.2c-3.9,5.4-9.3,8.1-16.4,8.1s-12.8-2.7-16.6-8.1c-3.8-5.4-5.8-13.5-5.8-24.2ZM907.7,164.3c0,3,.1,5.8.3,8.5.2,2.6.7,4.9,1.4,6.8.7,1.9,1.7,3.5,3,4.6,1.3,1.1,3,1.7,5.1,1.7s3.8-.6,5-1.7c1.3-1.1,2.3-2.7,3-4.7.7-2,1.2-4.2,1.4-6.8.2-2.6.3-5.4.3-8.4s-.1-5.8-.3-8.5c-.2-2.6-.7-4.9-1.4-6.8-.7-1.9-1.7-3.5-3-4.6-1.3-1.1-3-1.7-5.1-1.7s-3.8.6-5.1,1.7c-1.3,1.1-2.2,2.7-3,4.7-.7,2-1.2,4.2-1.4,6.8-.2,2.6-.3,5.4-.3,8.4Z"/>
          <path class="cls-11" d="M972.1,155.3c.3,1.3.7,2.8,1.2,4.7.5,1.9,1.1,3.9,1.8,6.2.6,2.3,1.3,4.7,2.1,7.3.8,2.6,1.5,5.3,2.2,8,0-3.5,0-7.2-.3-11.2-.2-4-.4-8-.5-12.1-.2-4.1-.4-8.3-.5-12.6-.2-4.2-.3-8.3-.3-12.2h12.4c-.2,5.1-.4,10.3-.6,15.7-.2,5.4-.4,10.7-.7,16-.3,5.3-.6,10.5-1,15.7-.4,5.1-.8,10-1.2,14.6h-10.2c-1.5-4.2-2.9-8.7-4.4-13.5-1.5-4.8-2.9-9.5-4.4-13.9-1.5,4.2-3,8.8-4.6,13.7-1.6,4.9-3.1,9.5-4.4,13.7h-10.2c-.5-4.6-1-9.5-1.4-14.7-.4-5.2-.8-10.4-1-15.7-.3-5.3-.5-10.6-.8-16-.2-5.4-.4-10.6-.5-15.6h11.4c0,3.9-.1,8-.2,12.2,0,4.2-.1,8.4-.2,12.5,0,4.2-.1,8.2-.2,12.2,0,4,0,7.7,0,11.2.6-2.1,1.3-4.5,2-7,.8-2.5,1.5-5,2.2-7.5.7-2.5,1.3-4.7,2-6.8.6-2.1,1.1-3.7,1.4-4.9h9Z"/>
        </g>
      </g>
    </g>
  </g>
</svg>