<?xml version="1.0" encoding="UTF-8"?>
<svg id="Layer_1" data-name="Layer 1" xmlns="http://www.w3.org/2000/svg" xmlns:xlink="http://www.w3.org/1999/xlink" viewBox="0 0 1235 323">
  <defs>
    <style>
      .cls-1 {
        fill: url(#New_Gradient_Swatch_4-6);
      }

      .cls-2 {
        fill: url(#New_Gradient_Swatch_4-5);
      }

      .cls-3 {
        fill: url(#New_Gradient_Swatch_4-3);
      }

      .cls-4 {
        fill: url(#New_Gradient_Swatch_4-4);
      }

      .cls-5 {
        fill: url(#New_Gradient_Swatch_4-2);
      }

      .cls-6 {
        fill: url(#New_Gradient_Swatch_4);
      }
    </style>
    <linearGradient id="New_Gradient_Swatch_4" data-name="New Gradient Swatch 4" x1="375.25" y1="161.5" x2="460.75" y2="161.5" gradientUnits="userSpaceOnUse">
      <stop offset="0" stop-color="#ff8933"/>
      <stop offset="1" stop-color="#ff312d"/>
    </linearGradient>
    <linearGradient id="New_Gradient_Swatch_4-2" data-name="New Gradient Swatch 4" x1="783.75" x2="859.75" xlink:href="#New_Gradient_Swatch_4"/>
    <linearGradient id="New_Gradient_Swatch_4-3" data-name="New Gradient Swatch 4" x1="479.75" x2="565.25" xlink:href="#New_Gradient_Swatch_4"/>
    <linearGradient id="New_Gradient_Swatch_4-4" data-name="New Gradient Swatch 4" x1="688.76" y1="166.25" x2="764.76" y2="166.25" xlink:href="#New_Gradient_Swatch_4"/>
    <linearGradient id="New_Gradient_Swatch_4-5" data-name="New Gradient Swatch 4" x1="707.76" y1="123.5" x2="745.76" y2="123.5" xlink:href="#New_Gradient_Swatch_4"/>
    <linearGradient id="New_Gradient_Swatch_4-6" data-name="New Gradient Swatch 4" x1="584.25" x2="669.75" xlink:href="#New_Gradient_Swatch_4"/>
  </defs>
  <polygon class="cls-6" points="451.25 123.49 460.75 114 460.75 85.5 441.75 85.5 418 109.22 394.25 85.56 375.25 85.51 375.25 114 384.75 123.5 384.75 152 394.25 161.5 384.75 171 384.75 199.5 375.25 209 375.25 237.5 413.25 237.5 413.25 209 403.75 199.5 403.75 123.52 418 137.72 432.24 123.5 432.25 123.5 432.25 199.5 422.75 209 422.75 237.5 460.75 237.5 460.75 209 451.25 199.51 451.25 171 441.75 161.5 451.25 152 451.25 123.49"/>
  <path class="cls-5" d="M859.75,152v-57.01l-9.5-9.49h-57l-9.49,9.49v57.01l9.49,9.48-9.49,9.51v57l9.49,9.5h57s9.5-9.5,9.5-9.5v-57l-9.5-9.51,9.5-9.48ZM840.75,199.5h-38.01v-76s38.01,0,38.01,0v76Z"/>
  <path class="cls-3" d="M527.24,237.5h38.01v-28.5s-9.51-9.5-9.51-9.5l-5.31-28.5-9.51-9.49,6.53-6.53-8.45-44.88-3.24-17.23-1.39-7.37h-40.38v28.5s9.5,9.5,9.5,9.5h0l-5.92,31.5,6.57,6.51-9.51,9.49-5.4,28.5-9.5,9.5v28.5h38v-28.5l-9.5-9.5,4.75-28.5h19l4.75,28.5-9.5,9.5v28.5ZM527.25,152h-9.5v-28.5h9.5v28.5Z"/>
  <g>
    <polygon class="cls-4" points="755.26 190 745.76 199.5 707.75 199.51 707.76 123.5 745.76 123.5 745.76 123.5 755.26 133 764.75 133 764.75 94.99 755.25 85.5 698.25 85.5 688.76 94.99 688.76 152 698.25 161.48 688.76 171 688.76 228 698.25 237.5 717.25 237.5 707.75 247 726.75 247 736.25 237.5 755.25 237.5 764.76 228 764.76 190 755.26 190"/>
    <polygon class="cls-2" points="707.76 123.5 745.76 123.5 745.76 123.5 707.76 123.5"/>
  </g>
  <path class="cls-1" d="M631.75,171l9.5,9.5v56.99h28.5s0-28.49,0-28.49l-9.5-9.5v-28.5l-9.5-9.5,9.5-9.5v-57l-9.5-9.5h-66.5s0,28.5,0,28.5l9.5,9.5v28.5l9.5,9.5-9.5,9.5v28.5l-9.5,9.5v28.5h38v-28.5l-9.5-9.5v-28.5M641.24,142.49l-9.49,9.51h-19v-28.5s28.5,0,28.5,0v9.5s0,9.49,0,9.49Z"/>
</svg>