<?xml version="1.0" encoding="UTF-8"?>
<svg id="Layer_1" xmlns="http://www.w3.org/2000/svg" xmlns:xlink="http://www.w3.org/1999/xlink" viewBox="0 0 1235 323">
  <defs>
    <style>
      .cls-1 {
        fill: url(#New_Gradient_Swatch_4-6);
      }

      .cls-2 {
        fill: url(#New_Gradient_Swatch_4-9);
      }

      .cls-3 {
        fill: url(#New_Gradient_Swatch_4-8);
      }

      .cls-4 {
        fill: url(#New_Gradient_Swatch_4-7);
      }

      .cls-5 {
        fill: url(#New_Gradient_Swatch_4-5);
      }

      .cls-6 {
        fill: url(#New_Gradient_Swatch_4-3);
      }

      .cls-7 {
        fill: url(#New_Gradient_Swatch_4-4);
      }

      .cls-8 {
        fill: url(#New_Gradient_Swatch_4-2);
      }

      .cls-9 {
        fill: url(#New_Gradient_Swatch_4);
      }

      .cls-10 {
        fill: url(#New_Gradient_Swatch_4-12);
      }

      .cls-11 {
        fill: url(#New_Gradient_Swatch_4-11);
      }

      .cls-12 {
        fill: url(#New_Gradient_Swatch_4-10);
      }
    </style>
    <linearGradient id="New_Gradient_Swatch_4" data-name="New Gradient Swatch 4" x1="1087.75" y1="161.5" x2="1173.25" y2="161.5" gradientUnits="userSpaceOnUse">
      <stop offset="0" stop-color="#ff8933"/>
      <stop offset="1" stop-color="#ff312d"/>
    </linearGradient>
    <linearGradient id="New_Gradient_Swatch_4-2" data-name="New Gradient Swatch 4" x1="451.25" x2="527.25" xlink:href="#New_Gradient_Swatch_4"/>
    <linearGradient id="New_Gradient_Swatch_4-3" data-name="New Gradient Swatch 4" x1="546.25" x2="631.75" xlink:href="#New_Gradient_Swatch_4"/>
    <linearGradient id="New_Gradient_Swatch_4-4" data-name="New Gradient Swatch 4" x1="61.75" x2="147.25" xlink:href="#New_Gradient_Swatch_4"/>
    <linearGradient id="New_Gradient_Swatch_4-5" data-name="New Gradient Swatch 4" x1="1053.74" y1="109.25" x2="1072.74" y2="109.25" xlink:href="#New_Gradient_Swatch_4"/>
    <linearGradient id="New_Gradient_Swatch_4-6" data-name="New Gradient Swatch 4" x1="992.75" x2="1068.75" xlink:href="#New_Gradient_Swatch_4"/>
    <linearGradient id="New_Gradient_Swatch_4-7" data-name="New Gradient Swatch 4" x1="802.75" x2="878.75" xlink:href="#New_Gradient_Swatch_4"/>
    <linearGradient id="New_Gradient_Swatch_4-8" data-name="New Gradient Swatch 4" x1="166.25" x2="242.25" xlink:href="#New_Gradient_Swatch_4"/>
    <linearGradient id="New_Gradient_Swatch_4-9" data-name="New Gradient Swatch 4" x1="707.75" x2="783.75" xlink:href="#New_Gradient_Swatch_4"/>
    <linearGradient id="New_Gradient_Swatch_4-10" data-name="New Gradient Swatch 4" x1="897.75" x2="973.75" xlink:href="#New_Gradient_Swatch_4"/>
    <linearGradient id="New_Gradient_Swatch_4-11" data-name="New Gradient Swatch 4" x1="261.25" x2="337.25" xlink:href="#New_Gradient_Swatch_4"/>
    <linearGradient id="New_Gradient_Swatch_4-12" data-name="New Gradient Swatch 4" x1="356.25" x2="432.25" xlink:href="#New_Gradient_Swatch_4"/>
  </defs>
  <polygon class="cls-9" points="1163.75 123.49 1173.25 114 1173.25 85.5 1154.25 85.5 1130.5 109.22 1106.75 85.56 1087.75 85.51 1087.75 114 1097.25 123.5 1097.25 152 1106.75 161.5 1097.25 171 1097.25 199.5 1087.75 209 1087.75 237.5 1125.75 237.5 1125.75 209 1116.25 199.5 1116.25 123.52 1130.5 137.72 1144.74 123.5 1144.75 123.5 1144.75 199.5 1135.25 209 1135.25 237.5 1173.25 237.5 1173.25 209 1163.75 199.51 1163.75 171 1154.25 161.5 1163.75 152 1163.75 123.49"/>
  <path class="cls-8" d="M527.25,152v-57.01l-9.5-9.49h-57l-9.49,9.49v57.01l9.49,9.48-9.49,9.51v57l9.49,9.5h57s9.5-9.5,9.5-9.5v-57l-9.5-9.51,9.5-9.48ZM508.25,199.5h-38.01v-76s38.01,0,38.01,0v76Z"/>
  <polygon class="cls-6" points="631.75 85.5 603.25 85.5 603.25 152 574.75 85.5 546.25 85.51 546.25 114 555.75 123.5 555.75 152 565.25 161.5 555.75 171 555.75 199.5 546.25 209 546.25 237.5 584.25 237.5 584.25 209 574.75 199.5 574.75 123.5 603.25 190 603.25 199.5 593.75 209 593.75 237.5 631.75 237.5 631.75 209 622.25 199.51 622.25 171 612.75 161.5 622.25 152 622.25 152 622.25 123.49 631.75 114 631.75 85.5"/>
  <polygon class="cls-7" points="147.25 85.5 118.75 85.5 118.75 152 90.25 85.5 61.75 85.51 61.75 114 71.25 123.5 71.25 152 80.75 161.5 71.25 171 71.25 199.5 61.75 209 61.75 237.5 99.75 237.5 99.75 209 90.25 199.5 90.25 123.5 118.75 190 118.75 199.5 109.25 209 109.25 237.5 147.25 237.5 147.25 209 137.75 199.51 137.75 171 128.25 161.5 137.75 152 137.75 152 137.75 123.49 147.25 114 147.25 85.5"/>
  <polyline class="cls-5" points="1053.74 85.5 1072.74 85.5 1072.74 133 1063.24 133 1053.74 123.5"/>
  <polyline class="cls-1" points="1049.75 123.5 1021.25 123.5 1021.25 152 1030.74 152 1040.25 142.5 1049.75 142.5 1049.75 152 1049.75 161.49 1049.75 171 1049.75 180.5 1040.25 180.5 1030.75 171 1021.25 171 1021.25 199.5 1049.75 199.5 1059.25 190 1068.75 190 1068.75 237.5 992.75 237.5 992.75 209 1002.25 199.5 1002.25 171 1011.75 161.5 1002.25 152 1002.25 123.5 992.76 114 992.76 85.5 1049.75 85.5"/>
  <polygon class="cls-4" points="869.25 133 859.75 123.5 831.25 123.5 831.25 152 840.75 152 850.25 142.5 859.75 142.5 859.75 152 859.75 161.49 859.75 171 859.75 180.5 850.25 180.5 840.75 171 831.25 171 831.25 199.5 859.75 199.5 869.25 190 878.75 190 878.75 237.5 802.75 237.5 802.75 209 812.25 199.5 812.25 171 821.75 161.5 812.25 152 812.25 123.5 802.76 114 802.76 85.5 878.75 85.5 878.75 133 869.25 133"/>
  <polygon class="cls-3" points="232.75 133 223.25 123.5 194.75 123.5 194.75 152 204.25 152 213.75 142.5 223.25 142.5 223.25 152 223.25 161.49 223.25 171 223.25 180.5 213.75 180.5 204.25 171 194.75 171 194.75 199.5 223.25 199.5 232.75 190 242.25 190 242.25 237.5 166.25 237.5 166.25 209 175.75 199.5 175.75 171 185.25 161.5 175.75 152 175.75 123.5 166.26 114 166.26 85.5 242.25 85.5 242.25 133 232.75 133"/>
  <path class="cls-2" d="M774.25,161.51l9.5-9.5v-57.01s-9.5-9.5-9.5-9.5h-66.5v28.5l9.52,9.5v28.5l9.5,9.5-9.5,9.5v28.47l-9.52,9.54v28.48h66.5l9.5-9.48v-57.01s-9.5-9.5-9.5-9.5ZM764.76,199.52h-28.49v-28.5h18.99l9.5,9.5v19ZM764.76,142.51l-9.5,9.5h-18.99v-28.51h28.49v19Z"/>
  <polygon class="cls-12" points="964.25 199.5 954.75 209 935.75 209 926.25 199.5 926.25 171 916.75 161.5 926.25 152 926.25 123.5 935.75 114 935.75 85.5 897.75 85.5 897.75 114 907.25 123.5 907.25 152 916.75 161.5 907.25 171 907.25 199.5 897.75 209 897.75 237.5 973.75 237.5 973.75 199.5 964.25 199.5"/>
  <polygon class="cls-11" points="327.75 199.5 318.25 209 299.25 209 289.75 199.5 289.75 171 280.25 161.5 289.75 152 289.75 123.5 299.25 114 299.25 85.5 261.25 85.5 261.25 114 270.75 123.5 270.75 152 280.25 161.5 270.75 171 270.75 199.5 261.25 209 261.25 237.5 337.25 237.5 337.25 199.5 327.75 199.5"/>
  <polygon class="cls-10" points="432.25 94.98 432.25 132.99 422.75 132.99 413.26 123.49 375.25 123.49 375.25 142.49 422.76 156.75 432.25 166.25 432.25 199.51 432.25 228.02 422.75 237.5 365.76 237.5 356.25 228.02 356.25 190.01 365.75 190.01 375.25 199.51 413.25 199.51 413.25 175.75 365.76 161.5 356.26 151.99 356.26 94.98 365.76 85.5 422.75 85.5 432.25 94.98"/>
</svg>