<?xml version="1.0" encoding="UTF-8"?>
<svg id="Layer_2" xmlns="http://www.w3.org/2000/svg" xmlns:xlink="http://www.w3.org/1999/xlink" viewBox="0 0 467 120">
  <defs>
    <style>
      .cls-1 {
        fill: none;
      }

      .cls-2 {
        fill: url(#New_Gradient_Swatch_4-6);
      }

      .cls-3 {
        fill: url(#New_Gradient_Swatch_4-9);
      }

      .cls-4 {
        fill: url(#New_Gradient_Swatch_4-8);
      }

      .cls-5 {
        fill: url(#New_Gradient_Swatch_4-7);
      }

      .cls-6 {
        fill: url(#New_Gradient_Swatch_4-5);
      }

      .cls-7 {
        fill: url(#New_Gradient_Swatch_4-3);
      }

      .cls-8 {
        fill: url(#New_Gradient_Swatch_4-4);
      }

      .cls-9 {
        fill: url(#New_Gradient_Swatch_4-2);
      }

      .cls-10 {
        fill: url(#New_Gradient_Swatch_4);
      }
    </style>
    <linearGradient id="New_Gradient_Swatch_4" data-name="New Gradient Swatch 4" x1="165.5" y1="42" x2="169.5" y2="42" gradientUnits="userSpaceOnUse">
      <stop offset="0" stop-color="#ff8933"/>
      <stop offset="1" stop-color="#ff312d"/>
    </linearGradient>
    <linearGradient id="New_Gradient_Swatch_4-2" data-name="New Gradient Swatch 4" x1="153.5" y1="60" x2="189.5" y2="60" xlink:href="#New_Gradient_Swatch_4"/>
    <linearGradient id="New_Gradient_Swatch_4-3" data-name="New Gradient Swatch 4" x1="69.5" y1="60" x2="105.5" y2="60" xlink:href="#New_Gradient_Swatch_4"/>
    <linearGradient id="New_Gradient_Swatch_4-4" data-name="New Gradient Swatch 4" x1="237.5" y1="60" x2="273.5" y2="60" xlink:href="#New_Gradient_Swatch_4"/>
    <linearGradient id="New_Gradient_Swatch_4-5" data-name="New Gradient Swatch 4" x1="113.5" y1="60" x2="145.5" y2="60" xlink:href="#New_Gradient_Swatch_4"/>
    <linearGradient id="New_Gradient_Swatch_4-6" data-name="New Gradient Swatch 4" x1="197.5" y1="60" x2="229.5" y2="60" xlink:href="#New_Gradient_Swatch_4"/>
    <linearGradient id="New_Gradient_Swatch_4-7" data-name="New Gradient Swatch 4" x1="281.5" y1="60" x2="313.5" y2="60" xlink:href="#New_Gradient_Swatch_4"/>
    <linearGradient id="New_Gradient_Swatch_4-8" data-name="New Gradient Swatch 4" x1="365.5" y1="60" x2="397.5" y2="60" xlink:href="#New_Gradient_Swatch_4"/>
    <linearGradient id="New_Gradient_Swatch_4-9" data-name="New Gradient Swatch 4" x1="321.5" y1="60" x2="357.5" y2="60" xlink:href="#New_Gradient_Swatch_4"/>
  </defs>
  <g id="Layer_3">
    <g>
      <g>
        <g>
          <line class="cls-10" x1="169.5" y1="40" x2="165.5" y2="44"/>
          <polyline class="cls-9" points="165.5 44 169.5 40 169.5 40 169.5 40 169.5 40 169.5 28 153.5 28 153.5 40 157.5 44 159.74 56 163.74 59.99 161 62.74 164.55 81.64 165.92 88.9 166.5 92 176.5 92 181.6 64.85 181.99 62.74 179.22 60 183.23 56 185.5 44 189.5 40 189.5 28 173.5 28 173.5 40 177.5 44 173.5 76 169.5 76 169.5 75.97 165.5 44"/>
        </g>
        <polygon class="cls-7" points="105.5 28 93.5 28 93.5 56 81.5 28 69.5 28 69.5 40 73.5 44 73.5 56 77.5 60 73.5 64 73.5 76 69.5 80 69.5 92 85.5 92 85.5 80 81.5 76 81.5 44 93.5 72 93.5 76 89.5 80 89.5 92 105.5 92 105.5 80 101.5 76.01 101.5 64 97.5 60 101.5 56 101.5 56 101.5 44 105.5 40 105.5 28"/>
        <polygon class="cls-8" points="269.5 44 273.5 40 273.5 28 265.5 28 255.5 37.99 245.5 28.02 237.5 28 237.5 40 241.5 44 241.5 56 245.5 60 241.5 64 241.5 76 237.5 80 237.5 92 253.5 92 253.5 80 249.5 76 249.5 44.01 255.5 49.99 261.49 44 261.5 44 261.5 76 257.5 80 257.5 92 273.5 92 273.5 80 269.5 76 269.5 64 265.5 60 269.5 56 269.5 44"/>
        <path class="cls-6" d="M145.5,56v-24l-4-4h-24l-4,4v24l4,3.99-4,4.01v24l4,4h24s4-4,4-4v-24l-4-4.01,4-3.99ZM137.5,76h-16v-32s16,0,16,0v32Z"/>
        <polygon class="cls-2" points="225.5 48 221.5 44 209.5 44 209.5 56 213.5 56 217.5 52 221.5 52 221.5 56 221.5 60 221.5 64 221.5 68 217.5 68 213.5 64 209.5 64 209.5 76 221.5 76 225.5 72 229.5 72 229.5 92 197.5 92 197.5 80 201.5 76 201.5 64 205.5 60 201.5 56 201.5 44 197.5 40 197.5 28 229.5 28 229.5 48 225.5 48"/>
        <path class="cls-5" d="M309.5,60.01l4-4v-24s-4-4-4-4h-28v12l4.01,4v12l4,4-4,4v11.99l-4.01,4.02v11.99h28l4-3.99v-24s-4-4-4-4ZM305.5,76.01h-12v-12h8l4,4v8ZM305.5,52l-4,4h-8v-12h12v8Z"/>
        <path class="cls-4" d="M397.5,56v-24l-4-4h-24l-4,4v24l4,3.99-4,4.01v24l4,4h24s4-4,4-4v-24l-4-4.01,4-3.99ZM389.5,76h-16v-32s16,0,16,0v32Z"/>
        <path class="cls-3" d="M341.5,64l4,4v23.99h12s0-11.99,0-11.99l-4-4v-12l-4-4,4-4v-24l-4-4h-28s0,12,0,12l4,4v12l4,4-4,4v12l-4,4v12h16v-12l-4-4v-12M345.5,52l-4,4h-8v-12s12,0,12,0v4s0,3.99,0,3.99Z"/>
      </g>
      <rect class="cls-1" width="467" height="120"/>
    </g>
  </g>
</svg>