<?xml version="1.0" encoding="UTF-8"?>
<svg id="Layer_1" xmlns="http://www.w3.org/2000/svg" xmlns:xlink="http://www.w3.org/1999/xlink" viewBox="0 0 1235 323">
  <defs>
    <style>
      .cls-1 {
        fill: url(#New_Gradient_Swatch_4-6);
      }

      .cls-2 {
        fill: url(#New_Gradient_Swatch_4-9);
      }

      .cls-3 {
        fill: url(#New_Gradient_Swatch_4-8);
      }

      .cls-4 {
        fill: url(#New_Gradient_Swatch_4-7);
      }

      .cls-5 {
        fill: url(#New_Gradient_Swatch_4-5);
      }

      .cls-6 {
        fill: url(#New_Gradient_Swatch_4-3);
      }

      .cls-7 {
        fill: url(#New_Gradient_Swatch_4-4);
      }

      .cls-8 {
        fill: url(#New_Gradient_Swatch_4-2);
      }

      .cls-9 {
        fill: url(#New_Gradient_Swatch_4);
      }

      .cls-10 {
        fill: url(#New_Gradient_Swatch_4-13);
      }

      .cls-11 {
        fill: url(#New_Gradient_Swatch_4-12);
      }

      .cls-12 {
        fill: url(#New_Gradient_Swatch_4-11);
      }

      .cls-13 {
        fill: url(#New_Gradient_Swatch_4-10);
      }
    </style>
    <linearGradient id="New_Gradient_Swatch_4" data-name="New Gradient Swatch 4" x1="1059.25" y1="161.5" x2="1135.25" y2="161.5" gradientUnits="userSpaceOnUse">
      <stop offset="0" stop-color="#ff8933"/>
      <stop offset="1" stop-color="#ff312d"/>
    </linearGradient>
    <linearGradient id="New_Gradient_Swatch_4-2" data-name="New Gradient Swatch 4" x1="413.25" x2="489.25" xlink:href="#New_Gradient_Swatch_4"/>
    <linearGradient id="New_Gradient_Swatch_4-3" data-name="New Gradient Swatch 4" x1="859.75" x2="945.25" xlink:href="#New_Gradient_Swatch_4"/>
    <linearGradient id="New_Gradient_Swatch_4-4" data-name="New Gradient Swatch 4" x1="660.25" x2="745.75" xlink:href="#New_Gradient_Swatch_4"/>
    <linearGradient id="New_Gradient_Swatch_4-5" data-name="New Gradient Swatch 4" x1="308.75" x2="394.25" xlink:href="#New_Gradient_Swatch_4"/>
    <linearGradient id="New_Gradient_Swatch_4-6" data-name="New Gradient Swatch 4" x1="99.75" x2="185.25" xlink:href="#New_Gradient_Swatch_4"/>
    <linearGradient id="New_Gradient_Swatch_4-7" data-name="New Gradient Swatch 4" x1="213.75" y1="199.5" x2="280.25" y2="199.5" xlink:href="#New_Gradient_Swatch_4"/>
    <linearGradient id="New_Gradient_Swatch_4-8" data-name="New Gradient Swatch 4" x1="251.75" y1="123.5" x2="289.75" y2="123.5" xlink:href="#New_Gradient_Swatch_4"/>
    <linearGradient id="New_Gradient_Swatch_4-9" data-name="New Gradient Swatch 4" x1="204.25" y1="123.5" x2="242.25" y2="123.5" xlink:href="#New_Gradient_Swatch_4"/>
    <linearGradient id="New_Gradient_Swatch_4-10" data-name="New Gradient Swatch 4" x1="764.75" x2="840.75" xlink:href="#New_Gradient_Swatch_4"/>
    <linearGradient id="New_Gradient_Swatch_4-11" data-name="New Gradient Swatch 4" x1="964.25" x2="1040.25" xlink:href="#New_Gradient_Swatch_4"/>
    <linearGradient id="New_Gradient_Swatch_4-12" data-name="New Gradient Swatch 4" x1="565.25" x2="641.25" xlink:href="#New_Gradient_Swatch_4"/>
    <linearGradient id="New_Gradient_Swatch_4-13" data-name="New Gradient Swatch 4" x1="584.25" y1="123.5" x2="622.25" y2="123.5" xlink:href="#New_Gradient_Swatch_4"/>
  </defs>
  <path class="cls-9" d="M1135.25,152v-57.01l-9.5-9.49h-57l-9.49,9.49v57.01l9.49,9.48-9.49,9.51v57l9.49,9.5h57s9.5-9.5,9.5-9.5v-57l-9.5-9.51,9.5-9.48ZM1116.25,199.5h-38.01v-76s38.01,0,38.01,0v76Z"/>
  <path class="cls-8" d="M489.25,152v-57.01l-9.5-9.49h-57l-9.49,9.49v57.01l9.49,9.48-9.49,9.51v57l9.49,9.5h57s9.5-9.5,9.5-9.5v-57l-9.5-9.51,9.5-9.48ZM470.25,199.5h-38.01v-76s38.01,0,38.01,0v76Z"/>
  <path class="cls-6" d="M907.24,237.5h38.01v-28.5s-9.51-9.5-9.51-9.5l-5.31-28.5-9.51-9.49,6.53-6.53-8.45-44.88-3.24-17.23-1.39-7.37h-40.38v28.5s9.5,9.5,9.5,9.5h0l-5.92,31.5,6.57,6.51-9.51,9.49-5.4,28.5-9.5,9.5v28.5h38v-28.5l-9.5-9.5,4.75-28.5h19l4.75,28.5-9.5,9.5v28.5ZM907.25,152h-9.5v-28.5h9.5v28.5Z"/>
  <path class="cls-7" d="M707.74,237.5h38.01v-28.5s-9.51-9.5-9.51-9.5l-5.31-28.5-9.51-9.49,6.53-6.53-8.45-44.88-3.24-17.23-1.39-7.37h-40.38v28.5s9.5,9.5,9.5,9.5h0l-5.92,31.5,6.57,6.51-9.51,9.49-5.4,28.5-9.5,9.5v28.5h38v-28.5l-9.5-9.5,4.75-28.5h19l4.75,28.5-9.5,9.5v28.5ZM707.75,152h-9.5v-28.5h9.5v28.5Z"/>
  <polygon class="cls-5" points="394.25 85.5 365.75 85.5 365.75 152 337.25 85.5 308.75 85.51 308.75 114 318.25 123.5 318.25 152 327.75 161.5 318.25 171 318.25 199.5 308.75 209 308.75 237.5 346.75 237.5 346.75 209 337.25 199.5 337.25 123.5 365.75 190 365.75 199.5 356.25 209 356.25 237.5 394.25 237.5 394.25 209 384.75 199.51 384.75 171 375.25 161.5 384.75 152 384.75 152 384.75 123.49 394.25 114 394.25 85.5"/>
  <polygon class="cls-1" points="185.25 85.5 156.75 85.5 156.75 152 128.25 85.5 99.75 85.51 99.75 114 109.25 123.5 109.25 152 118.75 161.5 109.25 171 109.25 199.5 99.75 209 99.75 237.5 137.75 237.5 137.75 209 128.25 199.5 128.25 123.5 156.75 190 156.75 199.5 147.25 209 147.25 237.5 185.25 237.5 185.25 209 175.75 199.51 175.75 171 166.25 161.5 175.75 152 175.75 152 175.75 123.49 185.25 114 185.25 85.5"/>
  <g>
    <polygon class="cls-4" points="261.25 199.5 252.04 208.71 251.75 209 242.25 209 241.96 208.71 232.75 199.5 232.75 171 223.25 161.5 213.75 171 213.75 199.5 213.75 228 223.25 237.5 223.25 237.5 270.75 237.5 270.75 237.5 280.25 228 280.25 199.5 280.25 171 270.75 161.5 261.25 171 261.25 199.5"/>
    <polygon class="cls-3" points="251.75 85.5 251.75 114 261.25 123.5 261.25 152 270.75 161.5 280.25 152 280.25 123.5 289.75 114 289.75 85.5 251.75 85.5"/>
    <polygon class="cls-2" points="232.75 123.5 242.25 114 242.25 85.5 204.25 85.5 204.25 114 213.75 123.5 213.75 152 223.25 161.5 232.75 152 232.75 123.5"/>
  </g>
  <polygon class="cls-13" points="831.25 199.5 821.75 209 802.75 209 793.25 199.5 793.25 171 783.75 161.5 793.25 152 793.25 123.5 802.75 114 802.75 85.5 764.75 85.5 764.75 114 774.25 123.5 774.25 152 783.75 161.5 774.25 171 774.25 199.5 764.75 209 764.75 237.5 840.75 237.5 840.75 199.5 831.25 199.5"/>
  <path class="cls-12" d="M1030.75,85.5h-66.5v28.5l9.52,9.5v28.5l9.5,9.5-9.5,9.5v28.47l-9.52,9.54v28.48h66.5l9.5-9.48V95l-9.5-9.5ZM1021.26,199.52h-28.49v-76.01h28.49s0,76.01,0,76.01Z"/>
  <g>
    <polygon class="cls-11" points="631.75 190 622.25 199.5 584.25 199.51 584.25 123.5 622.25 123.5 622.25 123.5 631.75 133 641.25 133 641.25 94.99 631.75 85.5 574.74 85.5 565.25 94.99 565.25 152 574.74 161.48 565.25 171 565.25 228 574.74 237.5 631.75 237.5 641.25 228 641.25 190 631.75 190"/>
    <polygon class="cls-10" points="584.25 123.5 622.25 123.5 622.25 123.5 584.25 123.5"/>
  </g>
</svg>