<svg id="Component_186_1" data-name="Component 186 – 1" xmlns="http://www.w3.org/2000/svg" xmlns:xlink="http://www.w3.org/1999/xlink" width="1920" height="154" viewBox="0 0 1920 154">
  <defs>
    <linearGradient id="linear-gradient" x1="1" y1="1" x2="0" y2="1" gradientUnits="objectBoundingBox">
      <stop offset="0" stop-color="#ff312d"/>
      <stop offset="1" stop-color="#ff8a33"/>
    </linearGradient>
    <clipPath id="clip-path">
      <path id="Path_824" data-name="Path 824" d="M164,0V28.269l9.423,9.423V65.96l9.423,9.423-9.423,9.423v28.269L164,122.5v28.269h37.691V122.5l-9.423-9.423V84.806l-9.423-9.423,9.423-9.423V37.691l9.423-9.423V0Z" transform="translate(-164)" fill="#120512"/>
    </clipPath>
    <clipPath id="clip-path-2">
      <path id="Path_825" data-name="Path 825" d="M246.846,37.689l37.694,0v75.383h-37.7ZM237.416,0,228,9.413V65.96l9.416,9.406L228,84.8V141.34l9.416,9.425h56.542l9.425-9.425V84.8l-9.425-9.435,9.423-9.406V9.413L293.958,0Z" transform="translate(-228)" fill="#120512"/>
    </clipPath>
    <clipPath id="clip-path-3">
      <path id="Path_826" data-name="Path 826" d="M277.425,0,268,9.4V65.953l9.423,9.428,47.109,14.141,0,23.564H286.843l-9.423-9.425H268v37.7l9.425,9.4H333.96l9.421-9.4,0-28.276,0-32.992-9.423-9.425L286.846,56.528V37.68h37.691l9.418,9.423h9.425V9.4L333.96,0Z" transform="translate(-268)" fill="#120512"/>
    </clipPath>
    <clipPath id="clip-path-4">
      <path id="Path_827" data-name="Path 827" d="M40.012,0V28.271l9.411,9.42V65.96l9.423,9.425-9.423,9.42v28.269L40,122.5v28.269h75.383V103.651H105.96l-9.423,9.423-28.269,0V84.806h9.423l9.423,9.425h9.423V56.537H87.114L77.687,65.96H68.269V37.691H96.537l9.423,9.423h9.423V0Z" transform="translate(-40)" fill="#120512"/>
    </clipPath>
    <clipPath id="clip-path-5">
      <path id="Path_828" data-name="Path 828" d="M108.269,37.694h28.269l0,9.423,0,9.411-9.416,9.435H108.271ZM80,0V28.271l9.423,9.423V65.962l9.423,9.42-9.423,9.423v28.271L80,122.5v28.269l37.691,0V122.5l-9.423-9.42V84.806h18.846l9.423,9.425v56.523l28.268.012V122.5l-9.423-9.42V84.806l-9.423-9.42,9.423-9.423V9.425L145.96,0Z" transform="translate(-80)" fill="#120512"/>
    </clipPath>
    <clipPath id="clip-path-6">
      <path id="Path_829" data-name="Path 829" d="M28.269,37.694H56.537l0,9.423,0,9.411-9.416,9.435H28.271ZM0,0V28.271l9.423,9.423V65.962l9.423,9.42L9.423,84.806v28.271L0,122.5v28.269l37.691,0V122.5l-9.423-9.42V84.806H56.535L75.383,65.962V9.425L65.96,0Z" fill="#120512"/>
    </clipPath>
    <clipPath id="clip-path-7">
      <path id="Path_830" data-name="Path 830" d="M152.283,37.7h28.259v75.394H152.283ZM124,0V28.273l9.444,9.423V65.972l9.42,9.423-9.42,9.423v28.236L124,122.516v28.25h65.962l9.42-9.4V9.425L189.962,0Z" transform="translate(-124)" fill="#120512"/>
    </clipPath>
    <clipPath id="clip-path-8">
      <path id="Path_831" data-name="Path 831" d="M216.283,37.7h28.259v75.394H216.283ZM188,0V28.273l9.444,9.423V65.972l9.418,9.423-9.418,9.423v28.236L188,122.516v28.25h65.962l9.42-9.4V9.425L253.962,0Z" transform="translate(-188)" fill="#120512"/>
    </clipPath>
    <clipPath id="clip-path-9">
      <path id="Path_832" data-name="Path 832" d="M480,0V28.271l9.423,9.423V65.962l9.423,9.42-9.423,9.423v28.271L480,122.5v28.269l37.691,0V122.5l-9.423-9.42V84.806l28.269,0v28.269l-9.423,9.423v28.254l37.691.012V122.5l-9.423-9.42V84.806l-9.423-9.42,9.423-9.423,0-28.269,9.425-9.42V0H527.114V28.273l9.425,9.42-.009,28.269H508.268l0-28.269,9.425-9.42V0Z" transform="translate(-480)" fill="#120512"/>
    </clipPath>
    <clipPath id="clip-path-10">
      <path id="Path_833" data-name="Path 833" d="M626.846,37.689l37.694,0v75.383h-37.7ZM617.416,0,608,9.413V65.96l9.416,9.406L608,84.8V141.34l9.416,9.425h56.539l9.428-9.425V84.8l-9.428-9.435,9.425-9.406V9.413L673.955,0Z" transform="translate(-608)" fill="#120512"/>
    </clipPath>
    <clipPath id="clip-path-11">
      <path id="Path_834" data-name="Path 834" d="M657.423,0,648,9.4V65.953l9.42,9.428,47.112,14.141,0,23.564H666.843l-9.421-9.425H648v37.7l9.423,9.4H713.96l9.421-9.4V113.086l0-32.992-9.421-9.425L666.846,56.528V37.68h37.691l9.418,9.423h9.425l0-37.7L713.96,0Z" transform="translate(-648)" fill="#120512"/>
    </clipPath>
    <clipPath id="clip-path-12">
      <path id="Path_835" data-name="Path 835" d="M332.012,0V28.271l9.411,9.42V65.96l9.423,9.425-9.423,9.42v28.269L332,122.5v28.269h75.383V103.651H397.96l-9.425,9.423-28.266,0V84.806h9.423l9.423,9.425h9.423V56.537h-9.423l-9.428,9.423h-9.418V37.691h28.268l9.423,9.423h9.423V0Z" transform="translate(-332)" fill="#120512"/>
    </clipPath>
    <clipPath id="clip-path-13">
      <path id="Path_836" data-name="Path 836" d="M433.689,37.689h9.423V65.957h-9.423ZM410.129,0V28.269l9.423,9.423h0l-5.866,31.241,6.518,6.459L410.775,84.8l-5.352,28.273L396,122.5v28.269h37.689V122.5l-9.423-9.423,4.711-28.269h18.846l4.711,28.269-9.423,9.423,0,28.269h37.7L480.8,122.5l-9.421-9.423-5.27-28.269-9.435-9.411,6.473-6.478L454.77,24.405,451.555,7.312,450.179,0Z" transform="translate(-396)" fill="#120512"/>
    </clipPath>
    <clipPath id="clip-path-14">
      <path id="Path_837" data-name="Path 837" d="M561.689,37.689h9.423V65.957h-9.423ZM538.127,0V28.269l9.425,9.423h0l-5.868,31.241,6.523,6.459L538.775,84.8l-5.352,28.273L524,122.5v28.269h37.689V122.5l-9.421-9.423,4.709-28.269h18.843l4.711,28.269-9.42,9.423,0,28.269h37.7L608.8,122.5l-9.423-9.423-5.267-28.269-9.435-9.411,6.474-6.478L582.77,24.405,579.552,7.312,578.176,0Z" transform="translate(-524)" fill="#120512"/>
    </clipPath>
    <clipPath id="clip-path-15">
      <path id="Path_838" data-name="Path 838" d="M596.283,37.7h28.262v75.394H596.283ZM568,0V28.273l9.442,9.423V65.972l9.42,9.423-9.42,9.423v28.236L568,122.516v28.25h65.965l9.418-9.4V9.425L633.965,0Z" transform="translate(-568)" fill="#120512"/>
    </clipPath>
    <clipPath id="clip-path-16">
      <path id="Path_839" data-name="Path 839" d="M449.416,0,440,9.413V65.96l9.416,9.406L440,84.8V141.34l9.416,9.425h56.539l9.428-9.425V103.646l-9.421,0-9.425,9.425-37.7,0,0-75.392,37.694,0v0l9.425,9.423h9.418V9.413L505.955,0Z" transform="translate(-440)" fill="#120512"/>
    </clipPath>
    <clipPath id="clip-path-17">
      <path id="Path_840" data-name="Path 840" d="M448,16l37.694,0v0Z" transform="translate(-447.999 -15.999)" fill="#120512"/>
    </clipPath>
  </defs>
  <rect id="Rectangle_1542" data-name="Rectangle 1542" width="1920" height="154" opacity="0" fill="url(#linear-gradient)"/>
  <g id="Group_3231" data-name="Group 3231" transform="translate(545.395 1.617)">
    <g id="Group_3230" data-name="Group 3230" clip-path="url(#clip-path)">
      <rect id="Rectangle_1525" data-name="Rectangle 1525" width="38" height="150" transform="translate(-0.878)" fill="#120512"/>
    </g>
  </g>
  <g id="Group_3233" data-name="Group 3233" transform="translate(696.16 1.617)">
    <g id="Group_3232" data-name="Group 3232" clip-path="url(#clip-path-2)">
      <rect id="Rectangle_1526" data-name="Rectangle 1526" width="74" height="150" transform="translate(0.356)" fill="#120512"/>
    </g>
  </g>
  <g id="Group_3235" data-name="Group 3235" transform="translate(790.389 1.617)">
    <g id="Group_3234" data-name="Group 3234" clip-path="url(#clip-path-3)">
      <rect id="Rectangle_1527" data-name="Rectangle 1527" width="76" height="150" transform="translate(-0.873)" fill="#120512"/>
    </g>
  </g>
  <g id="Group_3237" data-name="Group 3237" transform="translate(253.287 1.617)">
    <g id="Group_3236" data-name="Group 3236" clip-path="url(#clip-path-4)">
      <rect id="Rectangle_1528" data-name="Rectangle 1528" width="75" height="150" transform="translate(0.229)" fill="#120512"/>
    </g>
  </g>
  <g id="Group_3239" data-name="Group 3239" transform="translate(347.516 1.617)">
    <g id="Group_3238" data-name="Group 3238" clip-path="url(#clip-path-5)">
      <rect id="Rectangle_1529" data-name="Rectangle 1529" width="85" height="150" transform="translate(0)" fill="#120512"/>
    </g>
  </g>
  <g id="Group_3241" data-name="Group 3241" transform="translate(159.059 1.617)">
    <g id="Group_3240" data-name="Group 3240" clip-path="url(#clip-path-6)">
      <rect id="Rectangle_1530" data-name="Rectangle 1530" width="75" height="150" transform="translate(0.457)" fill="#120512"/>
    </g>
  </g>
  <g id="Group_3243" data-name="Group 3243" transform="translate(451.167 1.617)">
    <g id="Group_3242" data-name="Group 3242" clip-path="url(#clip-path-7)">
      <rect id="Rectangle_1531" data-name="Rectangle 1531" width="74" height="150" transform="translate(0.35)" fill="#120512"/>
    </g>
  </g>
  <g id="Group_3245" data-name="Group 3245" transform="translate(601.932 1.617)">
    <g id="Group_3244" data-name="Group 3244" clip-path="url(#clip-path-8)">
      <rect id="Rectangle_1532" data-name="Rectangle 1532" width="76" height="150" transform="translate(-0.416)" fill="#120512"/>
    </g>
  </g>
  <g id="Group_3247" data-name="Group 3247" transform="translate(1289.799 1.617)">
    <g id="Group_3246" data-name="Group 3246" clip-path="url(#clip-path-9)">
      <rect id="Rectangle_1533" data-name="Rectangle 1533" width="85" height="150" transform="translate(-0.283)" fill="#120512"/>
    </g>
  </g>
  <g id="Group_3249" data-name="Group 3249" transform="translate(1591.33 1.617)">
    <g id="Group_3248" data-name="Group 3248" clip-path="url(#clip-path-10)">
      <rect id="Rectangle_1534" data-name="Rectangle 1534" width="75" height="150" transform="translate(0.186)" fill="#120512"/>
    </g>
  </g>
  <g id="Group_3251" data-name="Group 3251" transform="translate(1685.559 1.617)">
    <g id="Group_3250" data-name="Group 3250" clip-path="url(#clip-path-11)">
      <rect id="Rectangle_1535" data-name="Rectangle 1535" width="75" height="150" transform="translate(-0.041)" fill="#120512"/>
    </g>
  </g>
  <g id="Group_3253" data-name="Group 3253" transform="translate(941.154 1.617)">
    <g id="Group_3252" data-name="Group 3252" clip-path="url(#clip-path-12)">
      <rect id="Rectangle_1536" data-name="Rectangle 1536" width="75" height="150" transform="translate(-0.638)" fill="#120512"/>
    </g>
  </g>
  <g id="Group_3255" data-name="Group 3255" transform="translate(1091.92 1.617)">
    <g id="Group_3254" data-name="Group 3254" clip-path="url(#clip-path-13)">
      <rect id="Rectangle_1537" data-name="Rectangle 1537" width="85" height="150" transform="translate(-0.404)" fill="#120512"/>
    </g>
  </g>
  <g id="Group_3257" data-name="Group 3257" transform="translate(1393.45 1.617)">
    <g id="Group_3256" data-name="Group 3256" clip-path="url(#clip-path-14)">
      <rect id="Rectangle_1538" data-name="Rectangle 1538" width="85" height="150" transform="translate(0.067)" fill="#120512"/>
    </g>
  </g>
  <g id="Group_3259" data-name="Group 3259" transform="translate(1497.102 1.617)">
    <g id="Group_3258" data-name="Group 3258" clip-path="url(#clip-path-15)">
      <rect id="Rectangle_1539" data-name="Rectangle 1539" width="75" height="150" transform="translate(0.415)" fill="#120512"/>
    </g>
  </g>
  <g id="Group_3261" data-name="Group 3261" transform="translate(1195.57 1.617)">
    <g id="Group_3260" data-name="Group 3260" clip-path="url(#clip-path-16)">
      <rect id="Rectangle_1540" data-name="Rectangle 1540" width="75" height="150" transform="translate(-0.054)" fill="#120512"/>
    </g>
  </g>
  <g id="Group_3263" data-name="Group 3263" transform="translate(1214.414 39.307)">
    <g id="Group_3262" data-name="Group 3262" clip-path="url(#clip-path-17)">
      <rect id="Rectangle_1541" data-name="Rectangle 1541" width="38" transform="translate(0.103 0.311)" fill="#120512"/>
    </g>
  </g>
</svg>
