<?xml version="1.0" encoding="UTF-8"?>
<svg id="Layer_1" data-name="Layer 1" xmlns="http://www.w3.org/2000/svg" xmlns:xlink="http://www.w3.org/1999/xlink" viewBox="0 0 1235 323">
  <defs>
    <style>
      .cls-1 {
        fill: url(#New_Gradient_Swatch_4-6);
      }

      .cls-2 {
        fill: url(#New_Gradient_Swatch_4-9);
      }

      .cls-3 {
        fill: url(#New_Gradient_Swatch_4-8);
      }

      .cls-4 {
        fill: url(#New_Gradient_Swatch_4-7);
      }

      .cls-5 {
        fill: url(#New_Gradient_Swatch_4-5);
      }

      .cls-6 {
        fill: url(#New_Gradient_Swatch_4-3);
      }

      .cls-7 {
        fill: url(#New_Gradient_Swatch_4-4);
      }

      .cls-8 {
        fill: url(#New_Gradient_Swatch_4-2);
      }

      .cls-9 {
        fill: #ffcb8f;
      }

      .cls-10 {
        fill: url(#New_Gradient_Swatch_4);
      }

      .cls-11 {
        fill: url(#New_Gradient_Swatch_4-11);
      }

      .cls-12 {
        fill: url(#New_Gradient_Swatch_4-10);
      }
    </style>
    <linearGradient id="New_Gradient_Swatch_4" data-name="New Gradient Swatch 4" x1="603.22" y1="161.5" x2="641.22" y2="161.5" gradientUnits="userSpaceOnUse">
      <stop offset="0" stop-color="#ff8933"/>
      <stop offset="1" stop-color="#ff312d"/>
    </linearGradient>
    <linearGradient id="New_Gradient_Swatch_4-2" data-name="New Gradient Swatch 4" x1="432.23" y1="118.75" x2="441.72" y2="118.75" xlink:href="#New_Gradient_Swatch_4"/>
    <linearGradient id="New_Gradient_Swatch_4-3" data-name="New Gradient Swatch 4" x1="403.72" x2="489.22" xlink:href="#New_Gradient_Swatch_4"/>
    <linearGradient id="New_Gradient_Swatch_4-4" data-name="New Gradient Swatch 4" x1="850.22" x2="926.22" xlink:href="#New_Gradient_Swatch_4"/>
    <linearGradient id="New_Gradient_Swatch_4-5" data-name="New Gradient Swatch 4" x1="945.28" x2="1030.78" xlink:href="#New_Gradient_Swatch_4"/>
    <linearGradient id="New_Gradient_Swatch_4-6" data-name="New Gradient Swatch 4" x1="508.22" x2="584.22" xlink:href="#New_Gradient_Swatch_4"/>
    <linearGradient id="New_Gradient_Swatch_4-7" data-name="New Gradient Swatch 4" x1="755.22" x2="831.22" xlink:href="#New_Gradient_Swatch_4"/>
    <linearGradient id="New_Gradient_Swatch_4-8" data-name="New Gradient Swatch 4" x1="660.22" x2="736.22" xlink:href="#New_Gradient_Swatch_4"/>
    <linearGradient id="New_Gradient_Swatch_4-9" data-name="New Gradient Swatch 4" x1="369.71" y1="109.25" x2="388.71" y2="109.25" xlink:href="#New_Gradient_Swatch_4"/>
    <linearGradient id="New_Gradient_Swatch_4-10" data-name="New Gradient Swatch 4" x1="308.72" x2="384.72" xlink:href="#New_Gradient_Swatch_4"/>
    <linearGradient id="New_Gradient_Swatch_4-11" data-name="New Gradient Swatch 4" x1="204.22" x2="289.72" xlink:href="#New_Gradient_Swatch_4"/>
  </defs>
  <g>
    <polygon class="cls-10" points="631.72 123.5 641.22 114 641.22 85.5 603.22 85.5 603.22 114 612.72 123.5 612.72 152 622.22 161.5 612.72 171 612.72 199.5 603.22 209 603.22 237.5 641.22 237.5 641.22 209 631.72 199.5 631.72 171 622.22 161.5 631.72 152 631.72 123.5"/>
    <g>
      <line class="cls-8" x1="441.72" y1="114" x2="432.23" y2="123.5"/>
      <polyline class="cls-6" points="432.23 123.5 441.72 114 441.72 114 441.72 114 441.73 114 441.73 85.5 403.72 85.5 403.73 114 413.23 123.5 418.54 152 428.05 161.49 421.53 168.02 429.97 212.9 433.22 230.13 434.6 237.5 458.34 237.5 470.45 173.02 471.39 168 464.82 161.49 474.33 152 479.72 123.5 489.22 114 489.22 85.5 451.23 85.5 451.23 114 460.73 123.5 451.23 199.5 441.72 199.5 441.72 199.43 432.23 123.5"/>
    </g>
    <path class="cls-7" d="M926.22,152v-57.01l-9.5-9.49h-57l-9.49,9.49v57.01l9.49,9.48-9.49,9.51v57l9.49,9.5h57s9.5-9.5,9.5-9.5v-57l-9.5-9.51,9.5-9.48ZM907.23,199.5h-38.01v-76s38.01,0,38.01,0v76Z"/>
    <polygon class="cls-5" points="1030.78 85.5 1002.28 85.5 1002.28 152 973.78 85.5 945.28 85.51 945.28 114 954.78 123.5 954.78 152 964.28 161.5 954.78 171 954.78 199.5 945.28 209 945.28 237.5 983.28 237.5 983.28 209 973.78 199.5 973.78 123.5 1002.28 190 1002.28 199.5 992.78 209 992.78 237.5 1030.78 237.5 1030.78 209 1021.28 199.51 1021.28 171 1011.78 161.5 1021.28 152 1021.28 152 1021.28 123.49 1030.78 114 1030.78 85.5"/>
    <polygon class="cls-1" points="574.72 133 565.22 123.5 536.72 123.5 536.72 152 546.22 152 555.72 142.5 565.22 142.5 565.22 152 565.22 161.49 565.22 171 565.22 180.5 555.72 180.5 546.22 171 536.72 171 536.72 199.5 565.22 199.5 574.72 190 584.22 190 584.22 237.5 508.22 237.5 508.22 209 517.72 199.5 517.72 171 527.22 161.5 517.72 152 517.72 123.5 508.24 114 508.24 85.5 584.22 85.5 584.22 133 574.72 133"/>
    <polygon class="cls-4" points="821.72 199.5 812.22 209 793.22 209 783.72 199.5 783.72 171 774.22 161.5 783.72 152 783.72 123.5 793.23 114 793.23 85.5 755.22 85.5 755.22 114 764.72 123.5 764.72 152 774.22 161.5 764.72 171 764.72 199.5 755.23 209 755.23 237.5 831.22 237.5 831.22 199.5 821.72 199.5"/>
    <polygon class="cls-3" points="726.72 199.5 717.22 209 698.22 209 688.72 199.5 688.72 171 679.22 161.5 688.72 152 688.72 123.5 698.23 114 698.23 85.5 660.22 85.5 660.22 114 669.72 123.5 669.72 152 679.22 161.5 669.72 171 669.72 199.5 660.23 209 660.23 237.5 736.22 237.5 736.22 199.5 726.72 199.5"/>
    <g>
      <polyline class="cls-2" points="369.71 85.5 388.71 85.5 388.71 133 379.21 133 369.71 123.5"/>
      <polyline class="cls-12" points="365.72 123.5 337.22 123.5 337.22 152 346.72 152 356.22 142.5 365.72 142.5 365.72 152 365.72 161.49 365.72 171 365.72 180.5 356.22 180.5 346.72 171 337.22 171 337.22 199.5 365.72 199.5 375.22 190 384.72 190 384.72 237.5 308.72 237.5 308.72 209 318.22 199.5 318.22 171 327.72 161.5 318.22 152 318.22 123.5 308.74 114 308.74 85.5 365.73 85.5"/>
    </g>
    <path class="cls-11" d="M251.72,171l9.5,9.5v56.99h28.5s0-28.49,0-28.49l-9.5-9.5v-28.5l-9.5-9.5,9.5-9.5v-57l-9.5-9.5h-66.5s0,28.5,0,28.5l9.5,9.5v28.5l9.5,9.5-9.5,9.5v28.5l-9.5,9.5v28.5h38v-28.5l-9.5-9.5v-28.5M261.22,142.49l-9.49,9.51h-19v-28.5s28.5,0,28.5,0v9.5s0,9.49,0,9.49Z"/>
  </g>
  <g>
    <path class="cls-9" d="M560.9,206.72c0,2.13-.4,4.18-1.2,6.15-.8,1.97-1.87,3.88-3.2,5.75-1.33,1.87-2.83,3.67-4.5,5.4-1.67,1.73-3.37,3.4-5.1,5-.87.8-1.87,1.75-3,2.85-1.13,1.1-2.2,2.23-3.2,3.4s-1.85,2.35-2.55,3.55c-.7,1.2-1.05,2.3-1.05,3.3h26.6v10.2h-40.4c-.2-.67-.28-1.5-.25-2.5.03-1,.05-1.7.05-2.1,0-3.33.62-6.4,1.85-9.2,1.23-2.8,2.8-5.38,4.7-7.75,1.9-2.37,3.93-4.57,6.1-6.6,2.17-2.03,4.2-3.98,6.1-5.85,1.9-1.87,3.47-3.67,4.7-5.4,1.23-1.73,1.85-3.5,1.85-5.3,0-2.53-.77-4.48-2.3-5.85-1.53-1.37-3.47-2.05-5.8-2.05-1.93,0-3.97.47-6.1,1.4-2.13.93-4.23,2.5-6.3,4.7l-6.1-8.6c2.67-2.8,5.75-4.87,9.25-6.2s6.98-2,10.45-2c2.53,0,4.97.37,7.3,1.1,2.33.73,4.4,1.83,6.2,3.3,1.8,1.47,3.23,3.32,4.3,5.55,1.07,2.23,1.6,4.82,1.6,7.75Z"/>
    <path class="cls-9" d="M614,221.22c0,10.93-1.83,19.07-5.5,24.4-3.67,5.33-9,8-16,8s-12.33-2.67-16-8c-3.67-5.33-5.5-13.47-5.5-24.4s1.87-18.87,5.6-24.2c3.73-5.33,9.03-8,15.9-8s12.33,2.65,16,7.95c3.67,5.3,5.5,13.38,5.5,24.25ZM602.9,221.22c0-7.07-.88-12.45-2.65-16.15-1.77-3.7-4.35-5.55-7.75-5.55s-5.9,1.85-7.7,5.55c-1.8,3.7-2.7,9.08-2.7,16.15s.9,12.55,2.7,16.25c1.8,3.7,4.37,5.55,7.7,5.55s5.98-1.85,7.75-5.55c1.77-3.7,2.65-9.12,2.65-16.25ZM598.1,220.22c0,1.8-.52,3.35-1.55,4.65-1.03,1.3-2.35,1.95-3.95,1.95-1.73,0-3.1-.65-4.1-1.95-1-1.3-1.5-2.85-1.5-4.65s.5-3.37,1.5-4.7,2.37-2,4.1-2c1.6,0,2.92.67,3.95,2,1.03,1.33,1.55,2.9,1.55,4.7Z"/>
    <path class="cls-9" d="M660.9,206.72c0,2.13-.4,4.18-1.2,6.15-.8,1.97-1.87,3.88-3.2,5.75-1.33,1.87-2.83,3.67-4.5,5.4-1.67,1.73-3.37,3.4-5.1,5-.87.8-1.87,1.75-3,2.85-1.13,1.1-2.2,2.23-3.2,3.4s-1.85,2.35-2.55,3.55c-.7,1.2-1.05,2.3-1.05,3.3h26.6v10.2h-40.4c-.2-.67-.28-1.5-.25-2.5.03-1,.05-1.7.05-2.1,0-3.33.62-6.4,1.85-9.2,1.23-2.8,2.8-5.38,4.7-7.75,1.9-2.37,3.93-4.57,6.1-6.6,2.17-2.03,4.2-3.98,6.1-5.85,1.9-1.87,3.47-3.67,4.7-5.4,1.23-1.73,1.85-3.5,1.85-5.3,0-2.53-.77-4.48-2.3-5.85-1.53-1.37-3.47-2.05-5.8-2.05-1.93,0-3.97.47-6.1,1.4-2.13.93-4.23,2.5-6.3,4.7l-6.1-8.6c2.67-2.8,5.75-4.87,9.25-6.2s6.98-2,10.45-2c2.53,0,4.97.37,7.3,1.1,2.33.73,4.4,1.83,6.2,3.3,1.8,1.47,3.23,3.32,4.3,5.55,1.07,2.23,1.6,4.82,1.6,7.75Z"/>
    <path class="cls-9" d="M699.6,234.12c0-1.73-.28-3.32-.85-4.75-.57-1.43-1.7-2.67-3.4-3.7-1.7-1.03-4.12-1.83-7.25-2.4-3.13-.57-7.23-.85-12.3-.85.67-5.6,1.2-11.08,1.6-16.45.4-5.37.7-10.55.9-15.55h31.6v10.2h-21.3c-.13,2.13-.3,4.37-.5,6.7-.2,2.33-.37,4.23-.5,5.7,8.27.53,14.43,2.53,18.5,6s6.1,8.33,6.1,14.6c0,2.87-.5,5.52-1.5,7.95-1,2.44-2.53,4.55-4.6,6.35s-4.63,3.2-7.7,4.2c-3.07,1-6.63,1.5-10.7,1.5-1.6,0-3.23-.1-4.9-.3-1.67-.2-3.27-.45-4.8-.75-1.53-.3-2.92-.65-4.15-1.05-1.23-.4-2.18-.77-2.85-1.1l2.5-10.2c1.47.73,3.33,1.4,5.6,2,2.27.6,5.1.9,8.5.9,2.4,0,4.38-.27,5.95-.8,1.57-.53,2.8-1.21,3.7-2.05s1.52-1.78,1.85-2.85c.33-1.07.5-2.17.5-3.3Z"/>
  </g>
</svg>