<?xml version="1.0" encoding="UTF-8"?>
<svg id="Layer_2" data-name="Layer 2" xmlns="http://www.w3.org/2000/svg" xmlns:xlink="http://www.w3.org/1999/xlink" viewBox="0 0 300 59.26">
  <defs>
    <style>
      .cls-1 {
        fill: url(#linear-gradient-17);
      }

      .cls-1, .cls-2, .cls-3, .cls-4, .cls-5, .cls-6, .cls-7, .cls-8, .cls-9, .cls-10, .cls-11, .cls-12, .cls-13, .cls-14, .cls-15, .cls-16, .cls-17, .cls-18 {
        stroke-width: 0px;
      }

      .cls-2 {
        fill: url(#linear-gradient-19);
      }

      .cls-3, .cls-19 {
        fill: url(#linear-gradient);
      }

      .cls-20 {
        fill: url(#linear-gradient-15);
      }

      .cls-21 {
        fill: url(#linear-gradient-18);
      }

      .cls-22 {
        fill: url(#linear-gradient-6);
      }

      .cls-23 {
        clip-path: url(#clippath-2);
      }

      .cls-24 {
        clip-path: url(#clippath-6);
      }

      .cls-4 {
        fill: url(#linear-gradient-11);
      }

      .cls-5 {
        fill: url(#linear-gradient-5);
      }

      .cls-25 {
        clip-path: url(#clippath-7);
      }

      .cls-26 {
        clip-path: url(#clippath-1);
      }

      .cls-27 {
        clip-path: url(#clippath-4);
      }

      .cls-6 {
        fill: url(#linear-gradient-13);
      }

      .cls-7 {
        fill: url(#linear-gradient-23);
      }

      .cls-8 {
        fill: url(#linear-gradient-25);
      }

      .cls-9 {
        fill: url(#linear-gradient-16);
      }

      .cls-10 {
        fill: url(#linear-gradient-22);
      }

      .cls-11 {
        fill: url(#linear-gradient-20);
      }

      .cls-12 {
        fill: url(#linear-gradient-14);
      }

      .cls-13 {
        fill: url(#linear-gradient-2);
      }

      .cls-28 {
        fill: url(#linear-gradient-21);
      }

      .cls-14 {
        fill: url(#linear-gradient-7);
      }

      .cls-29 {
        clip-path: url(#clippath);
      }

      .cls-30 {
        clip-path: url(#clippath-3);
      }

      .cls-15 {
        fill: url(#linear-gradient-8);
      }

      .cls-31 {
        clip-path: url(#clippath-8);
      }

      .cls-16 {
        fill: url(#linear-gradient-26);
      }

      .cls-32 {
        fill: url(#linear-gradient-24);
      }

      .cls-33 {
        fill: url(#linear-gradient-9);
      }

      .cls-34 {
        fill: url(#linear-gradient-3);
      }

      .cls-35 {
        clip-path: url(#clippath-5);
      }

      .cls-17 {
        fill: url(#linear-gradient-10);
      }

      .cls-18 {
        fill: url(#linear-gradient-4);
      }

      .cls-36 {
        fill: url(#linear-gradient-12);
      }
    </style>
    <linearGradient id="linear-gradient" x1="114.82" y1="29.63" x2="144.45" y2="29.63" gradientUnits="userSpaceOnUse">
      <stop offset="0" stop-color="#fff"/>
      <stop offset="1" stop-color="#000"/>
    </linearGradient>
    <clipPath id="clippath">
      <polygon class="cls-3" points="144.45 40.74 140.74 40.74 137.04 44.45 125.93 44.44 125.93 33.33 129.63 33.33 133.33 37.04 137.04 37.04 137.04 33.33 137.04 29.63 137.04 25.93 137.04 22.22 133.33 22.22 129.63 25.93 125.93 25.93 125.93 14.82 137.04 14.82 140.74 18.52 144.45 18.52 144.45 0 114.82 0 114.82 11.11 118.52 14.82 118.52 25.93 122.22 29.63 118.52 33.33 118.52 44.45 114.82 48.15 114.82 59.26 144.45 59.26 144.45 40.74"/>
    </clipPath>
    <linearGradient id="linear-gradient-2" x1="114.82" y1="29.63" x2="144.44" y2="29.63" xlink:href="#linear-gradient"/>
    <linearGradient id="linear-gradient-3" x1="151.85" y1="29.63" x2="185.19" y2="29.63" xlink:href="#linear-gradient"/>
    <linearGradient id="linear-gradient-4" x1="151.85" y1="29.63" x2="185.19" y2="29.63" xlink:href="#linear-gradient"/>
    <clipPath id="clippath-1">
      <path class="cls-18" d="M174.07,14.82v3.7s0,3.7,0,3.7l-3.7,3.71h-7.41v-11.11s11.11,0,11.11,0ZM185.19,48.15l-3.7-3.7v-11.11l-3.7-3.7,3.7-3.7V3.71L177.78,0h-25.93s0,11.11,0,11.11l3.7,3.7v11.11l3.7,3.7-3.7,3.7v11.11l-3.7,3.7v11.11h14.81v-11.11l-3.7-3.7v-11.11h7.41l3.7,3.7v22.22h11.11s0-11.11,0-11.11Z"/>
    </clipPath>
    <linearGradient id="linear-gradient-5" x1="151.85" y1="29.63" x2="185.19" y2="29.63" xlink:href="#linear-gradient"/>
    <linearGradient id="linear-gradient-6" x1="192.58" y1="29.63" x2="222.22" y2="29.63" xlink:href="#linear-gradient"/>
    <linearGradient id="linear-gradient-7" x1="192.58" y1="29.63" x2="222.22" y2="29.63" xlink:href="#linear-gradient"/>
    <clipPath id="clippath-2">
      <path class="cls-14" d="M214.82,14.82v29.63h-11.11V14.82h11.11ZM222.22,3.71L218.52,0h-25.94v11.11l3.71,3.7v11.11l3.7,3.7-3.7,3.7v11.1l-3.71,3.72v11.1h25.94l3.7-3.69V3.71Z"/>
    </clipPath>
    <linearGradient id="linear-gradient-8" x1="192.58" y1="29.63" x2="222.22" y2="29.63" xlink:href="#linear-gradient"/>
    <linearGradient id="linear-gradient-9" x1="40.74" y1="29.63" x2="70.37" y2="29.63" xlink:href="#linear-gradient"/>
    <linearGradient id="linear-gradient-10" x1="40.74" y1="29.63" x2="70.37" y2="29.63" xlink:href="#linear-gradient"/>
    <clipPath id="clippath-3">
      <path class="cls-17" d="M62.96,14.82v29.63h-14.81V14.82h14.81ZM66.67,29.63l3.7-3.7V3.71L66.67,0h-22.22s-3.7,3.7-3.7,3.7v22.22l3.7,3.7-3.7,3.7v22.22l3.7,3.7h22.22l3.7-3.7v-22.22s-3.7-3.7-3.7-3.7Z"/>
    </clipPath>
    <linearGradient id="linear-gradient-11" x1="40.74" y1="29.63" x2="70.37" y2="29.63" xlink:href="#linear-gradient"/>
    <linearGradient id="linear-gradient-12" x1="270.37" y1="29.63" x2="300" y2="29.63" xlink:href="#linear-gradient"/>
    <linearGradient id="linear-gradient-13" x1="270.37" y1="29.63" x2="300" y2="29.63" xlink:href="#linear-gradient"/>
    <clipPath id="clippath-4">
      <path class="cls-6" d="M277.78,14.82h14.82v29.63h-14.82V14.82ZM300,33.33l-3.7-3.71,3.7-3.7V3.7L296.3,0h-22.22l-3.7,3.7v22.22l3.7,3.7-3.7,3.71v22.22l3.7,3.7h22.22l3.7-3.7v-22.22Z"/>
    </clipPath>
    <linearGradient id="linear-gradient-14" x1="270.37" y1="29.63" x2="300" y2="29.63" xlink:href="#linear-gradient"/>
    <linearGradient id="linear-gradient-15" x1="77.78" y1="29.63" x2="107.41" y2="29.63" xlink:href="#linear-gradient"/>
    <linearGradient id="linear-gradient-16" x1="77.78" y1="29.63" x2="107.41" y2="29.63" xlink:href="#linear-gradient"/>
    <clipPath id="clippath-5">
      <path class="cls-9" d="M100,48.15l-3.7-3.7v-11.11l-3.7-3.7-3.7,3.7v11.11l-3.7,3.7v11.11h14.81v-11.11ZM107.41,0h-29.63v22.22h3.7l3.7-3.7v-3.7h3.7v11.11l3.7,3.7,3.7-3.7v-11.11h3.7v3.7l3.7,3.7h3.7V0Z"/>
    </clipPath>
    <linearGradient id="linear-gradient-17" x1="77.78" y1="29.63" x2="107.41" y2="29.63" xlink:href="#linear-gradient"/>
    <linearGradient id="linear-gradient-18" x1="229.63" y1="29.63" x2="262.96" y2="29.63" xlink:href="#linear-gradient"/>
    <linearGradient id="linear-gradient-19" x1="229.63" y1="29.63" x2="262.96" y2="29.63" xlink:href="#linear-gradient"/>
    <clipPath id="clippath-6">
      <path class="cls-2" d="M248.15,14.82v11.11h-3.7v-11.11h3.7ZM262.96,48.15l-3.7-3.7-2.07-11.11-3.71-3.7,2.54-2.55-3.29-17.5-1.26-6.72L250.93,0h-15.74v11.11l3.7,3.7h0l-2.31,12.28,2.56,2.54-3.71,3.7-2.1,11.11-3.7,3.7v11.11h14.81v-11.11l-3.7-3.7,1.85-11.11h7.41l1.85,11.11-3.7,3.7v11.11s14.82,0,14.82,0v-11.11Z"/>
    </clipPath>
    <linearGradient id="linear-gradient-20" x1="229.63" y1="29.63" x2="262.96" y2="29.63" xlink:href="#linear-gradient"/>
    <linearGradient id="linear-gradient-21" x1="251.47" y1="4.8" x2="262.96" y2="4.8" xlink:href="#linear-gradient"/>
    <linearGradient id="linear-gradient-22" x1="251.47" y1="4.8" x2="262.96" y2="4.8" xlink:href="#linear-gradient"/>
    <clipPath id="clippath-7">
      <polygon class="cls-10" points="262.96 0 257.26 0 255.02 2.88 251.47 2.88 252.73 9.59 255.51 9.59 257.99 6.4 262.96 6.4 262.96 0"/>
    </clipPath>
    <linearGradient id="linear-gradient-23" x1="251.47" y1="4.8" x2="262.96" y2="4.8" xlink:href="#linear-gradient"/>
    <linearGradient id="linear-gradient-24" x1="0" y1="29.63" x2="33.33" y2="29.63" xlink:href="#linear-gradient"/>
    <linearGradient id="linear-gradient-25" x1="0" y1="29.63" x2="33.33" y2="29.63" xlink:href="#linear-gradient"/>
    <clipPath id="clippath-8">
      <path class="cls-8" d="M18.52,14.82h3.7s0,7.4,0,7.4l-3.7,3.7h-7.41s0-11.11,0-11.11h7.41ZM33.33,48.15l-3.7-3.7v-11.11s-3.7-3.7-3.7-3.7l3.7-3.7V3.71L25.93,0H0v11.11l3.7,3.71v11.11l3.7,3.7-3.7,3.7v11.11l-3.7,3.7v11.11h14.81v-11.11l-3.7-3.7v-11.11h7.41l3.7,3.7v22.22h11.11v-11.11Z"/>
    </clipPath>
    <linearGradient id="linear-gradient-26" x1="0" y1="29.63" x2="33.33" y2="29.63" xlink:href="#linear-gradient"/>
  </defs>
  <g id="Layer_3" data-name="Layer 3">
    <g>
      <g>
        <polygon class="cls-19" points="144.45 40.74 140.74 40.74 137.04 44.45 125.93 44.44 125.93 33.33 129.63 33.33 133.33 37.04 137.04 37.04 137.04 33.33 137.04 29.63 137.04 25.93 137.04 22.22 133.33 22.22 129.63 25.93 125.93 25.93 125.93 14.82 137.04 14.82 140.74 18.52 144.45 18.52 144.45 0 114.82 0 114.82 11.11 118.52 14.82 118.52 25.93 122.22 29.63 118.52 33.33 118.52 44.45 114.82 48.15 114.82 59.26 144.45 59.26 144.45 40.74"/>
        <g class="cls-29">
          <rect class="cls-13" x="114.82" y="0" width="29.63" height="59.26"/>
        </g>
      </g>
      <g>
        <path class="cls-34" d="M174.07,14.82v3.7s0,3.7,0,3.7l-3.7,3.71h-7.41v-11.11s11.11,0,11.11,0ZM185.19,48.15l-3.7-3.7v-11.11l-3.7-3.7,3.7-3.7V3.71L177.78,0h-25.93s0,11.11,0,11.11l3.7,3.7v11.11l3.7,3.7-3.7,3.7v11.11l-3.7,3.7v11.11h14.81v-11.11l-3.7-3.7v-11.11h7.41l3.7,3.7v22.22h11.11s0-11.11,0-11.11Z"/>
        <g class="cls-26">
          <rect class="cls-5" x="151.85" y="0" width="33.33" height="59.26"/>
        </g>
      </g>
      <g>
        <path class="cls-22" d="M214.82,14.82v29.63h-11.11V14.82h11.11ZM222.22,3.71L218.52,0h-25.94v11.11l3.71,3.7v11.11l3.7,3.7-3.7,3.7v11.1l-3.71,3.72v11.1h25.94l3.7-3.69V3.71Z"/>
        <g class="cls-23">
          <rect class="cls-15" x="192.58" y="0" width="29.64" height="59.25"/>
        </g>
      </g>
      <g>
        <path class="cls-33" d="M62.96,14.82v29.63h-14.81V14.82h14.81ZM66.67,29.63l3.7-3.7V3.71L66.67,0h-22.22s-3.7,3.7-3.7,3.7v22.22l3.7,3.7-3.7,3.7v22.22l3.7,3.7h22.22l3.7-3.7v-22.22s-3.7-3.7-3.7-3.7Z"/>
        <g class="cls-30">
          <rect class="cls-4" x="40.74" y="0" width="29.63" height="59.26"/>
        </g>
      </g>
      <g>
        <path class="cls-36" d="M277.78,14.82h14.82v29.63h-14.82V14.82ZM300,33.33l-3.7-3.71,3.7-3.7V3.7L296.3,0h-22.22l-3.7,3.7v22.22l3.7,3.7-3.7,3.71v22.22l3.7,3.7h22.22l3.7-3.7v-22.22Z"/>
        <g class="cls-27">
          <rect class="cls-12" x="270.37" y="0" width="29.63" height="59.26"/>
        </g>
      </g>
      <g>
        <path class="cls-20" d="M100,48.15l-3.7-3.7v-11.11l-3.7-3.7-3.7,3.7v11.11l-3.7,3.7v11.11h14.81v-11.11ZM107.41,0h-29.63v22.22h3.7l3.7-3.7v-3.7h3.7v11.11l3.7,3.7,3.7-3.7v-11.11h3.7v3.7l3.7,3.7h3.7V0Z"/>
        <g class="cls-35">
          <rect class="cls-1" x="77.78" y="0" width="29.63" height="59.26"/>
        </g>
      </g>
      <g>
        <path class="cls-21" d="M248.15,14.82v11.11h-3.7v-11.11h3.7ZM262.96,48.15l-3.7-3.7-2.07-11.11-3.71-3.7,2.54-2.55-3.29-17.5-1.26-6.72L250.93,0h-15.74v11.11l3.7,3.7h0l-2.31,12.28,2.56,2.54-3.71,3.7-2.1,11.11-3.7,3.7v11.11h14.81v-11.11l-3.7-3.7,1.85-11.11h7.41l1.85,11.11-3.7,3.7v11.11s14.82,0,14.82,0v-11.11Z"/>
        <g class="cls-24">
          <rect class="cls-11" x="229.63" y="0" width="33.33" height="59.26"/>
        </g>
      </g>
      <g>
        <polygon class="cls-28" points="262.96 0 257.26 0 255.02 2.88 251.47 2.88 252.73 9.59 255.51 9.59 257.99 6.4 262.96 6.4 262.96 0"/>
        <g class="cls-25">
          <rect class="cls-7" x="251.47" y="0" width="11.49" height="9.59"/>
        </g>
      </g>
      <g>
        <path class="cls-32" d="M18.52,14.82h3.7s0,7.4,0,7.4l-3.7,3.7h-7.41s0-11.11,0-11.11h7.41ZM33.33,48.15l-3.7-3.7v-11.11s-3.7-3.7-3.7-3.7l3.7-3.7V3.71L25.93,0H0v11.11l3.7,3.71v11.11l3.7,3.7-3.7,3.7v11.11l-3.7,3.7v11.11h14.81v-11.11l-3.7-3.7v-11.11h7.41l3.7,3.7v22.22h11.11v-11.11Z"/>
        <g class="cls-31">
          <rect class="cls-16" y="0" width="33.33" height="59.26"/>
        </g>
      </g>
    </g>
  </g>
</svg>