<svg id="ROTEDÃO" xmlns="http://www.w3.org/2000/svg" xmlns:xlink="http://www.w3.org/1999/xlink" width="759.349" height="150" viewBox="0 0 759.349 150">
  <defs>
    <linearGradient id="linear-gradient" y1="1" x2="1" y2="1" gradientUnits="objectBoundingBox">
      <stop offset="0" stop-color="#ff8a33"/>
      <stop offset="1" stop-color="#ff312d"/>
    </linearGradient>
    <clipPath id="clip-path">
      <path id="Path_2" data-name="Path 2" d="M270.593,0V28.128l9.364,9.374V65.626L289.332,75l-9.375,9.374V112.5l-9.374,9.375V150h75V103.124H336.2L326.83,112.5l-28.124,0V84.376h9.374l9.374,9.375h9.375v-37.5h-9.375l-9.379,9.374h-9.37V37.5H326.83l9.374,9.375h9.375V0Z" transform="translate(-270.582 -0.003)" fill="url(#linear-gradient)"/>
    </clipPath>
    <clipPath id="clip-path-2">
      <path id="Path_3" data-name="Path 3" d="M385.99,37.5h28.124l0,9.375,0,9.362-9.368,9.386H385.991Zm-28.124-9.374L367.24,37.5V65.626L376.615,75l-9.374,9.375V112.5l-9.374,9.375V150l37.5,0v-28.12L385.99,112.5V84.376h18.75l9.374,9.375v56.236l28.125.012V121.875l-9.375-9.375V84.376L423.489,75l9.374-9.375V9.378L423.489,0,357.866,0Z" transform="translate(-357.866 -0.001)" fill="url(#linear-gradient)"/>
    </clipPath>
    <clipPath id="clip-path-3">
      <path id="Path_4" data-name="Path 4" d="M482,37.5h28.124v75H482ZM453.856,0V28.128l9.4,9.374V65.626L472.629,75l-9.375,9.374v28.086l-9.4,9.413v28.1H519.5l9.376-9.351V9.378L519.5,0Z" transform="translate(-453.856 -0.003)" fill="url(#linear-gradient)"/>
    </clipPath>
    <clipPath id="clip-path-4">
      <path id="Path_5" data-name="Path 5" d="M114.764,37.5h37.5v75h-37.5ZM105.388.013,96.014,9.378V65.626L105.388,75l-9.374,9.374v56.249L105.388,150h56.248l9.375-9.374,0-56.249L161.636,75l9.375-9.375V9.378L161.636,0Z" transform="translate(-96.014 -0.003)" fill="url(#linear-gradient)"/>
    </clipPath>
    <clipPath id="clip-path-5">
      <path id="Path_6" data-name="Path 6" d="M655.923,37.5l37.5,0V112.5h-37.5ZM646.544.008l-9.367,9.366V65.626l9.367,9.358-9.367,9.387v56.248l9.367,9.375h56.249l9.377-9.375V84.371l-9.377-9.387,9.375-9.358V9.374L702.793.008Z" transform="translate(-637.177 -0.008)" fill="url(#linear-gradient)"/>
    </clipPath>
    <clipPath id="clip-path-6">
      <path id="Path_7" data-name="Path 7" d="M183.3,0V56.252h9.375l9.374-9.374V37.5h9.374V65.626L220.8,75l-9.374,9.374V112.5l-9.374,9.375V150h37.5V121.875l-9.375-9.375V84.376L220.8,75l9.375-9.375V37.5h9.375v9.375l9.374,9.374H258.3V0Z" transform="translate(-183.298 -0.003)" fill="url(#linear-gradient)"/>
    </clipPath>
    <clipPath id="clip-path-7">
      <path id="Path_8" data-name="Path 8" d="M578.661,37.5h9.376V65.627h-9.376ZM555.22.006V28.13L564.6,37.5h0l-5.835,31.08,6.486,6.428-9.385,9.361L550.538,112.5l-9.374,9.374V150h37.5V121.875l-9.374-9.374,4.687-28.123h18.748l4.686,28.123-9.373,9.374,0,28.124h37.506l-.005-28.124-9.374-9.374-5.242-28.123-9.386-9.365,6.441-6.442-8.335-44.285-3.2-17.005L595.065.006Z" transform="translate(-541.164 -0.006)" fill="url(#linear-gradient)"/>
    </clipPath>
    <clipPath id="clip-path-8">
      <path id="Path_9" data-name="Path 9" d="M607.282,0l-5.669,7.281h-8.99l3.2,17.005h7.038l6.285-8.1h12.571V0Z" transform="translate(-592.623)" fill="url(#linear-gradient)"/>
    </clipPath>
    <clipPath id="clip-path-9">
      <path id="Path_10" data-name="Path 10" d="M56.248,37.5V56.252l-9.374,9.367-18.749.009V37.5l18.76.008ZM0,0V28.129l9.375,9.383V65.627L18.75,75,9.375,84.378V112.5L0,121.875V150H37.5V121.875L28.125,112.5V84.378H46.873l9.374,9.374V150H84.374V121.875L75,112.5l.009-28.123L65.63,75,75,65.627V9.379L65.623,0Z" transform="translate(0 -0.005)" fill="url(#linear-gradient)"/>
    </clipPath>
  </defs>
  <g id="Group_7" data-name="Group 7" transform="translate(290.617 0.003)">
    <g id="Group_6" data-name="Group 6" clip-path="url(#clip-path)">
      <rect id="Rectangle_124" data-name="Rectangle 124" width="74.997" height="149.996" transform="translate(0 0)" fill="url(#linear-gradient)"/>
    </g>
  </g>
  <g id="Group_9" data-name="Group 9" transform="translate(384.364 0.001)">
    <g id="Group_8" data-name="Group 8" clip-path="url(#clip-path-2)">
      <rect id="Rectangle_125" data-name="Rectangle 125" width="84.373" height="149.998" transform="translate(0 0)" fill="url(#linear-gradient)"/>
    </g>
  </g>
  <g id="Group_11" data-name="Group 11" transform="translate(487.462 0.003)">
    <g id="Group_10" data-name="Group 10" clip-path="url(#clip-path-3)">
      <rect id="Rectangle_126" data-name="Rectangle 126" width="75.022" height="149.972" transform="translate(0 0)" fill="url(#linear-gradient)"/>
    </g>
  </g>
  <g id="Group_13" data-name="Group 13" transform="translate(103.123 0.003)">
    <g id="Group_12" data-name="Group 12" clip-path="url(#clip-path-4)">
      <rect id="Rectangle_127" data-name="Rectangle 127" width="74.999" height="149.996" transform="translate(0 0)" fill="url(#linear-gradient)"/>
    </g>
  </g>
  <g id="Group_15" data-name="Group 15" transform="translate(684.357 0.009)">
    <g id="Group_14" data-name="Group 14" clip-path="url(#clip-path-5)">
      <rect id="Rectangle_128" data-name="Rectangle 128" width="74.993" height="149.986" transform="translate(0 0)" fill="url(#linear-gradient)"/>
    </g>
  </g>
  <g id="Group_17" data-name="Group 17" transform="translate(196.87 0.003)">
    <g id="Group_16" data-name="Group 16" clip-path="url(#clip-path-6)">
      <rect id="Rectangle_129" data-name="Rectangle 129" width="74.997" height="149.996" transform="translate(0 0)" fill="url(#linear-gradient)"/>
    </g>
  </g>
  <g id="Group_19" data-name="Group 19" transform="translate(581.234 0.006)">
    <g id="Group_18" data-name="Group 18" clip-path="url(#clip-path-7)">
      <rect id="Rectangle_130" data-name="Rectangle 130" width="84.372" height="149.993" transform="translate(0 0)" fill="url(#linear-gradient)"/>
    </g>
  </g>
  <g id="Group_21" data-name="Group 21" transform="translate(636.504)">
    <g id="Group_20" data-name="Group 20" clip-path="url(#clip-path-8)">
      <rect id="Rectangle_131" data-name="Rectangle 131" width="29.095" height="24.286" transform="translate(0 0)" fill="url(#linear-gradient)"/>
    </g>
  </g>
  <g id="Group_23" data-name="Group 23" transform="translate(0 0.005)">
    <g id="Group_22" data-name="Group 22" clip-path="url(#clip-path-9)">
      <rect id="Rectangle_132" data-name="Rectangle 132" width="84.374" height="149.995" transform="translate(0 0)" fill="url(#linear-gradient)"/>
    </g>
  </g>
</svg>
