<?xml version="1.0" encoding="UTF-8"?>
<svg id="sobreoroterdao" xmlns="http://www.w3.org/2000/svg" xmlns:xlink="http://www.w3.org/1999/xlink" viewBox="0 0 1231 319">
  <defs>
    <style>
      .cls-1 {
        clip-path: url(#clippath);
      }

      .cls-2, .cls-3, .cls-4, .cls-5, .cls-6, .cls-7, .cls-8, .cls-9, .cls-10, .cls-11, .cls-12, .cls-13 {
        stroke-width: 0px;
      }

      .cls-2, .cls-14 {
        fill: none;
      }

      .cls-3 {
        fill: url(#linear-gradient);
      }

      .cls-4 {
        fill: #ffcb8f;
      }

      .cls-15 {
        clip-path: url(#clippath-1);
      }

      .cls-16 {
        clip-path: url(#clippath-4);
      }

      .cls-17 {
        clip-path: url(#clippath-3);
      }

      .cls-18 {
        clip-path: url(#clippath-2);
      }

      .cls-19 {
        clip-path: url(#clippath-7);
      }

      .cls-20 {
        clip-path: url(#clippath-8);
      }

      .cls-21 {
        clip-path: url(#clippath-6);
      }

      .cls-22 {
        clip-path: url(#clippath-5);
      }

      .cls-5 {
        fill: url(#linear-gradient-4);
      }

      .cls-6 {
        fill: url(#linear-gradient-2);
      }

      .cls-7 {
        fill: url(#linear-gradient-3);
      }

      .cls-8 {
        fill: url(#linear-gradient-8);
      }

      .cls-9 {
        fill: url(#linear-gradient-9);
      }

      .cls-10 {
        fill: url(#linear-gradient-7);
      }

      .cls-11 {
        fill: url(#linear-gradient-5);
      }

      .cls-12 {
        fill: url(#linear-gradient-6);
      }

      .cls-14 {
        stroke: #707070;
      }

      .cls-23 {
        isolation: isolate;
      }

      .cls-13 {
        fill: #fff;
      }

      .cls-24 {
        opacity: 0;
      }
    </style>
    <clipPath id="clippath">
      <polygon class="cls-2" points="525.95 123.5 525.95 151.63 535.32 161 535.32 189.13 544.69 198.5 535.32 207.87 535.32 236 525.94 245.38 525.94 273.5 600.94 273.5 600.94 226.62 591.56 226.62 582.19 236 554.07 236 554.07 207.88 563.44 207.88 572.81 217.25 582.19 217.25 582.19 179.75 572.81 179.75 563.43 189.12 554.07 189.12 554.07 161 582.19 161 591.56 170.38 600.94 170.38 600.94 123.5 525.95 123.5"/>
    </clipPath>
    <linearGradient id="linear-gradient" x1="39.47" y1="875.77" x2="40.47" y2="875.77" gradientTransform="translate(-2433.94 131559.98) scale(75 -150)" gradientUnits="userSpaceOnUse">
      <stop offset="0" stop-color="#ff8a33"/>
      <stop offset="1" stop-color="#ff312d"/>
    </linearGradient>
    <clipPath id="clippath-1">
      <path class="cls-2" d="M647.81,161h28.12v18.74l-9.37,9.39h-18.75v-28.12ZM619.69,151.63l9.37,9.37v28.13l9.38,9.37-9.37,9.38v28.12l-9.37,9.38v28.12h37.5v-28.12l-9.38-9.38v-28.12h18.75l9.37,9.38v56.24h28.12s0-28.11,0-28.11l-9.38-9.38v-28.12l-9.38-9.38,9.37-9.38v-56.25l-9.37-9.38h-65.62v28.13Z"/>
    </clipPath>
    <linearGradient id="linear-gradient-2" x1="39.53" y1="875.77" x2="40.53" y2="875.77" gradientTransform="translate(-2715.23 131561.74) scale(84.37 -150)" gradientUnits="userSpaceOnUse">
      <stop offset="0" stop-color="#ff8a33"/>
      <stop offset="1" stop-color="#ff312d"/>
    </linearGradient>
    <clipPath id="clippath-2">
      <path class="cls-2" d="M750.93,161h28.12v75h-28.12v-75ZM722.79,123.5v28.13l9.4,9.37v28.12l9.37,9.37-9.38,9.37v28.09l-9.4,9.41v28.1h65.65l9.38-9.35v-131.24l-9.38-9.38h-65.64Z"/>
    </clipPath>
    <linearGradient id="linear-gradient-3" x1="39.47" y1="875.77" x2="40.47" y2="875.77" gradientTransform="translate(-2238.09 131538.86) scale(75.02 -149.97)" gradientUnits="userSpaceOnUse">
      <stop offset="0" stop-color="#ff8a33"/>
      <stop offset="1" stop-color="#ff312d"/>
    </linearGradient>
    <clipPath id="clippath-3">
      <path class="cls-2" d="M357.2,161h37.5v75h-37.5v-75ZM347.82,123.51l-9.37,9.37v56.25l9.37,9.37-9.37,9.37v56.25l9.37,9.38h56.25l9.38-9.37v-56.25l-9.38-9.38,9.38-9.38v-56.25l-9.38-9.38h-56.25Z"/>
    </clipPath>
    <linearGradient id="linear-gradient-4" x1="39.47" y1="875.77" x2="40.47" y2="875.77" gradientTransform="translate(-2621.51 131559.98) scale(75 -150)" gradientUnits="userSpaceOnUse">
      <stop offset="0" stop-color="#ff8a33"/>
      <stop offset="1" stop-color="#ff312d"/>
    </linearGradient>
    <clipPath id="clippath-4">
      <path class="cls-2" d="M938.43,161h37.5v75h-37.5v-75ZM929.05,123.51l-9.37,9.37v56.25l9.37,9.36-9.37,9.39v56.25l9.37,9.38h56.25l9.38-9.38v-56.25l-9.38-9.39,9.38-9.36v-56.25l-9.38-9.37h-56.25Z"/>
    </clipPath>
    <linearGradient id="linear-gradient-5" x1="39.47" y1="875.77" x2="40.47" y2="875.77" gradientTransform="translate(-2040.04 131551.18) scale(74.99 -149.99)" gradientUnits="userSpaceOnUse">
      <stop offset="0" stop-color="#ff8a33"/>
      <stop offset="1" stop-color="#ff312d"/>
    </linearGradient>
    <clipPath id="clippath-5">
      <polygon class="cls-2" points="432.2 123.5 432.2 179.75 441.57 179.75 450.95 170.38 450.95 161 460.32 161 460.32 189.13 469.7 198.5 460.32 207.87 460.32 236 450.95 245.38 450.95 273.5 488.45 273.5 488.45 245.38 479.07 236 479.07 207.88 469.7 198.5 479.07 189.12 479.07 161 488.45 161 488.45 170.38 497.82 179.75 507.2 179.75 507.2 123.5 432.2 123.5"/>
    </clipPath>
    <linearGradient id="linear-gradient-6" x1="39.47" y1="875.77" x2="40.47" y2="875.77" gradientTransform="translate(-2527.69 131559.98) scale(75 -150)" gradientUnits="userSpaceOnUse">
      <stop offset="0" stop-color="#ff8a33"/>
      <stop offset="1" stop-color="#ff312d"/>
    </linearGradient>
    <clipPath id="clippath-6">
      <path class="cls-2" d="M854.06,161h9.38v28.13h-9.38v-28.13ZM830.61,123.51v28.12l9.38,9.37-5.84,31.08,6.49,6.43-9.39,9.36-5.33,28.13-9.37,9.37v28.13h37.5v-28.12l-9.37-9.37,4.69-28.12h18.75l4.69,28.12-9.37,9.37v28.12h37.51v-28.12s-9.38-9.37-9.38-9.37l-5.24-28.12-9.39-9.36,6.44-6.44-8.34-44.29-3.2-17.01-1.38-7.28h-39.85Z"/>
    </clipPath>
    <linearGradient id="linear-gradient-7" x1="39.53" y1="875.77" x2="40.53" y2="875.77" gradientTransform="translate(-2518.32 131557.34) scale(84.37 -149.99)" gradientUnits="userSpaceOnUse">
      <stop offset="0" stop-color="#ff8a33"/>
      <stop offset="1" stop-color="#ff312d"/>
    </linearGradient>
    <clipPath id="clippath-7">
      <polygon class="cls-2" points="886.49 123.5 880.82 130.78 871.83 130.78 875.03 147.79 882.07 147.79 888.35 139.69 900.92 139.69 900.92 123.5 886.49 123.5"/>
    </clipPath>
    <linearGradient id="linear-gradient-8" x1="38.63" y1="856.44" x2="39.63" y2="856.44" gradientTransform="translate(-251.97 20935.18) scale(29.09 -24.29)" gradientUnits="userSpaceOnUse">
      <stop offset="0" stop-color="#ff8a33"/>
      <stop offset="1" stop-color="#ff312d"/>
    </linearGradient>
    <clipPath id="clippath-8">
      <path class="cls-2" d="M291.57,161v18.75l-9.37,9.37h-18.75s0-28.12,0-28.12h18.76s9.36,0,9.36,0ZM235.32,123.5v28.13l9.38,9.38v28.11l9.38,9.37-9.38,9.38v28.12l-9.38,9.38v28.12h37.5v-28.12l-9.38-9.38v-28.12h18.75l9.37,9.37v56.25h28.13v-28.12l-9.37-9.38v-28.12s-9.37-9.38-9.37-9.38l9.37-9.37v-56.25l-9.38-9.38h-65.62Z"/>
    </clipPath>
    <linearGradient id="linear-gradient-9" x1="39.53" y1="875.77" x2="40.53" y2="875.77" gradientTransform="translate(-3099.64 131559.1) scale(84.37 -149.99)" gradientUnits="userSpaceOnUse">
      <stop offset="0" stop-color="#ff8a33"/>
      <stop offset="1" stop-color="#ff312d"/>
    </linearGradient>
  </defs>
  <g id="Rectangle_1635" data-name="Rectangle 1635" class="cls-24">
    <rect class="cls-13" width="1231" height="319"/>
    <rect class="cls-14" x=".5" y=".5" width="1230" height="318"/>
  </g>
  <g id="SOBRE_O" data-name="SOBRE O" class="cls-23">
    <g class="cls-23">
      <path class="cls-4" d="M463.2,119.5c2.07,0,3.78-.22,5.15-.65,1.37-.43,2.45-1.03,3.25-1.8.8-.77,1.35-1.63,1.65-2.6.3-.97.45-1.95.45-2.95,0-1.27-.37-2.4-1.1-3.4-.73-1-1.67-1.88-2.8-2.65-1.13-.77-2.4-1.47-3.8-2.1-1.4-.63-2.8-1.21-4.2-1.75-1.87-.67-3.8-1.43-5.8-2.3-2-.87-3.82-1.97-5.45-3.3-1.63-1.33-2.98-2.98-4.05-4.95-1.07-1.97-1.6-4.42-1.6-7.35,0-5.8,1.88-10.33,5.65-13.6,3.77-3.27,8.95-4.9,15.55-4.9,3.8,0,7.12.43,9.95,1.3,2.83.87,5.22,1.83,7.15,2.9l-3.6,9.5c-1.67-.93-3.52-1.73-5.55-2.4-2.03-.67-4.38-1-7.05-1-6.53,0-9.8,2.37-9.8,7.1,0,1.2.33,2.25,1,3.15.67.9,1.52,1.7,2.55,2.4,1.03.7,2.2,1.32,3.5,1.85,1.3.53,2.58,1.03,3.85,1.5,1.93.73,3.95,1.55,6.05,2.45,2.1.9,4.03,2.1,5.8,3.6,1.77,1.5,3.22,3.37,4.35,5.6,1.13,2.23,1.7,5.05,1.7,8.45,0,5.8-1.88,10.29-5.65,13.45-3.77,3.17-9.48,4.75-17.15,4.75-5.13,0-9.23-.55-12.3-1.65-3.07-1.1-5.37-2.12-6.9-3.05l3.6-10c1.8,1.07,3.95,2.07,6.45,3,2.5.93,5.55,1.4,9.15,1.4Z"/>
      <path class="cls-4" d="M492.7,97.5c0-10.67,1.97-18.72,5.9-24.15,3.93-5.43,9.4-8.15,16.4-8.15s12.8,2.72,16.6,8.15c3.8,5.43,5.7,13.48,5.7,24.15s-1.93,18.72-5.8,24.15c-3.87,5.43-9.33,8.15-16.4,8.15s-12.82-2.72-16.65-8.15c-3.83-5.43-5.75-13.48-5.75-24.15ZM505.2,97.5c0,3,.12,5.82.35,8.45.23,2.63.7,4.92,1.4,6.85.7,1.93,1.68,3.47,2.95,4.6,1.27,1.13,2.97,1.7,5.1,1.7s3.75-.57,5.05-1.7c1.3-1.13,2.3-2.68,3-4.65.7-1.97,1.17-4.25,1.4-6.85.23-2.6.35-5.4.35-8.4s-.12-5.82-.35-8.45c-.23-2.63-.7-4.92-1.4-6.85-.7-1.93-1.68-3.47-2.95-4.6-1.27-1.13-2.97-1.7-5.1-1.7s-3.83.57-5.1,1.7c-1.27,1.13-2.25,2.68-2.95,4.65-.7,1.97-1.17,4.25-1.4,6.85-.23,2.6-.35,5.4-.35,8.4Z"/>
      <path class="cls-4" d="M586.9,109.8c0,3.73-.63,6.85-1.9,9.35-1.27,2.5-2.98,4.5-5.15,6-2.17,1.5-4.73,2.57-7.7,3.2-2.97.63-6.15.95-9.55.95-2.73,0-5.57-.15-8.5-.45-2.93-.3-5.83-.75-8.7-1.35v-60.1c2.33-.4,4.9-.75,7.7-1.05,2.8-.3,5.57-.45,8.3-.45,4.67,0,8.47.48,11.4,1.45,2.93.97,5.23,2.23,6.9,3.8,1.67,1.57,2.8,3.32,3.4,5.25s.9,3.87.9,5.8c0,2.93-.72,5.53-2.15,7.8-1.43,2.27-3.35,4.07-5.75,5.4,4.2,1.53,7.05,3.6,8.55,6.2,1.5,2.6,2.25,5.33,2.25,8.2ZM562.5,91.2c3.13,0,5.5-.68,7.1-2.05,1.6-1.37,2.4-3.25,2.4-5.65,0-1.47-.23-2.65-.7-3.55-.47-.9-1.1-1.6-1.9-2.1-.8-.5-1.73-.83-2.8-1-1.07-.17-2.17-.25-3.3-.25-.93,0-1.9.04-2.9.1-1,.07-1.9.17-2.7.3v14.2h4.8ZM557.7,101.4v16.8c.87.13,1.82.23,2.85.3,1.03.07,2.05.1,3.05.1,1.4,0,2.77-.12,4.1-.35,1.33-.23,2.52-.67,3.55-1.3,1.03-.63,1.88-1.53,2.55-2.7.67-1.17,1-2.65,1-4.45,0-3-.95-5.15-2.85-6.45-1.9-1.3-4.45-1.95-7.65-1.95h-6.6Z"/>
      <path class="cls-4" d="M611.4,65.9c3.53,0,6.73.4,9.6,1.2,2.87.8,5.33,2.04,7.4,3.7,2.07,1.67,3.65,3.78,4.75,6.35,1.1,2.57,1.65,5.58,1.65,9.05s-.73,6.87-2.2,9.8c-1.47,2.93-3.9,5.17-7.3,6.7,1.13,1.73,2.33,3.65,3.6,5.75,1.27,2.1,2.5,4.3,3.7,6.6,1.2,2.3,2.35,4.6,3.45,6.9,1.1,2.3,2.05,4.48,2.85,6.55h-12.9c-1.53-4-3.32-7.85-5.35-11.55-2.04-3.7-4.22-7.45-6.55-11.25h-6.4v22.8h-12.3v-61c1.2-.27,2.52-.52,3.95-.75,1.43-.23,2.88-.4,4.35-.5,1.47-.1,2.87-.18,4.2-.25,1.33-.07,2.5-.1,3.5-.1ZM622.3,86.1c0-3.27-1-5.67-3-7.2-2-1.53-4.63-2.3-7.9-2.3-.47,0-1.03.02-1.7.05-.67.03-1.33.12-2,.25v18.6h2.7c4.2,0,7.23-.82,9.1-2.45,1.87-1.63,2.8-3.95,2.8-6.95Z"/>
      <path class="cls-4" d="M646.3,128.5v-61.9h37.5v10.2h-25.2v13.9h21.9v10.2h-21.9v17.4h27.4v10.2h-39.7Z"/>
      <path class="cls-4" d="M742.7,97.5c0-10.67,1.97-18.72,5.9-24.15,3.93-5.43,9.4-8.15,16.4-8.15s12.8,2.72,16.6,8.15c3.8,5.43,5.7,13.48,5.7,24.15s-1.93,18.72-5.8,24.15c-3.87,5.43-9.33,8.15-16.4,8.15s-12.82-2.72-16.65-8.15c-3.83-5.43-5.75-13.48-5.75-24.15ZM755.2,97.5c0,3,.12,5.82.35,8.45.23,2.63.7,4.92,1.4,6.85.7,1.93,1.68,3.47,2.95,4.6,1.27,1.13,2.96,1.7,5.1,1.7s3.75-.57,5.05-1.7c1.3-1.13,2.3-2.68,3-4.65.7-1.97,1.17-4.25,1.4-6.85.23-2.6.35-5.4.35-8.4s-.12-5.82-.35-8.45c-.23-2.63-.7-4.92-1.4-6.85-.7-1.93-1.68-3.47-2.95-4.6-1.27-1.13-2.97-1.7-5.1-1.7s-3.83.57-5.1,1.7c-1.27,1.13-2.25,2.68-2.95,4.65-.7,1.97-1.17,4.25-1.4,6.85-.23,2.6-.35,5.4-.35,8.4Z"/>
    </g>
  </g>
  <g id="ROTEDÃO">
    <g id="Group_7" data-name="Group 7">
      <g class="cls-1">
        <g id="Group_6" data-name="Group 6">
          <rect id="Rectangle_124" data-name="Rectangle 124" class="cls-3" x="525.94" y="123.5" width="75" height="150"/>
        </g>
      </g>
    </g>
    <g id="Group_9" data-name="Group 9">
      <g class="cls-15">
        <g id="Group_8" data-name="Group 8">
          <rect id="Rectangle_125" data-name="Rectangle 125" class="cls-6" x="619.69" y="123.5" width="84.37" height="150"/>
        </g>
      </g>
    </g>
    <g id="Group_11" data-name="Group 11">
      <g class="cls-18">
        <g id="Group_10" data-name="Group 10">
          <rect id="Rectangle_126" data-name="Rectangle 126" class="cls-7" x="722.79" y="123.5" width="75.02" height="149.97"/>
        </g>
      </g>
    </g>
    <g id="Group_13" data-name="Group 13">
      <g class="cls-17">
        <g id="Group_12" data-name="Group 12">
          <rect id="Rectangle_127" data-name="Rectangle 127" class="cls-5" x="338.45" y="123.5" width="75" height="150"/>
        </g>
      </g>
    </g>
    <g id="Group_15" data-name="Group 15">
      <g class="cls-16">
        <g id="Group_14" data-name="Group 14">
          <rect id="Rectangle_128" data-name="Rectangle 128" class="cls-11" x="919.68" y="123.51" width="74.99" height="149.99"/>
        </g>
      </g>
    </g>
    <g id="Group_17" data-name="Group 17">
      <g class="cls-22">
        <g id="Group_16" data-name="Group 16">
          <rect id="Rectangle_129" data-name="Rectangle 129" class="cls-12" x="432.2" y="123.5" width="75" height="150"/>
        </g>
      </g>
    </g>
    <g id="Group_19" data-name="Group 19">
      <g class="cls-21">
        <g id="Group_18" data-name="Group 18">
          <rect id="Rectangle_130" data-name="Rectangle 130" class="cls-10" x="816.56" y="123.51" width="84.37" height="149.99"/>
        </g>
      </g>
    </g>
    <g id="Group_21" data-name="Group 21">
      <g class="cls-19">
        <g id="Group_20" data-name="Group 20">
          <rect id="Rectangle_131" data-name="Rectangle 131" class="cls-8" x="871.83" y="123.5" width="29.09" height="24.29"/>
        </g>
      </g>
    </g>
    <g id="Group_23" data-name="Group 23">
      <g class="cls-20">
        <g id="Group_22" data-name="Group 22">
          <rect id="Rectangle_132" data-name="Rectangle 132" class="cls-9" x="235.32" y="123.51" width="84.37" height="149.99"/>
        </g>
      </g>
    </g>
  </g>
</svg>