<?xml version="1.0" encoding="UTF-8"?>
<svg id="Layer_2" data-name="Layer 2" xmlns="http://www.w3.org/2000/svg" xmlns:xlink="http://www.w3.org/1999/xlink" viewBox="0 0 1080 710.31">
  <defs>
    <style>
      .cls-1 {
        fill: url(#linear-gradient-38);
      }

      .cls-1, .cls-2, .cls-3, .cls-4, .cls-5, .cls-6, .cls-7, .cls-8, .cls-9, .cls-10, .cls-11, .cls-12, .cls-13, .cls-14, .cls-15, .cls-16, .cls-17, .cls-18, .cls-19, .cls-20, .cls-21, .cls-22, .cls-23, .cls-24, .cls-25, .cls-26, .cls-27, .cls-28, .cls-29, .cls-30, .cls-31, .cls-32, .cls-33, .cls-34, .cls-35, .cls-36, .cls-37, .cls-38, .cls-39, .cls-40, .cls-41, .cls-42, .cls-43, .cls-44, .cls-45, .cls-46, .cls-47, .cls-48, .cls-49, .cls-50, .cls-51, .cls-52, .cls-53 {
        stroke-width: 0px;
      }

      .cls-2 {
        fill: url(#linear-gradient-12);
      }

      .cls-3 {
        fill: url(#linear-gradient-17);
      }

      .cls-4 {
        fill: url(#linear-gradient-19);
      }

      .cls-5 {
        fill: url(#linear-gradient-33);
      }

      .cls-6 {
        fill: url(#linear-gradient);
      }

      .cls-7 {
        fill: url(#linear-gradient-21);
      }

      .cls-8 {
        fill: url(#linear-gradient-6);
      }

      .cls-9 {
        fill: url(#linear-gradient-42);
      }

      .cls-10 {
        fill: url(#linear-gradient-15);
      }

      .cls-11 {
        fill: url(#linear-gradient-11);
      }

      .cls-12 {
        fill: url(#linear-gradient-5);
      }

      .cls-13 {
        fill: url(#linear-gradient-31);
      }

      .cls-14 {
        fill: url(#linear-gradient-34);
      }

      .cls-15 {
        fill: url(#linear-gradient-41);
      }

      .cls-16 {
        fill: url(#linear-gradient-40);
      }

      .cls-17 {
        fill: url(#linear-gradient-13);
      }

      .cls-18 {
        fill: url(#linear-gradient-23);
      }

      .cls-19 {
        fill: url(#linear-gradient-25);
      }

      .cls-20 {
        fill: url(#linear-gradient-43);
      }

      .cls-21 {
        fill: url(#linear-gradient-16);
      }

      .cls-22 {
        fill: url(#linear-gradient-22);
      }

      .cls-23 {
        fill: url(#linear-gradient-35);
      }

      .cls-24 {
        fill: url(#linear-gradient-50);
      }

      .cls-25 {
        fill: url(#linear-gradient-32);
      }

      .cls-26 {
        fill: url(#linear-gradient-20);
      }

      .cls-27 {
        fill: url(#linear-gradient-14);
      }

      .cls-28 {
        fill: url(#linear-gradient-2);
      }

      .cls-29 {
        fill: url(#linear-gradient-52);
      }

      .cls-30 {
        fill: url(#linear-gradient-45);
      }

      .cls-31 {
        fill: url(#linear-gradient-7);
      }

      .cls-32 {
        fill: url(#linear-gradient-39);
      }

      .cls-33 {
        fill: url(#linear-gradient-3);
      }

      .cls-34 {
        fill: url(#linear-gradient-9);
      }

      .cls-35 {
        fill: url(#linear-gradient-27);
      }

      .cls-36 {
        fill: url(#linear-gradient-36);
      }

      .cls-37 {
        fill: url(#linear-gradient-48);
      }

      .cls-38 {
        fill: url(#linear-gradient-49);
      }

      .cls-39 {
        fill: url(#linear-gradient-8);
      }

      .cls-40 {
        fill: url(#linear-gradient-47);
      }

      .cls-41 {
        fill: url(#linear-gradient-24);
      }

      .cls-42 {
        fill: url(#linear-gradient-26);
      }

      .cls-43 {
        fill: url(#linear-gradient-18);
      }

      .cls-44 {
        fill: url(#linear-gradient-51);
      }

      .cls-45 {
        fill: url(#linear-gradient-30);
      }

      .cls-46 {
        fill: url(#linear-gradient-44);
      }

      .cls-47 {
        fill: url(#linear-gradient-29);
      }

      .cls-48 {
        fill: url(#linear-gradient-46);
      }

      .cls-49 {
        fill: #b2880f;
      }

      .cls-50 {
        fill: url(#linear-gradient-28);
      }

      .cls-51 {
        fill: url(#linear-gradient-10);
      }

      .cls-52 {
        fill: url(#linear-gradient-4);
      }

      .cls-53 {
        fill: url(#linear-gradient-37);
      }
    </style>
    <linearGradient id="linear-gradient" x1="281" y1="310.52" x2="1080" y2="310.52" gradientUnits="userSpaceOnUse">
      <stop offset="0" stop-color="#100911" stop-opacity="0"/>
      <stop offset=".86" stop-color="#7f6209" stop-opacity="0"/>
      <stop offset="1" stop-color="#fdc802" stop-opacity="0"/>
    </linearGradient>
    <linearGradient id="linear-gradient-2" x1="275.49" y1="312.27" x2="1074.49" y2="312.27" gradientUnits="userSpaceOnUse">
      <stop offset="0" stop-color="#140a11" stop-opacity="0"/>
      <stop offset=".82" stop-color="#6f540b" stop-opacity="0"/>
      <stop offset="1" stop-color="#fdc802" stop-opacity=".02"/>
      <stop offset="1" stop-color="#fdc802" stop-opacity=".02"/>
    </linearGradient>
    <linearGradient id="linear-gradient-3" x1="269.98" y1="314.02" x2="1068.98" y2="314.02" gradientUnits="userSpaceOnUse">
      <stop offset="0" stop-color="#180b12" stop-opacity="0"/>
      <stop offset=".69" stop-color="#46310e" stop-opacity="0"/>
      <stop offset=".98" stop-color="#ecba03" stop-opacity=".04"/>
      <stop offset="1" stop-color="#fdc802" stop-opacity=".04"/>
      <stop offset="1" stop-color="#fdc802" stop-opacity=".04"/>
    </linearGradient>
    <linearGradient id="linear-gradient-4" x1="264.47" y1="315.78" x2="1063.47" y2="315.78" gradientUnits="userSpaceOnUse">
      <stop offset="0" stop-color="#1d0c12" stop-opacity="0"/>
      <stop offset=".61" stop-color="#3c260f" stop-opacity="0"/>
      <stop offset=".89" stop-color="#ab8307" stop-opacity=".04"/>
      <stop offset="1" stop-color="#fdc802" stop-opacity=".06"/>
      <stop offset="1" stop-color="#fdc802" stop-opacity=".06"/>
    </linearGradient>
    <linearGradient id="linear-gradient-5" x1="258.96" y1="317.53" x2="1057.96" y2="317.53" gradientUnits="userSpaceOnUse">
      <stop offset="0" stop-color="#210d12" stop-opacity="0"/>
      <stop offset=".56" stop-color="#392110" stop-opacity="0"/>
      <stop offset=".83" stop-color="#8d690a" stop-opacity=".04"/>
      <stop offset="1" stop-color="#fdc802" stop-opacity=".08"/>
      <stop offset="1" stop-color="#fdc802" stop-opacity=".08"/>
    </linearGradient>
    <linearGradient id="linear-gradient-6" x1="253.45" y1="319.28" x2="1052.45" y2="319.28" gradientUnits="userSpaceOnUse">
      <stop offset="0" stop-color="#250e12" stop-opacity="0"/>
      <stop offset=".51" stop-color="#391f10" stop-opacity="0"/>
      <stop offset=".78" stop-color="#7c590b" stop-opacity=".04"/>
      <stop offset=".98" stop-color="#f1bd02" stop-opacity=".09"/>
      <stop offset="1" stop-color="#fdc802" stop-opacity=".1"/>
      <stop offset="1" stop-color="#fdc802" stop-opacity=".1"/>
    </linearGradient>
    <linearGradient id="linear-gradient-7" x1="247.94" y1="321.03" x2="1046.94" y2="321.03" gradientUnits="userSpaceOnUse">
      <stop offset="0" stop-color="#290f13" stop-opacity="0"/>
      <stop offset=".47" stop-color="#3a1d11" stop-opacity="0"/>
      <stop offset=".73" stop-color="#734f0d" stop-opacity=".04"/>
      <stop offset=".94" stop-color="#d5a505" stop-opacity=".1"/>
      <stop offset="1" stop-color="#fdc802" stop-opacity=".12"/>
      <stop offset="1" stop-color="#fdc802" stop-opacity=".12"/>
    </linearGradient>
    <linearGradient id="linear-gradient-8" x1="242.43" y1="322.78" x2="1041.43" y2="322.78" gradientUnits="userSpaceOnUse">
      <stop offset="0" stop-color="#2d1013" stop-opacity="0"/>
      <stop offset=".43" stop-color="#3b1d11" stop-opacity="0"/>
      <stop offset=".69" stop-color="#6d490d" stop-opacity=".04"/>
      <stop offset=".9" stop-color="#c29406" stop-opacity=".1"/>
      <stop offset="1" stop-color="#fdc802" stop-opacity=".14"/>
      <stop offset="1" stop-color="#fdc802" stop-opacity=".14"/>
    </linearGradient>
    <linearGradient id="linear-gradient-9" x1="236.92" y1="324.53" x2="1035.92" y2="324.53" gradientUnits="userSpaceOnUse">
      <stop offset="0" stop-color="#321113" stop-opacity="0"/>
      <stop offset=".4" stop-color="#3f1d11" stop-opacity=".01"/>
      <stop offset=".65" stop-color="#6b440e" stop-opacity=".04"/>
      <stop offset=".87" stop-color="#b58707" stop-opacity=".1"/>
      <stop offset="1" stop-color="#fdc802" stop-opacity=".16"/>
      <stop offset="1" stop-color="#fdc802" stop-opacity=".16"/>
    </linearGradient>
    <linearGradient id="linear-gradient-10" x1="231.41" y1="326.28" x2="1030.41" y2="326.28" gradientUnits="userSpaceOnUse">
      <stop offset="0" stop-color="#361213" stop-opacity="0"/>
      <stop offset=".37" stop-color="#421d11" stop-opacity=".01"/>
      <stop offset=".62" stop-color="#69410e" stop-opacity=".05"/>
      <stop offset=".83" stop-color="#ac7e08" stop-opacity=".11"/>
      <stop offset="1" stop-color="#fdc802" stop-opacity=".18"/>
      <stop offset="1" stop-color="#fdc802" stop-opacity=".18"/>
    </linearGradient>
    <linearGradient id="linear-gradient-11" x1="225.9" y1="328.03" x2="1024.9" y2="328.03" gradientUnits="userSpaceOnUse">
      <stop offset="0" stop-color="#3a1314" stop-opacity="0"/>
      <stop offset=".35" stop-color="#451d12" stop-opacity=".01"/>
      <stop offset=".59" stop-color="#693e0f" stop-opacity=".05"/>
      <stop offset=".8" stop-color="#a6770a" stop-opacity=".11"/>
      <stop offset="1" stop-color="#fbc702" stop-opacity=".2"/>
      <stop offset="1" stop-color="#fdc802" stop-opacity=".2"/>
      <stop offset="1" stop-color="#fdc802" stop-opacity=".2"/>
    </linearGradient>
    <linearGradient id="linear-gradient-12" x1="220.39" y1="329.78" x2="1019.39" y2="329.78" gradientUnits="userSpaceOnUse">
      <stop offset="0" stop-color="#3e1414" stop-opacity="0"/>
      <stop offset=".32" stop-color="#481d13" stop-opacity=".01"/>
      <stop offset=".56" stop-color="#693d0f" stop-opacity=".05"/>
      <stop offset=".78" stop-color="#a2720a" stop-opacity=".11"/>
      <stop offset=".97" stop-color="#f0bc03" stop-opacity=".2"/>
      <stop offset="1" stop-color="#fdc802" stop-opacity=".22"/>
      <stop offset="1" stop-color="#fdc802" stop-opacity=".22"/>
    </linearGradient>
    <linearGradient id="linear-gradient-13" x1="214.88" y1="331.53" x2="1013.88" y2="331.53" gradientUnits="userSpaceOnUse">
      <stop offset="0" stop-color="#421514" stop-opacity="0"/>
      <stop offset=".3" stop-color="#4b1e13" stop-opacity=".01"/>
      <stop offset=".54" stop-color="#6a3c10" stop-opacity=".05"/>
      <stop offset=".75" stop-color="#9f6e0b" stop-opacity=".12"/>
      <stop offset=".95" stop-color="#e8b403" stop-opacity=".21"/>
      <stop offset="1" stop-color="#fdc802" stop-opacity=".24"/>
      <stop offset="1" stop-color="#fdc802" stop-opacity=".24"/>
    </linearGradient>
    <linearGradient id="linear-gradient-14" x1="209.37" y1="333.28" x2="1008.37" y2="333.28" gradientUnits="userSpaceOnUse">
      <stop offset="0" stop-color="#471714" stop-opacity="0"/>
      <stop offset=".28" stop-color="#502013" stop-opacity=".01"/>
      <stop offset=".51" stop-color="#6d3c10" stop-opacity=".05"/>
      <stop offset=".73" stop-color="#9d6b0b" stop-opacity=".12"/>
      <stop offset=".93" stop-color="#e1ad04" stop-opacity=".22"/>
      <stop offset="1" stop-color="#fdc802" stop-opacity=".25"/>
      <stop offset="1" stop-color="#fdc802" stop-opacity=".25"/>
    </linearGradient>
    <linearGradient id="linear-gradient-15" x1="203.86" y1="335.03" x2="1002.86" y2="335.03" gradientUnits="userSpaceOnUse">
      <stop offset="0" stop-color="#4b1815" stop-opacity="0"/>
      <stop offset=".26" stop-color="#532014" stop-opacity=".01"/>
      <stop offset=".49" stop-color="#6f3b11" stop-opacity=".06"/>
      <stop offset=".71" stop-color="#9c690c" stop-opacity=".13"/>
      <stop offset=".92" stop-color="#dca805" stop-opacity=".23"/>
      <stop offset="1" stop-color="#fdc802" stop-opacity=".27"/>
      <stop offset="1" stop-color="#fdc802" stop-opacity=".27"/>
    </linearGradient>
    <linearGradient id="linear-gradient-16" x1="198.35" y1="336.78" x2="997.35" y2="336.78" gradientUnits="userSpaceOnUse">
      <stop offset="0" stop-color="#4f1915" stop-opacity="0"/>
      <stop offset=".25" stop-color="#572114" stop-opacity=".01"/>
      <stop offset=".47" stop-color="#713b11" stop-opacity=".06"/>
      <stop offset=".69" stop-color="#9c670c" stop-opacity=".13"/>
      <stop offset=".9" stop-color="#d9a405" stop-opacity=".23"/>
      <stop offset="1" stop-color="#fdc802" stop-opacity=".29"/>
      <stop offset="1" stop-color="#fdc802" stop-opacity=".29"/>
    </linearGradient>
    <linearGradient id="linear-gradient-17" x1="192.84" y1="338.53" x2="991.84" y2="338.53" gradientUnits="userSpaceOnUse">
      <stop offset="0" stop-color="#531a15" stop-opacity="0"/>
      <stop offset=".23" stop-color="#5b2214" stop-opacity=".02"/>
      <stop offset=".45" stop-color="#733b11" stop-opacity=".06"/>
      <stop offset=".67" stop-color="#9d660c" stop-opacity=".14"/>
      <stop offset=".89" stop-color="#d7a106" stop-opacity=".24"/>
      <stop offset="1" stop-color="#fdc802" stop-opacity=".31"/>
      <stop offset="1" stop-color="#fdc802" stop-opacity=".31"/>
    </linearGradient>
    <linearGradient id="linear-gradient-18" x1="187.33" y1="340.28" x2="986.33" y2="340.28" gradientUnits="userSpaceOnUse">
      <stop offset="0" stop-color="#571b15" stop-opacity="0"/>
      <stop offset=".22" stop-color="#5e2314" stop-opacity=".02"/>
      <stop offset=".44" stop-color="#763c11" stop-opacity=".06"/>
      <stop offset=".65" stop-color="#9e650c" stop-opacity=".14"/>
      <stop offset=".87" stop-color="#d59f06" stop-opacity=".25"/>
      <stop offset="1" stop-color="#fdc802" stop-opacity=".33"/>
      <stop offset="1" stop-color="#fdc802" stop-opacity=".33"/>
    </linearGradient>
    <linearGradient id="linear-gradient-19" x1="181.82" y1="342.03" x2="980.83" y2="342.03" gradientUnits="userSpaceOnUse">
      <stop offset="0" stop-color="#5c1c16" stop-opacity="0"/>
      <stop offset=".2" stop-color="#632415" stop-opacity=".02"/>
      <stop offset=".42" stop-color="#7a3c12" stop-opacity=".07"/>
      <stop offset=".64" stop-color="#a0650d" stop-opacity=".15"/>
      <stop offset=".86" stop-color="#d59d06" stop-opacity=".27"/>
      <stop offset="1" stop-color="#fdc802" stop-opacity=".35"/>
      <stop offset="1" stop-color="#fdc802" stop-opacity=".35"/>
    </linearGradient>
    <linearGradient id="linear-gradient-20" x1="176.31" y1="343.78" x2="975.32" y2="343.78" gradientUnits="userSpaceOnUse">
      <stop offset="0" stop-color="#601d16" stop-opacity="0"/>
      <stop offset=".19" stop-color="#672515" stop-opacity=".02"/>
      <stop offset=".4" stop-color="#7d3d12" stop-opacity=".07"/>
      <stop offset=".63" stop-color="#a2650d" stop-opacity=".16"/>
      <stop offset=".85" stop-color="#d59d07" stop-opacity=".28"/>
      <stop offset="1" stop-color="#fdc802" stop-opacity=".37"/>
      <stop offset="1" stop-color="#fdc802" stop-opacity=".37"/>
    </linearGradient>
    <linearGradient id="linear-gradient-21" x1="170.8" y1="345.53" x2="969.81" y2="345.53" gradientUnits="userSpaceOnUse">
      <stop offset="0" stop-color="#641e16" stop-opacity="0"/>
      <stop offset=".18" stop-color="#6b2615" stop-opacity=".02"/>
      <stop offset=".39" stop-color="#813e12" stop-opacity=".07"/>
      <stop offset=".62" stop-color="#a4660d" stop-opacity=".17"/>
      <stop offset=".85" stop-color="#d69d07" stop-opacity=".29"/>
      <stop offset="1" stop-color="#fdc802" stop-opacity=".39"/>
      <stop offset="1" stop-color="#fdc802" stop-opacity=".39"/>
    </linearGradient>
    <linearGradient id="linear-gradient-22" x1="165.29" y1="347.28" x2="964.3" y2="347.28" gradientUnits="userSpaceOnUse">
      <stop offset="0" stop-color="#681f16" stop-opacity="0"/>
      <stop offset=".17" stop-color="#6f2715" stop-opacity=".02"/>
      <stop offset=".38" stop-color="#843f12" stop-opacity=".08"/>
      <stop offset=".61" stop-color="#a7660d" stop-opacity=".18"/>
      <stop offset=".85" stop-color="#d79d06" stop-opacity=".31"/>
      <stop offset="1" stop-color="#fdc802" stop-opacity=".41"/>
      <stop offset="1" stop-color="#fdc802" stop-opacity=".41"/>
    </linearGradient>
    <linearGradient id="linear-gradient-23" x1="159.78" y1="349.03" x2="958.79" y2="349.03" gradientUnits="userSpaceOnUse">
      <stop offset="0" stop-color="#6c2017" stop-opacity="0"/>
      <stop offset=".16" stop-color="#732815" stop-opacity=".02"/>
      <stop offset=".37" stop-color="#884012" stop-opacity=".08"/>
      <stop offset=".6" stop-color="#aa680d" stop-opacity=".19"/>
      <stop offset=".85" stop-color="#d99f07" stop-opacity=".33"/>
      <stop offset="1" stop-color="#fdc802" stop-opacity=".43"/>
      <stop offset="1" stop-color="#fdc802" stop-opacity=".43"/>
    </linearGradient>
    <linearGradient id="linear-gradient-24" x1="154.27" y1="350.78" x2="953.28" y2="350.78" gradientUnits="userSpaceOnUse">
      <stop offset="0" stop-color="#712117" stop-opacity="0"/>
      <stop offset=".16" stop-color="#782915" stop-opacity=".02"/>
      <stop offset=".36" stop-color="#8c4112" stop-opacity=".09"/>
      <stop offset=".6" stop-color="#ae6a0d" stop-opacity=".2"/>
      <stop offset=".85" stop-color="#dca106" stop-opacity=".35"/>
      <stop offset="1" stop-color="#fdc802" stop-opacity=".45"/>
      <stop offset="1" stop-color="#fdc802" stop-opacity=".45"/>
    </linearGradient>
    <linearGradient id="linear-gradient-25" x1="148.76" y1="352.53" x2="947.77" y2="352.53" gradientUnits="userSpaceOnUse">
      <stop offset="0" stop-color="#752217" stop-opacity="0"/>
      <stop offset=".15" stop-color="#7c2a15" stop-opacity=".02"/>
      <stop offset=".36" stop-color="#904312" stop-opacity=".1"/>
      <stop offset=".59" stop-color="#b16c0d" stop-opacity=".21"/>
      <stop offset=".86" stop-color="#dfa406" stop-opacity=".37"/>
      <stop offset="1" stop-color="#fdc802" stop-opacity=".47"/>
      <stop offset="1" stop-color="#fdc802" stop-opacity=".47"/>
    </linearGradient>
    <linearGradient id="linear-gradient-26" x1="143.25" y1="354.28" x2="942.26" y2="354.28" gradientUnits="userSpaceOnUse">
      <stop offset="0" stop-color="#792317" stop-opacity="0"/>
      <stop offset=".14" stop-color="#802c15" stop-opacity=".03"/>
      <stop offset=".35" stop-color="#944512" stop-opacity=".1"/>
      <stop offset=".6" stop-color="#b56f0d" stop-opacity=".23"/>
      <stop offset=".87" stop-color="#e3a806" stop-opacity=".4"/>
      <stop offset="1" stop-color="#fdc802" stop-opacity=".49"/>
      <stop offset="1" stop-color="#fdc802" stop-opacity=".49"/>
    </linearGradient>
    <linearGradient id="linear-gradient-27" x1="137.74" y1="356.03" x2="936.75" y2="356.03" gradientUnits="userSpaceOnUse">
      <stop offset="0" stop-color="#7d2418" stop-opacity="0"/>
      <stop offset=".14" stop-color="#842d16" stop-opacity=".03"/>
      <stop offset=".35" stop-color="#984713" stop-opacity=".11"/>
      <stop offset=".6" stop-color="#ba720d" stop-opacity=".24"/>
      <stop offset=".88" stop-color="#e8ad05" stop-opacity=".43"/>
      <stop offset="1" stop-color="#fdc802" stop-opacity=".51"/>
      <stop offset="1" stop-color="#fdc802" stop-opacity=".51"/>
    </linearGradient>
    <linearGradient id="linear-gradient-28" x1="132.23" y1="357.78" x2="931.24" y2="357.78" gradientUnits="userSpaceOnUse">
      <stop offset="0" stop-color="#812518" stop-opacity="0"/>
      <stop offset=".14" stop-color="#882e16" stop-opacity=".03"/>
      <stop offset=".35" stop-color="#9d4a12" stop-opacity=".12"/>
      <stop offset=".61" stop-color="#bf760c" stop-opacity=".26"/>
      <stop offset=".91" stop-color="#edb304" stop-opacity=".46"/>
      <stop offset="1" stop-color="#fdc802" stop-opacity=".53"/>
      <stop offset="1" stop-color="#fdc802" stop-opacity=".53"/>
    </linearGradient>
    <linearGradient id="linear-gradient-29" x1="126.72" y1="359.53" x2="925.73" y2="359.53" gradientUnits="userSpaceOnUse">
      <stop offset="0" stop-color="#852618" stop-opacity="0"/>
      <stop offset=".13" stop-color="#8c3016" stop-opacity=".04"/>
      <stop offset=".35" stop-color="#a14d12" stop-opacity=".13"/>
      <stop offset=".62" stop-color="#c47b0c" stop-opacity=".29"/>
      <stop offset=".94" stop-color="#f3bb03" stop-opacity=".51"/>
      <stop offset="1" stop-color="#fdc802" stop-opacity=".55"/>
      <stop offset="1" stop-color="#fdc802" stop-opacity=".55"/>
    </linearGradient>
    <linearGradient id="linear-gradient-30" x1="121.21" y1="361.28" x2="920.22" y2="361.28" gradientUnits="userSpaceOnUse">
      <stop offset="0" stop-color="#8a2718" stop-opacity="0"/>
      <stop offset=".13" stop-color="#923216" stop-opacity=".04"/>
      <stop offset=".36" stop-color="#a75012" stop-opacity=".15"/>
      <stop offset=".65" stop-color="#ca810b" stop-opacity=".32"/>
      <stop offset=".99" stop-color="#fac502" stop-opacity=".56"/>
      <stop offset="1" stop-color="#fdc802" stop-opacity=".57"/>
      <stop offset="1" stop-color="#fdc802" stop-opacity=".57"/>
    </linearGradient>
    <linearGradient id="linear-gradient-31" x1="115.7" y1="363.03" x2="914.71" y2="363.03" gradientUnits="userSpaceOnUse">
      <stop offset="0" stop-color="#8e2819" stop-opacity="0"/>
      <stop offset=".13" stop-color="#963417" stop-opacity=".04"/>
      <stop offset=".37" stop-color="#ac5412" stop-opacity=".16"/>
      <stop offset=".68" stop-color="#d1890b" stop-opacity=".36"/>
      <stop offset="1" stop-color="#fdc802" stop-opacity=".59"/>
      <stop offset="1" stop-color="#fdc802" stop-opacity=".59"/>
    </linearGradient>
    <linearGradient id="linear-gradient-32" x1="110.19" y1="364.78" x2="909.2" y2="364.78" gradientUnits="userSpaceOnUse">
      <stop offset="0" stop-color="#922919" stop-opacity="0"/>
      <stop offset=".13" stop-color="#9a3617" stop-opacity=".05"/>
      <stop offset=".38" stop-color="#b25911" stop-opacity=".19"/>
      <stop offset=".72" stop-color="#d89209" stop-opacity=".4"/>
      <stop offset="1" stop-color="#fdc802" stop-opacity=".61"/>
      <stop offset="1" stop-color="#fdc802" stop-opacity=".61"/>
    </linearGradient>
    <linearGradient id="linear-gradient-33" x1="104.68" y1="366.53" x2="903.69" y2="366.53" gradientUnits="userSpaceOnUse">
      <stop offset="0" stop-color="#962a19" stop-opacity="0"/>
      <stop offset=".14" stop-color="#9f3816" stop-opacity=".06"/>
      <stop offset=".41" stop-color="#b96011" stop-opacity=".22"/>
      <stop offset=".78" stop-color="#e29f07" stop-opacity=".47"/>
      <stop offset="1" stop-color="#fdc802" stop-opacity=".63"/>
      <stop offset="1" stop-color="#fdc802" stop-opacity=".63"/>
    </linearGradient>
    <linearGradient id="linear-gradient-34" x1="99.17" y1="368.28" x2="898.18" y2="368.28" gradientUnits="userSpaceOnUse">
      <stop offset="0" stop-color="#9a2b19" stop-opacity="0"/>
      <stop offset=".15" stop-color="#a43c16" stop-opacity=".07"/>
      <stop offset=".45" stop-color="#c1690f" stop-opacity=".26"/>
      <stop offset=".87" stop-color="#eeb005" stop-opacity=".55"/>
      <stop offset="1" stop-color="#fdc802" stop-opacity=".65"/>
      <stop offset="1" stop-color="#fdc802" stop-opacity=".65"/>
    </linearGradient>
    <linearGradient id="linear-gradient-35" x1="93.67" y1="370.03" x2="892.67" y2="370.03" gradientUnits="userSpaceOnUse">
      <stop offset="0" stop-color="#9f2c1a" stop-opacity="0"/>
      <stop offset=".17" stop-color="#ab4016" stop-opacity=".09"/>
      <stop offset=".52" stop-color="#cb750e" stop-opacity=".32"/>
      <stop offset="1" stop-color="#fdc802" stop-opacity=".67"/>
      <stop offset="1" stop-color="#fdc802" stop-opacity=".67"/>
    </linearGradient>
    <linearGradient id="linear-gradient-36" x1="88.16" y1="371.78" x2="887.16" y2="371.78" gradientUnits="userSpaceOnUse">
      <stop offset="0" stop-color="#a32d1a" stop-opacity="0"/>
      <stop offset=".2" stop-color="#b24715" stop-opacity=".12"/>
      <stop offset=".62" stop-color="#d8890b" stop-opacity=".41"/>
      <stop offset="1" stop-color="#fdc802" stop-opacity=".69"/>
      <stop offset="1" stop-color="#fdc802" stop-opacity=".69"/>
    </linearGradient>
    <linearGradient id="linear-gradient-37" x1="82.65" y1="373.53" x2="881.65" y2="373.53" gradientUnits="userSpaceOnUse">
      <stop offset="0" stop-color="#a72e1a" stop-opacity="0"/>
      <stop offset=".26" stop-color="#bb5214" stop-opacity=".17"/>
      <stop offset=".84" stop-color="#eead06" stop-opacity=".58"/>
      <stop offset="1" stop-color="#fdc802" stop-opacity=".71"/>
      <stop offset="1" stop-color="#fdc802" stop-opacity=".71"/>
    </linearGradient>
    <linearGradient id="linear-gradient-38" x1="77.14" y1="375.28" x2="876.14" y2="375.28" gradientUnits="userSpaceOnUse">
      <stop offset="0" stop-color="#ab2f1a" stop-opacity="0"/>
      <stop offset=".42" stop-color="#cc6d10" stop-opacity=".29"/>
      <stop offset="1" stop-color="#fdc802" stop-opacity=".73"/>
      <stop offset="1" stop-color="#fdc802" stop-opacity=".73"/>
    </linearGradient>
    <linearGradient id="linear-gradient-39" x1="71.63" y1="377.03" x2="870.63" y2="377.03" gradientUnits="userSpaceOnUse">
      <stop offset="0" stop-color="#af301b" stop-opacity="0"/>
      <stop offset="1" stop-color="#fdc802" stop-opacity=".75"/>
      <stop offset="1" stop-color="#fdc802" stop-opacity=".75"/>
    </linearGradient>
    <linearGradient id="linear-gradient-40" x1="66.12" y1="378.78" x2="865.12" y2="378.78" gradientUnits="userSpaceOnUse">
      <stop offset="0" stop-color="#b4321b" stop-opacity="0"/>
      <stop offset=".27" stop-color="#c85b14" stop-opacity=".21"/>
      <stop offset="1" stop-color="#fdc802" stop-opacity=".76"/>
      <stop offset="1" stop-color="#fdc802" stop-opacity=".76"/>
    </linearGradient>
    <linearGradient id="linear-gradient-41" x1="60.61" y1="380.53" x2="859.61" y2="380.53" gradientUnits="userSpaceOnUse">
      <stop offset="0" stop-color="#b8331b" stop-opacity="0"/>
      <stop offset=".69" stop-color="#e89c09" stop-opacity=".56"/>
      <stop offset="1" stop-color="#fdc802" stop-opacity=".78"/>
      <stop offset="1" stop-color="#fdc802" stop-opacity=".78"/>
    </linearGradient>
    <linearGradient id="linear-gradient-42" x1="55.1" y1="382.28" x2="854.1" y2="382.28" gradientUnits="userSpaceOnUse">
      <stop offset="0" stop-color="#bc341b" stop-opacity="0"/>
      <stop offset=".36" stop-color="#d46b11" stop-opacity=".3"/>
      <stop offset=".8" stop-color="#f1ad06" stop-opacity=".66"/>
      <stop offset="1" stop-color="#fdc802" stop-opacity=".8"/>
      <stop offset="1" stop-color="#fdc802" stop-opacity=".8"/>
    </linearGradient>
    <linearGradient id="linear-gradient-43" x1="49.59" y1="384.03" x2="848.59" y2="384.03" gradientUnits="userSpaceOnUse">
      <stop offset="0" stop-color="#c0351c" stop-opacity="0"/>
      <stop offset=".04" stop-color="#c23b1a" stop-opacity=".03"/>
      <stop offset=".52" stop-color="#e1860d" stop-opacity=".45"/>
      <stop offset=".85" stop-color="#f5b505" stop-opacity=".72"/>
      <stop offset="1" stop-color="#fdc802" stop-opacity=".82"/>
      <stop offset="1" stop-color="#fdc802" stop-opacity=".82"/>
    </linearGradient>
    <linearGradient id="linear-gradient-44" x1="44.08" y1="385.78" x2="843.08" y2="385.78" gradientUnits="userSpaceOnUse">
      <stop offset="0" stop-color="#c4361c" stop-opacity="0"/>
      <stop offset=".23" stop-color="#d25c15" stop-opacity=".22"/>
      <stop offset=".61" stop-color="#e9950a" stop-opacity=".55"/>
      <stop offset=".87" stop-color="#f7b904" stop-opacity=".76"/>
      <stop offset="1" stop-color="#fdc802" stop-opacity=".84"/>
      <stop offset="1" stop-color="#fdc802" stop-opacity=".84"/>
    </linearGradient>
    <linearGradient id="linear-gradient-45" x1="38.57" y1="387.53" x2="837.57" y2="387.53" gradientUnits="userSpaceOnUse">
      <stop offset="0" stop-color="#c9371c" stop-opacity="0"/>
      <stop offset=".35" stop-color="#dd7011" stop-opacity=".34"/>
      <stop offset=".66" stop-color="#ee9f09" stop-opacity=".62"/>
      <stop offset=".89" stop-color="#f9bc03" stop-opacity=".8"/>
      <stop offset="1" stop-color="#fdc802" stop-opacity=".86"/>
      <stop offset="1" stop-color="#fdc802" stop-opacity=".86"/>
    </linearGradient>
    <linearGradient id="linear-gradient-46" x1="33.06" y1="389.29" x2="832.06" y2="389.29" gradientUnits="userSpaceOnUse">
      <stop offset="0" stop-color="#cd381c" stop-opacity="0"/>
      <stop offset=".11" stop-color="#d34a18" stop-opacity=".11"/>
      <stop offset=".43" stop-color="#e47f0f" stop-opacity=".44"/>
      <stop offset=".7" stop-color="#f1a608" stop-opacity=".68"/>
      <stop offset=".9" stop-color="#f9be03" stop-opacity=".83"/>
      <stop offset="1" stop-color="#fdc802" stop-opacity=".88"/>
      <stop offset="1" stop-color="#fdc802" stop-opacity=".88"/>
    </linearGradient>
    <linearGradient id="linear-gradient-47" x1="27.55" y1="391.04" x2="826.55" y2="391.04" gradientUnits="userSpaceOnUse">
      <stop offset="0" stop-color="#d1391d" stop-opacity="0"/>
      <stop offset=".21" stop-color="#dc5d16" stop-opacity=".23"/>
      <stop offset=".49" stop-color="#ea8a0d" stop-opacity=".52"/>
      <stop offset=".73" stop-color="#f4ab07" stop-opacity=".72"/>
      <stop offset=".9" stop-color="#fac003" stop-opacity=".85"/>
      <stop offset="1" stop-color="#fdc802" stop-opacity=".9"/>
      <stop offset="1" stop-color="#fdc802" stop-opacity=".9"/>
    </linearGradient>
    <linearGradient id="linear-gradient-48" x1="22.04" y1="392.79" x2="821.04" y2="392.79" gradientUnits="userSpaceOnUse">
      <stop offset="0" stop-color="#d53a1d" stop-opacity="0"/>
      <stop offset=".28" stop-color="#e26b13" stop-opacity=".32"/>
      <stop offset=".54" stop-color="#ee930c" stop-opacity=".58"/>
      <stop offset=".75" stop-color="#f6af06" stop-opacity=".76"/>
      <stop offset=".91" stop-color="#fbc103" stop-opacity=".88"/>
      <stop offset="1" stop-color="#fdc802" stop-opacity=".92"/>
      <stop offset="1" stop-color="#fdc802" stop-opacity=".92"/>
    </linearGradient>
    <linearGradient id="linear-gradient-49" x1="16.53" y1="394.54" x2="815.53" y2="394.54" gradientUnits="userSpaceOnUse">
      <stop offset="0" stop-color="#d93b1d" stop-opacity="0"/>
      <stop offset=".09" stop-color="#dd4b19" stop-opacity=".11"/>
      <stop offset=".34" stop-color="#e87711" stop-opacity=".4"/>
      <stop offset=".57" stop-color="#f1990a" stop-opacity=".63"/>
      <stop offset=".76" stop-color="#f7b206" stop-opacity=".8"/>
      <stop offset=".91" stop-color="#fbc203" stop-opacity=".9"/>
      <stop offset="1" stop-color="#fdc802" stop-opacity=".94"/>
      <stop offset="1" stop-color="#fdc802" stop-opacity=".94"/>
    </linearGradient>
    <linearGradient id="linear-gradient-50" x1="11.02" y1="396.29" x2="810.02" y2="396.29" gradientUnits="userSpaceOnUse">
      <stop offset="0" stop-color="#de3c1d" stop-opacity="0"/>
      <stop offset=".16" stop-color="#e45917" stop-opacity=".2"/>
      <stop offset=".39" stop-color="#ed800f" stop-opacity=".47"/>
      <stop offset=".59" stop-color="#f39f09" stop-opacity=".68"/>
      <stop offset=".77" stop-color="#f8b505" stop-opacity=".83"/>
      <stop offset=".91" stop-color="#fbc302" stop-opacity=".93"/>
      <stop offset="1" stop-color="#fdc802" stop-opacity=".96"/>
      <stop offset="1" stop-color="#fdc802" stop-opacity=".96"/>
    </linearGradient>
    <linearGradient id="linear-gradient-51" x1="5.51" y1="398.04" x2="804.51" y2="398.04" gradientUnits="userSpaceOnUse">
      <stop offset="0" stop-color="#e23d1e" stop-opacity="0"/>
      <stop offset=".21" stop-color="#e96416" stop-opacity=".28"/>
      <stop offset=".42" stop-color="#f0870e" stop-opacity=".53"/>
      <stop offset=".61" stop-color="#f5a309" stop-opacity=".72"/>
      <stop offset=".78" stop-color="#f9b705" stop-opacity=".86"/>
      <stop offset=".91" stop-color="#fcc302" stop-opacity=".95"/>
      <stop offset="1" stop-color="#fdc802" stop-opacity=".98"/>
      <stop offset="1" stop-color="#fdc802" stop-opacity=".98"/>
    </linearGradient>
    <linearGradient id="linear-gradient-52" x1="0" y1="399.79" x2="799" y2="399.79" gradientUnits="userSpaceOnUse">
      <stop offset="0" stop-color="#e63e1e" stop-opacity="0"/>
      <stop offset=".05" stop-color="#e7481b" stop-opacity=".07"/>
      <stop offset=".26" stop-color="#ee6e14" stop-opacity=".35"/>
      <stop offset=".45" stop-color="#f38e0d" stop-opacity=".58"/>
      <stop offset=".63" stop-color="#f7a708" stop-opacity=".76"/>
      <stop offset=".78" stop-color="#fab905" stop-opacity=".89"/>
      <stop offset=".91" stop-color="#fcc402" stop-opacity=".97"/>
      <stop offset="1" stop-color="#fdc802"/>
    </linearGradient>
  </defs>
  <g id="Layer_1-2" data-name="Layer 1">
    <g>
      <g>
        <path class="cls-49" d="M1080,9.16v395.7c0,5.06-4.1,9.16-9.16,9.16h-307.81c-2.83,0-5.5,1.31-7.24,3.54l-155.23,199.93c-1.74,2.24-4.41,3.54-7.24,3.54h-303.15c-5.06,0-9.16-4.1-9.16-9.16V195.37c0-5.06,4.1-9.16,9.16-9.16h271.23c2.83,0,5.5-1.3,7.23-3.54L708.06,3.54C709.8,1.3,712.47,0,715.29,0h355.54c5.06,0,9.16,4.1,9.16,9.16Z"/>
        <path class="cls-49" d="M1065.21,13.86v395.7c0,5.06-4.1,9.16-9.16,9.16h-307.81c-2.83,0-5.5,1.31-7.24,3.54l-155.23,199.93c-1.74,2.24-4.41,3.54-7.24,3.54h-303.15c-5.06,0-9.16-4.1-9.16-9.16V200.07c0-5.06,4.1-9.16,9.16-9.16h271.23c2.83,0,5.5-1.3,7.23-3.54L693.27,8.23c1.74-2.23,4.4-3.54,7.23-3.54h355.54c5.06,0,9.16,4.1,9.16,9.16Z"/>
        <path class="cls-49" d="M1050.42,18.56v395.7c0,5.06-4.1,9.16-9.16,9.16h-307.81c-2.83,0-5.5,1.31-7.24,3.54l-155.23,199.93c-1.74,2.24-4.41,3.54-7.24,3.54h-303.15c-5.06,0-9.16-4.1-9.16-9.16V204.77c0-5.06,4.1-9.16,9.16-9.16h271.23c2.83,0,5.5-1.3,7.23-3.54L678.48,12.93c1.74-2.23,4.4-3.54,7.23-3.54h355.54c5.06,0,9.16,4.1,9.16,9.16Z"/>
        <path class="cls-49" d="M1035.63,23.26v395.7c0,5.06-4.1,9.16-9.16,9.16h-307.81c-2.83,0-5.5,1.31-7.24,3.54l-155.23,199.93c-1.74,2.24-4.41,3.54-7.24,3.54H245.79c-5.06,0-9.16-4.1-9.16-9.16V209.47c0-5.06,4.1-9.16,9.16-9.16h271.23c2.83,0,5.5-1.3,7.23-3.54L663.69,17.63c1.74-2.23,4.4-3.54,7.23-3.54h355.54c5.06,0,9.16,4.1,9.16,9.16Z"/>
        <path class="cls-49" d="M1020.84,27.96v395.7c0,5.06-4.1,9.16-9.16,9.16h-307.81c-2.83,0-5.5,1.31-7.24,3.54l-155.23,199.93c-1.74,2.24-4.41,3.54-7.24,3.54H231c-5.06,0-9.16-4.1-9.16-9.16V214.16c0-5.06,4.1-9.16,9.16-9.16h271.23c2.83,0,5.5-1.3,7.23-3.54L648.9,22.33c1.74-2.23,4.4-3.54,7.23-3.54h355.54c5.06,0,9.16,4.1,9.16,9.16Z"/>
        <path class="cls-49" d="M1006.05,32.65v395.7c0,5.06-4.1,9.16-9.16,9.16h-307.81c-2.83,0-5.5,1.31-7.24,3.54l-155.23,199.93c-1.74,2.24-4.41,3.54-7.24,3.54H216.21c-5.06,0-9.16-4.1-9.16-9.16V218.86c0-5.06,4.1-9.16,9.16-9.16h271.23c2.83,0,5.5-1.3,7.23-3.54L634.12,27.03c1.74-2.23,4.4-3.54,7.23-3.54h355.54c5.06,0,9.16,4.1,9.16,9.16Z"/>
        <path class="cls-49" d="M991.26,37.35v395.7c0,5.06-4.1,9.16-9.16,9.16h-307.81c-2.83,0-5.5,1.31-7.24,3.54l-155.23,199.93c-1.74,2.24-4.41,3.54-7.24,3.54H201.42c-5.06,0-9.16-4.1-9.16-9.16V223.56c0-5.06,4.1-9.16,9.16-9.16h271.23c2.83,0,5.5-1.3,7.23-3.54L619.33,31.72c1.74-2.23,4.4-3.54,7.23-3.54h355.54c5.06,0,9.16,4.1,9.16,9.16Z"/>
        <path class="cls-49" d="M976.48,42.05v395.7c0,5.06-4.1,9.16-9.16,9.16h-307.81c-2.83,0-5.5,1.31-7.24,3.54l-155.23,199.93c-1.74,2.24-4.41,3.54-7.24,3.54H186.64c-5.06,0-9.16-4.1-9.16-9.16V228.26c0-5.06,4.1-9.16,9.16-9.16h271.23c2.83,0,5.5-1.3,7.23-3.54l139.44-179.14c1.74-2.23,4.4-3.54,7.23-3.54h355.54c5.06,0,9.16,4.1,9.16,9.16Z"/>
        <path class="cls-49" d="M961.69,46.75v395.7c0,5.06-4.1,9.16-9.16,9.16h-307.81c-2.83,0-5.5,1.31-7.24,3.54l-155.23,199.93c-1.74,2.24-4.41,3.54-7.24,3.54H171.85c-5.06,0-9.16-4.1-9.16-9.16V232.96c0-5.06,4.1-9.16,9.16-9.16h271.23c2.83,0,5.5-1.3,7.23-3.54l139.44-179.14c1.74-2.23,4.4-3.54,7.23-3.54h355.54c5.06,0,9.16,4.1,9.16,9.16Z"/>
        <path class="cls-49" d="M946.9,51.45v395.7c0,5.06-4.1,9.16-9.16,9.16h-307.81c-2.83,0-5.5,1.31-7.24,3.54l-155.23,199.93c-1.74,2.24-4.41,3.54-7.24,3.54H157.06c-5.06,0-9.16-4.1-9.16-9.16V237.65c0-5.06,4.1-9.16,9.16-9.16h271.23c2.83,0,5.5-1.3,7.23-3.54l139.44-179.14c1.74-2.23,4.4-3.54,7.23-3.54h355.54c5.06,0,9.16,4.1,9.16,9.16Z"/>
        <path class="cls-49" d="M932.11,56.14v395.7c0,5.06-4.1,9.16-9.16,9.16h-307.81c-2.83,0-5.5,1.31-7.24,3.54l-155.23,199.93c-1.74,2.24-4.41,3.54-7.24,3.54H142.27c-5.06,0-9.16-4.1-9.16-9.16V242.35c0-5.06,4.1-9.16,9.16-9.16h271.23c2.83,0,5.5-1.3,7.23-3.54l139.44-179.14c1.74-2.23,4.4-3.54,7.23-3.54h355.54c5.06,0,9.16,4.1,9.16,9.16Z"/>
        <path class="cls-49" d="M917.32,60.84v395.7c0,5.06-4.1,9.16-9.16,9.16h-307.81c-2.83,0-5.5,1.31-7.24,3.54l-155.23,199.93c-1.74,2.24-4.41,3.54-7.24,3.54H127.48c-5.06,0-9.16-4.1-9.16-9.16V247.05c0-5.06,4.1-9.16,9.16-9.16h271.23c2.83,0,5.5-1.3,7.23-3.54l139.44-179.14c1.74-2.23,4.4-3.54,7.23-3.54h355.54c5.06,0,9.16,4.1,9.16,9.16Z"/>
        <path class="cls-49" d="M902.53,65.54v395.7c0,5.06-4.1,9.16-9.16,9.16h-307.81c-2.83,0-5.5,1.31-7.24,3.54l-155.23,199.93c-1.74,2.24-4.41,3.54-7.24,3.54H112.69c-5.06,0-9.16-4.1-9.16-9.16V251.75c0-5.06,4.1-9.16,9.16-9.16h271.23c2.83,0,5.5-1.3,7.23-3.54l139.44-179.14c1.74-2.23,4.4-3.54,7.23-3.54h355.54c5.06,0,9.16,4.1,9.16,9.16Z"/>
        <path class="cls-49" d="M887.74,70.24v395.7c0,5.06-4.1,9.16-9.16,9.16h-307.81c-2.83,0-5.5,1.31-7.24,3.54l-155.23,199.93c-1.74,2.24-4.41,3.54-7.24,3.54H97.9c-5.06,0-9.16-4.1-9.16-9.16v-416.51c0-5.06,4.1-9.16,9.16-9.16h271.23c2.83,0,5.5-1.3,7.23-3.54l139.44-179.14c1.74-2.23,4.4-3.54,7.23-3.54h355.54c5.06,0,9.16,4.1,9.16,9.16Z"/>
        <path class="cls-49" d="M872.95,74.94v395.7c0,5.06-4.1,9.16-9.16,9.16h-307.81c-2.83,0-5.5,1.31-7.24,3.54l-155.23,199.93c-1.74,2.24-4.41,3.54-7.24,3.54H83.11c-5.06,0-9.16-4.1-9.16-9.16v-416.51c0-5.06,4.1-9.16,9.16-9.16h271.23c2.83,0,5.5-1.3,7.23-3.54l139.44-179.14c1.74-2.23,4.4-3.54,7.23-3.54h355.54c5.06,0,9.16,4.1,9.16,9.16Z"/>
        <path class="cls-49" d="M858.16,79.63v395.7c0,5.06-4.1,9.16-9.16,9.16h-307.81c-2.83,0-5.5,1.31-7.24,3.54l-155.23,199.93c-1.74,2.24-4.41,3.54-7.24,3.54H68.32c-5.06,0-9.16-4.1-9.16-9.16v-416.51c0-5.06,4.1-9.16,9.16-9.16h271.23c2.83,0,5.5-1.3,7.23-3.54l139.44-179.14c1.74-2.23,4.4-3.54,7.23-3.54h355.54c5.06,0,9.16,4.1,9.16,9.16Z"/>
        <path class="cls-49" d="M843.37,84.33v395.7c0,5.06-4.1,9.16-9.16,9.16h-307.81c-2.83,0-5.5,1.31-7.24,3.54l-155.23,199.93c-1.74,2.24-4.41,3.54-7.24,3.54H53.53c-5.06,0-9.16-4.1-9.16-9.16v-416.51c0-5.06,4.1-9.16,9.16-9.16h271.23c2.83,0,5.5-1.3,7.23-3.54l139.44-179.14c1.74-2.23,4.4-3.54,7.23-3.54h355.54c5.06,0,9.16,4.1,9.16,9.16Z"/>
        <path class="cls-49" d="M828.58,89.03v395.7c0,5.06-4.1,9.16-9.16,9.16h-307.81c-2.83,0-5.5,1.31-7.24,3.54l-155.23,199.93c-1.74,2.24-4.41,3.54-7.24,3.54H38.74c-5.06,0-9.16-4.1-9.16-9.16v-416.51c0-5.06,4.1-9.16,9.16-9.16h271.23c2.83,0,5.5-1.3,7.23-3.54l139.44-179.14c1.74-2.23,4.4-3.54,7.23-3.54h355.54c5.06,0,9.16,4.1,9.16,9.16Z"/>
        <path class="cls-49" d="M813.79,93.73v395.7c0,5.06-4.1,9.16-9.16,9.16h-307.81c-2.83,0-5.5,1.31-7.24,3.54l-155.23,199.93c-1.74,2.24-4.41,3.54-7.24,3.54H23.95c-5.06,0-9.16-4.1-9.16-9.16v-416.51c0-5.06,4.1-9.16,9.16-9.16h271.23c2.83,0,5.5-1.3,7.23-3.54l139.44-179.14c1.74-2.23,4.4-3.54,7.23-3.54h355.54c5.06,0,9.16,4.1,9.16,9.16Z"/>
        <path class="cls-49" d="M799,98.43v395.7c0,5.06-4.1,9.16-9.16,9.16h-307.81c-2.83,0-5.5,1.31-7.24,3.54l-155.23,199.93c-1.74,2.24-4.41,3.54-7.24,3.54H9.16c-5.06,0-9.16-4.1-9.16-9.16v-416.51c0-5.06,4.1-9.16,9.16-9.16h271.23c2.83,0,5.5-1.3,7.23-3.54l139.44-179.14c1.74-2.23,4.4-3.54,7.23-3.54h355.54c5.06,0,9.16,4.1,9.16,9.16Z"/>
      </g>
      <g>
        <path class="cls-6" d="M1080,9.16v395.7c0,5.06-4.1,9.16-9.16,9.16h-307.81c-2.83,0-5.5,1.31-7.24,3.54l-155.23,199.93c-1.74,2.24-4.41,3.54-7.24,3.54h-303.15c-5.06,0-9.16-4.1-9.16-9.16V195.37c0-5.06,4.1-9.16,9.16-9.16h271.23c2.83,0,5.5-1.3,7.23-3.54L708.06,3.54C709.8,1.3,712.47,0,715.29,0h355.54c5.06,0,9.16,4.1,9.16,9.16Z"/>
        <path class="cls-28" d="M1074.49,10.91v395.7c0,5.06-4.1,9.16-9.16,9.16h-307.81c-2.83,0-5.5,1.31-7.24,3.54l-155.23,199.93c-1.74,2.24-4.41,3.54-7.24,3.54h-303.15c-5.06,0-9.16-4.1-9.16-9.16V197.12c0-5.06,4.1-9.16,9.16-9.16h271.23c2.83,0,5.5-1.3,7.23-3.54L702.55,5.29c1.74-2.23,4.4-3.54,7.23-3.54h355.54c5.06,0,9.16,4.1,9.16,9.16Z"/>
        <path class="cls-33" d="M1068.98,12.67v395.7c0,5.06-4.1,9.16-9.16,9.16h-307.81c-2.83,0-5.5,1.31-7.24,3.54l-155.23,199.93c-1.74,2.24-4.41,3.54-7.24,3.54h-303.15c-5.06,0-9.16-4.1-9.16-9.16V198.87c0-5.06,4.1-9.16,9.16-9.16h271.23c2.83,0,5.5-1.3,7.23-3.54L697.04,7.04c1.74-2.23,4.4-3.54,7.23-3.54h355.54c5.06,0,9.16,4.1,9.16,9.16Z"/>
        <path class="cls-52" d="M1063.47,14.42v395.7c0,5.06-4.1,9.16-9.16,9.16h-307.81c-2.83,0-5.5,1.31-7.24,3.54l-155.23,199.93c-1.74,2.24-4.41,3.54-7.24,3.54h-303.15c-5.06,0-9.16-4.1-9.16-9.16V200.62c0-5.06,4.1-9.16,9.16-9.16h271.23c2.83,0,5.5-1.3,7.23-3.54L691.53,8.79c1.74-2.23,4.4-3.54,7.23-3.54h355.54c5.06,0,9.16,4.1,9.16,9.16Z"/>
        <path class="cls-12" d="M1057.96,16.17v395.7c0,5.06-4.1,9.16-9.16,9.16h-307.81c-2.83,0-5.5,1.31-7.24,3.54l-155.23,199.93c-1.74,2.24-4.41,3.54-7.24,3.54h-303.15c-5.06,0-9.16-4.1-9.16-9.16V202.37c0-5.06,4.1-9.16,9.16-9.16h271.23c2.83,0,5.5-1.3,7.23-3.54L686.02,10.54c1.74-2.23,4.4-3.54,7.23-3.54h355.54c5.06,0,9.16,4.1,9.16,9.16Z"/>
        <path class="cls-8" d="M1052.45,17.92v395.7c0,5.06-4.1,9.16-9.16,9.16h-307.81c-2.83,0-5.5,1.31-7.24,3.54l-155.23,199.93c-1.74,2.24-4.41,3.54-7.24,3.54h-303.15c-5.06,0-9.16-4.1-9.16-9.16V204.12c0-5.06,4.1-9.16,9.16-9.16h271.23c2.83,0,5.5-1.3,7.23-3.54L680.51,12.29c1.74-2.23,4.4-3.54,7.23-3.54h355.54c5.06,0,9.16,4.1,9.16,9.16Z"/>
        <path class="cls-31" d="M1046.94,19.67v395.7c0,5.06-4.1,9.16-9.16,9.16h-307.81c-2.83,0-5.5,1.31-7.24,3.54l-155.23,199.93c-1.74,2.24-4.41,3.54-7.24,3.54h-303.15c-5.06,0-9.16-4.1-9.16-9.16V205.87c0-5.06,4.1-9.16,9.16-9.16h271.23c2.83,0,5.5-1.3,7.23-3.54L675,14.04c1.74-2.23,4.4-3.54,7.23-3.54h355.54c5.06,0,9.16,4.1,9.16,9.16Z"/>
        <path class="cls-39" d="M1041.43,21.42v395.7c0,5.06-4.1,9.16-9.16,9.16h-307.81c-2.83,0-5.5,1.31-7.24,3.54l-155.23,199.93c-1.74,2.24-4.41,3.54-7.24,3.54H251.59c-5.06,0-9.16-4.1-9.16-9.16V207.62c0-5.06,4.1-9.16,9.16-9.16h271.23c2.83,0,5.5-1.3,7.23-3.54L669.49,15.79c1.74-2.23,4.4-3.54,7.23-3.54h355.54c5.06,0,9.16,4.1,9.16,9.16Z"/>
        <path class="cls-34" d="M1035.92,23.17v395.7c0,5.06-4.1,9.16-9.16,9.16h-307.81c-2.83,0-5.5,1.31-7.24,3.54l-155.23,199.93c-1.74,2.24-4.41,3.54-7.24,3.54H246.08c-5.06,0-9.16-4.1-9.16-9.16V209.37c0-5.06,4.1-9.16,9.16-9.16h271.23c2.83,0,5.5-1.3,7.23-3.54L663.98,17.54c1.74-2.23,4.4-3.54,7.23-3.54h355.54c5.06,0,9.16,4.1,9.16,9.16Z"/>
        <path class="cls-51" d="M1030.41,24.92v395.7c0,5.06-4.1,9.16-9.16,9.16h-307.81c-2.83,0-5.5,1.31-7.24,3.54l-155.23,199.93c-1.74,2.24-4.41,3.54-7.24,3.54H240.57c-5.06,0-9.16-4.1-9.16-9.16V211.12c0-5.06,4.1-9.16,9.16-9.16h271.23c2.83,0,5.5-1.3,7.23-3.54L658.47,19.29c1.74-2.23,4.4-3.54,7.23-3.54h355.54c5.06,0,9.16,4.1,9.16,9.16Z"/>
        <path class="cls-11" d="M1024.9,26.67v395.7c0,5.06-4.1,9.16-9.16,9.16h-307.81c-2.83,0-5.5,1.31-7.24,3.54l-155.23,199.93c-1.74,2.24-4.41,3.54-7.24,3.54H235.06c-5.06,0-9.16-4.1-9.16-9.16V212.87c0-5.06,4.1-9.16,9.16-9.16h271.23c2.83,0,5.5-1.3,7.23-3.54L652.96,21.04c1.74-2.23,4.4-3.54,7.23-3.54h355.54c5.06,0,9.16,4.1,9.16,9.16Z"/>
        <path class="cls-2" d="M1019.39,28.42v395.7c0,5.06-4.1,9.16-9.16,9.16h-307.81c-2.83,0-5.5,1.31-7.24,3.54l-155.23,199.93c-1.74,2.24-4.41,3.54-7.24,3.54H229.55c-5.06,0-9.16-4.1-9.16-9.16V214.62c0-5.06,4.1-9.16,9.16-9.16h271.23c2.83,0,5.5-1.3,7.23-3.54L647.45,22.79c1.74-2.23,4.4-3.54,7.23-3.54h355.54c5.06,0,9.16,4.1,9.16,9.16Z"/>
        <path class="cls-17" d="M1013.88,30.17v395.7c0,5.06-4.1,9.16-9.16,9.16h-307.81c-2.83,0-5.5,1.31-7.24,3.54l-155.23,199.93c-1.74,2.24-4.41,3.54-7.24,3.54H224.04c-5.06,0-9.16-4.1-9.16-9.16V216.37c0-5.06,4.1-9.16,9.16-9.16h271.23c2.83,0,5.5-1.3,7.23-3.54L641.95,24.54c1.74-2.23,4.4-3.54,7.23-3.54h355.54c5.06,0,9.16,4.1,9.16,9.16Z"/>
        <path class="cls-27" d="M1008.37,31.92v395.7c0,5.06-4.1,9.16-9.16,9.16h-307.81c-2.83,0-5.5,1.31-7.24,3.54l-155.23,199.93c-1.74,2.24-4.41,3.54-7.24,3.54H218.53c-5.06,0-9.16-4.1-9.16-9.16V218.12c0-5.06,4.1-9.16,9.16-9.16h271.23c2.83,0,5.5-1.3,7.23-3.54L636.44,26.29c1.74-2.23,4.4-3.54,7.23-3.54h355.54c5.06,0,9.16,4.1,9.16,9.16Z"/>
        <path class="cls-10" d="M1002.86,33.67v395.7c0,5.06-4.1,9.16-9.16,9.16h-307.81c-2.83,0-5.5,1.31-7.24,3.54l-155.23,199.93c-1.74,2.24-4.41,3.54-7.24,3.54H213.02c-5.06,0-9.16-4.1-9.16-9.16V219.88c0-5.06,4.1-9.16,9.16-9.16h271.23c2.83,0,5.5-1.3,7.23-3.54L630.93,28.04c1.74-2.23,4.4-3.54,7.23-3.54h355.54c5.06,0,9.16,4.1,9.16,9.16Z"/>
        <path class="cls-21" d="M997.35,35.42v395.7c0,5.06-4.1,9.16-9.16,9.16h-307.81c-2.83,0-5.5,1.31-7.24,3.54l-155.23,199.93c-1.74,2.24-4.41,3.54-7.24,3.54H207.51c-5.06,0-9.16-4.1-9.16-9.16V221.63c0-5.06,4.1-9.16,9.16-9.16h271.23c2.83,0,5.5-1.3,7.23-3.54L625.42,29.79c1.74-2.23,4.4-3.54,7.23-3.54h355.54c5.06,0,9.16,4.1,9.16,9.16Z"/>
        <path class="cls-3" d="M991.84,37.17v395.7c0,5.06-4.1,9.16-9.16,9.16h-307.81c-2.83,0-5.5,1.31-7.24,3.54l-155.23,199.93c-1.74,2.24-4.41,3.54-7.24,3.54H202c-5.06,0-9.16-4.1-9.16-9.16V223.38c0-5.06,4.1-9.16,9.16-9.16h271.23c2.83,0,5.5-1.3,7.23-3.54L619.91,31.54c1.74-2.23,4.4-3.54,7.23-3.54h355.54c5.06,0,9.16,4.1,9.16,9.16Z"/>
        <path class="cls-43" d="M986.33,38.92v395.7c0,5.06-4.1,9.16-9.16,9.16h-307.81c-2.83,0-5.5,1.31-7.24,3.54l-155.23,199.93c-1.74,2.24-4.41,3.54-7.24,3.54H196.49c-5.06,0-9.16-4.1-9.16-9.16V225.13c0-5.06,4.1-9.16,9.16-9.16h271.23c2.83,0,5.5-1.3,7.23-3.54l139.44-179.14c1.74-2.23,4.4-3.54,7.23-3.54h355.54c5.06,0,9.16,4.1,9.16,9.16Z"/>
        <path class="cls-4" d="M980.83,40.67v395.7c0,5.06-4.1,9.16-9.16,9.16h-307.81c-2.83,0-5.5,1.31-7.24,3.54l-155.23,199.93c-1.74,2.24-4.41,3.54-7.24,3.54H190.99c-5.06,0-9.16-4.1-9.16-9.16V226.88c0-5.06,4.1-9.16,9.16-9.16h271.23c2.83,0,5.5-1.3,7.23-3.54l139.44-179.14c1.74-2.23,4.4-3.54,7.23-3.54h355.54c5.06,0,9.16,4.1,9.16,9.16Z"/>
        <path class="cls-26" d="M975.32,42.42v395.7c0,5.06-4.1,9.16-9.16,9.16h-307.81c-2.83,0-5.5,1.31-7.24,3.54l-155.23,199.93c-1.74,2.24-4.41,3.54-7.24,3.54H185.48c-5.06,0-9.16-4.1-9.16-9.16V228.63c0-5.06,4.1-9.16,9.16-9.16h271.23c2.83,0,5.5-1.3,7.23-3.54l139.44-179.14c1.74-2.23,4.4-3.54,7.23-3.54h355.54c5.06,0,9.16,4.1,9.16,9.16Z"/>
        <path class="cls-7" d="M969.81,44.17v395.7c0,5.06-4.1,9.16-9.16,9.16h-307.81c-2.83,0-5.5,1.31-7.24,3.54l-155.23,199.93c-1.74,2.24-4.41,3.54-7.24,3.54H179.97c-5.06,0-9.16-4.1-9.16-9.16V230.38c0-5.06,4.1-9.16,9.16-9.16h271.23c2.83,0,5.5-1.3,7.23-3.54l139.44-179.14c1.74-2.23,4.4-3.54,7.23-3.54h355.54c5.06,0,9.16,4.1,9.16,9.16Z"/>
        <path class="cls-22" d="M964.3,45.92v395.7c0,5.06-4.1,9.16-9.16,9.16h-307.81c-2.83,0-5.5,1.31-7.24,3.54l-155.23,199.93c-1.74,2.24-4.41,3.54-7.24,3.54H174.46c-5.06,0-9.16-4.1-9.16-9.16V232.13c0-5.06,4.1-9.16,9.16-9.16h271.23c2.83,0,5.5-1.3,7.23-3.54l139.44-179.14c1.74-2.23,4.4-3.54,7.23-3.54h355.54c5.06,0,9.16,4.1,9.16,9.16Z"/>
        <path class="cls-18" d="M958.79,47.67v395.7c0,5.06-4.1,9.16-9.16,9.16h-307.81c-2.83,0-5.5,1.31-7.24,3.54l-155.23,199.93c-1.74,2.24-4.41,3.54-7.24,3.54H168.95c-5.06,0-9.16-4.1-9.16-9.16V233.88c0-5.06,4.1-9.16,9.16-9.16h271.23c2.83,0,5.5-1.3,7.23-3.54l139.44-179.14c1.74-2.23,4.4-3.54,7.23-3.54h355.54c5.06,0,9.16,4.1,9.16,9.16Z"/>
        <path class="cls-41" d="M953.28,49.42v395.7c0,5.06-4.1,9.16-9.16,9.16h-307.81c-2.83,0-5.5,1.31-7.24,3.54l-155.23,199.93c-1.74,2.24-4.41,3.54-7.24,3.54H163.44c-5.06,0-9.16-4.1-9.16-9.16V235.63c0-5.06,4.1-9.16,9.16-9.16h271.23c2.83,0,5.5-1.3,7.23-3.54l139.44-179.14c1.74-2.23,4.4-3.54,7.23-3.54h355.54c5.06,0,9.16,4.1,9.16,9.16Z"/>
        <path class="cls-19" d="M947.77,51.17v395.7c0,5.06-4.1,9.16-9.16,9.16h-307.81c-2.83,0-5.5,1.31-7.24,3.54l-155.23,199.93c-1.74,2.24-4.41,3.54-7.24,3.54H157.93c-5.06,0-9.16-4.1-9.16-9.16V237.38c0-5.06,4.1-9.16,9.16-9.16h271.23c2.83,0,5.5-1.3,7.23-3.54l139.44-179.14c1.74-2.23,4.4-3.54,7.23-3.54h355.54c5.06,0,9.16,4.1,9.16,9.16Z"/>
        <path class="cls-42" d="M942.26,52.92v395.7c0,5.06-4.1,9.16-9.16,9.16h-307.81c-2.83,0-5.5,1.31-7.24,3.54l-155.23,199.93c-1.74,2.24-4.41,3.54-7.24,3.54H152.42c-5.06,0-9.16-4.1-9.16-9.16V239.13c0-5.06,4.1-9.16,9.16-9.16h271.23c2.83,0,5.5-1.3,7.23-3.54l139.44-179.14c1.74-2.23,4.4-3.54,7.23-3.54h355.54c5.06,0,9.16,4.1,9.16,9.16Z"/>
        <path class="cls-35" d="M936.75,54.67v395.7c0,5.06-4.1,9.16-9.16,9.16h-307.81c-2.83,0-5.5,1.31-7.24,3.54l-155.23,199.93c-1.74,2.24-4.41,3.54-7.24,3.54H146.91c-5.06,0-9.16-4.1-9.16-9.16V240.88c0-5.06,4.1-9.16,9.16-9.16h271.23c2.83,0,5.5-1.3,7.23-3.54l139.44-179.14c1.74-2.23,4.4-3.54,7.23-3.54h355.54c5.06,0,9.16,4.1,9.16,9.16Z"/>
        <path class="cls-50" d="M931.24,56.42v395.7c0,5.06-4.1,9.16-9.16,9.16h-307.81c-2.83,0-5.5,1.31-7.24,3.54l-155.23,199.93c-1.74,2.24-4.41,3.54-7.24,3.54H141.4c-5.06,0-9.16-4.1-9.16-9.16V242.63c0-5.06,4.1-9.16,9.16-9.16h271.23c2.83,0,5.5-1.3,7.23-3.54l139.44-179.14c1.74-2.23,4.4-3.54,7.23-3.54h355.54c5.06,0,9.16,4.1,9.16,9.16Z"/>
        <path class="cls-47" d="M925.73,58.17v395.7c0,5.06-4.1,9.16-9.16,9.16h-307.81c-2.83,0-5.5,1.31-7.24,3.54l-155.23,199.93c-1.74,2.24-4.41,3.54-7.24,3.54H135.89c-5.06,0-9.16-4.1-9.16-9.16V244.38c0-5.06,4.1-9.16,9.16-9.16h271.23c2.83,0,5.5-1.3,7.23-3.54l139.44-179.14c1.74-2.23,4.4-3.54,7.23-3.54h355.54c5.06,0,9.16,4.1,9.16,9.16Z"/>
        <path class="cls-45" d="M920.22,59.92v395.7c0,5.06-4.1,9.16-9.16,9.16h-307.81c-2.83,0-5.5,1.31-7.24,3.54l-155.23,199.93c-1.74,2.24-4.41,3.54-7.24,3.54H130.38c-5.06,0-9.16-4.1-9.16-9.16V246.13c0-5.06,4.1-9.16,9.16-9.16h271.23c2.83,0,5.5-1.3,7.23-3.54l139.44-179.14c1.74-2.23,4.4-3.54,7.23-3.54h355.54c5.06,0,9.16,4.1,9.16,9.16Z"/>
        <path class="cls-13" d="M914.71,61.67v395.7c0,5.06-4.1,9.16-9.16,9.16h-307.81c-2.83,0-5.5,1.31-7.24,3.54l-155.23,199.93c-1.74,2.24-4.41,3.54-7.24,3.54H124.87c-5.06,0-9.16-4.1-9.16-9.16V247.88c0-5.06,4.1-9.16,9.16-9.16h271.23c2.83,0,5.5-1.3,7.23-3.54l139.44-179.14c1.74-2.23,4.4-3.54,7.23-3.54h355.54c5.06,0,9.16,4.1,9.16,9.16Z"/>
        <path class="cls-25" d="M909.2,63.42v395.7c0,5.06-4.1,9.16-9.16,9.16h-307.81c-2.83,0-5.5,1.31-7.24,3.54l-155.23,199.93c-1.74,2.24-4.41,3.54-7.24,3.54H119.36c-5.06,0-9.16-4.1-9.16-9.16V249.63c0-5.06,4.1-9.16,9.16-9.16h271.23c2.83,0,5.5-1.3,7.23-3.54l139.44-179.14c1.74-2.23,4.4-3.54,7.23-3.54h355.54c5.06,0,9.16,4.1,9.16,9.16Z"/>
        <path class="cls-5" d="M903.69,65.17v395.7c0,5.06-4.1,9.16-9.16,9.16h-307.81c-2.83,0-5.5,1.31-7.24,3.54l-155.23,199.93c-1.74,2.24-4.41,3.54-7.24,3.54H113.85c-5.06,0-9.16-4.1-9.16-9.16V251.38c0-5.06,4.1-9.16,9.16-9.16h271.23c2.83,0,5.5-1.3,7.23-3.54l139.44-179.14c1.74-2.23,4.4-3.54,7.23-3.54h355.54c5.06,0,9.16,4.1,9.16,9.16Z"/>
        <path class="cls-14" d="M898.18,66.92v395.7c0,5.06-4.1,9.16-9.16,9.16h-307.81c-2.83,0-5.5,1.31-7.24,3.54l-155.23,199.93c-1.74,2.24-4.41,3.54-7.24,3.54H108.34c-5.06,0-9.16-4.1-9.16-9.16V253.13c0-5.06,4.1-9.16,9.16-9.16h271.23c2.83,0,5.5-1.3,7.23-3.54l139.44-179.14c1.74-2.23,4.4-3.54,7.23-3.54h355.54c5.06,0,9.16,4.1,9.16,9.16Z"/>
        <path class="cls-23" d="M892.67,68.67v395.7c0,5.06-4.1,9.16-9.16,9.16h-307.81c-2.83,0-5.5,1.31-7.24,3.54l-155.23,199.93c-1.74,2.24-4.41,3.54-7.24,3.54H102.83c-5.06,0-9.16-4.1-9.16-9.16V254.88c0-5.06,4.1-9.16,9.16-9.16h271.23c2.83,0,5.5-1.3,7.23-3.54l139.44-179.14c1.74-2.23,4.4-3.54,7.23-3.54h355.54c5.06,0,9.16,4.1,9.16,9.16Z"/>
        <path class="cls-36" d="M887.16,70.42v395.7c0,5.06-4.1,9.16-9.16,9.16h-307.81c-2.83,0-5.5,1.31-7.24,3.54l-155.23,199.93c-1.74,2.24-4.41,3.54-7.24,3.54H97.32c-5.06,0-9.16-4.1-9.16-9.16v-416.51c0-5.06,4.1-9.16,9.16-9.16h271.23c2.83,0,5.5-1.3,7.23-3.54l139.44-179.14c1.74-2.23,4.4-3.54,7.23-3.54h355.54c5.06,0,9.16,4.1,9.16,9.16Z"/>
        <path class="cls-53" d="M881.65,72.17v395.7c0,5.06-4.1,9.16-9.16,9.16h-307.81c-2.83,0-5.5,1.31-7.24,3.54l-155.23,199.93c-1.74,2.24-4.41,3.54-7.24,3.54H91.81c-5.06,0-9.16-4.1-9.16-9.16v-416.51c0-5.06,4.1-9.16,9.16-9.16h271.23c2.83,0,5.5-1.3,7.23-3.54l139.44-179.14c1.74-2.23,4.4-3.54,7.23-3.54h355.54c5.06,0,9.16,4.1,9.16,9.16Z"/>
        <path class="cls-1" d="M876.14,73.92v395.7c0,5.06-4.1,9.16-9.16,9.16h-307.81c-2.83,0-5.5,1.31-7.24,3.54l-155.23,199.93c-1.74,2.24-4.41,3.54-7.24,3.54H86.3c-5.06,0-9.16-4.1-9.16-9.16v-416.51c0-5.06,4.1-9.16,9.16-9.16h271.23c2.83,0,5.5-1.3,7.23-3.54l139.44-179.14c1.74-2.23,4.4-3.54,7.23-3.54h355.54c5.06,0,9.16,4.1,9.16,9.16Z"/>
        <path class="cls-32" d="M870.63,75.67v395.7c0,5.06-4.1,9.16-9.16,9.16h-307.81c-2.83,0-5.5,1.31-7.24,3.54l-155.23,199.93c-1.74,2.24-4.41,3.54-7.24,3.54H80.79c-5.06,0-9.16-4.1-9.16-9.16v-416.51c0-5.06,4.1-9.16,9.16-9.16h271.23c2.83,0,5.5-1.3,7.23-3.54l139.44-179.14c1.74-2.23,4.4-3.54,7.23-3.54h355.54c5.06,0,9.16,4.1,9.16,9.16Z"/>
        <path class="cls-16" d="M865.12,77.42v395.7c0,5.06-4.1,9.16-9.16,9.16h-307.81c-2.83,0-5.5,1.31-7.24,3.54l-155.23,199.93c-1.74,2.24-4.41,3.54-7.24,3.54H75.28c-5.06,0-9.16-4.1-9.16-9.16v-416.51c0-5.06,4.1-9.16,9.16-9.16h271.23c2.83,0,5.5-1.3,7.23-3.54l139.44-179.14c1.74-2.23,4.4-3.54,7.23-3.54h355.54c5.06,0,9.16,4.1,9.16,9.16Z"/>
        <path class="cls-15" d="M859.61,79.17v395.7c0,5.06-4.1,9.16-9.16,9.16h-307.81c-2.83,0-5.5,1.31-7.24,3.54l-155.23,199.93c-1.74,2.24-4.41,3.54-7.24,3.54H69.77c-5.06,0-9.16-4.1-9.16-9.16v-416.51c0-5.06,4.1-9.16,9.16-9.16h271.23c2.83,0,5.5-1.3,7.23-3.54l139.44-179.14c1.74-2.23,4.4-3.54,7.23-3.54h355.54c5.06,0,9.16,4.1,9.16,9.16Z"/>
        <path class="cls-9" d="M854.1,80.92v395.7c0,5.06-4.1,9.16-9.16,9.16h-307.81c-2.83,0-5.5,1.31-7.24,3.54l-155.23,199.93c-1.74,2.24-4.41,3.54-7.24,3.54H64.26c-5.06,0-9.16-4.1-9.16-9.16v-416.51c0-5.06,4.1-9.16,9.16-9.16h271.23c2.83,0,5.5-1.3,7.23-3.54l139.44-179.14c1.74-2.23,4.4-3.54,7.23-3.54h355.54c5.06,0,9.16,4.1,9.16,9.16Z"/>
        <path class="cls-20" d="M848.59,82.67v395.7c0,5.06-4.1,9.16-9.16,9.16h-307.81c-2.83,0-5.5,1.31-7.24,3.54l-155.23,199.93c-1.74,2.24-4.41,3.54-7.24,3.54H58.75c-5.06,0-9.16-4.1-9.16-9.16v-416.51c0-5.06,4.1-9.16,9.16-9.16h271.23c2.83,0,5.5-1.3,7.23-3.54l139.44-179.14c1.74-2.23,4.4-3.54,7.23-3.54h355.54c5.06,0,9.16,4.1,9.16,9.16Z"/>
        <path class="cls-46" d="M843.08,84.42v395.7c0,5.06-4.1,9.16-9.16,9.16h-307.81c-2.83,0-5.5,1.31-7.24,3.54l-155.23,199.93c-1.74,2.24-4.41,3.54-7.24,3.54H53.24c-5.06,0-9.16-4.1-9.16-9.16v-416.51c0-5.06,4.1-9.16,9.16-9.16h271.23c2.83,0,5.5-1.3,7.23-3.54l139.44-179.14c1.74-2.23,4.4-3.54,7.23-3.54h355.54c5.06,0,9.16,4.1,9.16,9.16Z"/>
        <path class="cls-30" d="M837.57,86.18v395.7c0,5.06-4.1,9.16-9.16,9.16h-307.81c-2.83,0-5.5,1.31-7.24,3.54l-155.23,199.93c-1.74,2.24-4.41,3.54-7.24,3.54H47.73c-5.06,0-9.16-4.1-9.16-9.16v-416.51c0-5.06,4.1-9.16,9.16-9.16h271.23c2.83,0,5.5-1.3,7.23-3.54l139.44-179.14c1.74-2.23,4.4-3.54,7.23-3.54h355.54c5.06,0,9.16,4.1,9.16,9.16Z"/>
        <path class="cls-48" d="M832.06,87.93v395.7c0,5.06-4.1,9.16-9.16,9.16h-307.81c-2.83,0-5.5,1.31-7.24,3.54l-155.23,199.93c-1.74,2.24-4.41,3.54-7.24,3.54H42.22c-5.06,0-9.16-4.1-9.16-9.16v-416.51c0-5.06,4.1-9.16,9.16-9.16h271.23c2.83,0,5.5-1.3,7.23-3.54l139.44-179.14c1.74-2.23,4.4-3.54,7.23-3.54h355.54c5.06,0,9.16,4.1,9.16,9.16Z"/>
        <path class="cls-40" d="M826.55,89.68v395.7c0,5.06-4.1,9.16-9.16,9.16h-307.81c-2.83,0-5.5,1.31-7.24,3.54l-155.23,199.93c-1.74,2.24-4.41,3.54-7.24,3.54H36.71c-5.06,0-9.16-4.1-9.16-9.16v-416.51c0-5.06,4.1-9.16,9.16-9.16h271.23c2.83,0,5.5-1.3,7.23-3.54l139.44-179.14c1.74-2.23,4.4-3.54,7.23-3.54h355.54c5.06,0,9.16,4.1,9.16,9.16Z"/>
        <path class="cls-37" d="M821.04,91.43v395.7c0,5.06-4.1,9.16-9.16,9.16h-307.81c-2.83,0-5.5,1.31-7.24,3.54l-155.23,199.93c-1.74,2.24-4.41,3.54-7.24,3.54H31.2c-5.06,0-9.16-4.1-9.16-9.16v-416.51c0-5.06,4.1-9.16,9.16-9.16h271.23c2.83,0,5.5-1.3,7.23-3.54l139.44-179.14c1.74-2.23,4.4-3.54,7.23-3.54h355.54c5.06,0,9.16,4.1,9.16,9.16Z"/>
        <path class="cls-38" d="M815.53,93.18v395.7c0,5.06-4.1,9.16-9.16,9.16h-307.81c-2.83,0-5.5,1.31-7.24,3.54l-155.23,199.93c-1.74,2.24-4.41,3.54-7.24,3.54H25.69c-5.06,0-9.16-4.1-9.16-9.16v-416.51c0-5.06,4.1-9.16,9.16-9.16h271.23c2.83,0,5.5-1.3,7.23-3.54l139.44-179.14c1.74-2.23,4.4-3.54,7.23-3.54h355.54c5.06,0,9.16,4.1,9.16,9.16Z"/>
        <path class="cls-24" d="M810.02,94.93v395.7c0,5.06-4.1,9.16-9.16,9.16h-307.81c-2.83,0-5.5,1.31-7.24,3.54l-155.23,199.93c-1.74,2.24-4.41,3.54-7.24,3.54H20.18c-5.06,0-9.16-4.1-9.16-9.16v-416.51c0-5.06,4.1-9.16,9.16-9.16h271.23c2.83,0,5.5-1.3,7.23-3.54l139.44-179.14c1.74-2.23,4.4-3.54,7.23-3.54h355.54c5.06,0,9.16,4.1,9.16,9.16Z"/>
        <path class="cls-44" d="M804.51,96.68v395.7c0,5.06-4.1,9.16-9.16,9.16h-307.81c-2.83,0-5.5,1.31-7.24,3.54l-155.23,199.93c-1.74,2.24-4.41,3.54-7.24,3.54H14.67c-5.06,0-9.16-4.1-9.16-9.16v-416.51c0-5.06,4.1-9.16,9.16-9.16h271.23c2.83,0,5.5-1.3,7.23-3.54l139.44-179.14c1.74-2.23,4.4-3.54,7.23-3.54h355.54c5.06,0,9.16,4.1,9.16,9.16Z"/>
        <path class="cls-29" d="M799,98.43v395.7c0,5.06-4.1,9.16-9.16,9.16h-307.81c-2.83,0-5.5,1.31-7.24,3.54l-155.23,199.93c-1.74,2.24-4.41,3.54-7.24,3.54H9.16c-5.06,0-9.16-4.1-9.16-9.16v-416.51c0-5.06,4.1-9.16,9.16-9.16h271.23c2.83,0,5.5-1.3,7.23-3.54l139.44-179.14c1.74-2.23,4.4-3.54,7.23-3.54h355.54c5.06,0,9.16,4.1,9.16,9.16Z"/>
      </g>
    </g>
  </g>
</svg>