<?xml version="1.0" encoding="UTF-8"?>
<svg id="Layer_2" data-name="Layer 2" xmlns="http://www.w3.org/2000/svg" xmlns:xlink="http://www.w3.org/1999/xlink" viewBox="0 0 791.61 615.3">
  <defs>
    <style>
      .cls-1 {
        fill: url(#New_Gradient_Swatch_6);
        stroke-width: 0px;
      }
    </style>
    <linearGradient id="New_Gradient_Swatch_6" data-name="New Gradient Swatch 6" x1="-70.09" y1="265.37" x2="742.99" y2="265.37" gradientTransform="translate(98.48 -2.51) rotate(8.07)" gradientUnits="userSpaceOnUse">
      <stop offset="0" stop-color="#e9803a"/>
      <stop offset="1" stop-color="#df3b38"/>
    </linearGradient>
  </defs>
  <g id="Layer_1-2" data-name="Layer 1">
    <path class="cls-1" d="M791.61,9.08v392.04c0,5.01-4.06,9.08-9.08,9.08h-304.96c-2.8,0-5.45,1.3-7.17,3.51l-153.79,198.08c-1.72,2.22-4.37,3.51-7.17,3.51H9.08c-5.01,0-9.08-4.06-9.08-9.08V193.56c0-5.01,4.06-9.08,9.08-9.08h268.71c2.8,0,5.44-1.29,7.16-3.5L423.11,3.5C424.83,1.29,427.48,0,430.28,0h352.25c5.01,0,9.08,4.06,9.08,9.08Z"/>
  </g>
</svg>