<?xml version="1.0" encoding="UTF-8"?>
<svg id="Layer_1" xmlns="http://www.w3.org/2000/svg" viewBox="0 0 1920 1080">
  <defs>
    <style>
      .cls-1 {
        fill: none;
      }

      .cls-2 {
        fill: #bd4627;
      }

      .cls-3 {
        fill: #010101;
      }

      .cls-4 {
        fill: #8a371d;
      }

      .cls-5 {
        fill: #fff;
      }

      .cls-6 {
        fill: #f15a27;
      }

      .cls-7 {
        fill: #f8b518;
      }

      .cls-8 {
        fill: #fdb714;
      }
    </style>
  </defs>
  <rect class="cls-3" width="1920" height="1080"/>
  <path class="cls-4" d="M1355.19,39.94c8.48,1.98,17.59,2.61,25.33,6.19,21.85,10.09,31.78,29.31,35.75,51.96,2.69,15.33,1.47,30.52-5.07,44.9-7.25,15.93-19.07,27.35-35.07,34.4-1.1.48-2.49.3-3.92.44-1.85-4.07-3.54-7.79-5.46-12.03,4.24-2.47,8.34-4.57,12.13-7.13,19.71-13.28,25.58-32.74,23.46-55.16-.66-6.96-2.78-14.04-5.6-20.47-7.54-17.17-21.58-24.85-39.92-26.98-25.56-2.97-42.87,8.7-55.03,29.57-10.36,17.78-19.76,36.11-29.66,54.15-18.16,33.08-55.57,34.49-79.3,20.38-13.52-8.04-20.79-21.12-23.96-36.43-3.93-19-2.47-37.2,9.57-53.17,3.9-5.18,9.34-9.2,14.72-14.38,3.49,4.54,6.24,8.12,9.32,12.12-9.83,6.47-15.81,14.98-18.99,25.55-5.68,18.9.66,42.36,13.98,51.8,14.83,10.51,46.23,11.46,60.62-12.25,9.04-14.9,16.83-30.55,25.53-45.67,10.08-17.52,22.41-33.13,41.11-42.14,5.74-2.77,12.3-3.81,18.48-5.64,4,0,7.99,0,11.99,0Z"/>
  <path class="cls-2" d="M1325.19,39.94c8.48,1.98,17.59,2.61,25.33,6.19,21.85,10.09,31.78,29.31,35.75,51.96,2.69,15.33,1.47,30.52-5.07,44.9-7.25,15.93-19.07,27.35-35.07,34.4-1.1.48-2.49.3-3.92.44-1.85-4.07-3.54-7.79-5.46-12.03,4.24-2.47,8.34-4.57,12.13-7.13,19.71-13.28,25.58-32.74,23.46-55.16-.66-6.96-2.78-14.04-5.6-20.47-7.54-17.17-21.58-24.85-39.92-26.98-25.56-2.97-42.87,8.7-55.03,29.57-10.36,17.78-19.76,36.11-29.66,54.15-18.16,33.08-55.57,34.49-79.3,20.38-13.52-8.04-20.79-21.12-23.96-36.43-3.93-19-2.47-37.2,9.57-53.17,3.9-5.18,9.34-9.2,14.72-14.38,3.49,4.54,6.24,8.12,9.32,12.12-9.83,6.47-15.81,14.98-18.99,25.55-5.68,18.9.66,42.36,13.98,51.8,14.83,10.51,46.23,11.46,60.62-12.25,9.04-14.9,16.83-30.55,25.53-45.67,10.08-17.52,22.41-33.13,41.11-42.14,5.74-2.77,12.3-3.81,18.48-5.64,4,0,7.99,0,11.99,0Z"/>
  <path class="cls-6" d="M1295.19,39.94c8.48,1.98,17.59,2.61,25.33,6.19,21.85,10.09,31.78,29.31,35.75,51.96,2.69,15.33,1.47,30.52-5.07,44.9-7.25,15.93-19.07,27.35-35.07,34.4-1.1.48-2.49.3-3.92.44-1.85-4.07-3.54-7.79-5.46-12.03,4.24-2.47,8.34-4.57,12.13-7.13,19.71-13.28,25.58-32.74,23.46-55.16-.66-6.96-2.78-14.04-5.6-20.47-7.54-17.17-21.58-24.85-39.92-26.98-25.56-2.97-42.87,8.7-55.03,29.57-10.36,17.78-19.76,36.11-29.66,54.15-18.16,33.08-55.57,34.49-79.3,20.38-13.52-8.04-20.79-21.12-23.96-36.43-3.93-19-2.47-37.2,9.57-53.17,3.9-5.18,9.34-9.2,14.72-14.38,3.49,4.54,6.24,8.12,9.32,12.12-9.83,6.47-15.81,14.98-18.99,25.55-5.68,18.9.66,42.36,13.98,51.8,14.83,10.51,46.23,11.46,60.62-12.25,9.04-14.9,16.83-30.55,25.53-45.67,10.08-17.52,22.41-33.13,41.11-42.14,5.74-2.77,12.3-3.81,18.48-5.64,4,0,7.99,0,11.99,0Z"/>
  <path class="cls-7" d="M1265.19,39.94c8.48,1.98,17.59,2.61,25.33,6.19,21.85,10.09,31.78,29.31,35.75,51.96,2.69,15.33,1.47,30.52-5.07,44.9-7.25,15.93-19.07,27.35-35.07,34.4-1.1.48-2.49.3-3.92.44-1.85-4.07-3.54-7.79-5.46-12.03,4.24-2.47,8.34-4.57,12.13-7.13,19.71-13.28,25.58-32.74,23.46-55.16-.66-6.96-2.78-14.04-5.6-20.47-7.54-17.17-21.58-24.85-39.92-26.98-25.56-2.97-42.87,8.7-55.03,29.57-10.36,17.78-19.76,36.11-29.66,54.15-18.16,33.08-55.57,34.49-79.3,20.38-13.52-8.04-20.79-21.12-23.96-36.43-3.93-19-2.47-37.2,9.57-53.17,3.9-5.18,9.34-9.2,14.72-14.38,3.49,4.54,6.24,8.12,9.32,12.12-9.83,6.47-15.81,14.98-18.99,25.55-5.68,18.9.66,42.36,13.98,51.8,14.83,10.51,46.23,11.46,60.62-12.25,9.04-14.9,16.83-30.55,25.53-45.67,10.08-17.52,22.41-33.13,41.11-42.14,5.74-2.77,12.3-3.81,18.48-5.64,4,0,7.99,0,11.99,0Z"/>
  <path class="cls-5" d="M1235.19,39.94c8.48,1.98,17.59,2.61,25.33,6.19,21.85,10.09,31.78,29.31,35.75,51.96,2.69,15.33,1.47,30.52-5.07,44.9-7.25,15.93-19.07,27.35-35.07,34.4-1.1.48-2.49.3-3.92.44-1.85-4.07-3.54-7.79-5.46-12.03,4.24-2.47,8.34-4.57,12.13-7.13,19.71-13.28,25.58-32.74,23.46-55.16-.66-6.96-2.78-14.04-5.6-20.47-7.54-17.17-21.58-24.85-39.92-26.98-25.56-2.97-42.87,8.7-55.03,29.57-10.36,17.78-19.76,36.11-29.66,54.15-18.16,33.08-55.57,34.49-79.3,20.38-13.52-8.04-20.79-21.12-23.96-36.43-3.93-19-2.47-37.2,9.57-53.17,3.9-5.18,9.34-9.2,14.72-14.38,3.49,4.54,6.24,8.12,9.32,12.12-9.83,6.47-15.81,14.98-18.99,25.55-5.68,18.9.66,42.36,13.98,51.8,14.83,10.51,46.23,11.46,60.62-12.25,9.04-14.9,16.83-30.55,25.53-45.67,10.08-17.52,22.41-33.13,41.11-42.14,5.74-2.77,12.3-3.81,18.48-5.64,4,0,7.99,0,11.99,0Z"/>
  <g>
    <path class="cls-4" d="M1170.63,452.01v-15h248.46c-71.22,65.67-142.18,131.1-214.75,198.03h209.57c.26,5.39.48,9.91.73,15.11h-249.32c71.67-66.38,142.1-131.61,213.93-198.14h-208.62Z"/>
    <path class="cls-4" d="M1167.1,292.94c-.7-69.17,52.8-125.02,124.44-126.32,70.69-1.29,126.13,59.16,126.07,127.65-.05,62.7-53.65,128.61-130.55,124.96-65.11-3.09-121.16-54.77-119.97-126.29ZM1292.47,183.1c-63.89-.72-110.05,49.15-110.98,107.88-.99,62.32,45.38,111.85,111.13,112.29,61.96.41,109.65-48.18,110.36-108.67.74-62.72-49.34-112.86-110.52-111.5Z"/>
    <path class="cls-4" d="M1413.66,863.99c-82.72-33.49-164.66-66.67-246.61-99.85l-.14-1.76c82.08-33.18,164.16-66.37,247.01-99.86v16.94c-27.85,11.05-55.87,22.17-84.07,33.36v100.69c27.6,10.99,55.34,22.03,83.81,33.37v17.11ZM1314.08,719.15c-37.35,14.78-73.55,29.1-111.53,44.13,38.01,14.97,74.2,29.23,111.53,43.93v-88.06Z"/>
    <path class="cls-2" d="M1140.63,452.01v-15h248.46c-71.22,65.67-142.18,131.1-214.75,198.03h209.57c.26,5.39.48,9.91.73,15.11h-249.32c71.67-66.38,142.1-131.61,213.93-198.14h-208.62Z"/>
    <path class="cls-2" d="M1137.1,292.94c-.7-69.17,52.8-125.02,124.44-126.32,70.69-1.29,126.13,59.16,126.07,127.65-.05,62.7-53.65,128.61-130.55,124.96-65.11-3.09-121.16-54.77-119.97-126.29ZM1262.47,183.1c-63.89-.72-110.05,49.15-110.98,107.88-.99,62.32,45.38,111.85,111.13,112.29,61.96.41,109.65-48.18,110.36-108.67.74-62.72-49.34-112.86-110.52-111.5Z"/>
    <path class="cls-2" d="M1383.66,863.99c-82.72-33.49-164.66-66.67-246.61-99.85l-.14-1.76c82.08-33.18,164.16-66.37,247.01-99.86v16.94c-27.85,11.05-55.87,22.17-84.07,33.36v100.69c27.6,10.99,55.34,22.03,83.81,33.37v17.11ZM1284.08,719.15c-37.35,14.78-73.55,29.1-111.53,44.13,38.01,14.97,74.2,29.23,111.53,43.93v-88.06Z"/>
    <path class="cls-6" d="M1110.63,452.01v-15h248.46c-71.22,65.67-142.18,131.1-214.75,198.03h209.57c.26,5.39.48,9.91.73,15.11h-249.32c71.67-66.38,142.1-131.61,213.93-198.14h-208.62Z"/>
    <path class="cls-6" d="M1107.1,292.94c-.7-69.17,52.8-125.02,124.44-126.32,70.69-1.29,126.13,59.16,126.07,127.65-.05,62.7-53.65,128.61-130.55,124.96-65.11-3.09-121.16-54.77-119.97-126.29ZM1232.47,183.1c-63.89-.72-110.05,49.15-110.98,107.88-.99,62.32,45.38,111.85,111.13,112.29,61.96.41,109.65-48.18,110.36-108.67.74-62.72-49.34-112.86-110.52-111.5Z"/>
    <path class="cls-6" d="M1353.66,863.99c-82.72-33.49-164.66-66.67-246.61-99.85l-.14-1.76c82.08-33.18,164.16-66.37,247.01-99.86v16.94c-27.85,11.05-55.87,22.17-84.07,33.36v100.69c27.6,10.99,55.34,22.03,83.81,33.37v17.11ZM1254.08,719.15c-37.35,14.78-73.55,29.1-111.53,44.13,38.01,14.97,74.2,29.23,111.53,43.93v-88.06Z"/>
    <path class="cls-7" d="M1080.63,452.01v-15h248.46c-71.22,65.67-142.18,131.1-214.75,198.03h209.57c.26,5.39.48,9.91.73,15.11h-249.32c71.67-66.38,142.1-131.61,213.93-198.14h-208.62Z"/>
    <path class="cls-7" d="M1077.1,292.94c-.7-69.17,52.8-125.02,124.44-126.32,70.69-1.29,126.13,59.16,126.07,127.65-.05,62.7-53.65,128.61-130.55,124.96-65.11-3.09-121.16-54.77-119.97-126.29ZM1202.47,183.1c-63.89-.72-110.05,49.15-110.98,107.88-.99,62.32,45.38,111.85,111.13,112.29,61.96.41,109.65-48.18,110.36-108.67.74-62.72-49.34-112.86-110.52-111.5Z"/>
    <path class="cls-7" d="M1323.66,863.99c-82.72-33.49-164.66-66.67-246.61-99.85l-.14-1.76c82.08-33.18,164.16-66.37,247.01-99.86v16.94c-27.85,11.05-55.87,22.17-84.07,33.36v100.69c27.6,10.99,55.34,22.03,83.81,33.37v17.11ZM1224.08,719.15c-37.35,14.78-73.55,29.1-111.53,44.13,38.01,14.97,74.2,29.23,111.53,43.93v-88.06Z"/>
    <path class="cls-5" d="M1050.63,452.01v-15h248.46c-71.22,65.67-142.18,131.1-214.75,198.03h209.57c.26,5.39.48,9.91.73,15.11h-249.32c71.67-66.38,142.1-131.61,213.93-198.14h-208.62Z"/>
    <path class="cls-5" d="M1047.1,292.94c-.7-69.17,52.8-125.02,124.44-126.32,70.69-1.29,126.13,59.16,126.07,127.65-.05,62.7-53.65,128.61-130.55,124.96-65.11-3.09-121.16-54.77-119.97-126.29ZM1172.47,183.1c-63.89-.72-110.05,49.15-110.98,107.88-.99,62.32,45.38,111.85,111.13,112.29,61.96.41,109.65-48.18,110.36-108.67.74-62.72-49.34-112.86-110.52-111.5Z"/>
    <path class="cls-5" d="M1293.66,863.99c-82.72-33.49-164.66-66.67-246.61-99.85l-.14-1.76c82.08-33.18,164.16-66.37,247.01-99.86v16.94c-27.85,11.05-55.87,22.17-84.07,33.36v100.69c27.6,10.99,55.34,22.03,83.81,33.37v17.11ZM1194.08,719.15c-37.35,14.78-73.55,29.1-111.53,44.13,38.01,14.97,74.2,29.23,111.53,43.93v-88.06Z"/>
    <path class="cls-5" d="M767.6,39.94c13.28,1.82,26.7,2.93,39.8,5.63,24.02,4.95,45.97,15.13,66.45,28.59,24.41,16.05,44.41,36.45,60.01,61.04,14.57,22.96,24.02,47.9,29.1,74.77,7.77,41.05,1.01,80.05-13.42,118.55-13.17,35.16-25.29,70.72-37.92,106.08-12.41,34.74-24.95,69.42-37.29,104.18-18.4,51.83-36.61,103.73-55.03,155.56-11.13,31.33-22.56,62.56-33.73,93.89-13.84,38.81-27.54,77.67-41.32,116.5-.65,1.85-1.43,3.65-2.5,6.37-4.76-1.72-9.14-3.31-13.97-5.06,61.71-173.52,123.2-346.43,184.7-519.34-.34-.2-.68-.39-1.02-.59-6.26,5.77-12.1,12.1-18.88,17.17-11.36,8.49-22.83,17.06-35.15,24-25.54,14.36-53.22,21.75-82.57,23.83-38.43,2.72-75.08-3.45-108.84-21.86-15.31-8.34-29.58-19.16-42.83-30.59-27.09-23.37-46-52.7-57.51-86.6-5.89-17.34-9.18-35.19-10.36-53.58-1.48-23.33.89-46.11,7.21-68.46,12.55-44.36,37.82-80.02,74-108.48,24.86-19.55,52.81-31.82,83.45-38.33,7.74-1.64,15.81-1.74,23.73-2.53,2.63-.26,5.26-.5,7.88-.74,5.33,0,10.66,0,15.99,0ZM950.18,246.39c1.3-105.56-82.8-185.83-180.89-190.33-113.44-5.2-199.62,85.79-199.19,190.54.43,104.8,84.35,184.29,178.6,188.99,115.92,5.78,203.83-87.43,201.49-189.2Z"/>
    <g>
      <g>
        <path class="cls-6" d="M859.12,806.71l-17.35-6.11,5.66-5.38,20.99,7.39-38.7,109.91-7-2.46,36.39-103.35Z"/>
        <path class="cls-6" d="M924.06,914.94l15.45,5.44-2.31,6.56-15.45-5.44-7.34,20.84-7-2.46,7.34-20.84-59.33-20.89.31-.87,97.84-68.93.88.31-30.39,86.29ZM917.07,912.47l22.89-65.01-.88-.31-68.21,48.07-.31.88,46.5,16.37Z"/>
      </g>
      <g>
        <path class="cls-8" d="M843.47,801.19l-17.35-6.11,5.66-5.38,20.99,7.39-38.7,109.91-7-2.46,36.39-103.35Z"/>
        <path class="cls-8" d="M908.41,909.42l15.45,5.44-2.31,6.56-15.45-5.44-7.34,20.84-7-2.46,7.34-20.84-59.33-20.89.31-.87,97.84-68.93.88.31-30.39,86.29ZM901.41,906.96l22.89-65.01-.88-.31-68.21,48.07-.31.88,46.5,16.37Z"/>
      </g>
      <g>
        <g>
          <path class="cls-8" d="M991.9,867.23c2.58,2.37,4.26,4.89,5.05,7.58.78,2.69.66,5.5-.37,8.43-1.51,4.29-4.09,7.27-7.75,8.93-3.65,1.66-7.73,1.7-12.24.12-3.68-1.29-6.42-3.32-8.25-6.08-1.82-2.75-2.56-6.02-2.21-9.79l5.91-.71c-.32,3.06.05,5.6,1.1,7.6,1.05,2.01,2.75,3.42,5.11,4.25,2.78.98,5.32.97,7.6-.03,2.28-1,3.88-2.78,4.79-5.35.73-2.08.77-4.1.11-6.07-.66-1.96-2.01-3.9-4.06-5.82l-4.82-4.42c-2.65-2.39-4.37-4.87-5.17-7.44s-.7-5.29.3-8.13c1.17-3.31,3.36-5.62,6.59-6.92,3.23-1.3,6.75-1.28,10.58.07,2.8.99,5.02,2.44,6.65,4.35,1.63,1.91,2.61,4.23,2.94,6.95l-5.62,1.32c-.41-2.17-1.1-3.93-2.09-5.26-.99-1.34-2.3-2.3-3.93-2.87-2.08-.73-4.01-.7-5.79.11-1.78.81-3.01,2.2-3.71,4.17-.58,1.66-.58,3.27.02,4.84.59,1.57,1.8,3.2,3.61,4.89l5.63,5.28Z"/>
          <path class="cls-8" d="M996.09,897.82l16.43-46.65,24.6,8.66-1.78,5.07-19.06-6.71-4.71,13.38,19.06,6.71-1.82,5.16-19.06-6.71-6.3,17.88,19.06,6.71-1.82,5.16-24.6-8.66Z"/>
          <path class="cls-8" d="M1034.98,911.52l14.57-41.36-13.19-4.65,1.86-5.29,31.93,11.24-1.86,5.29-13.13-4.62-14.57,41.36-5.61-1.97Z"/>
          <path class="cls-8" d="M1056.64,919.14l16.43-46.65,24.6,8.66-1.78,5.07-19.06-6.71-4.71,13.38,19.06,6.71-1.82,5.16-19.06-6.71-6.3,17.88,19.06,6.71-1.82,5.16-24.6-8.66Z"/>
          <path class="cls-8" d="M1108.47,939.44l-2.69-38.63-17.03,29.64-5.42-1.91,26.54-45.17,2.73,44.34,29.9-32.84-7.62,51.83-5.42-1.91,5.24-33.79-26.24,28.44Z"/>
          <path class="cls-8" d="M1138.8,948.08l16.43-46.65,9.72,3.42c3.42,1.2,5.88,2.27,7.38,3.19,1.5.92,2.69,2.01,3.56,3.28,1.1,1.63,1.75,3.45,1.96,5.47.21,2.02-.05,4.06-.78,6.12-.87,2.46-2.18,4.32-3.95,5.56-1.76,1.24-3.89,1.8-6.37,1.66,2.61,1.4,4.36,3.4,5.24,6.02.88,2.62.77,5.48-.33,8.61-.66,1.87-1.63,3.53-2.9,4.99-1.28,1.46-2.74,2.58-4.37,3.37-1.77.83-3.72,1.17-5.84,1.02-2.12-.15-5.46-1.03-10.03-2.64l-9.72-3.42ZM1158.95,908.14l-5.5,15.61,4.3,1.52c3.95,1.39,6.94,1.8,8.95,1.22,2.02-.58,3.51-2.23,4.46-4.95,1.05-2.99,1.04-5.36-.03-7.08-1.08-1.73-3.71-3.33-7.89-4.8l-4.3-1.52ZM1151.91,928.12l-5.99,17.02,4.3,1.52c2.95,1.04,5.12,1.67,6.51,1.9s2.58.19,3.57-.1c1.19-.34,2.28-1.02,3.26-2.04.98-1.02,1.73-2.26,2.24-3.72.6-1.7.79-3.29.57-4.78-.22-1.49-.83-2.8-1.83-3.94-.59-.71-1.34-1.33-2.24-1.86-.91-.54-2.4-1.17-4.46-1.89l-1.62-.57-4.3-1.52Z"/>
          <path class="cls-8" d="M1172.21,959.84l16.43-46.65,10.96,3.86c3.12,1.1,5.35,2.08,6.68,2.94,1.33.86,2.4,1.91,3.21,3.15,1,1.57,1.56,3.4,1.69,5.48.13,2.09-.2,4.23-.98,6.44-1.35,3.82-3.44,6.35-6.27,7.59-2.84,1.23-6.31,1.13-10.43-.33l-.99-.35,9.98,28.52-7.04-2.48-9.18-28.23-.8-.28-7.83,22.24-5.42-1.91ZM1192.4,919.78l-5.5,15.61,4.24,1.49c4.33,1.53,7.43,1.99,9.29,1.39,1.86-.6,3.28-2.29,4.26-5.07,1.05-3,1.04-5.36-.05-7.09-1.09-1.73-3.75-3.35-8-4.84l-4.24-1.49Z"/>
          <path class="cls-8" d="M1259.79,964.57c-1.17,3.33-2.9,6.26-5.17,8.78-2.27,2.52-4.99,4.51-8.16,5.97-3.17,1.46-6.51,2.28-10.01,2.44-3.51.16-6.91-.34-10.21-1.5s-6.25-2.9-8.86-5.22-4.7-5.04-6.25-8.16c-1.57-3.15-2.45-6.43-2.65-9.82-.2-3.39.28-6.74,1.44-10.06,1.17-3.34,2.91-6.27,5.19-8.79,2.29-2.53,5.03-4.53,8.22-6,3.14-1.45,6.46-2.25,9.95-2.4,3.49-.15,6.89.35,10.18,1.51,3.32,1.17,6.29,2.91,8.93,5.22s4.73,5.02,6.26,8.12c1.55,3.13,2.42,6.39,2.61,9.78.19,3.4-.31,6.78-1.49,10.13ZM1228.07,975.04c2.55.9,5.15,1.27,7.8,1.12,2.65-.15,5.22-.83,7.72-2.03,2.47-1.18,4.59-2.76,6.37-4.74,1.77-1.98,3.12-4.26,4.03-6.86.92-2.61,1.31-5.27,1.17-7.97-.14-2.7-.79-5.27-1.96-7.71-1.18-2.47-2.76-4.59-4.73-6.36-1.97-1.77-4.24-3.11-6.81-4.01-2.59-.91-5.22-1.3-7.87-1.16-2.65.14-5.19.81-7.62,2.01-2.48,1.2-4.61,2.81-6.39,4.81-1.78,2-3.13,4.31-4.05,6.92-.91,2.59-1.3,5.2-1.16,7.83.14,2.63.8,5.2,1.99,7.72,1.21,2.53,2.79,4.67,4.74,6.43s4.21,3.09,6.78,4Z"/>
        </g>
        <g>
          <path class="cls-5" d="M971.3,955.03l-1.86,5.29-28.11-9.9,13.97-8.23c.93-.53,2.27-1.32,4.01-2.35,10.75-6.31,16.75-11.26,18.01-14.83.85-2.4.69-4.66-.46-6.77-1.15-2.11-3.1-3.65-5.84-4.62-2.95-1.04-5.51-1.01-7.66.08-2.15,1.09-3.77,3.19-4.87,6.29l-.19.54-5.23-1.84c.05-.15.12-.36.19-.65.08-.28.14-.49.18-.62,1.56-4.42,4.05-7.4,7.49-8.95,3.43-1.55,7.46-1.51,12.07.11,4.52,1.59,7.66,3.98,9.42,7.17,1.76,3.18,1.92,6.81.49,10.86-1.03,2.93-2.97,5.66-5.8,8.18-2.84,2.52-7.3,5.41-13.38,8.66l-10.11,5.32,17.68,6.23Z"/>
          <path class="cls-5" d="M980.66,950.99l5.67,2-.19.54c-.84,2.38-.73,4.54.33,6.48s2.93,3.38,5.61,4.32c3.08,1.08,5.73,1.14,7.96.17,2.23-.97,3.85-2.89,4.86-5.76,1.06-3.02,1.01-5.6-.16-7.74-1.17-2.14-3.43-3.8-6.79-4.99-.43-.15-.75-.26-.98-.33-.23-.07-.45-.13-.67-.18l1.6-4.56c.17.06.41.16.74.3.32.14.57.24.74.3,3.21,1.13,5.88,1.28,8.01.46,2.13-.83,3.68-2.62,4.65-5.38.86-2.44.8-4.64-.18-6.6-.98-1.96-2.75-3.39-5.3-4.28-2.72-.96-5.07-1.04-7.06-.25-1.99.79-3.49,2.43-4.51,4.91l-5.47-1.96c1.63-3.94,4.05-6.55,7.29-7.82,3.23-1.27,7.08-1.13,11.54.45,4.29,1.51,7.3,3.82,9.02,6.94,1.72,3.11,1.91,6.57.57,10.37-.97,2.76-2.52,4.84-4.65,6.24-2.13,1.4-4.62,1.98-7.47,1.74,2.62,1.45,4.36,3.46,5.21,6.04.86,2.58.73,5.45-.37,8.59-1.49,4.23-4.04,7.06-7.66,8.49-3.62,1.44-7.88,1.29-12.79-.44-4.31-1.52-7.36-3.83-9.14-6.94s-2.02-6.52-.71-10.24l.3-.86Z"/>
          <path class="cls-5" d="M1013.22,975.74l17.39-49.39,4.88,1.72-8.71,24.73c1.91-1.43,3.91-2.29,6-2.58,2.08-.29,4.28-.03,6.6.78,3.44,1.21,5.81,3.07,7.1,5.58,1.29,2.51,1.36,5.39.22,8.64l-6.99,19.85-5.1-1.8,6.05-17.18c1.04-2.95,1.19-5.37.45-7.24-.74-1.87-2.4-3.26-4.99-4.18-1.49-.52-2.94-.73-4.35-.62s-2.7.52-3.86,1.24c-.89.55-1.63,1.26-2.24,2.15-.61.88-1.34,2.54-2.19,4.96l-5.31,15.07-4.94-1.74Z"/>
          <path class="cls-5" d="M1067.7,975.76l14.88,5.24-1.77,5.03-14.88-5.24,1.77-5.03Z"/>
          <path class="cls-5" d="M1112.7,1012.17c-5.03-1.77-8.24-5.32-9.63-10.64-1.38-5.32-.75-11.76,1.91-19.3,2.64-7.5,6.16-12.89,10.55-16.18,4.39-3.29,9.09-4.05,14.08-2.29,5.1,1.8,8.33,5.32,9.71,10.58,1.37,5.26.72,11.69-1.96,19.3-2.67,7.58-6.19,13.01-10.55,16.29-4.36,3.28-9.06,4.03-14.1,2.25ZM1114.24,1007.59c3.42,1.2,6.6.46,9.55-2.24,2.94-2.7,5.55-7.26,7.81-13.67,2.27-6.44,3.1-11.64,2.51-15.61-.6-3.97-2.6-6.56-6.02-7.76-3.29-1.16-6.46-.35-9.51,2.44-3.05,2.78-5.66,7.27-7.83,13.45-2.19,6.22-2.98,11.39-2.36,15.5.62,4.11,2.57,6.74,5.87,7.9Z"/>
          <path class="cls-5" d="M1151.59,994.85c1.42-.36,2.77-.52,4.07-.46,1.3.05,2.59.3,3.89.76,4.18,1.47,7.11,4,8.77,7.58,1.66,3.58,1.74,7.52.23,11.81-1.65,4.7-4.45,7.91-8.38,9.66-3.93,1.74-8.43,1.72-13.48-.06-4.27-1.5-7.22-4.12-8.86-7.85-1.64-3.73-1.65-7.88-.04-12.44,1.55-4.4,6.7-9.71,15.46-15.94l.43-.31,15.94-11.29,3.95,4.25-21.97,14.29ZM1143.36,1006.31c-1.11,3.14-1.11,5.94-.01,8.38,1.1,2.44,3.12,4.18,6.08,5.22s5.54.9,7.96-.37c2.42-1.26,4.16-3.43,5.25-6.51,1.12-3.19,1.13-6.01.02-8.48-1.11-2.47-3.21-4.25-6.29-5.33-2.78-.98-5.37-.81-7.77.5-2.4,1.32-4.14,3.52-5.22,6.6Z"/>
          <path class="cls-5" d="M1169.39,1030.73l17.39-49.39,4.88,1.72-8.71,24.73c1.91-1.43,3.91-2.29,6-2.58,2.08-.29,4.28-.03,6.6.78,3.44,1.21,5.81,3.07,7.1,5.58,1.29,2.51,1.36,5.39.22,8.64l-6.99,19.85-5.1-1.8,6.05-17.18c1.04-2.95,1.19-5.37.45-7.24-.74-1.87-2.4-3.26-4.99-4.18-1.49-.52-2.94-.73-4.35-.62s-2.7.52-3.86,1.24c-.89.55-1.63,1.26-2.24,2.15-.61.88-1.34,2.54-2.19,4.96l-5.31,15.07-4.94-1.74Z"/>
        </g>
      </g>
    </g>
    <path class="cls-1" d="M740.29,56.31c-113.44-5.2-199.62,85.79-199.19,190.54.43,104.8,84.35,184.29,178.6,188.99,115.92,5.78,203.83-87.43,201.49-189.2,1.3-105.56-82.8-185.83-180.89-190.33Z"/>
    <path class="cls-7" d="M933.96,210.22c-5.08-26.86-14.53-51.8-29.1-74.76-15.6-24.59-35.61-45-60.01-61.04-20.48-13.47-42.43-23.64-66.45-28.59-13.1-2.7-26.52-3.8-39.8-5.63h-15.99c-2.63.25-5.26.48-7.88.74-7.92.8-15.99.89-23.73,2.53-30.64,6.51-58.59,18.78-83.45,38.33-36.18,28.45-61.45,64.11-74,108.48-6.32,22.35-8.7,45.13-7.21,68.46,1.17,18.39,4.47,36.24,10.36,53.58,11.51,33.9,30.43,63.23,57.51,86.6,13.25,11.43,27.52,22.25,42.83,30.59,33.76,18.41,70.41,24.58,108.84,21.86,29.36-2.08,57.04-9.48,82.57-23.83,12.33-6.93,23.79-15.51,35.15-24,6.78-5.07,12.62-11.4,18.88-17.17.34.2.68.39,1.02.59-60.38,169.77-120.75,339.54-181.33,509.88l14.01,5.08c8.23-23,29.24-82.09,40.41-113.43,11.17-31.32,22.6-62.55,33.73-93.89,18.41-51.83,36.62-103.73,55.03-155.56,12.34-34.76,24.89-69.44,37.29-104.18,12.63-35.36,24.74-70.92,37.92-106.08,14.43-38.51,21.18-77.5,13.42-118.55ZM719.69,435.84c-94.24-4.7-178.17-84.19-178.6-188.99-.43-104.74,85.76-195.73,199.19-190.54,98.09,4.49,182.2,84.77,180.89,190.33,2.34,101.77-85.56,194.99-201.49,189.2Z"/>
    <path class="cls-1" d="M711.29,56.56c-113.44-5.2-199.62,85.79-199.19,190.54.43,104.8,84.35,184.29,178.6,188.99,115.92,5.78,203.83-87.43,201.49-189.2,1.3-105.56-82.8-185.83-180.89-190.33Z"/>
    <path class="cls-6" d="M904.96,210.47c-5.08-26.86-14.53-51.8-29.1-74.77-15.6-24.59-35.61-45-60.01-61.04-20.48-13.47-42.43-23.64-66.45-28.59-13.1-2.7-26.52-3.8-39.8-5.63h-15.99c-2.63.25-5.26.48-7.88.74-7.92.8-15.99.89-23.73,2.53-30.64,6.51-58.59,18.78-83.45,38.33-36.18,28.45-61.45,64.11-74,108.48-6.32,22.35-8.7,45.13-7.21,68.46,1.17,18.39,4.47,36.24,10.36,53.58,11.51,33.9,30.43,63.23,57.51,86.6,13.25,11.43,27.52,22.25,42.83,30.59,33.76,18.41,70.41,24.58,108.84,21.86,29.36-2.08,57.04-9.48,82.57-23.83,12.33-6.93,23.79-15.51,35.15-24,6.78-5.07,12.62-11.4,18.88-17.17.34.2.68.39,1.02.59-59.25,166.6-118.5,333.2-177.94,500.35l14.15,5.13c12.28-34.66,24.53-69.32,36.87-103.95,11.17-31.32,22.6-62.55,33.73-93.89,18.41-51.83,36.62-103.73,55.03-155.56,12.34-34.76,24.89-69.44,37.29-104.18,12.63-35.36,24.74-70.92,37.92-106.08,14.43-38.51,21.18-77.5,13.42-118.55ZM690.69,436.08c-94.24-4.7-178.17-84.19-178.6-188.99-.43-104.74,85.76-195.73,199.19-190.54,98.09,4.49,182.2,84.77,180.89,190.33,2.34,101.77-85.56,194.99-201.49,189.2Z"/>
    <path class="cls-1" d="M682.29,56.8c-113.44-5.2-199.62,85.79-199.19,190.54.43,104.8,84.35,184.29,178.6,188.99,115.92,5.78,203.83-87.43,201.49-189.2,1.3-105.56-82.8-185.83-180.89-190.33Z"/>
    <path class="cls-2" d="M875.96,210.71c-5.08-26.86-14.53-51.8-29.1-74.77-15.6-24.59-35.61-45-60.01-61.04-20.48-13.47-42.43-23.64-66.45-28.59-13.1-2.7-26.52-3.8-39.8-5.63h-15.99c-2.63.25-5.26.48-7.88.74-7.92.8-15.99.89-23.73,2.53-30.64,6.51-58.59,18.78-83.45,38.33-36.18,28.45-61.45,64.11-74,108.48-6.32,22.35-8.7,45.13-7.21,68.46,1.17,18.39,4.47,36.24,10.36,53.58,11.51,33.9,30.43,63.23,57.51,86.6,13.25,11.43,27.52,22.25,42.83,30.59,33.76,18.41,70.41,24.58,108.84,21.86,29.36-2.08,57.04-9.48,82.57-23.83,12.33-6.93,23.79-15.51,35.15-24,6.78-5.07,12.62-11.4,18.88-17.17.34.2.68.39,1.02.59-58.12,163.43-116.25,326.87-174.55,490.81l14.14,5.13c11.15-31.48,22.28-62.96,33.5-94.42,11.17-31.32,22.6-62.55,33.73-93.89,18.41-51.83,36.62-103.73,55.03-155.56,12.34-34.76,24.89-69.44,37.29-104.18,12.63-35.36,24.74-70.92,37.92-106.08,14.43-38.51,21.18-77.5,13.42-118.55ZM661.69,436.33c-94.24-4.7-178.17-84.19-178.6-188.99-.43-104.74,85.76-195.73,199.19-190.54,98.09,4.49,182.2,84.77,180.89,190.33,2.34,101.77-85.56,194.99-201.49,189.2Z"/>
    <path class="cls-1" d="M653.29,57.05c-113.44-5.2-199.62,85.79-199.19,190.54.43,104.8,84.35,184.29,178.6,188.99,115.92,5.78,203.83-87.43,201.49-189.2,1.3-105.56-82.8-185.83-180.89-190.33Z"/>
    <path class="cls-4" d="M846.96,210.96c-5.08-26.86-14.53-51.8-29.1-74.77-15.6-24.59-35.61-45-60.01-61.04-20.48-13.47-42.43-23.64-66.45-28.59-13.1-2.7-26.52-3.8-39.8-5.63h-15.99c-2.63.25-5.26.48-7.88.74-7.92.8-15.99.89-23.73,2.53-30.64,6.51-58.59,18.78-83.45,38.33-36.18,28.45-61.45,64.11-74,108.48-6.32,22.35-8.7,45.13-7.21,68.46,1.17,18.39,4.47,36.24,10.36,53.58,11.51,33.9,30.43,63.23,57.51,86.6,13.25,11.43,27.52,22.25,42.83,30.59,33.76,18.41,70.41,24.58,108.84,21.86,29.36-2.08,57.04-9.48,82.57-23.83,12.33-6.93,23.79-15.51,35.15-24,6.78-5.07,12.62-11.4,18.88-17.17.34.2.68.39,1.02.59-57,160.26-113.99,320.53-171.16,481.28l14.13,5.12c10.02-28.3,20.04-56.6,30.12-84.88,11.17-31.32,22.6-62.55,33.73-93.89,18.41-51.83,36.62-103.73,55.03-155.56,12.34-34.76,24.89-69.44,37.29-104.18,12.63-35.36,24.74-70.92,37.92-106.08,14.43-38.51,21.18-77.5,13.42-118.55ZM632.69,436.58c-94.24-4.7-178.17-84.19-178.6-188.99-.43-104.74,85.76-195.73,199.19-190.54,98.09,4.49,182.2,84.77,180.89,190.33,2.34,101.77-85.56,194.99-201.49,189.2Z"/>
  </g>
</svg>